  0
SECTION
  2
HEADER
  9
$ACADVER
  1
AC1009
  9
$EXTMIN
 10
0.0
 20
0.0
 30
0.0
  9
$EXTMAX
 10
1000.0
 20
1000.0
 30
0.0
  9
$FILLMODE
 70
 0
  9
$SPLFRAME
 70
 1
  0
ENDSEC
  0
SECTION
  2
TABLES
  0
TABLE
  2
LAYER
 70
1
  0
LAYER
  2
0
 70
     0
 62
     7
  6
CONTINUOUS
  0
ENDTAB
  0
ENDSEC
  0
SECTION
  2
ENTITIES
  0
LINE
  8
0
 62
     0
 10
345.958
 20
95.8603
 30
0.0
 11
346.115
 21
95.8536
 31
0.0
  0
LINE
  8
0
 62
     0
 10
346.115
 20
95.8536
 30
0.0
 11
346.272
 21
95.8356
 31
0.0
  0
LINE
  8
0
 62
     0
 10
346.272
 20
95.8356
 30
0.0
 11
346.425
 21
95.8053
 31
0.0
  0
LINE
  8
0
 62
     0
 10
346.425
 20
95.8053
 30
0.0
 11
346.577
 21
95.7626
 31
0.0
  0
LINE
  8
0
 62
     0
 10
346.577
 20
95.7626
 30
0.0
 11
346.724
 21
95.7076
 31
0.0
  0
LINE
  8
0
 62
     0
 10
346.724
 20
95.7076
 30
0.0
 11
346.866
 21
95.6426
 31
0.0
  0
LINE
  8
0
 62
     0
 10
346.866
 20
95.6426
 30
0.0
 11
347.004
 21
95.5657
 31
0.0
  0
LINE
  8
0
 62
     0
 10
347.004
 20
95.5657
 30
0.0
 11
347.135
 21
95.4786
 31
0.0
  0
LINE
  8
0
 62
     0
 10
347.135
 20
95.4786
 30
0.0
 11
347.258
 21
95.3809
 31
0.0
  0
LINE
  8
0
 62
     0
 10
347.258
 20
95.3809
 30
0.0
 11
347.373
 21
95.2747
 31
0.0
  0
LINE
  8
0
 62
     0
 10
347.373
 20
95.2747
 30
0.0
 11
347.479
 21
95.159
 31
0.0
  0
LINE
  8
0
 62
     0
 10
347.479
 20
95.159
 30
0.0
 11
347.577
 21
95.0366
 31
0.0
  0
LINE
  8
0
 62
     0
 10
347.577
 20
95.0366
 30
0.0
 11
347.664
 21
94.9053
 31
0.0
  0
LINE
  8
0
 62
     0
 10
347.664
 20
94.9053
 30
0.0
 11
347.741
 21
94.7678
 31
0.0
  0
LINE
  8
0
 62
     0
 10
347.741
 20
94.7678
 30
0.0
 11
347.806
 21
94.6256
 31
0.0
  0
LINE
  8
0
 62
     0
 10
347.806
 20
94.6256
 30
0.0
 11
347.861
 21
94.4795
 31
0.0
  0
LINE
  8
0
 62
     0
 10
347.861
 20
94.4795
 30
0.0
 11
347.904
 21
94.3268
 31
0.0
  0
LINE
  8
0
 62
     0
 10
347.904
 20
94.3268
 30
0.0
 11
347.934
 21
94.1737
 31
0.0
  0
LINE
  8
0
 62
     0
 10
347.934
 20
94.1737
 30
0.0
 11
347.952
 21
94.0167
 31
0.0
  0
LINE
  8
0
 62
     0
 10
347.952
 20
94.0167
 30
0.0
 11
347.959
 21
93.8597
 31
0.0
  0
LINE
  8
0
 62
     0
 10
347.959
 20
93.8597
 30
0.0
 11
347.959
 21
2.41019
 31
0.0
  0
LINE
  8
0
 62
     0
 10
347.959
 20
2.41019
 30
0.0
 11
347.952
 21
2.25309
 31
0.0
  0
LINE
  8
0
 62
     0
 10
347.952
 20
2.25309
 30
0.0
 11
347.934
 21
2.09737
 31
0.0
  0
LINE
  8
0
 62
     0
 10
347.934
 20
2.09737
 30
0.0
 11
347.904
 21
1.94303
 31
0.0
  0
LINE
  8
0
 62
     0
 10
347.904
 20
1.94303
 30
0.0
 11
347.861
 21
1.79145
 31
0.0
  0
LINE
  8
0
 62
     0
 10
347.861
 20
1.79145
 30
0.0
 11
347.806
 21
1.644
 31
0.0
  0
LINE
  8
0
 62
     0
 10
347.806
 20
1.644
 30
0.0
 11
347.741
 21
1.50206
 31
0.0
  0
LINE
  8
0
 62
     0
 10
347.741
 20
1.50206
 30
0.0
 11
347.664
 21
1.36563
 31
0.0
  0
LINE
  8
0
 62
     0
 10
347.664
 20
1.36563
 30
0.0
 11
347.577
 21
1.23472
 31
0.0
  0
LINE
  8
0
 62
     0
 10
347.577
 20
1.23472
 30
0.0
 11
347.479
 21
1.1107
 31
0.0
  0
LINE
  8
0
 62
     0
 10
347.479
 20
1.1107
 30
0.0
 11
347.373
 21
0.994943
 31
0.0
  0
LINE
  8
0
 62
     0
 10
347.373
 20
0.994943
 30
0.0
 11
347.258
 21
0.888834
 31
0.0
  0
LINE
  8
0
 62
     0
 10
347.258
 20
0.888834
 30
0.0
 11
347.135
 21
0.790995
 31
0.0
  0
LINE
  8
0
 62
     0
 10
347.135
 20
0.790995
 30
0.0
 11
347.004
 21
0.704176
 31
0.0
  0
LINE
  8
0
 62
     0
 10
347.004
 20
0.704176
 30
0.0
 11
346.866
 21
0.627006
 31
0.0
  0
LINE
  8
0
 62
     0
 10
346.866
 20
0.627006
 30
0.0
 11
346.724
 21
0.56224
 31
0.0
  0
LINE
  8
0
 62
     0
 10
346.724
 20
0.56224
 30
0.0
 11
346.577
 21
0.507118
 31
0.0
  0
LINE
  8
0
 62
     0
 10
346.577
 20
0.507118
 30
0.0
 11
346.425
 21
0.4644
 31
0.0
  0
LINE
  8
0
 62
     0
 10
346.425
 20
0.4644
 30
0.0
 11
346.272
 21
0.434082
 31
0.0
  0
LINE
  8
0
 62
     0
 10
346.272
 20
0.434082
 30
0.0
 11
346.115
 21
0.416168
 31
0.0
  0
LINE
  8
0
 62
     0
 10
346.115
 20
0.416168
 30
0.0
 11
345.958
 21
0.410655
 31
0.0
  0
LINE
  8
0
 62
     0
 10
345.958
 20
0.410655
 30
0.0
 11
2.096
 21
0.410655
 31
0.0
  0
LINE
  8
0
 62
     0
 10
2.096
 20
0.410655
 30
0.0
 11
1.9389
 21
0.416168
 31
0.0
  0
LINE
  8
0
 62
     0
 10
1.9389
 20
0.416168
 30
0.0
 11
1.7818
 21
0.434082
 31
0.0
  0
LINE
  8
0
 62
     0
 10
1.7818
 20
0.434082
 30
0.0
 11
1.62884
 21
0.4644
 31
0.0
  0
LINE
  8
0
 62
     0
 10
1.62884
 20
0.4644
 30
0.0
 11
1.47588
 21
0.507118
 31
0.0
  0
LINE
  8
0
 62
     0
 10
1.47588
 20
0.507118
 30
0.0
 11
1.32981
 21
0.56224
 31
0.0
  0
LINE
  8
0
 62
     0
 10
1.32981
 20
0.56224
 30
0.0
 11
1.18787
 21
0.627006
 31
0.0
  0
LINE
  8
0
 62
     0
 10
1.18787
 20
0.627006
 30
0.0
 11
1.05006
 21
0.704176
 31
0.0
  0
LINE
  8
0
 62
     0
 10
1.05006
 20
0.704176
 30
0.0
 11
0.919152
 21
0.790995
 31
0.0
  0
LINE
  8
0
 62
     0
 10
0.919152
 20
0.790995
 30
0.0
 11
0.796505
 21
0.888834
 31
0.0
  0
LINE
  8
0
 62
     0
 10
0.796505
 20
0.888834
 30
0.0
 11
0.680752
 21
0.994943
 31
0.0
  0
LINE
  8
0
 62
     0
 10
0.680752
 20
0.994943
 30
0.0
 11
0.574643
 21
1.1107
 31
0.0
  0
LINE
  8
0
 62
     0
 10
0.574643
 20
1.1107
 30
0.0
 11
0.4768
 21
1.23472
 31
0.0
  0
LINE
  8
0
 62
     0
 10
0.4768
 20
1.23472
 30
0.0
 11
0.389985
 21
1.36563
 31
0.0
  0
LINE
  8
0
 62
     0
 10
0.389985
 20
1.36563
 30
0.0
 11
0.312815
 21
1.50206
 31
0.0
  0
LINE
  8
0
 62
     0
 10
0.312815
 20
1.50206
 30
0.0
 11
0.248047
 21
1.644
 31
0.0
  0
LINE
  8
0
 62
     0
 10
0.248047
 20
1.644
 30
0.0
 11
0.192925
 21
1.79145
 31
0.0
  0
LINE
  8
0
 62
     0
 10
0.192925
 20
1.79145
 30
0.0
 11
0.150206
 21
1.94303
 31
0.0
  0
LINE
  8
0
 62
     0
 10
0.150206
 20
1.94303
 30
0.0
 11
0.119889
 21
2.09737
 31
0.0
  0
LINE
  8
0
 62
     0
 10
0.119889
 20
2.09737
 30
0.0
 11
0.101975
 21
2.25309
 31
0.0
  0
LINE
  8
0
 62
     0
 10
0.101975
 20
2.25309
 30
0.0
 11
0.0950846
 21
2.40881
 31
0.0
  0
LINE
  8
0
 62
     0
 10
0.0950846
 20
2.40881
 30
0.0
 11
0.0950846
 21
93.8597
 31
0.0
  0
LINE
  8
0
 62
     0
 10
0.0950846
 20
93.8597
 30
0.0
 11
0.101975
 21
94.0167
 31
0.0
  0
LINE
  8
0
 62
     0
 10
0.101975
 20
94.0167
 30
0.0
 11
0.119889
 21
94.1737
 31
0.0
  0
LINE
  8
0
 62
     0
 10
0.119889
 20
94.1737
 30
0.0
 11
0.150206
 21
94.3268
 31
0.0
  0
LINE
  8
0
 62
     0
 10
0.150206
 20
94.3268
 30
0.0
 11
0.192925
 21
94.4795
 31
0.0
  0
LINE
  8
0
 62
     0
 10
0.192925
 20
94.4795
 30
0.0
 11
0.248047
 21
94.6256
 31
0.0
  0
LINE
  8
0
 62
     0
 10
0.248047
 20
94.6256
 30
0.0
 11
0.312815
 21
94.7678
 31
0.0
  0
LINE
  8
0
 62
     0
 10
0.312815
 20
94.7678
 30
0.0
 11
0.389985
 21
94.9053
 31
0.0
  0
LINE
  8
0
 62
     0
 10
0.389985
 20
94.9053
 30
0.0
 11
0.4768
 21
95.0366
 31
0.0
  0
LINE
  8
0
 62
     0
 10
0.4768
 20
95.0366
 30
0.0
 11
0.574643
 21
95.159
 31
0.0
  0
LINE
  8
0
 62
     0
 10
0.574643
 20
95.159
 30
0.0
 11
0.680752
 21
95.2747
 31
0.0
  0
LINE
  8
0
 62
     0
 10
0.680752
 20
95.2747
 30
0.0
 11
0.796505
 21
95.3809
 31
0.0
  0
LINE
  8
0
 62
     0
 10
0.796505
 20
95.3809
 30
0.0
 11
0.919152
 21
95.4786
 31
0.0
  0
LINE
  8
0
 62
     0
 10
0.919152
 20
95.4786
 30
0.0
 11
1.05006
 21
95.5657
 31
0.0
  0
LINE
  8
0
 62
     0
 10
1.05006
 20
95.5657
 30
0.0
 11
1.18787
 21
95.6426
 31
0.0
  0
LINE
  8
0
 62
     0
 10
1.18787
 20
95.6426
 30
0.0
 11
1.32981
 21
95.7076
 31
0.0
  0
LINE
  8
0
 62
     0
 10
1.32981
 20
95.7076
 30
0.0
 11
1.47588
 21
95.7626
 31
0.0
  0
LINE
  8
0
 62
     0
 10
1.47588
 20
95.7626
 30
0.0
 11
1.62884
 21
95.8053
 31
0.0
  0
LINE
  8
0
 62
     0
 10
1.62884
 20
95.8053
 30
0.0
 11
1.7818
 21
95.8356
 31
0.0
  0
LINE
  8
0
 62
     0
 10
1.7818
 20
95.8356
 30
0.0
 11
1.9389
 21
95.8536
 31
0.0
  0
LINE
  8
0
 62
     0
 10
1.9389
 20
95.8536
 30
0.0
 11
2.096
 21
95.8603
 31
0.0
  0
LINE
  8
0
 62
     0
 10
2.096
 20
95.8603
 30
0.0
 11
345.958
 21
95.8603
 31
0.0
  0
LINE
  8
0
 62
     0
 10
124.263
 20
16.9361
 30
0.0
 11
124.263
 21
15.9356
 31
0.0
  0
LINE
  8
0
 62
     0
 10
124.263
 20
15.9356
 30
0.0
 11
123.464
 21
15.9356
 31
0.0
  0
LINE
  8
0
 62
     0
 10
123.464
 20
15.9356
 30
0.0
 11
123.464
 21
13.0362
 31
0.0
  0
LINE
  8
0
 62
     0
 10
123.464
 20
13.0362
 30
0.0
 11
124.263
 21
13.0362
 31
0.0
  0
LINE
  8
0
 62
     0
 10
124.263
 20
13.0362
 30
0.0
 11
124.263
 21
12.2356
 31
0.0
  0
LINE
  8
0
 62
     0
 10
124.263
 20
12.2356
 30
0.0
 11
84.4381
 21
12.2356
 31
0.0
  0
LINE
  8
0
 62
     0
 10
84.4381
 20
12.2356
 30
0.0
 11
84.4381
 21
15.4657
 31
0.0
  0
LINE
  8
0
 62
     0
 10
84.4381
 20
15.4657
 30
0.0
 11
77.888
 21
15.4657
 31
0.0
  0
LINE
  8
0
 62
     0
 10
77.888
 20
15.4657
 30
0.0
 11
77.888
 21
12.2356
 31
0.0
  0
LINE
  8
0
 62
     0
 10
77.888
 20
12.2356
 30
0.0
 11
77.064
 21
12.2356
 31
0.0
  0
LINE
  8
0
 62
     0
 10
77.064
 20
12.2356
 30
0.0
 11
77.064
 21
9.63524
 31
0.0
  0
LINE
  8
0
 62
     0
 10
77.064
 20
9.63524
 30
0.0
 11
77.888
 21
9.63524
 31
0.0
  0
LINE
  8
0
 62
     0
 10
77.888
 20
9.63524
 30
0.0
 11
77.888
 21
3.36655
 31
0.0
  0
LINE
  8
0
 62
     0
 10
77.888
 20
3.36655
 30
0.0
 11
79.6135
 21
3.36655
 31
0.0
  0
LINE
  8
0
 62
     0
 10
79.6135
 20
3.36655
 30
0.0
 11
79.6135
 21
2.1649
 31
0.0
  0
LINE
  8
0
 62
     0
 10
79.6135
 20
2.1649
 30
0.0
 11
82.714
 21
2.1649
 31
0.0
  0
LINE
  8
0
 62
     0
 10
82.714
 20
2.1649
 30
0.0
 11
82.714
 21
3.36655
 31
0.0
  0
LINE
  8
0
 62
     0
 10
82.714
 20
3.36655
 30
0.0
 11
84.4381
 21
3.36655
 31
0.0
  0
LINE
  8
0
 62
     0
 10
84.4381
 20
3.36655
 30
0.0
 11
84.4381
 21
7.83551
 31
0.0
  0
LINE
  8
0
 62
     0
 10
84.4381
 20
7.83551
 30
0.0
 11
124.263
 21
7.83551
 31
0.0
  0
LINE
  8
0
 62
     0
 10
124.263
 20
7.83551
 30
0.0
 11
124.263
 21
7.03626
 31
0.0
  0
LINE
  8
0
 62
     0
 10
124.263
 20
7.03626
 30
0.0
 11
123.464
 21
7.03626
 31
0.0
  0
LINE
  8
0
 62
     0
 10
123.464
 20
7.03626
 30
0.0
 11
123.464
 21
4.13551
 31
0.0
  0
LINE
  8
0
 62
     0
 10
123.464
 20
4.13551
 30
0.0
 11
124.263
 21
4.13551
 31
0.0
  0
LINE
  8
0
 62
     0
 10
124.263
 20
4.13551
 30
0.0
 11
124.263
 21
3.13504
 31
0.0
  0
LINE
  8
0
 62
     0
 10
124.263
 20
3.13504
 30
0.0
 11
138.063
 21
3.13504
 31
0.0
  0
LINE
  8
0
 62
     0
 10
138.063
 20
3.13504
 30
0.0
 11
138.063
 21
4.13551
 31
0.0
  0
LINE
  8
0
 62
     0
 10
138.063
 20
4.13551
 30
0.0
 11
138.864
 21
4.13551
 31
0.0
  0
LINE
  8
0
 62
     0
 10
138.864
 20
4.13551
 30
0.0
 11
138.864
 21
7.03626
 31
0.0
  0
LINE
  8
0
 62
     0
 10
138.864
 20
7.03626
 30
0.0
 11
138.063
 21
7.03626
 31
0.0
  0
LINE
  8
0
 62
     0
 10
138.063
 20
7.03626
 30
0.0
 11
138.063
 21
7.83551
 31
0.0
  0
LINE
  8
0
 62
     0
 10
138.063
 20
7.83551
 30
0.0
 11
177.888
 21
7.83551
 31
0.0
  0
LINE
  8
0
 62
     0
 10
177.888
 20
7.83551
 30
0.0
 11
177.888
 21
3.36655
 31
0.0
  0
LINE
  8
0
 62
     0
 10
177.888
 20
3.36655
 30
0.0
 11
179.614
 21
3.36655
 31
0.0
  0
LINE
  8
0
 62
     0
 10
179.614
 20
3.36655
 30
0.0
 11
179.614
 21
2.1649
 31
0.0
  0
LINE
  8
0
 62
     0
 10
179.614
 20
2.1649
 30
0.0
 11
182.714
 21
2.1649
 31
0.0
  0
LINE
  8
0
 62
     0
 10
182.714
 20
2.1649
 30
0.0
 11
182.714
 21
3.36655
 31
0.0
  0
LINE
  8
0
 62
     0
 10
182.714
 20
3.36655
 30
0.0
 11
184.438
 21
3.36655
 31
0.0
  0
LINE
  8
0
 62
     0
 10
184.438
 20
3.36655
 30
0.0
 11
184.438
 21
9.63524
 31
0.0
  0
LINE
  8
0
 62
     0
 10
184.438
 20
9.63524
 30
0.0
 11
185.263
 21
9.63524
 31
0.0
  0
LINE
  8
0
 62
     0
 10
185.263
 20
9.63524
 30
0.0
 11
185.263
 21
12.2356
 31
0.0
  0
LINE
  8
0
 62
     0
 10
185.263
 20
12.2356
 30
0.0
 11
184.438
 21
12.2356
 31
0.0
  0
LINE
  8
0
 62
     0
 10
184.438
 20
12.2356
 30
0.0
 11
184.438
 21
15.4657
 31
0.0
  0
LINE
  8
0
 62
     0
 10
184.438
 20
15.4657
 30
0.0
 11
177.888
 21
15.4657
 31
0.0
  0
LINE
  8
0
 62
     0
 10
177.888
 20
15.4657
 30
0.0
 11
177.888
 21
12.2356
 31
0.0
  0
LINE
  8
0
 62
     0
 10
177.888
 20
12.2356
 30
0.0
 11
138.063
 21
12.2356
 31
0.0
  0
LINE
  8
0
 62
     0
 10
138.063
 20
12.2356
 30
0.0
 11
138.063
 21
13.0362
 31
0.0
  0
LINE
  8
0
 62
     0
 10
138.063
 20
13.0362
 30
0.0
 11
138.864
 21
13.0362
 31
0.0
  0
LINE
  8
0
 62
     0
 10
138.864
 20
13.0362
 30
0.0
 11
138.864
 21
15.9356
 31
0.0
  0
LINE
  8
0
 62
     0
 10
138.864
 20
15.9356
 30
0.0
 11
138.063
 21
15.9356
 31
0.0
  0
LINE
  8
0
 62
     0
 10
138.063
 20
15.9356
 30
0.0
 11
138.063
 21
16.9361
 31
0.0
  0
LINE
  8
0
 62
     0
 10
138.063
 20
16.9361
 30
0.0
 11
124.263
 21
16.9361
 31
0.0
  0
LINE
  8
0
 62
     0
 10
331.432
 20
16.9361
 30
0.0
 11
331.432
 21
15.9356
 31
0.0
  0
LINE
  8
0
 62
     0
 10
331.432
 20
15.9356
 30
0.0
 11
330.633
 21
15.9356
 31
0.0
  0
LINE
  8
0
 62
     0
 10
330.633
 20
15.9356
 30
0.0
 11
330.633
 21
13.0362
 31
0.0
  0
LINE
  8
0
 62
     0
 10
330.633
 20
13.0362
 30
0.0
 11
331.432
 21
13.0362
 31
0.0
  0
LINE
  8
0
 62
     0
 10
331.432
 20
13.0362
 30
0.0
 11
331.432
 21
7.03626
 31
0.0
  0
LINE
  8
0
 62
     0
 10
331.432
 20
7.03626
 30
0.0
 11
330.633
 21
7.03626
 31
0.0
  0
LINE
  8
0
 62
     0
 10
330.633
 20
7.03626
 30
0.0
 11
330.633
 21
4.13551
 31
0.0
  0
LINE
  8
0
 62
     0
 10
330.633
 20
4.13551
 30
0.0
 11
331.432
 21
4.13551
 31
0.0
  0
LINE
  8
0
 62
     0
 10
331.432
 20
4.13551
 30
0.0
 11
331.432
 21
3.13504
 31
0.0
  0
LINE
  8
0
 62
     0
 10
331.432
 20
3.13504
 30
0.0
 11
345.233
 21
3.13504
 31
0.0
  0
LINE
  8
0
 62
     0
 10
345.233
 20
3.13504
 30
0.0
 11
345.233
 21
4.13551
 31
0.0
  0
LINE
  8
0
 62
     0
 10
345.233
 20
4.13551
 30
0.0
 11
346.032
 21
4.13551
 31
0.0
  0
LINE
  8
0
 62
     0
 10
346.032
 20
4.13551
 30
0.0
 11
346.032
 21
7.03626
 31
0.0
  0
LINE
  8
0
 62
     0
 10
346.032
 20
7.03626
 30
0.0
 11
345.233
 21
7.03626
 31
0.0
  0
LINE
  8
0
 62
     0
 10
345.233
 20
7.03626
 30
0.0
 11
345.233
 21
13.0362
 31
0.0
  0
LINE
  8
0
 62
     0
 10
345.233
 20
13.0362
 30
0.0
 11
346.032
 21
13.0362
 31
0.0
  0
LINE
  8
0
 62
     0
 10
346.032
 20
13.0362
 30
0.0
 11
346.032
 21
15.9356
 31
0.0
  0
LINE
  8
0
 62
     0
 10
346.032
 20
15.9356
 30
0.0
 11
345.233
 21
15.9356
 31
0.0
  0
LINE
  8
0
 62
     0
 10
345.233
 20
15.9356
 30
0.0
 11
345.233
 21
16.9361
 31
0.0
  0
LINE
  8
0
 62
     0
 10
345.233
 20
16.9361
 30
0.0
 11
331.432
 21
16.9361
 31
0.0
  0
LINE
  8
0
 62
     0
 10
312.382
 20
16.9361
 30
0.0
 11
312.382
 21
15.9356
 31
0.0
  0
LINE
  8
0
 62
     0
 10
312.382
 20
15.9356
 30
0.0
 11
311.583
 21
15.9356
 31
0.0
  0
LINE
  8
0
 62
     0
 10
311.583
 20
15.9356
 30
0.0
 11
311.583
 21
13.0362
 31
0.0
  0
LINE
  8
0
 62
     0
 10
311.583
 20
13.0362
 30
0.0
 11
312.382
 21
13.0362
 31
0.0
  0
LINE
  8
0
 62
     0
 10
312.382
 20
13.0362
 30
0.0
 11
312.382
 21
7.03626
 31
0.0
  0
LINE
  8
0
 62
     0
 10
312.382
 20
7.03626
 30
0.0
 11
311.583
 21
7.03626
 31
0.0
  0
LINE
  8
0
 62
     0
 10
311.583
 20
7.03626
 30
0.0
 11
311.583
 21
4.13551
 31
0.0
  0
LINE
  8
0
 62
     0
 10
311.583
 20
4.13551
 30
0.0
 11
312.382
 21
4.13551
 31
0.0
  0
LINE
  8
0
 62
     0
 10
312.382
 20
4.13551
 30
0.0
 11
312.382
 21
3.13504
 31
0.0
  0
LINE
  8
0
 62
     0
 10
312.382
 20
3.13504
 30
0.0
 11
326.183
 21
3.13504
 31
0.0
  0
LINE
  8
0
 62
     0
 10
326.183
 20
3.13504
 30
0.0
 11
326.183
 21
4.13551
 31
0.0
  0
LINE
  8
0
 62
     0
 10
326.183
 20
4.13551
 30
0.0
 11
326.982
 21
4.13551
 31
0.0
  0
LINE
  8
0
 62
     0
 10
326.982
 20
4.13551
 30
0.0
 11
326.982
 21
7.03626
 31
0.0
  0
LINE
  8
0
 62
     0
 10
326.982
 20
7.03626
 30
0.0
 11
326.183
 21
7.03626
 31
0.0
  0
LINE
  8
0
 62
     0
 10
326.183
 20
7.03626
 30
0.0
 11
326.183
 21
13.0362
 31
0.0
  0
LINE
  8
0
 62
     0
 10
326.183
 20
13.0362
 30
0.0
 11
326.982
 21
13.0362
 31
0.0
  0
LINE
  8
0
 62
     0
 10
326.982
 20
13.0362
 30
0.0
 11
326.982
 21
15.9356
 31
0.0
  0
LINE
  8
0
 62
     0
 10
326.982
 20
15.9356
 30
0.0
 11
326.183
 21
15.9356
 31
0.0
  0
LINE
  8
0
 62
     0
 10
326.183
 20
15.9356
 30
0.0
 11
326.183
 21
16.9361
 31
0.0
  0
LINE
  8
0
 62
     0
 10
326.183
 20
16.9361
 30
0.0
 11
312.382
 21
16.9361
 31
0.0
  0
LINE
  8
0
 62
     0
 10
293.332
 20
16.9361
 30
0.0
 11
293.332
 21
15.9356
 31
0.0
  0
LINE
  8
0
 62
     0
 10
293.332
 20
15.9356
 30
0.0
 11
292.533
 21
15.9356
 31
0.0
  0
LINE
  8
0
 62
     0
 10
292.533
 20
15.9356
 30
0.0
 11
292.533
 21
13.0362
 31
0.0
  0
LINE
  8
0
 62
     0
 10
292.533
 20
13.0362
 30
0.0
 11
293.332
 21
13.0362
 31
0.0
  0
LINE
  8
0
 62
     0
 10
293.332
 20
13.0362
 30
0.0
 11
293.332
 21
7.03626
 31
0.0
  0
LINE
  8
0
 62
     0
 10
293.332
 20
7.03626
 30
0.0
 11
292.533
 21
7.03626
 31
0.0
  0
LINE
  8
0
 62
     0
 10
292.533
 20
7.03626
 30
0.0
 11
292.533
 21
4.13551
 31
0.0
  0
LINE
  8
0
 62
     0
 10
292.533
 20
4.13551
 30
0.0
 11
293.332
 21
4.13551
 31
0.0
  0
LINE
  8
0
 62
     0
 10
293.332
 20
4.13551
 30
0.0
 11
293.332
 21
3.13504
 31
0.0
  0
LINE
  8
0
 62
     0
 10
293.332
 20
3.13504
 30
0.0
 11
307.133
 21
3.13504
 31
0.0
  0
LINE
  8
0
 62
     0
 10
307.133
 20
3.13504
 30
0.0
 11
307.133
 21
4.13551
 31
0.0
  0
LINE
  8
0
 62
     0
 10
307.133
 20
4.13551
 30
0.0
 11
307.932
 21
4.13551
 31
0.0
  0
LINE
  8
0
 62
     0
 10
307.932
 20
4.13551
 30
0.0
 11
307.932
 21
7.03626
 31
0.0
  0
LINE
  8
0
 62
     0
 10
307.932
 20
7.03626
 30
0.0
 11
307.133
 21
7.03626
 31
0.0
  0
LINE
  8
0
 62
     0
 10
307.133
 20
7.03626
 30
0.0
 11
307.133
 21
13.0362
 31
0.0
  0
LINE
  8
0
 62
     0
 10
307.133
 20
13.0362
 30
0.0
 11
307.932
 21
13.0362
 31
0.0
  0
LINE
  8
0
 62
     0
 10
307.932
 20
13.0362
 30
0.0
 11
307.932
 21
15.9356
 31
0.0
  0
LINE
  8
0
 62
     0
 10
307.932
 20
15.9356
 30
0.0
 11
307.133
 21
15.9356
 31
0.0
  0
LINE
  8
0
 62
     0
 10
307.133
 20
15.9356
 30
0.0
 11
307.133
 21
16.9361
 31
0.0
  0
LINE
  8
0
 62
     0
 10
307.133
 20
16.9361
 30
0.0
 11
293.332
 21
16.9361
 31
0.0
  0
LINE
  8
0
 62
     0
 10
267.138
 20
16.9361
 30
0.0
 11
267.138
 21
15.9356
 31
0.0
  0
LINE
  8
0
 62
     0
 10
267.138
 20
15.9356
 30
0.0
 11
266.339
 21
15.9356
 31
0.0
  0
LINE
  8
0
 62
     0
 10
266.339
 20
15.9356
 30
0.0
 11
266.339
 21
13.0362
 31
0.0
  0
LINE
  8
0
 62
     0
 10
266.339
 20
13.0362
 30
0.0
 11
267.138
 21
13.0362
 31
0.0
  0
LINE
  8
0
 62
     0
 10
267.138
 20
13.0362
 30
0.0
 11
267.138
 21
7.03626
 31
0.0
  0
LINE
  8
0
 62
     0
 10
267.138
 20
7.03626
 30
0.0
 11
266.339
 21
7.03626
 31
0.0
  0
LINE
  8
0
 62
     0
 10
266.339
 20
7.03626
 30
0.0
 11
266.339
 21
4.13551
 31
0.0
  0
LINE
  8
0
 62
     0
 10
266.339
 20
4.13551
 30
0.0
 11
267.138
 21
4.13551
 31
0.0
  0
LINE
  8
0
 62
     0
 10
267.138
 20
4.13551
 30
0.0
 11
267.138
 21
3.13504
 31
0.0
  0
LINE
  8
0
 62
     0
 10
267.138
 20
3.13504
 30
0.0
 11
280.938
 21
3.13504
 31
0.0
  0
LINE
  8
0
 62
     0
 10
280.938
 20
3.13504
 30
0.0
 11
280.938
 21
4.13551
 31
0.0
  0
LINE
  8
0
 62
     0
 10
280.938
 20
4.13551
 30
0.0
 11
281.739
 21
4.13551
 31
0.0
  0
LINE
  8
0
 62
     0
 10
281.739
 20
4.13551
 30
0.0
 11
281.739
 21
7.03626
 31
0.0
  0
LINE
  8
0
 62
     0
 10
281.739
 20
7.03626
 30
0.0
 11
280.938
 21
7.03626
 31
0.0
  0
LINE
  8
0
 62
     0
 10
280.938
 20
7.03626
 30
0.0
 11
280.938
 21
13.0362
 31
0.0
  0
LINE
  8
0
 62
     0
 10
280.938
 20
13.0362
 30
0.0
 11
281.739
 21
13.0362
 31
0.0
  0
LINE
  8
0
 62
     0
 10
281.739
 20
13.0362
 30
0.0
 11
281.739
 21
15.9356
 31
0.0
  0
LINE
  8
0
 62
     0
 10
281.739
 20
15.9356
 30
0.0
 11
280.938
 21
15.9356
 31
0.0
  0
LINE
  8
0
 62
     0
 10
280.938
 20
15.9356
 30
0.0
 11
280.938
 21
16.9361
 31
0.0
  0
LINE
  8
0
 62
     0
 10
280.938
 20
16.9361
 30
0.0
 11
267.138
 21
16.9361
 31
0.0
  0
LINE
  8
0
 62
     0
 10
243.327
 20
16.9361
 30
0.0
 11
243.327
 21
15.9356
 31
0.0
  0
LINE
  8
0
 62
     0
 10
243.327
 20
15.9356
 30
0.0
 11
242.527
 21
15.9356
 31
0.0
  0
LINE
  8
0
 62
     0
 10
242.527
 20
15.9356
 30
0.0
 11
242.527
 21
13.0362
 31
0.0
  0
LINE
  8
0
 62
     0
 10
242.527
 20
13.0362
 30
0.0
 11
243.327
 21
13.0362
 31
0.0
  0
LINE
  8
0
 62
     0
 10
243.327
 20
13.0362
 30
0.0
 11
243.327
 21
7.03626
 31
0.0
  0
LINE
  8
0
 62
     0
 10
243.327
 20
7.03626
 30
0.0
 11
242.527
 21
7.03626
 31
0.0
  0
LINE
  8
0
 62
     0
 10
242.527
 20
7.03626
 30
0.0
 11
242.527
 21
4.13551
 31
0.0
  0
LINE
  8
0
 62
     0
 10
242.527
 20
4.13551
 30
0.0
 11
243.327
 21
4.13551
 31
0.0
  0
LINE
  8
0
 62
     0
 10
243.327
 20
4.13551
 30
0.0
 11
243.327
 21
3.13504
 31
0.0
  0
LINE
  8
0
 62
     0
 10
243.327
 20
3.13504
 30
0.0
 11
257.127
 21
3.13504
 31
0.0
  0
LINE
  8
0
 62
     0
 10
257.127
 20
3.13504
 30
0.0
 11
257.127
 21
4.13551
 31
0.0
  0
LINE
  8
0
 62
     0
 10
257.127
 20
4.13551
 30
0.0
 11
257.926
 21
4.13551
 31
0.0
  0
LINE
  8
0
 62
     0
 10
257.926
 20
4.13551
 30
0.0
 11
257.926
 21
7.03626
 31
0.0
  0
LINE
  8
0
 62
     0
 10
257.926
 20
7.03626
 30
0.0
 11
257.127
 21
7.03626
 31
0.0
  0
LINE
  8
0
 62
     0
 10
257.127
 20
7.03626
 30
0.0
 11
257.127
 21
13.0362
 31
0.0
  0
LINE
  8
0
 62
     0
 10
257.127
 20
13.0362
 30
0.0
 11
257.926
 21
13.0362
 31
0.0
  0
LINE
  8
0
 62
     0
 10
257.926
 20
13.0362
 30
0.0
 11
257.926
 21
15.9356
 31
0.0
  0
LINE
  8
0
 62
     0
 10
257.926
 20
15.9356
 30
0.0
 11
257.127
 21
15.9356
 31
0.0
  0
LINE
  8
0
 62
     0
 10
257.127
 20
15.9356
 30
0.0
 11
257.127
 21
16.9361
 31
0.0
  0
LINE
  8
0
 62
     0
 10
257.127
 20
16.9361
 30
0.0
 11
243.327
 21
16.9361
 31
0.0
  0
LINE
  8
0
 62
     0
 10
219.513
 20
16.9361
 30
0.0
 11
219.513
 21
15.9356
 31
0.0
  0
LINE
  8
0
 62
     0
 10
219.513
 20
15.9356
 30
0.0
 11
218.714
 21
15.9356
 31
0.0
  0
LINE
  8
0
 62
     0
 10
218.714
 20
15.9356
 30
0.0
 11
218.714
 21
13.0362
 31
0.0
  0
LINE
  8
0
 62
     0
 10
218.714
 20
13.0362
 30
0.0
 11
219.513
 21
13.0362
 31
0.0
  0
LINE
  8
0
 62
     0
 10
219.513
 20
13.0362
 30
0.0
 11
219.513
 21
7.03626
 31
0.0
  0
LINE
  8
0
 62
     0
 10
219.513
 20
7.03626
 30
0.0
 11
218.714
 21
7.03626
 31
0.0
  0
LINE
  8
0
 62
     0
 10
218.714
 20
7.03626
 30
0.0
 11
218.714
 21
4.13551
 31
0.0
  0
LINE
  8
0
 62
     0
 10
218.714
 20
4.13551
 30
0.0
 11
219.513
 21
4.13551
 31
0.0
  0
LINE
  8
0
 62
     0
 10
219.513
 20
4.13551
 30
0.0
 11
219.513
 21
3.13504
 31
0.0
  0
LINE
  8
0
 62
     0
 10
219.513
 20
3.13504
 30
0.0
 11
233.313
 21
3.13504
 31
0.0
  0
LINE
  8
0
 62
     0
 10
233.313
 20
3.13504
 30
0.0
 11
233.313
 21
4.13551
 31
0.0
  0
LINE
  8
0
 62
     0
 10
233.313
 20
4.13551
 30
0.0
 11
234.114
 21
4.13551
 31
0.0
  0
LINE
  8
0
 62
     0
 10
234.114
 20
4.13551
 30
0.0
 11
234.114
 21
7.03626
 31
0.0
  0
LINE
  8
0
 62
     0
 10
234.114
 20
7.03626
 30
0.0
 11
233.313
 21
7.03626
 31
0.0
  0
LINE
  8
0
 62
     0
 10
233.313
 20
7.03626
 30
0.0
 11
233.313
 21
13.0362
 31
0.0
  0
LINE
  8
0
 62
     0
 10
233.313
 20
13.0362
 30
0.0
 11
234.114
 21
13.0362
 31
0.0
  0
LINE
  8
0
 62
     0
 10
234.114
 20
13.0362
 30
0.0
 11
234.114
 21
15.9356
 31
0.0
  0
LINE
  8
0
 62
     0
 10
234.114
 20
15.9356
 30
0.0
 11
233.313
 21
15.9356
 31
0.0
  0
LINE
  8
0
 62
     0
 10
233.313
 20
15.9356
 30
0.0
 11
233.313
 21
16.9361
 31
0.0
  0
LINE
  8
0
 62
     0
 10
233.313
 20
16.9361
 30
0.0
 11
219.513
 21
16.9361
 31
0.0
  0
LINE
  8
0
 62
     0
 10
195.702
 20
16.9361
 30
0.0
 11
195.702
 21
15.9356
 31
0.0
  0
LINE
  8
0
 62
     0
 10
195.702
 20
15.9356
 30
0.0
 11
194.902
 21
15.9356
 31
0.0
  0
LINE
  8
0
 62
     0
 10
194.902
 20
15.9356
 30
0.0
 11
194.902
 21
13.0362
 31
0.0
  0
LINE
  8
0
 62
     0
 10
194.902
 20
13.0362
 30
0.0
 11
195.702
 21
13.0362
 31
0.0
  0
LINE
  8
0
 62
     0
 10
195.702
 20
13.0362
 30
0.0
 11
195.702
 21
7.03626
 31
0.0
  0
LINE
  8
0
 62
     0
 10
195.702
 20
7.03626
 30
0.0
 11
194.902
 21
7.03626
 31
0.0
  0
LINE
  8
0
 62
     0
 10
194.902
 20
7.03626
 30
0.0
 11
194.902
 21
4.13551
 31
0.0
  0
LINE
  8
0
 62
     0
 10
194.902
 20
4.13551
 30
0.0
 11
195.702
 21
4.13551
 31
0.0
  0
LINE
  8
0
 62
     0
 10
195.702
 20
4.13551
 30
0.0
 11
195.702
 21
3.13504
 31
0.0
  0
LINE
  8
0
 62
     0
 10
195.702
 20
3.13504
 30
0.0
 11
209.502
 21
3.13504
 31
0.0
  0
LINE
  8
0
 62
     0
 10
209.502
 20
3.13504
 30
0.0
 11
209.502
 21
4.13551
 31
0.0
  0
LINE
  8
0
 62
     0
 10
209.502
 20
4.13551
 30
0.0
 11
210.301
 21
4.13551
 31
0.0
  0
LINE
  8
0
 62
     0
 10
210.301
 20
4.13551
 30
0.0
 11
210.301
 21
7.03626
 31
0.0
  0
LINE
  8
0
 62
     0
 10
210.301
 20
7.03626
 30
0.0
 11
209.502
 21
7.03626
 31
0.0
  0
LINE
  8
0
 62
     0
 10
209.502
 20
7.03626
 30
0.0
 11
209.502
 21
13.0362
 31
0.0
  0
LINE
  8
0
 62
     0
 10
209.502
 20
13.0362
 30
0.0
 11
210.301
 21
13.0362
 31
0.0
  0
LINE
  8
0
 62
     0
 10
210.301
 20
13.0362
 30
0.0
 11
210.301
 21
15.9356
 31
0.0
  0
LINE
  8
0
 62
     0
 10
210.301
 20
15.9356
 30
0.0
 11
209.502
 21
15.9356
 31
0.0
  0
LINE
  8
0
 62
     0
 10
209.502
 20
15.9356
 30
0.0
 11
209.502
 21
16.9361
 31
0.0
  0
LINE
  8
0
 62
     0
 10
209.502
 20
16.9361
 30
0.0
 11
195.702
 21
16.9361
 31
0.0
  0
LINE
  8
0
 62
     0
 10
52.8271
 20
16.9361
 30
0.0
 11
52.8271
 21
15.9356
 31
0.0
  0
LINE
  8
0
 62
     0
 10
52.8271
 20
15.9356
 30
0.0
 11
52.0266
 21
15.9356
 31
0.0
  0
LINE
  8
0
 62
     0
 10
52.0266
 20
15.9356
 30
0.0
 11
52.0266
 21
13.0362
 31
0.0
  0
LINE
  8
0
 62
     0
 10
52.0266
 20
13.0362
 30
0.0
 11
52.8271
 21
13.0362
 31
0.0
  0
LINE
  8
0
 62
     0
 10
52.8271
 20
13.0362
 30
0.0
 11
52.8271
 21
7.03626
 31
0.0
  0
LINE
  8
0
 62
     0
 10
52.8271
 20
7.03626
 30
0.0
 11
52.0266
 21
7.03626
 31
0.0
  0
LINE
  8
0
 62
     0
 10
52.0266
 20
7.03626
 30
0.0
 11
52.0266
 21
4.13551
 31
0.0
  0
LINE
  8
0
 62
     0
 10
52.0266
 20
4.13551
 30
0.0
 11
52.8271
 21
4.13551
 31
0.0
  0
LINE
  8
0
 62
     0
 10
52.8271
 20
4.13551
 30
0.0
 11
52.8271
 21
3.13504
 31
0.0
  0
LINE
  8
0
 62
     0
 10
52.8271
 20
3.13504
 30
0.0
 11
66.6267
 21
3.13504
 31
0.0
  0
LINE
  8
0
 62
     0
 10
66.6267
 20
3.13504
 30
0.0
 11
66.6267
 21
4.13551
 31
0.0
  0
LINE
  8
0
 62
     0
 10
66.6267
 20
4.13551
 30
0.0
 11
67.4261
 21
4.13551
 31
0.0
  0
LINE
  8
0
 62
     0
 10
67.4261
 20
4.13551
 30
0.0
 11
67.4261
 21
7.03626
 31
0.0
  0
LINE
  8
0
 62
     0
 10
67.4261
 20
7.03626
 30
0.0
 11
66.6267
 21
7.03626
 31
0.0
  0
LINE
  8
0
 62
     0
 10
66.6267
 20
7.03626
 30
0.0
 11
66.6267
 21
13.0362
 31
0.0
  0
LINE
  8
0
 62
     0
 10
66.6267
 20
13.0362
 30
0.0
 11
67.4261
 21
13.0362
 31
0.0
  0
LINE
  8
0
 62
     0
 10
67.4261
 20
13.0362
 30
0.0
 11
67.4261
 21
15.9356
 31
0.0
  0
LINE
  8
0
 62
     0
 10
67.4261
 20
15.9356
 30
0.0
 11
66.6267
 21
15.9356
 31
0.0
  0
LINE
  8
0
 62
     0
 10
66.6267
 20
15.9356
 30
0.0
 11
66.6267
 21
16.9361
 31
0.0
  0
LINE
  8
0
 62
     0
 10
66.6267
 20
16.9361
 30
0.0
 11
52.8271
 21
16.9361
 31
0.0
  0
LINE
  8
0
 62
     0
 10
29.0132
 20
16.9361
 30
0.0
 11
29.0132
 21
15.9356
 31
0.0
  0
LINE
  8
0
 62
     0
 10
29.0132
 20
15.9356
 30
0.0
 11
28.214
 21
15.9356
 31
0.0
  0
LINE
  8
0
 62
     0
 10
28.214
 20
15.9356
 30
0.0
 11
28.214
 21
13.0362
 31
0.0
  0
LINE
  8
0
 62
     0
 10
28.214
 20
13.0362
 30
0.0
 11
29.0132
 21
13.0362
 31
0.0
  0
LINE
  8
0
 62
     0
 10
29.0132
 20
13.0362
 30
0.0
 11
29.0132
 21
7.03626
 31
0.0
  0
LINE
  8
0
 62
     0
 10
29.0132
 20
7.03626
 30
0.0
 11
28.214
 21
7.03626
 31
0.0
  0
LINE
  8
0
 62
     0
 10
28.214
 20
7.03626
 30
0.0
 11
28.214
 21
4.13551
 31
0.0
  0
LINE
  8
0
 62
     0
 10
28.214
 20
4.13551
 30
0.0
 11
29.0132
 21
4.13551
 31
0.0
  0
LINE
  8
0
 62
     0
 10
29.0132
 20
4.13551
 30
0.0
 11
29.0132
 21
3.13504
 31
0.0
  0
LINE
  8
0
 62
     0
 10
29.0132
 20
3.13504
 30
0.0
 11
42.8128
 21
3.13504
 31
0.0
  0
LINE
  8
0
 62
     0
 10
42.8128
 20
3.13504
 30
0.0
 11
42.8128
 21
4.13551
 31
0.0
  0
LINE
  8
0
 62
     0
 10
42.8128
 20
4.13551
 30
0.0
 11
43.6136
 21
4.13551
 31
0.0
  0
LINE
  8
0
 62
     0
 10
43.6136
 20
4.13551
 30
0.0
 11
43.6136
 21
7.03626
 31
0.0
  0
LINE
  8
0
 62
     0
 10
43.6136
 20
7.03626
 30
0.0
 11
42.8128
 21
7.03626
 31
0.0
  0
LINE
  8
0
 62
     0
 10
42.8128
 20
7.03626
 30
0.0
 11
42.8128
 21
13.0362
 31
0.0
  0
LINE
  8
0
 62
     0
 10
42.8128
 20
13.0362
 30
0.0
 11
43.6136
 21
13.0362
 31
0.0
  0
LINE
  8
0
 62
     0
 10
43.6136
 20
13.0362
 30
0.0
 11
43.6136
 21
15.9356
 31
0.0
  0
LINE
  8
0
 62
     0
 10
43.6136
 20
15.9356
 30
0.0
 11
42.8128
 21
15.9356
 31
0.0
  0
LINE
  8
0
 62
     0
 10
42.8128
 20
15.9356
 30
0.0
 11
42.8128
 21
16.9361
 31
0.0
  0
LINE
  8
0
 62
     0
 10
42.8128
 20
16.9361
 30
0.0
 11
29.0132
 21
16.9361
 31
0.0
  0
LINE
  8
0
 62
     0
 10
5.2021
 20
16.9361
 30
0.0
 11
5.2021
 21
15.9356
 31
0.0
  0
LINE
  8
0
 62
     0
 10
5.2021
 20
15.9356
 30
0.0
 11
4.40147
 21
15.9356
 31
0.0
  0
LINE
  8
0
 62
     0
 10
4.40147
 20
15.9356
 30
0.0
 11
4.40147
 21
13.0362
 31
0.0
  0
LINE
  8
0
 62
     0
 10
4.40147
 20
13.0362
 30
0.0
 11
5.2021
 21
13.0362
 31
0.0
  0
LINE
  8
0
 62
     0
 10
5.2021
 20
13.0362
 30
0.0
 11
5.2021
 21
7.03626
 31
0.0
  0
LINE
  8
0
 62
     0
 10
5.2021
 20
7.03626
 30
0.0
 11
4.40147
 21
7.03626
 31
0.0
  0
LINE
  8
0
 62
     0
 10
4.40147
 20
7.03626
 30
0.0
 11
4.40147
 21
4.13551
 31
0.0
  0
LINE
  8
0
 62
     0
 10
4.40147
 20
4.13551
 30
0.0
 11
5.2021
 21
4.13551
 31
0.0
  0
LINE
  8
0
 62
     0
 10
5.2021
 20
4.13551
 30
0.0
 11
5.2021
 21
3.13504
 31
0.0
  0
LINE
  8
0
 62
     0
 10
5.2021
 20
3.13504
 30
0.0
 11
19.0018
 21
3.13504
 31
0.0
  0
LINE
  8
0
 62
     0
 10
19.0018
 20
3.13504
 30
0.0
 11
19.0018
 21
4.13551
 31
0.0
  0
LINE
  8
0
 62
     0
 10
19.0018
 20
4.13551
 30
0.0
 11
19.801
 21
4.13551
 31
0.0
  0
LINE
  8
0
 62
     0
 10
19.801
 20
4.13551
 30
0.0
 11
19.801
 21
7.03626
 31
0.0
  0
LINE
  8
0
 62
     0
 10
19.801
 20
7.03626
 30
0.0
 11
19.0018
 21
7.03626
 31
0.0
  0
LINE
  8
0
 62
     0
 10
19.0018
 20
7.03626
 30
0.0
 11
19.0018
 21
13.0362
 31
0.0
  0
LINE
  8
0
 62
     0
 10
19.0018
 20
13.0362
 30
0.0
 11
19.801
 21
13.0362
 31
0.0
  0
LINE
  8
0
 62
     0
 10
19.801
 20
13.0362
 30
0.0
 11
19.801
 21
15.9356
 31
0.0
  0
LINE
  8
0
 62
     0
 10
19.801
 20
15.9356
 30
0.0
 11
19.0018
 21
15.9356
 31
0.0
  0
LINE
  8
0
 62
     0
 10
19.0018
 20
15.9356
 30
0.0
 11
19.0018
 21
16.9361
 31
0.0
  0
LINE
  8
0
 62
     0
 10
19.0018
 20
16.9361
 30
0.0
 11
5.2021
 21
16.9361
 31
0.0
  0
LINE
  8
0
 62
     0
 10
252.851
 20
35.9876
 30
0.0
 11
252.851
 21
34.9856
 31
0.0
  0
LINE
  8
0
 62
     0
 10
252.851
 20
34.9856
 30
0.0
 11
252.052
 21
34.9856
 31
0.0
  0
LINE
  8
0
 62
     0
 10
252.052
 20
34.9856
 30
0.0
 11
252.052
 21
32.0862
 31
0.0
  0
LINE
  8
0
 62
     0
 10
252.052
 20
32.0862
 30
0.0
 11
252.851
 21
32.0862
 31
0.0
  0
LINE
  8
0
 62
     0
 10
252.851
 20
32.0862
 30
0.0
 11
252.851
 21
31.2856
 31
0.0
  0
LINE
  8
0
 62
     0
 10
252.851
 20
31.2856
 30
0.0
 11
251.127
 21
31.2856
 31
0.0
  0
LINE
  8
0
 62
     0
 10
251.127
 20
31.2856
 30
0.0
 11
251.127
 21
34.5157
 31
0.0
  0
LINE
  8
0
 62
     0
 10
251.127
 20
34.5157
 30
0.0
 11
244.577
 21
34.5157
 31
0.0
  0
LINE
  8
0
 62
     0
 10
244.577
 20
34.5157
 30
0.0
 11
244.577
 21
31.2856
 31
0.0
  0
LINE
  8
0
 62
     0
 10
244.577
 20
31.2856
 30
0.0
 11
243.751
 21
31.2856
 31
0.0
  0
LINE
  8
0
 62
     0
 10
243.751
 20
31.2856
 30
0.0
 11
243.751
 21
28.6852
 31
0.0
  0
LINE
  8
0
 62
     0
 10
243.751
 20
28.6852
 30
0.0
 11
244.577
 21
28.6852
 31
0.0
  0
LINE
  8
0
 62
     0
 10
244.577
 20
28.6852
 30
0.0
 11
244.577
 21
22.4152
 31
0.0
  0
LINE
  8
0
 62
     0
 10
244.577
 20
22.4152
 30
0.0
 11
246.301
 21
22.4152
 31
0.0
  0
LINE
  8
0
 62
     0
 10
246.301
 20
22.4152
 30
0.0
 11
246.301
 21
21.2149
 31
0.0
  0
LINE
  8
0
 62
     0
 10
246.301
 20
21.2149
 30
0.0
 11
249.402
 21
21.2149
 31
0.0
  0
LINE
  8
0
 62
     0
 10
249.402
 20
21.2149
 30
0.0
 11
249.402
 21
22.4152
 31
0.0
  0
LINE
  8
0
 62
     0
 10
249.402
 20
22.4152
 30
0.0
 11
251.127
 21
22.4152
 31
0.0
  0
LINE
  8
0
 62
     0
 10
251.127
 20
22.4152
 30
0.0
 11
251.127
 21
26.8855
 31
0.0
  0
LINE
  8
0
 62
     0
 10
251.127
 20
26.8855
 30
0.0
 11
252.851
 21
26.8855
 31
0.0
  0
LINE
  8
0
 62
     0
 10
252.851
 20
26.8855
 30
0.0
 11
252.851
 21
26.0863
 31
0.0
  0
LINE
  8
0
 62
     0
 10
252.851
 20
26.0863
 30
0.0
 11
252.052
 21
26.0863
 31
0.0
  0
LINE
  8
0
 62
     0
 10
252.052
 20
26.0863
 30
0.0
 11
252.052
 21
23.1855
 31
0.0
  0
LINE
  8
0
 62
     0
 10
252.052
 20
23.1855
 30
0.0
 11
252.851
 21
23.1855
 31
0.0
  0
LINE
  8
0
 62
     0
 10
252.851
 20
23.1855
 30
0.0
 11
252.851
 21
22.185
 31
0.0
  0
LINE
  8
0
 62
     0
 10
252.851
 20
22.185
 30
0.0
 11
266.652
 21
22.185
 31
0.0
  0
LINE
  8
0
 62
     0
 10
266.652
 20
22.185
 30
0.0
 11
266.652
 21
23.1855
 31
0.0
  0
LINE
  8
0
 62
     0
 10
266.652
 20
23.1855
 30
0.0
 11
267.451
 21
23.1855
 31
0.0
  0
LINE
  8
0
 62
     0
 10
267.451
 20
23.1855
 30
0.0
 11
267.451
 21
26.0863
 31
0.0
  0
LINE
  8
0
 62
     0
 10
267.451
 20
26.0863
 30
0.0
 11
266.652
 21
26.0863
 31
0.0
  0
LINE
  8
0
 62
     0
 10
266.652
 20
26.0863
 30
0.0
 11
266.652
 21
26.8855
 31
0.0
  0
LINE
  8
0
 62
     0
 10
266.652
 20
26.8855
 30
0.0
 11
268.377
 21
26.8855
 31
0.0
  0
LINE
  8
0
 62
     0
 10
268.377
 20
26.8855
 30
0.0
 11
268.377
 21
22.4152
 31
0.0
  0
LINE
  8
0
 62
     0
 10
268.377
 20
22.4152
 30
0.0
 11
270.101
 21
22.4152
 31
0.0
  0
LINE
  8
0
 62
     0
 10
270.101
 20
22.4152
 30
0.0
 11
270.101
 21
21.2149
 31
0.0
  0
LINE
  8
0
 62
     0
 10
270.101
 20
21.2149
 30
0.0
 11
273.202
 21
21.2149
 31
0.0
  0
LINE
  8
0
 62
     0
 10
273.202
 20
21.2149
 30
0.0
 11
273.202
 21
22.4152
 31
0.0
  0
LINE
  8
0
 62
     0
 10
273.202
 20
22.4152
 30
0.0
 11
274.927
 21
22.4152
 31
0.0
  0
LINE
  8
0
 62
     0
 10
274.927
 20
22.4152
 30
0.0
 11
274.927
 21
28.6852
 31
0.0
  0
LINE
  8
0
 62
     0
 10
274.927
 20
28.6852
 30
0.0
 11
275.751
 21
28.6852
 31
0.0
  0
LINE
  8
0
 62
     0
 10
275.751
 20
28.6852
 30
0.0
 11
275.751
 21
31.2856
 31
0.0
  0
LINE
  8
0
 62
     0
 10
275.751
 20
31.2856
 30
0.0
 11
274.927
 21
31.2856
 31
0.0
  0
LINE
  8
0
 62
     0
 10
274.927
 20
31.2856
 30
0.0
 11
274.927
 21
34.5157
 31
0.0
  0
LINE
  8
0
 62
     0
 10
274.927
 20
34.5157
 30
0.0
 11
268.377
 21
34.5157
 31
0.0
  0
LINE
  8
0
 62
     0
 10
268.377
 20
34.5157
 30
0.0
 11
268.377
 21
31.2856
 31
0.0
  0
LINE
  8
0
 62
     0
 10
268.377
 20
31.2856
 30
0.0
 11
266.652
 21
31.2856
 31
0.0
  0
LINE
  8
0
 62
     0
 10
266.652
 20
31.2856
 30
0.0
 11
266.652
 21
32.0862
 31
0.0
  0
LINE
  8
0
 62
     0
 10
266.652
 20
32.0862
 30
0.0
 11
267.451
 21
32.0862
 31
0.0
  0
LINE
  8
0
 62
     0
 10
267.451
 20
32.0862
 30
0.0
 11
267.451
 21
34.9856
 31
0.0
  0
LINE
  8
0
 62
     0
 10
267.451
 20
34.9856
 30
0.0
 11
266.652
 21
34.9856
 31
0.0
  0
LINE
  8
0
 62
     0
 10
266.652
 20
34.9856
 30
0.0
 11
266.652
 21
35.9876
 31
0.0
  0
LINE
  8
0
 62
     0
 10
266.652
 20
35.9876
 30
0.0
 11
252.851
 21
35.9876
 31
0.0
  0
LINE
  8
0
 62
     0
 10
14.7271
 20
35.9876
 30
0.0
 11
14.7271
 21
34.9856
 31
0.0
  0
LINE
  8
0
 62
     0
 10
14.7271
 20
34.9856
 30
0.0
 11
13.9265
 21
34.9856
 31
0.0
  0
LINE
  8
0
 62
     0
 10
13.9265
 20
34.9856
 30
0.0
 11
13.9265
 21
32.0862
 31
0.0
  0
LINE
  8
0
 62
     0
 10
13.9265
 20
32.0862
 30
0.0
 11
14.7271
 21
32.0862
 31
0.0
  0
LINE
  8
0
 62
     0
 10
14.7271
 20
32.0862
 30
0.0
 11
14.7271
 21
31.2856
 31
0.0
  0
LINE
  8
0
 62
     0
 10
14.7271
 20
31.2856
 30
0.0
 11
13.0018
 21
31.2856
 31
0.0
  0
LINE
  8
0
 62
     0
 10
13.0018
 20
31.2856
 30
0.0
 11
13.0018
 21
34.5157
 31
0.0
  0
LINE
  8
0
 62
     0
 10
13.0018
 20
34.5157
 30
0.0
 11
6.45199
 21
34.5157
 31
0.0
  0
LINE
  8
0
 62
     0
 10
6.45199
 20
34.5157
 30
0.0
 11
6.45199
 21
31.2856
 31
0.0
  0
LINE
  8
0
 62
     0
 10
6.45199
 20
31.2856
 30
0.0
 11
5.62652
 21
31.2856
 31
0.0
  0
LINE
  8
0
 62
     0
 10
5.62652
 20
31.2856
 30
0.0
 11
5.62652
 21
28.6852
 31
0.0
  0
LINE
  8
0
 62
     0
 10
5.62652
 20
28.6852
 30
0.0
 11
6.45199
 21
28.6852
 31
0.0
  0
LINE
  8
0
 62
     0
 10
6.45199
 20
28.6852
 30
0.0
 11
6.45199
 21
22.4152
 31
0.0
  0
LINE
  8
0
 62
     0
 10
6.45199
 20
22.4152
 30
0.0
 11
8.17591
 21
22.4152
 31
0.0
  0
LINE
  8
0
 62
     0
 10
8.17591
 20
22.4152
 30
0.0
 11
8.17591
 21
21.2149
 31
0.0
  0
LINE
  8
0
 62
     0
 10
8.17591
 20
21.2149
 30
0.0
 11
11.2765
 21
21.2149
 31
0.0
  0
LINE
  8
0
 62
     0
 10
11.2765
 20
21.2149
 30
0.0
 11
11.2765
 21
22.4152
 31
0.0
  0
LINE
  8
0
 62
     0
 10
11.2765
 20
22.4152
 30
0.0
 11
13.0018
 21
22.4152
 31
0.0
  0
LINE
  8
0
 62
     0
 10
13.0018
 20
22.4152
 30
0.0
 11
13.0018
 21
26.8855
 31
0.0
  0
LINE
  8
0
 62
     0
 10
13.0018
 20
26.8855
 30
0.0
 11
14.7271
 21
26.8855
 31
0.0
  0
LINE
  8
0
 62
     0
 10
14.7271
 20
26.8855
 30
0.0
 11
14.7271
 21
26.0863
 31
0.0
  0
LINE
  8
0
 62
     0
 10
14.7271
 20
26.0863
 30
0.0
 11
13.9265
 21
26.0863
 31
0.0
  0
LINE
  8
0
 62
     0
 10
13.9265
 20
26.0863
 30
0.0
 11
13.9265
 21
23.1855
 31
0.0
  0
LINE
  8
0
 62
     0
 10
13.9265
 20
23.1855
 30
0.0
 11
14.7271
 21
23.1855
 31
0.0
  0
LINE
  8
0
 62
     0
 10
14.7271
 20
23.1855
 30
0.0
 11
14.7271
 21
22.185
 31
0.0
  0
LINE
  8
0
 62
     0
 10
14.7271
 20
22.185
 30
0.0
 11
28.5268
 21
22.185
 31
0.0
  0
LINE
  8
0
 62
     0
 10
28.5268
 20
22.185
 30
0.0
 11
28.5268
 21
23.1855
 31
0.0
  0
LINE
  8
0
 62
     0
 10
28.5268
 20
23.1855
 30
0.0
 11
29.326
 21
23.1855
 31
0.0
  0
LINE
  8
0
 62
     0
 10
29.326
 20
23.1855
 30
0.0
 11
29.326
 21
26.0863
 31
0.0
  0
LINE
  8
0
 62
     0
 10
29.326
 20
26.0863
 30
0.0
 11
28.5268
 21
26.0863
 31
0.0
  0
LINE
  8
0
 62
     0
 10
28.5268
 20
26.0863
 30
0.0
 11
28.5268
 21
26.8855
 31
0.0
  0
LINE
  8
0
 62
     0
 10
28.5268
 20
26.8855
 30
0.0
 11
30.2521
 21
26.8855
 31
0.0
  0
LINE
  8
0
 62
     0
 10
30.2521
 20
26.8855
 30
0.0
 11
30.2521
 21
22.4152
 31
0.0
  0
LINE
  8
0
 62
     0
 10
30.2521
 20
22.4152
 30
0.0
 11
31.976
 21
22.4152
 31
0.0
  0
LINE
  8
0
 62
     0
 10
31.976
 20
22.4152
 30
0.0
 11
31.976
 21
21.2149
 31
0.0
  0
LINE
  8
0
 62
     0
 10
31.976
 20
21.2149
 30
0.0
 11
35.0766
 21
21.2149
 31
0.0
  0
LINE
  8
0
 62
     0
 10
35.0766
 20
21.2149
 30
0.0
 11
35.0766
 21
22.4152
 31
0.0
  0
LINE
  8
0
 62
     0
 10
35.0766
 20
22.4152
 30
0.0
 11
36.8018
 21
22.4152
 31
0.0
  0
LINE
  8
0
 62
     0
 10
36.8018
 20
22.4152
 30
0.0
 11
36.8018
 21
28.6852
 31
0.0
  0
LINE
  8
0
 62
     0
 10
36.8018
 20
28.6852
 30
0.0
 11
37.6259
 21
28.6852
 31
0.0
  0
LINE
  8
0
 62
     0
 10
37.6259
 20
28.6852
 30
0.0
 11
37.6259
 21
31.2856
 31
0.0
  0
LINE
  8
0
 62
     0
 10
37.6259
 20
31.2856
 30
0.0
 11
36.8018
 21
31.2856
 31
0.0
  0
LINE
  8
0
 62
     0
 10
36.8018
 20
31.2856
 30
0.0
 11
36.8018
 21
34.5157
 31
0.0
  0
LINE
  8
0
 62
     0
 10
36.8018
 20
34.5157
 30
0.0
 11
30.2521
 21
34.5157
 31
0.0
  0
LINE
  8
0
 62
     0
 10
30.2521
 20
34.5157
 30
0.0
 11
30.2521
 21
31.2856
 31
0.0
  0
LINE
  8
0
 62
     0
 10
30.2521
 20
31.2856
 30
0.0
 11
28.5268
 21
31.2856
 31
0.0
  0
LINE
  8
0
 62
     0
 10
28.5268
 20
31.2856
 30
0.0
 11
28.5268
 21
32.0862
 31
0.0
  0
LINE
  8
0
 62
     0
 10
28.5268
 20
32.0862
 30
0.0
 11
29.326
 21
32.0862
 31
0.0
  0
LINE
  8
0
 62
     0
 10
29.326
 20
32.0862
 30
0.0
 11
29.326
 21
34.9856
 31
0.0
  0
LINE
  8
0
 62
     0
 10
29.326
 20
34.9856
 30
0.0
 11
28.5268
 21
34.9856
 31
0.0
  0
LINE
  8
0
 62
     0
 10
28.5268
 20
34.9856
 30
0.0
 11
28.5268
 21
35.9876
 31
0.0
  0
LINE
  8
0
 62
     0
 10
28.5268
 20
35.9876
 30
0.0
 11
14.7271
 21
35.9876
 31
0.0
  0
LINE
  8
0
 62
     0
 10
312.382
 20
35.9876
 30
0.0
 11
312.382
 21
34.9856
 31
0.0
  0
LINE
  8
0
 62
     0
 10
312.382
 20
34.9856
 30
0.0
 11
311.583
 21
34.9856
 31
0.0
  0
LINE
  8
0
 62
     0
 10
311.583
 20
34.9856
 30
0.0
 11
311.583
 21
32.0862
 31
0.0
  0
LINE
  8
0
 62
     0
 10
311.583
 20
32.0862
 30
0.0
 11
312.382
 21
32.0862
 31
0.0
  0
LINE
  8
0
 62
     0
 10
312.382
 20
32.0862
 30
0.0
 11
312.382
 21
26.0863
 31
0.0
  0
LINE
  8
0
 62
     0
 10
312.382
 20
26.0863
 30
0.0
 11
311.583
 21
26.0863
 31
0.0
  0
LINE
  8
0
 62
     0
 10
311.583
 20
26.0863
 30
0.0
 11
311.583
 21
23.1855
 31
0.0
  0
LINE
  8
0
 62
     0
 10
311.583
 20
23.1855
 30
0.0
 11
312.382
 21
23.1855
 31
0.0
  0
LINE
  8
0
 62
     0
 10
312.382
 20
23.1855
 30
0.0
 11
312.382
 21
22.185
 31
0.0
  0
LINE
  8
0
 62
     0
 10
312.382
 20
22.185
 30
0.0
 11
326.183
 21
22.185
 31
0.0
  0
LINE
  8
0
 62
     0
 10
326.183
 20
22.185
 30
0.0
 11
326.183
 21
23.1855
 31
0.0
  0
LINE
  8
0
 62
     0
 10
326.183
 20
23.1855
 30
0.0
 11
326.982
 21
23.1855
 31
0.0
  0
LINE
  8
0
 62
     0
 10
326.982
 20
23.1855
 30
0.0
 11
326.982
 21
26.0863
 31
0.0
  0
LINE
  8
0
 62
     0
 10
326.982
 20
26.0863
 30
0.0
 11
326.183
 21
26.0863
 31
0.0
  0
LINE
  8
0
 62
     0
 10
326.183
 20
26.0863
 30
0.0
 11
326.183
 21
32.0862
 31
0.0
  0
LINE
  8
0
 62
     0
 10
326.183
 20
32.0862
 30
0.0
 11
326.982
 21
32.0862
 31
0.0
  0
LINE
  8
0
 62
     0
 10
326.982
 20
32.0862
 30
0.0
 11
326.982
 21
34.9856
 31
0.0
  0
LINE
  8
0
 62
     0
 10
326.982
 20
34.9856
 30
0.0
 11
326.183
 21
34.9856
 31
0.0
  0
LINE
  8
0
 62
     0
 10
326.183
 20
34.9856
 30
0.0
 11
326.183
 21
35.9876
 31
0.0
  0
LINE
  8
0
 62
     0
 10
326.183
 20
35.9876
 30
0.0
 11
312.382
 21
35.9876
 31
0.0
  0
LINE
  8
0
 62
     0
 10
217.132
 20
35.9876
 30
0.0
 11
217.132
 21
34.9856
 31
0.0
  0
LINE
  8
0
 62
     0
 10
217.132
 20
34.9856
 30
0.0
 11
216.333
 21
34.9856
 31
0.0
  0
LINE
  8
0
 62
     0
 10
216.333
 20
34.9856
 30
0.0
 11
216.333
 21
32.0862
 31
0.0
  0
LINE
  8
0
 62
     0
 10
216.333
 20
32.0862
 30
0.0
 11
217.132
 21
32.0862
 31
0.0
  0
LINE
  8
0
 62
     0
 10
217.132
 20
32.0862
 30
0.0
 11
217.132
 21
26.0863
 31
0.0
  0
LINE
  8
0
 62
     0
 10
217.132
 20
26.0863
 30
0.0
 11
216.333
 21
26.0863
 31
0.0
  0
LINE
  8
0
 62
     0
 10
216.333
 20
26.0863
 30
0.0
 11
216.333
 21
23.1855
 31
0.0
  0
LINE
  8
0
 62
     0
 10
216.333
 20
23.1855
 30
0.0
 11
217.132
 21
23.1855
 31
0.0
  0
LINE
  8
0
 62
     0
 10
217.132
 20
23.1855
 30
0.0
 11
217.132
 21
22.185
 31
0.0
  0
LINE
  8
0
 62
     0
 10
217.132
 20
22.185
 30
0.0
 11
230.933
 21
22.185
 31
0.0
  0
LINE
  8
0
 62
     0
 10
230.933
 20
22.185
 30
0.0
 11
230.933
 21
23.1855
 31
0.0
  0
LINE
  8
0
 62
     0
 10
230.933
 20
23.1855
 30
0.0
 11
231.732
 21
23.1855
 31
0.0
  0
LINE
  8
0
 62
     0
 10
231.732
 20
23.1855
 30
0.0
 11
231.732
 21
26.0863
 31
0.0
  0
LINE
  8
0
 62
     0
 10
231.732
 20
26.0863
 30
0.0
 11
230.933
 21
26.0863
 31
0.0
  0
LINE
  8
0
 62
     0
 10
230.933
 20
26.0863
 30
0.0
 11
230.933
 21
32.0862
 31
0.0
  0
LINE
  8
0
 62
     0
 10
230.933
 20
32.0862
 30
0.0
 11
231.732
 21
32.0862
 31
0.0
  0
LINE
  8
0
 62
     0
 10
231.732
 20
32.0862
 30
0.0
 11
231.732
 21
34.9856
 31
0.0
  0
LINE
  8
0
 62
     0
 10
231.732
 20
34.9856
 30
0.0
 11
230.933
 21
34.9856
 31
0.0
  0
LINE
  8
0
 62
     0
 10
230.933
 20
34.9856
 30
0.0
 11
230.933
 21
35.9876
 31
0.0
  0
LINE
  8
0
 62
     0
 10
230.933
 20
35.9876
 30
0.0
 11
217.132
 21
35.9876
 31
0.0
  0
LINE
  8
0
 62
     0
 10
198.082
 20
35.9876
 30
0.0
 11
198.082
 21
34.9856
 31
0.0
  0
LINE
  8
0
 62
     0
 10
198.082
 20
34.9856
 30
0.0
 11
197.283
 21
34.9856
 31
0.0
  0
LINE
  8
0
 62
     0
 10
197.283
 20
34.9856
 30
0.0
 11
197.283
 21
32.0862
 31
0.0
  0
LINE
  8
0
 62
     0
 10
197.283
 20
32.0862
 30
0.0
 11
198.082
 21
32.0862
 31
0.0
  0
LINE
  8
0
 62
     0
 10
198.082
 20
32.0862
 30
0.0
 11
198.082
 21
26.0863
 31
0.0
  0
LINE
  8
0
 62
     0
 10
198.082
 20
26.0863
 30
0.0
 11
197.283
 21
26.0863
 31
0.0
  0
LINE
  8
0
 62
     0
 10
197.283
 20
26.0863
 30
0.0
 11
197.283
 21
23.1855
 31
0.0
  0
LINE
  8
0
 62
     0
 10
197.283
 20
23.1855
 30
0.0
 11
198.082
 21
23.1855
 31
0.0
  0
LINE
  8
0
 62
     0
 10
198.082
 20
23.1855
 30
0.0
 11
198.082
 21
22.185
 31
0.0
  0
LINE
  8
0
 62
     0
 10
198.082
 20
22.185
 30
0.0
 11
211.883
 21
22.185
 31
0.0
  0
LINE
  8
0
 62
     0
 10
211.883
 20
22.185
 30
0.0
 11
211.883
 21
23.1855
 31
0.0
  0
LINE
  8
0
 62
     0
 10
211.883
 20
23.1855
 30
0.0
 11
212.682
 21
23.1855
 31
0.0
  0
LINE
  8
0
 62
     0
 10
212.682
 20
23.1855
 30
0.0
 11
212.682
 21
26.0863
 31
0.0
  0
LINE
  8
0
 62
     0
 10
212.682
 20
26.0863
 30
0.0
 11
211.883
 21
26.0863
 31
0.0
  0
LINE
  8
0
 62
     0
 10
211.883
 20
26.0863
 30
0.0
 11
211.883
 21
32.0862
 31
0.0
  0
LINE
  8
0
 62
     0
 10
211.883
 20
32.0862
 30
0.0
 11
212.682
 21
32.0862
 31
0.0
  0
LINE
  8
0
 62
     0
 10
212.682
 20
32.0862
 30
0.0
 11
212.682
 21
34.9856
 31
0.0
  0
LINE
  8
0
 62
     0
 10
212.682
 20
34.9856
 30
0.0
 11
211.883
 21
34.9856
 31
0.0
  0
LINE
  8
0
 62
     0
 10
211.883
 20
34.9856
 30
0.0
 11
211.883
 21
35.9876
 31
0.0
  0
LINE
  8
0
 62
     0
 10
211.883
 20
35.9876
 30
0.0
 11
198.082
 21
35.9876
 31
0.0
  0
LINE
  8
0
 62
     0
 10
179.032
 20
35.9876
 30
0.0
 11
179.032
 21
34.9856
 31
0.0
  0
LINE
  8
0
 62
     0
 10
179.032
 20
34.9856
 30
0.0
 11
178.233
 21
34.9856
 31
0.0
  0
LINE
  8
0
 62
     0
 10
178.233
 20
34.9856
 30
0.0
 11
178.233
 21
32.0862
 31
0.0
  0
LINE
  8
0
 62
     0
 10
178.233
 20
32.0862
 30
0.0
 11
179.032
 21
32.0862
 31
0.0
  0
LINE
  8
0
 62
     0
 10
179.032
 20
32.0862
 30
0.0
 11
179.032
 21
26.0863
 31
0.0
  0
LINE
  8
0
 62
     0
 10
179.032
 20
26.0863
 30
0.0
 11
178.233
 21
26.0863
 31
0.0
  0
LINE
  8
0
 62
     0
 10
178.233
 20
26.0863
 30
0.0
 11
178.233
 21
23.1855
 31
0.0
  0
LINE
  8
0
 62
     0
 10
178.233
 20
23.1855
 30
0.0
 11
179.032
 21
23.1855
 31
0.0
  0
LINE
  8
0
 62
     0
 10
179.032
 20
23.1855
 30
0.0
 11
179.032
 21
22.185
 31
0.0
  0
LINE
  8
0
 62
     0
 10
179.032
 20
22.185
 30
0.0
 11
192.833
 21
22.185
 31
0.0
  0
LINE
  8
0
 62
     0
 10
192.833
 20
22.185
 30
0.0
 11
192.833
 21
23.1855
 31
0.0
  0
LINE
  8
0
 62
     0
 10
192.833
 20
23.1855
 30
0.0
 11
193.632
 21
23.1855
 31
0.0
  0
LINE
  8
0
 62
     0
 10
193.632
 20
23.1855
 30
0.0
 11
193.632
 21
26.0863
 31
0.0
  0
LINE
  8
0
 62
     0
 10
193.632
 20
26.0863
 30
0.0
 11
192.833
 21
26.0863
 31
0.0
  0
LINE
  8
0
 62
     0
 10
192.833
 20
26.0863
 30
0.0
 11
192.833
 21
32.0862
 31
0.0
  0
LINE
  8
0
 62
     0
 10
192.833
 20
32.0862
 30
0.0
 11
193.632
 21
32.0862
 31
0.0
  0
LINE
  8
0
 62
     0
 10
193.632
 20
32.0862
 30
0.0
 11
193.632
 21
34.9856
 31
0.0
  0
LINE
  8
0
 62
     0
 10
193.632
 20
34.9856
 30
0.0
 11
192.833
 21
34.9856
 31
0.0
  0
LINE
  8
0
 62
     0
 10
192.833
 20
34.9856
 30
0.0
 11
192.833
 21
35.9876
 31
0.0
  0
LINE
  8
0
 62
     0
 10
192.833
 20
35.9876
 30
0.0
 11
179.032
 21
35.9876
 31
0.0
  0
LINE
  8
0
 62
     0
 10
159.982
 20
35.9876
 30
0.0
 11
159.982
 21
34.9856
 31
0.0
  0
LINE
  8
0
 62
     0
 10
159.982
 20
34.9856
 30
0.0
 11
159.183
 21
34.9856
 31
0.0
  0
LINE
  8
0
 62
     0
 10
159.183
 20
34.9856
 30
0.0
 11
159.183
 21
32.0862
 31
0.0
  0
LINE
  8
0
 62
     0
 10
159.183
 20
32.0862
 30
0.0
 11
159.982
 21
32.0862
 31
0.0
  0
LINE
  8
0
 62
     0
 10
159.982
 20
32.0862
 30
0.0
 11
159.982
 21
26.0863
 31
0.0
  0
LINE
  8
0
 62
     0
 10
159.982
 20
26.0863
 30
0.0
 11
159.183
 21
26.0863
 31
0.0
  0
LINE
  8
0
 62
     0
 10
159.183
 20
26.0863
 30
0.0
 11
159.183
 21
23.1855
 31
0.0
  0
LINE
  8
0
 62
     0
 10
159.183
 20
23.1855
 30
0.0
 11
159.982
 21
23.1855
 31
0.0
  0
LINE
  8
0
 62
     0
 10
159.982
 20
23.1855
 30
0.0
 11
159.982
 21
22.185
 31
0.0
  0
LINE
  8
0
 62
     0
 10
159.982
 20
22.185
 30
0.0
 11
173.783
 21
22.185
 31
0.0
  0
LINE
  8
0
 62
     0
 10
173.783
 20
22.185
 30
0.0
 11
173.783
 21
23.1855
 31
0.0
  0
LINE
  8
0
 62
     0
 10
173.783
 20
23.1855
 30
0.0
 11
174.582
 21
23.1855
 31
0.0
  0
LINE
  8
0
 62
     0
 10
174.582
 20
23.1855
 30
0.0
 11
174.582
 21
26.0863
 31
0.0
  0
LINE
  8
0
 62
     0
 10
174.582
 20
26.0863
 30
0.0
 11
173.783
 21
26.0863
 31
0.0
  0
LINE
  8
0
 62
     0
 10
173.783
 20
26.0863
 30
0.0
 11
173.783
 21
32.0862
 31
0.0
  0
LINE
  8
0
 62
     0
 10
173.783
 20
32.0862
 30
0.0
 11
174.582
 21
32.0862
 31
0.0
  0
LINE
  8
0
 62
     0
 10
174.582
 20
32.0862
 30
0.0
 11
174.582
 21
34.9856
 31
0.0
  0
LINE
  8
0
 62
     0
 10
174.582
 20
34.9856
 30
0.0
 11
173.783
 21
34.9856
 31
0.0
  0
LINE
  8
0
 62
     0
 10
173.783
 20
34.9856
 30
0.0
 11
173.783
 21
35.9876
 31
0.0
  0
LINE
  8
0
 62
     0
 10
173.783
 20
35.9876
 30
0.0
 11
159.982
 21
35.9876
 31
0.0
  0
LINE
  8
0
 62
     0
 10
140.932
 20
35.9876
 30
0.0
 11
140.932
 21
34.9856
 31
0.0
  0
LINE
  8
0
 62
     0
 10
140.932
 20
34.9856
 30
0.0
 11
140.133
 21
34.9856
 31
0.0
  0
LINE
  8
0
 62
     0
 10
140.133
 20
34.9856
 30
0.0
 11
140.133
 21
32.0862
 31
0.0
  0
LINE
  8
0
 62
     0
 10
140.133
 20
32.0862
 30
0.0
 11
140.932
 21
32.0862
 31
0.0
  0
LINE
  8
0
 62
     0
 10
140.932
 20
32.0862
 30
0.0
 11
140.932
 21
26.0863
 31
0.0
  0
LINE
  8
0
 62
     0
 10
140.932
 20
26.0863
 30
0.0
 11
140.133
 21
26.0863
 31
0.0
  0
LINE
  8
0
 62
     0
 10
140.133
 20
26.0863
 30
0.0
 11
140.133
 21
23.1855
 31
0.0
  0
LINE
  8
0
 62
     0
 10
140.133
 20
23.1855
 30
0.0
 11
140.932
 21
23.1855
 31
0.0
  0
LINE
  8
0
 62
     0
 10
140.932
 20
23.1855
 30
0.0
 11
140.932
 21
22.185
 31
0.0
  0
LINE
  8
0
 62
     0
 10
140.932
 20
22.185
 30
0.0
 11
154.733
 21
22.185
 31
0.0
  0
LINE
  8
0
 62
     0
 10
154.733
 20
22.185
 30
0.0
 11
154.733
 21
23.1855
 31
0.0
  0
LINE
  8
0
 62
     0
 10
154.733
 20
23.1855
 30
0.0
 11
155.532
 21
23.1855
 31
0.0
  0
LINE
  8
0
 62
     0
 10
155.532
 20
23.1855
 30
0.0
 11
155.532
 21
26.0863
 31
0.0
  0
LINE
  8
0
 62
     0
 10
155.532
 20
26.0863
 30
0.0
 11
154.733
 21
26.0863
 31
0.0
  0
LINE
  8
0
 62
     0
 10
154.733
 20
26.0863
 30
0.0
 11
154.733
 21
32.0862
 31
0.0
  0
LINE
  8
0
 62
     0
 10
154.733
 20
32.0862
 30
0.0
 11
155.532
 21
32.0862
 31
0.0
  0
LINE
  8
0
 62
     0
 10
155.532
 20
32.0862
 30
0.0
 11
155.532
 21
34.9856
 31
0.0
  0
LINE
  8
0
 62
     0
 10
155.532
 20
34.9856
 30
0.0
 11
154.733
 21
34.9856
 31
0.0
  0
LINE
  8
0
 62
     0
 10
154.733
 20
34.9856
 30
0.0
 11
154.733
 21
35.9876
 31
0.0
  0
LINE
  8
0
 62
     0
 10
154.733
 20
35.9876
 30
0.0
 11
140.932
 21
35.9876
 31
0.0
  0
LINE
  8
0
 62
     0
 10
121.882
 20
35.9876
 30
0.0
 11
121.882
 21
34.9856
 31
0.0
  0
LINE
  8
0
 62
     0
 10
121.882
 20
34.9856
 30
0.0
 11
121.083
 21
34.9856
 31
0.0
  0
LINE
  8
0
 62
     0
 10
121.083
 20
34.9856
 30
0.0
 11
121.083
 21
32.0862
 31
0.0
  0
LINE
  8
0
 62
     0
 10
121.083
 20
32.0862
 30
0.0
 11
121.882
 21
32.0862
 31
0.0
  0
LINE
  8
0
 62
     0
 10
121.882
 20
32.0862
 30
0.0
 11
121.882
 21
26.0863
 31
0.0
  0
LINE
  8
0
 62
     0
 10
121.882
 20
26.0863
 30
0.0
 11
121.083
 21
26.0863
 31
0.0
  0
LINE
  8
0
 62
     0
 10
121.083
 20
26.0863
 30
0.0
 11
121.083
 21
23.1855
 31
0.0
  0
LINE
  8
0
 62
     0
 10
121.083
 20
23.1855
 30
0.0
 11
121.882
 21
23.1855
 31
0.0
  0
LINE
  8
0
 62
     0
 10
121.882
 20
23.1855
 30
0.0
 11
121.882
 21
22.185
 31
0.0
  0
LINE
  8
0
 62
     0
 10
121.882
 20
22.185
 30
0.0
 11
135.683
 21
22.185
 31
0.0
  0
LINE
  8
0
 62
     0
 10
135.683
 20
22.185
 30
0.0
 11
135.683
 21
23.1855
 31
0.0
  0
LINE
  8
0
 62
     0
 10
135.683
 20
23.1855
 30
0.0
 11
136.482
 21
23.1855
 31
0.0
  0
LINE
  8
0
 62
     0
 10
136.482
 20
23.1855
 30
0.0
 11
136.482
 21
26.0863
 31
0.0
  0
LINE
  8
0
 62
     0
 10
136.482
 20
26.0863
 30
0.0
 11
135.683
 21
26.0863
 31
0.0
  0
LINE
  8
0
 62
     0
 10
135.683
 20
26.0863
 30
0.0
 11
135.683
 21
32.0862
 31
0.0
  0
LINE
  8
0
 62
     0
 10
135.683
 20
32.0862
 30
0.0
 11
136.482
 21
32.0862
 31
0.0
  0
LINE
  8
0
 62
     0
 10
136.482
 20
32.0862
 30
0.0
 11
136.482
 21
34.9856
 31
0.0
  0
LINE
  8
0
 62
     0
 10
136.482
 20
34.9856
 30
0.0
 11
135.683
 21
34.9856
 31
0.0
  0
LINE
  8
0
 62
     0
 10
135.683
 20
34.9856
 30
0.0
 11
135.683
 21
35.9876
 31
0.0
  0
LINE
  8
0
 62
     0
 10
135.683
 20
35.9876
 30
0.0
 11
121.882
 21
35.9876
 31
0.0
  0
LINE
  8
0
 62
     0
 10
102.832
 20
35.9876
 30
0.0
 11
102.832
 21
34.9856
 31
0.0
  0
LINE
  8
0
 62
     0
 10
102.832
 20
34.9856
 30
0.0
 11
102.033
 21
34.9856
 31
0.0
  0
LINE
  8
0
 62
     0
 10
102.033
 20
34.9856
 30
0.0
 11
102.033
 21
32.0862
 31
0.0
  0
LINE
  8
0
 62
     0
 10
102.033
 20
32.0862
 30
0.0
 11
102.832
 21
32.0862
 31
0.0
  0
LINE
  8
0
 62
     0
 10
102.832
 20
32.0862
 30
0.0
 11
102.832
 21
26.0863
 31
0.0
  0
LINE
  8
0
 62
     0
 10
102.832
 20
26.0863
 30
0.0
 11
102.033
 21
26.0863
 31
0.0
  0
LINE
  8
0
 62
     0
 10
102.033
 20
26.0863
 30
0.0
 11
102.033
 21
23.1855
 31
0.0
  0
LINE
  8
0
 62
     0
 10
102.033
 20
23.1855
 30
0.0
 11
102.832
 21
23.1855
 31
0.0
  0
LINE
  8
0
 62
     0
 10
102.832
 20
23.1855
 30
0.0
 11
102.832
 21
22.185
 31
0.0
  0
LINE
  8
0
 62
     0
 10
102.832
 20
22.185
 30
0.0
 11
116.633
 21
22.185
 31
0.0
  0
LINE
  8
0
 62
     0
 10
116.633
 20
22.185
 30
0.0
 11
116.633
 21
23.1855
 31
0.0
  0
LINE
  8
0
 62
     0
 10
116.633
 20
23.1855
 30
0.0
 11
117.432
 21
23.1855
 31
0.0
  0
LINE
  8
0
 62
     0
 10
117.432
 20
23.1855
 30
0.0
 11
117.432
 21
26.0863
 31
0.0
  0
LINE
  8
0
 62
     0
 10
117.432
 20
26.0863
 30
0.0
 11
116.633
 21
26.0863
 31
0.0
  0
LINE
  8
0
 62
     0
 10
116.633
 20
26.0863
 30
0.0
 11
116.633
 21
32.0862
 31
0.0
  0
LINE
  8
0
 62
     0
 10
116.633
 20
32.0862
 30
0.0
 11
117.432
 21
32.0862
 31
0.0
  0
LINE
  8
0
 62
     0
 10
117.432
 20
32.0862
 30
0.0
 11
117.432
 21
34.9856
 31
0.0
  0
LINE
  8
0
 62
     0
 10
117.432
 20
34.9856
 30
0.0
 11
116.633
 21
34.9856
 31
0.0
  0
LINE
  8
0
 62
     0
 10
116.633
 20
34.9856
 30
0.0
 11
116.633
 21
35.9876
 31
0.0
  0
LINE
  8
0
 62
     0
 10
116.633
 20
35.9876
 30
0.0
 11
102.832
 21
35.9876
 31
0.0
  0
LINE
  8
0
 62
     0
 10
83.7819
 20
35.9876
 30
0.0
 11
83.7819
 21
34.9856
 31
0.0
  0
LINE
  8
0
 62
     0
 10
83.7819
 20
34.9856
 30
0.0
 11
82.9829
 21
34.9856
 31
0.0
  0
LINE
  8
0
 62
     0
 10
82.9829
 20
34.9856
 30
0.0
 11
82.9829
 21
32.0862
 31
0.0
  0
LINE
  8
0
 62
     0
 10
82.9829
 20
32.0862
 30
0.0
 11
83.7819
 21
32.0862
 31
0.0
  0
LINE
  8
0
 62
     0
 10
83.7819
 20
32.0862
 30
0.0
 11
83.7819
 21
26.0863
 31
0.0
  0
LINE
  8
0
 62
     0
 10
83.7819
 20
26.0863
 30
0.0
 11
82.9829
 21
26.0863
 31
0.0
  0
LINE
  8
0
 62
     0
 10
82.9829
 20
26.0863
 30
0.0
 11
82.9829
 21
23.1855
 31
0.0
  0
LINE
  8
0
 62
     0
 10
82.9829
 20
23.1855
 30
0.0
 11
83.7819
 21
23.1855
 31
0.0
  0
LINE
  8
0
 62
     0
 10
83.7819
 20
23.1855
 30
0.0
 11
83.7819
 21
22.185
 31
0.0
  0
LINE
  8
0
 62
     0
 10
83.7819
 20
22.185
 30
0.0
 11
97.5829
 21
22.185
 31
0.0
  0
LINE
  8
0
 62
     0
 10
97.5829
 20
22.185
 30
0.0
 11
97.5829
 21
23.1855
 31
0.0
  0
LINE
  8
0
 62
     0
 10
97.5829
 20
23.1855
 30
0.0
 11
98.3823
 21
23.1855
 31
0.0
  0
LINE
  8
0
 62
     0
 10
98.3823
 20
23.1855
 30
0.0
 11
98.3823
 21
26.0863
 31
0.0
  0
LINE
  8
0
 62
     0
 10
98.3823
 20
26.0863
 30
0.0
 11
97.5829
 21
26.0863
 31
0.0
  0
LINE
  8
0
 62
     0
 10
97.5829
 20
26.0863
 30
0.0
 11
97.5829
 21
32.0862
 31
0.0
  0
LINE
  8
0
 62
     0
 10
97.5829
 20
32.0862
 30
0.0
 11
98.3823
 21
32.0862
 31
0.0
  0
LINE
  8
0
 62
     0
 10
98.3823
 20
32.0862
 30
0.0
 11
98.3823
 21
34.9856
 31
0.0
  0
LINE
  8
0
 62
     0
 10
98.3823
 20
34.9856
 30
0.0
 11
97.5829
 21
34.9856
 31
0.0
  0
LINE
  8
0
 62
     0
 10
97.5829
 20
34.9856
 30
0.0
 11
97.5829
 21
35.9876
 31
0.0
  0
LINE
  8
0
 62
     0
 10
97.5829
 20
35.9876
 30
0.0
 11
83.7819
 21
35.9876
 31
0.0
  0
LINE
  8
0
 62
     0
 10
64.7319
 20
35.9876
 30
0.0
 11
64.7319
 21
34.9856
 31
0.0
  0
LINE
  8
0
 62
     0
 10
64.7319
 20
34.9856
 30
0.0
 11
63.9329
 21
34.9856
 31
0.0
  0
LINE
  8
0
 62
     0
 10
63.9329
 20
34.9856
 30
0.0
 11
63.9329
 21
32.0862
 31
0.0
  0
LINE
  8
0
 62
     0
 10
63.9329
 20
32.0862
 30
0.0
 11
64.7319
 21
32.0862
 31
0.0
  0
LINE
  8
0
 62
     0
 10
64.7319
 20
32.0862
 30
0.0
 11
64.7319
 21
26.0863
 31
0.0
  0
LINE
  8
0
 62
     0
 10
64.7319
 20
26.0863
 30
0.0
 11
63.9329
 21
26.0863
 31
0.0
  0
LINE
  8
0
 62
     0
 10
63.9329
 20
26.0863
 30
0.0
 11
63.9329
 21
23.1855
 31
0.0
  0
LINE
  8
0
 62
     0
 10
63.9329
 20
23.1855
 30
0.0
 11
64.7319
 21
23.1855
 31
0.0
  0
LINE
  8
0
 62
     0
 10
64.7319
 20
23.1855
 30
0.0
 11
64.7319
 21
22.185
 31
0.0
  0
LINE
  8
0
 62
     0
 10
64.7319
 20
22.185
 30
0.0
 11
78.5329
 21
22.185
 31
0.0
  0
LINE
  8
0
 62
     0
 10
78.5329
 20
22.185
 30
0.0
 11
78.5329
 21
23.1855
 31
0.0
  0
LINE
  8
0
 62
     0
 10
78.5329
 20
23.1855
 30
0.0
 11
79.3323
 21
23.1855
 31
0.0
  0
LINE
  8
0
 62
     0
 10
79.3323
 20
23.1855
 30
0.0
 11
79.3323
 21
26.0863
 31
0.0
  0
LINE
  8
0
 62
     0
 10
79.3323
 20
26.0863
 30
0.0
 11
78.5329
 21
26.0863
 31
0.0
  0
LINE
  8
0
 62
     0
 10
78.5329
 20
26.0863
 30
0.0
 11
78.5329
 21
32.0862
 31
0.0
  0
LINE
  8
0
 62
     0
 10
78.5329
 20
32.0862
 30
0.0
 11
79.3323
 21
32.0862
 31
0.0
  0
LINE
  8
0
 62
     0
 10
79.3323
 20
32.0862
 30
0.0
 11
79.3323
 21
34.9856
 31
0.0
  0
LINE
  8
0
 62
     0
 10
79.3323
 20
34.9856
 30
0.0
 11
78.5329
 21
34.9856
 31
0.0
  0
LINE
  8
0
 62
     0
 10
78.5329
 20
34.9856
 30
0.0
 11
78.5329
 21
35.9876
 31
0.0
  0
LINE
  8
0
 62
     0
 10
78.5329
 20
35.9876
 30
0.0
 11
64.7319
 21
35.9876
 31
0.0
  0
LINE
  8
0
 62
     0
 10
45.6819
 20
35.9876
 30
0.0
 11
45.6819
 21
34.9856
 31
0.0
  0
LINE
  8
0
 62
     0
 10
45.6819
 20
34.9856
 30
0.0
 11
44.8829
 21
34.9856
 31
0.0
  0
LINE
  8
0
 62
     0
 10
44.8829
 20
34.9856
 30
0.0
 11
44.8829
 21
32.0862
 31
0.0
  0
LINE
  8
0
 62
     0
 10
44.8829
 20
32.0862
 30
0.0
 11
45.6819
 21
32.0862
 31
0.0
  0
LINE
  8
0
 62
     0
 10
45.6819
 20
32.0862
 30
0.0
 11
45.6819
 21
26.0863
 31
0.0
  0
LINE
  8
0
 62
     0
 10
45.6819
 20
26.0863
 30
0.0
 11
44.8829
 21
26.0863
 31
0.0
  0
LINE
  8
0
 62
     0
 10
44.8829
 20
26.0863
 30
0.0
 11
44.8829
 21
23.1855
 31
0.0
  0
LINE
  8
0
 62
     0
 10
44.8829
 20
23.1855
 30
0.0
 11
45.6819
 21
23.1855
 31
0.0
  0
LINE
  8
0
 62
     0
 10
45.6819
 20
23.1855
 30
0.0
 11
45.6819
 21
22.185
 31
0.0
  0
LINE
  8
0
 62
     0
 10
45.6819
 20
22.185
 30
0.0
 11
59.4829
 21
22.185
 31
0.0
  0
LINE
  8
0
 62
     0
 10
59.4829
 20
22.185
 30
0.0
 11
59.4829
 21
23.1855
 31
0.0
  0
LINE
  8
0
 62
     0
 10
59.4829
 20
23.1855
 30
0.0
 11
60.2823
 21
23.1855
 31
0.0
  0
LINE
  8
0
 62
     0
 10
60.2823
 20
23.1855
 30
0.0
 11
60.2823
 21
26.0863
 31
0.0
  0
LINE
  8
0
 62
     0
 10
60.2823
 20
26.0863
 30
0.0
 11
59.4829
 21
26.0863
 31
0.0
  0
LINE
  8
0
 62
     0
 10
59.4829
 20
26.0863
 30
0.0
 11
59.4829
 21
32.0862
 31
0.0
  0
LINE
  8
0
 62
     0
 10
59.4829
 20
32.0862
 30
0.0
 11
60.2823
 21
32.0862
 31
0.0
  0
LINE
  8
0
 62
     0
 10
60.2823
 20
32.0862
 30
0.0
 11
60.2823
 21
34.9856
 31
0.0
  0
LINE
  8
0
 62
     0
 10
60.2823
 20
34.9856
 30
0.0
 11
59.4829
 21
34.9856
 31
0.0
  0
LINE
  8
0
 62
     0
 10
59.4829
 20
34.9856
 30
0.0
 11
59.4829
 21
35.9876
 31
0.0
  0
LINE
  8
0
 62
     0
 10
59.4829
 20
35.9876
 30
0.0
 11
45.6819
 21
35.9876
 31
0.0
  0
LINE
  8
0
 62
     0
 10
257.613
 20
55.0362
 30
0.0
 11
257.613
 21
54.0357
 31
0.0
  0
LINE
  8
0
 62
     0
 10
257.613
 20
54.0357
 30
0.0
 11
256.814
 21
54.0357
 31
0.0
  0
LINE
  8
0
 62
     0
 10
256.814
 20
54.0357
 30
0.0
 11
256.814
 21
51.1362
 31
0.0
  0
LINE
  8
0
 62
     0
 10
256.814
 20
51.1362
 30
0.0
 11
257.613
 21
51.1362
 31
0.0
  0
LINE
  8
0
 62
     0
 10
257.613
 20
51.1362
 30
0.0
 11
257.613
 21
50.3357
 31
0.0
  0
LINE
  8
0
 62
     0
 10
257.613
 20
50.3357
 30
0.0
 11
255.888
 21
50.3357
 31
0.0
  0
LINE
  8
0
 62
     0
 10
255.888
 20
50.3357
 30
0.0
 11
255.888
 21
53.5658
 31
0.0
  0
LINE
  8
0
 62
     0
 10
255.888
 20
53.5658
 30
0.0
 11
249.338
 21
53.5658
 31
0.0
  0
LINE
  8
0
 62
     0
 10
249.338
 20
53.5658
 30
0.0
 11
249.338
 21
50.3357
 31
0.0
  0
LINE
  8
0
 62
     0
 10
249.338
 20
50.3357
 30
0.0
 11
248.514
 21
50.3357
 31
0.0
  0
LINE
  8
0
 62
     0
 10
248.514
 20
50.3357
 30
0.0
 11
248.514
 21
47.7365
 31
0.0
  0
LINE
  8
0
 62
     0
 10
248.514
 20
47.7365
 30
0.0
 11
249.338
 21
47.7365
 31
0.0
  0
LINE
  8
0
 62
     0
 10
249.338
 20
47.7365
 30
0.0
 11
249.338
 21
41.4666
 31
0.0
  0
LINE
  8
0
 62
     0
 10
249.338
 20
41.4666
 30
0.0
 11
251.063
 21
41.4666
 31
0.0
  0
LINE
  8
0
 62
     0
 10
251.063
 20
41.4666
 30
0.0
 11
251.063
 21
40.2664
 31
0.0
  0
LINE
  8
0
 62
     0
 10
251.063
 20
40.2664
 30
0.0
 11
254.163
 21
40.2664
 31
0.0
  0
LINE
  8
0
 62
     0
 10
254.163
 20
40.2664
 30
0.0
 11
254.163
 21
41.4666
 31
0.0
  0
LINE
  8
0
 62
     0
 10
254.163
 20
41.4666
 30
0.0
 11
255.888
 21
41.4666
 31
0.0
  0
LINE
  8
0
 62
     0
 10
255.888
 20
41.4666
 30
0.0
 11
255.888
 21
45.9355
 31
0.0
  0
LINE
  8
0
 62
     0
 10
255.888
 20
45.9355
 30
0.0
 11
257.613
 21
45.9355
 31
0.0
  0
LINE
  8
0
 62
     0
 10
257.613
 20
45.9355
 30
0.0
 11
257.613
 21
45.1362
 31
0.0
  0
LINE
  8
0
 62
     0
 10
257.613
 20
45.1362
 30
0.0
 11
256.814
 21
45.1362
 31
0.0
  0
LINE
  8
0
 62
     0
 10
256.814
 20
45.1362
 30
0.0
 11
256.814
 21
42.2356
 31
0.0
  0
LINE
  8
0
 62
     0
 10
256.814
 20
42.2356
 30
0.0
 11
257.613
 21
42.2356
 31
0.0
  0
LINE
  8
0
 62
     0
 10
257.613
 20
42.2356
 30
0.0
 11
257.613
 21
41.2365
 31
0.0
  0
LINE
  8
0
 62
     0
 10
257.613
 20
41.2365
 30
0.0
 11
271.413
 21
41.2365
 31
0.0
  0
LINE
  8
0
 62
     0
 10
271.413
 20
41.2365
 30
0.0
 11
271.413
 21
42.2356
 31
0.0
  0
LINE
  8
0
 62
     0
 10
271.413
 20
42.2356
 30
0.0
 11
272.214
 21
42.2356
 31
0.0
  0
LINE
  8
0
 62
     0
 10
272.214
 20
42.2356
 30
0.0
 11
272.214
 21
45.1362
 31
0.0
  0
LINE
  8
0
 62
     0
 10
272.214
 20
45.1362
 30
0.0
 11
271.413
 21
45.1362
 31
0.0
  0
LINE
  8
0
 62
     0
 10
271.413
 20
45.1362
 30
0.0
 11
271.413
 21
45.9355
 31
0.0
  0
LINE
  8
0
 62
     0
 10
271.413
 20
45.9355
 30
0.0
 11
273.138
 21
45.9355
 31
0.0
  0
LINE
  8
0
 62
     0
 10
273.138
 20
45.9355
 30
0.0
 11
273.138
 21
41.4666
 31
0.0
  0
LINE
  8
0
 62
     0
 10
273.138
 20
41.4666
 30
0.0
 11
274.864
 21
41.4666
 31
0.0
  0
LINE
  8
0
 62
     0
 10
274.864
 20
41.4666
 30
0.0
 11
274.864
 21
40.2664
 31
0.0
  0
LINE
  8
0
 62
     0
 10
274.864
 20
40.2664
 30
0.0
 11
277.964
 21
40.2664
 31
0.0
  0
LINE
  8
0
 62
     0
 10
277.964
 20
40.2664
 30
0.0
 11
277.964
 21
41.4666
 31
0.0
  0
LINE
  8
0
 62
     0
 10
277.964
 20
41.4666
 30
0.0
 11
279.688
 21
41.4666
 31
0.0
  0
LINE
  8
0
 62
     0
 10
279.688
 20
41.4666
 30
0.0
 11
279.688
 21
47.7365
 31
0.0
  0
LINE
  8
0
 62
     0
 10
279.688
 20
47.7365
 30
0.0
 11
280.513
 21
47.7365
 31
0.0
  0
LINE
  8
0
 62
     0
 10
280.513
 20
47.7365
 30
0.0
 11
280.513
 21
50.3357
 31
0.0
  0
LINE
  8
0
 62
     0
 10
280.513
 20
50.3357
 30
0.0
 11
279.688
 21
50.3357
 31
0.0
  0
LINE
  8
0
 62
     0
 10
279.688
 20
50.3357
 30
0.0
 11
279.688
 21
53.5658
 31
0.0
  0
LINE
  8
0
 62
     0
 10
279.688
 20
53.5658
 30
0.0
 11
273.138
 21
53.5658
 31
0.0
  0
LINE
  8
0
 62
     0
 10
273.138
 20
53.5658
 30
0.0
 11
273.138
 21
50.3357
 31
0.0
  0
LINE
  8
0
 62
     0
 10
273.138
 20
50.3357
 30
0.0
 11
271.413
 21
50.3357
 31
0.0
  0
LINE
  8
0
 62
     0
 10
271.413
 20
50.3357
 30
0.0
 11
271.413
 21
51.1362
 31
0.0
  0
LINE
  8
0
 62
     0
 10
271.413
 20
51.1362
 30
0.0
 11
272.214
 21
51.1362
 31
0.0
  0
LINE
  8
0
 62
     0
 10
272.214
 20
51.1362
 30
0.0
 11
272.214
 21
54.0357
 31
0.0
  0
LINE
  8
0
 62
     0
 10
272.214
 20
54.0357
 30
0.0
 11
271.413
 21
54.0357
 31
0.0
  0
LINE
  8
0
 62
     0
 10
271.413
 20
54.0357
 30
0.0
 11
271.413
 21
55.0362
 31
0.0
  0
LINE
  8
0
 62
     0
 10
271.413
 20
55.0362
 30
0.0
 11
257.613
 21
55.0362
 31
0.0
  0
LINE
  8
0
 62
     0
 10
226.657
 20
55.0362
 30
0.0
 11
226.657
 21
54.0357
 31
0.0
  0
LINE
  8
0
 62
     0
 10
226.657
 20
54.0357
 30
0.0
 11
225.858
 21
54.0357
 31
0.0
  0
LINE
  8
0
 62
     0
 10
225.858
 20
54.0357
 30
0.0
 11
225.858
 21
51.1362
 31
0.0
  0
LINE
  8
0
 62
     0
 10
225.858
 20
51.1362
 30
0.0
 11
226.657
 21
51.1362
 31
0.0
  0
LINE
  8
0
 62
     0
 10
226.657
 20
51.1362
 30
0.0
 11
226.657
 21
45.1362
 31
0.0
  0
LINE
  8
0
 62
     0
 10
226.657
 20
45.1362
 30
0.0
 11
225.858
 21
45.1362
 31
0.0
  0
LINE
  8
0
 62
     0
 10
225.858
 20
45.1362
 30
0.0
 11
225.858
 21
42.2356
 31
0.0
  0
LINE
  8
0
 62
     0
 10
225.858
 20
42.2356
 30
0.0
 11
226.657
 21
42.2356
 31
0.0
  0
LINE
  8
0
 62
     0
 10
226.657
 20
42.2356
 30
0.0
 11
226.657
 21
41.2365
 31
0.0
  0
LINE
  8
0
 62
     0
 10
226.657
 20
41.2365
 30
0.0
 11
240.458
 21
41.2365
 31
0.0
  0
LINE
  8
0
 62
     0
 10
240.458
 20
41.2365
 30
0.0
 11
240.458
 21
42.2356
 31
0.0
  0
LINE
  8
0
 62
     0
 10
240.458
 20
42.2356
 30
0.0
 11
241.257
 21
42.2356
 31
0.0
  0
LINE
  8
0
 62
     0
 10
241.257
 20
42.2356
 30
0.0
 11
241.257
 21
45.1362
 31
0.0
  0
LINE
  8
0
 62
     0
 10
241.257
 20
45.1362
 30
0.0
 11
240.458
 21
45.1362
 31
0.0
  0
LINE
  8
0
 62
     0
 10
240.458
 20
45.1362
 30
0.0
 11
240.458
 21
51.1362
 31
0.0
  0
LINE
  8
0
 62
     0
 10
240.458
 20
51.1362
 30
0.0
 11
241.257
 21
51.1362
 31
0.0
  0
LINE
  8
0
 62
     0
 10
241.257
 20
51.1362
 30
0.0
 11
241.257
 21
54.0357
 31
0.0
  0
LINE
  8
0
 62
     0
 10
241.257
 20
54.0357
 30
0.0
 11
240.458
 21
54.0357
 31
0.0
  0
LINE
  8
0
 62
     0
 10
240.458
 20
54.0357
 30
0.0
 11
240.458
 21
55.0362
 31
0.0
  0
LINE
  8
0
 62
     0
 10
240.458
 20
55.0362
 30
0.0
 11
226.657
 21
55.0362
 31
0.0
  0
LINE
  8
0
 62
     0
 10
207.607
 20
55.0362
 30
0.0
 11
207.607
 21
54.0357
 31
0.0
  0
LINE
  8
0
 62
     0
 10
207.607
 20
54.0357
 30
0.0
 11
206.808
 21
54.0357
 31
0.0
  0
LINE
  8
0
 62
     0
 10
206.808
 20
54.0357
 30
0.0
 11
206.808
 21
51.1362
 31
0.0
  0
LINE
  8
0
 62
     0
 10
206.808
 20
51.1362
 30
0.0
 11
207.607
 21
51.1362
 31
0.0
  0
LINE
  8
0
 62
     0
 10
207.607
 20
51.1362
 30
0.0
 11
207.607
 21
45.1362
 31
0.0
  0
LINE
  8
0
 62
     0
 10
207.607
 20
45.1362
 30
0.0
 11
206.808
 21
45.1362
 31
0.0
  0
LINE
  8
0
 62
     0
 10
206.808
 20
45.1362
 30
0.0
 11
206.808
 21
42.2356
 31
0.0
  0
LINE
  8
0
 62
     0
 10
206.808
 20
42.2356
 30
0.0
 11
207.607
 21
42.2356
 31
0.0
  0
LINE
  8
0
 62
     0
 10
207.607
 20
42.2356
 30
0.0
 11
207.607
 21
41.2365
 31
0.0
  0
LINE
  8
0
 62
     0
 10
207.607
 20
41.2365
 30
0.0
 11
221.408
 21
41.2365
 31
0.0
  0
LINE
  8
0
 62
     0
 10
221.408
 20
41.2365
 30
0.0
 11
221.408
 21
42.2356
 31
0.0
  0
LINE
  8
0
 62
     0
 10
221.408
 20
42.2356
 30
0.0
 11
222.207
 21
42.2356
 31
0.0
  0
LINE
  8
0
 62
     0
 10
222.207
 20
42.2356
 30
0.0
 11
222.207
 21
45.1362
 31
0.0
  0
LINE
  8
0
 62
     0
 10
222.207
 20
45.1362
 30
0.0
 11
221.408
 21
45.1362
 31
0.0
  0
LINE
  8
0
 62
     0
 10
221.408
 20
45.1362
 30
0.0
 11
221.408
 21
51.1362
 31
0.0
  0
LINE
  8
0
 62
     0
 10
221.408
 20
51.1362
 30
0.0
 11
222.207
 21
51.1362
 31
0.0
  0
LINE
  8
0
 62
     0
 10
222.207
 20
51.1362
 30
0.0
 11
222.207
 21
54.0357
 31
0.0
  0
LINE
  8
0
 62
     0
 10
222.207
 20
54.0357
 30
0.0
 11
221.408
 21
54.0357
 31
0.0
  0
LINE
  8
0
 62
     0
 10
221.408
 20
54.0357
 30
0.0
 11
221.408
 21
55.0362
 31
0.0
  0
LINE
  8
0
 62
     0
 10
221.408
 20
55.0362
 30
0.0
 11
207.607
 21
55.0362
 31
0.0
  0
LINE
  8
0
 62
     0
 10
188.557
 20
55.0362
 30
0.0
 11
188.557
 21
54.0357
 31
0.0
  0
LINE
  8
0
 62
     0
 10
188.557
 20
54.0357
 30
0.0
 11
187.758
 21
54.0357
 31
0.0
  0
LINE
  8
0
 62
     0
 10
187.758
 20
54.0357
 30
0.0
 11
187.758
 21
51.1362
 31
0.0
  0
LINE
  8
0
 62
     0
 10
187.758
 20
51.1362
 30
0.0
 11
188.557
 21
51.1362
 31
0.0
  0
LINE
  8
0
 62
     0
 10
188.557
 20
51.1362
 30
0.0
 11
188.557
 21
45.1362
 31
0.0
  0
LINE
  8
0
 62
     0
 10
188.557
 20
45.1362
 30
0.0
 11
187.758
 21
45.1362
 31
0.0
  0
LINE
  8
0
 62
     0
 10
187.758
 20
45.1362
 30
0.0
 11
187.758
 21
42.2356
 31
0.0
  0
LINE
  8
0
 62
     0
 10
187.758
 20
42.2356
 30
0.0
 11
188.557
 21
42.2356
 31
0.0
  0
LINE
  8
0
 62
     0
 10
188.557
 20
42.2356
 30
0.0
 11
188.557
 21
41.2365
 31
0.0
  0
LINE
  8
0
 62
     0
 10
188.557
 20
41.2365
 30
0.0
 11
202.358
 21
41.2365
 31
0.0
  0
LINE
  8
0
 62
     0
 10
202.358
 20
41.2365
 30
0.0
 11
202.358
 21
42.2356
 31
0.0
  0
LINE
  8
0
 62
     0
 10
202.358
 20
42.2356
 30
0.0
 11
203.157
 21
42.2356
 31
0.0
  0
LINE
  8
0
 62
     0
 10
203.157
 20
42.2356
 30
0.0
 11
203.157
 21
45.1362
 31
0.0
  0
LINE
  8
0
 62
     0
 10
203.157
 20
45.1362
 30
0.0
 11
202.358
 21
45.1362
 31
0.0
  0
LINE
  8
0
 62
     0
 10
202.358
 20
45.1362
 30
0.0
 11
202.358
 21
51.1362
 31
0.0
  0
LINE
  8
0
 62
     0
 10
202.358
 20
51.1362
 30
0.0
 11
203.157
 21
51.1362
 31
0.0
  0
LINE
  8
0
 62
     0
 10
203.157
 20
51.1362
 30
0.0
 11
203.157
 21
54.0357
 31
0.0
  0
LINE
  8
0
 62
     0
 10
203.157
 20
54.0357
 30
0.0
 11
202.358
 21
54.0357
 31
0.0
  0
LINE
  8
0
 62
     0
 10
202.358
 20
54.0357
 30
0.0
 11
202.358
 21
55.0362
 31
0.0
  0
LINE
  8
0
 62
     0
 10
202.358
 20
55.0362
 30
0.0
 11
188.557
 21
55.0362
 31
0.0
  0
LINE
  8
0
 62
     0
 10
169.507
 20
55.0362
 30
0.0
 11
169.507
 21
54.0357
 31
0.0
  0
LINE
  8
0
 62
     0
 10
169.507
 20
54.0357
 30
0.0
 11
168.708
 21
54.0357
 31
0.0
  0
LINE
  8
0
 62
     0
 10
168.708
 20
54.0357
 30
0.0
 11
168.708
 21
51.1362
 31
0.0
  0
LINE
  8
0
 62
     0
 10
168.708
 20
51.1362
 30
0.0
 11
169.507
 21
51.1362
 31
0.0
  0
LINE
  8
0
 62
     0
 10
169.507
 20
51.1362
 30
0.0
 11
169.507
 21
45.1362
 31
0.0
  0
LINE
  8
0
 62
     0
 10
169.507
 20
45.1362
 30
0.0
 11
168.708
 21
45.1362
 31
0.0
  0
LINE
  8
0
 62
     0
 10
168.708
 20
45.1362
 30
0.0
 11
168.708
 21
42.2356
 31
0.0
  0
LINE
  8
0
 62
     0
 10
168.708
 20
42.2356
 30
0.0
 11
169.507
 21
42.2356
 31
0.0
  0
LINE
  8
0
 62
     0
 10
169.507
 20
42.2356
 30
0.0
 11
169.507
 21
41.2365
 31
0.0
  0
LINE
  8
0
 62
     0
 10
169.507
 20
41.2365
 30
0.0
 11
183.308
 21
41.2365
 31
0.0
  0
LINE
  8
0
 62
     0
 10
183.308
 20
41.2365
 30
0.0
 11
183.308
 21
42.2356
 31
0.0
  0
LINE
  8
0
 62
     0
 10
183.308
 20
42.2356
 30
0.0
 11
184.107
 21
42.2356
 31
0.0
  0
LINE
  8
0
 62
     0
 10
184.107
 20
42.2356
 30
0.0
 11
184.107
 21
45.1362
 31
0.0
  0
LINE
  8
0
 62
     0
 10
184.107
 20
45.1362
 30
0.0
 11
183.308
 21
45.1362
 31
0.0
  0
LINE
  8
0
 62
     0
 10
183.308
 20
45.1362
 30
0.0
 11
183.308
 21
51.1362
 31
0.0
  0
LINE
  8
0
 62
     0
 10
183.308
 20
51.1362
 30
0.0
 11
184.107
 21
51.1362
 31
0.0
  0
LINE
  8
0
 62
     0
 10
184.107
 20
51.1362
 30
0.0
 11
184.107
 21
54.0357
 31
0.0
  0
LINE
  8
0
 62
     0
 10
184.107
 20
54.0357
 30
0.0
 11
183.308
 21
54.0357
 31
0.0
  0
LINE
  8
0
 62
     0
 10
183.308
 20
54.0357
 30
0.0
 11
183.308
 21
55.0362
 31
0.0
  0
LINE
  8
0
 62
     0
 10
183.308
 20
55.0362
 30
0.0
 11
169.507
 21
55.0362
 31
0.0
  0
LINE
  8
0
 62
     0
 10
150.457
 20
55.0362
 30
0.0
 11
150.457
 21
54.0357
 31
0.0
  0
LINE
  8
0
 62
     0
 10
150.457
 20
54.0357
 30
0.0
 11
149.658
 21
54.0357
 31
0.0
  0
LINE
  8
0
 62
     0
 10
149.658
 20
54.0357
 30
0.0
 11
149.658
 21
51.1362
 31
0.0
  0
LINE
  8
0
 62
     0
 10
149.658
 20
51.1362
 30
0.0
 11
150.457
 21
51.1362
 31
0.0
  0
LINE
  8
0
 62
     0
 10
150.457
 20
51.1362
 30
0.0
 11
150.457
 21
45.1362
 31
0.0
  0
LINE
  8
0
 62
     0
 10
150.457
 20
45.1362
 30
0.0
 11
149.658
 21
45.1362
 31
0.0
  0
LINE
  8
0
 62
     0
 10
149.658
 20
45.1362
 30
0.0
 11
149.658
 21
42.2356
 31
0.0
  0
LINE
  8
0
 62
     0
 10
149.658
 20
42.2356
 30
0.0
 11
150.457
 21
42.2356
 31
0.0
  0
LINE
  8
0
 62
     0
 10
150.457
 20
42.2356
 30
0.0
 11
150.457
 21
41.2365
 31
0.0
  0
LINE
  8
0
 62
     0
 10
150.457
 20
41.2365
 30
0.0
 11
164.258
 21
41.2365
 31
0.0
  0
LINE
  8
0
 62
     0
 10
164.258
 20
41.2365
 30
0.0
 11
164.258
 21
42.2356
 31
0.0
  0
LINE
  8
0
 62
     0
 10
164.258
 20
42.2356
 30
0.0
 11
165.057
 21
42.2356
 31
0.0
  0
LINE
  8
0
 62
     0
 10
165.057
 20
42.2356
 30
0.0
 11
165.057
 21
45.1362
 31
0.0
  0
LINE
  8
0
 62
     0
 10
165.057
 20
45.1362
 30
0.0
 11
164.258
 21
45.1362
 31
0.0
  0
LINE
  8
0
 62
     0
 10
164.258
 20
45.1362
 30
0.0
 11
164.258
 21
51.1362
 31
0.0
  0
LINE
  8
0
 62
     0
 10
164.258
 20
51.1362
 30
0.0
 11
165.057
 21
51.1362
 31
0.0
  0
LINE
  8
0
 62
     0
 10
165.057
 20
51.1362
 30
0.0
 11
165.057
 21
54.0357
 31
0.0
  0
LINE
  8
0
 62
     0
 10
165.057
 20
54.0357
 30
0.0
 11
164.258
 21
54.0357
 31
0.0
  0
LINE
  8
0
 62
     0
 10
164.258
 20
54.0357
 30
0.0
 11
164.258
 21
55.0362
 31
0.0
  0
LINE
  8
0
 62
     0
 10
164.258
 20
55.0362
 30
0.0
 11
150.457
 21
55.0362
 31
0.0
  0
LINE
  8
0
 62
     0
 10
131.407
 20
55.0362
 30
0.0
 11
131.407
 21
54.0357
 31
0.0
  0
LINE
  8
0
 62
     0
 10
131.407
 20
54.0357
 30
0.0
 11
130.608
 21
54.0357
 31
0.0
  0
LINE
  8
0
 62
     0
 10
130.608
 20
54.0357
 30
0.0
 11
130.608
 21
51.1362
 31
0.0
  0
LINE
  8
0
 62
     0
 10
130.608
 20
51.1362
 30
0.0
 11
131.407
 21
51.1362
 31
0.0
  0
LINE
  8
0
 62
     0
 10
131.407
 20
51.1362
 30
0.0
 11
131.407
 21
45.1362
 31
0.0
  0
LINE
  8
0
 62
     0
 10
131.407
 20
45.1362
 30
0.0
 11
130.608
 21
45.1362
 31
0.0
  0
LINE
  8
0
 62
     0
 10
130.608
 20
45.1362
 30
0.0
 11
130.608
 21
42.2356
 31
0.0
  0
LINE
  8
0
 62
     0
 10
130.608
 20
42.2356
 30
0.0
 11
131.407
 21
42.2356
 31
0.0
  0
LINE
  8
0
 62
     0
 10
131.407
 20
42.2356
 30
0.0
 11
131.407
 21
41.2365
 31
0.0
  0
LINE
  8
0
 62
     0
 10
131.407
 20
41.2365
 30
0.0
 11
145.208
 21
41.2365
 31
0.0
  0
LINE
  8
0
 62
     0
 10
145.208
 20
41.2365
 30
0.0
 11
145.208
 21
42.2356
 31
0.0
  0
LINE
  8
0
 62
     0
 10
145.208
 20
42.2356
 30
0.0
 11
146.007
 21
42.2356
 31
0.0
  0
LINE
  8
0
 62
     0
 10
146.007
 20
42.2356
 30
0.0
 11
146.007
 21
45.1362
 31
0.0
  0
LINE
  8
0
 62
     0
 10
146.007
 20
45.1362
 30
0.0
 11
145.208
 21
45.1362
 31
0.0
  0
LINE
  8
0
 62
     0
 10
145.208
 20
45.1362
 30
0.0
 11
145.208
 21
51.1362
 31
0.0
  0
LINE
  8
0
 62
     0
 10
145.208
 20
51.1362
 30
0.0
 11
146.007
 21
51.1362
 31
0.0
  0
LINE
  8
0
 62
     0
 10
146.007
 20
51.1362
 30
0.0
 11
146.007
 21
54.0357
 31
0.0
  0
LINE
  8
0
 62
     0
 10
146.007
 20
54.0357
 30
0.0
 11
145.208
 21
54.0357
 31
0.0
  0
LINE
  8
0
 62
     0
 10
145.208
 20
54.0357
 30
0.0
 11
145.208
 21
55.0362
 31
0.0
  0
LINE
  8
0
 62
     0
 10
145.208
 20
55.0362
 30
0.0
 11
131.407
 21
55.0362
 31
0.0
  0
LINE
  8
0
 62
     0
 10
112.357
 20
55.0362
 30
0.0
 11
112.357
 21
54.0357
 31
0.0
  0
LINE
  8
0
 62
     0
 10
112.357
 20
54.0357
 30
0.0
 11
111.558
 21
54.0357
 31
0.0
  0
LINE
  8
0
 62
     0
 10
111.558
 20
54.0357
 30
0.0
 11
111.558
 21
51.1362
 31
0.0
  0
LINE
  8
0
 62
     0
 10
111.558
 20
51.1362
 30
0.0
 11
112.357
 21
51.1362
 31
0.0
  0
LINE
  8
0
 62
     0
 10
112.357
 20
51.1362
 30
0.0
 11
112.357
 21
45.1362
 31
0.0
  0
LINE
  8
0
 62
     0
 10
112.357
 20
45.1362
 30
0.0
 11
111.558
 21
45.1362
 31
0.0
  0
LINE
  8
0
 62
     0
 10
111.558
 20
45.1362
 30
0.0
 11
111.558
 21
42.2356
 31
0.0
  0
LINE
  8
0
 62
     0
 10
111.558
 20
42.2356
 30
0.0
 11
112.357
 21
42.2356
 31
0.0
  0
LINE
  8
0
 62
     0
 10
112.357
 20
42.2356
 30
0.0
 11
112.357
 21
41.2365
 31
0.0
  0
LINE
  8
0
 62
     0
 10
112.357
 20
41.2365
 30
0.0
 11
126.158
 21
41.2365
 31
0.0
  0
LINE
  8
0
 62
     0
 10
126.158
 20
41.2365
 30
0.0
 11
126.158
 21
42.2356
 31
0.0
  0
LINE
  8
0
 62
     0
 10
126.158
 20
42.2356
 30
0.0
 11
126.957
 21
42.2356
 31
0.0
  0
LINE
  8
0
 62
     0
 10
126.957
 20
42.2356
 30
0.0
 11
126.957
 21
45.1362
 31
0.0
  0
LINE
  8
0
 62
     0
 10
126.957
 20
45.1362
 30
0.0
 11
126.158
 21
45.1362
 31
0.0
  0
LINE
  8
0
 62
     0
 10
126.158
 20
45.1362
 30
0.0
 11
126.158
 21
51.1362
 31
0.0
  0
LINE
  8
0
 62
     0
 10
126.158
 20
51.1362
 30
0.0
 11
126.957
 21
51.1362
 31
0.0
  0
LINE
  8
0
 62
     0
 10
126.957
 20
51.1362
 30
0.0
 11
126.957
 21
54.0357
 31
0.0
  0
LINE
  8
0
 62
     0
 10
126.957
 20
54.0357
 30
0.0
 11
126.158
 21
54.0357
 31
0.0
  0
LINE
  8
0
 62
     0
 10
126.158
 20
54.0357
 30
0.0
 11
126.158
 21
55.0362
 31
0.0
  0
LINE
  8
0
 62
     0
 10
126.158
 20
55.0362
 30
0.0
 11
112.357
 21
55.0362
 31
0.0
  0
LINE
  8
0
 62
     0
 10
93.3069
 20
55.0362
 30
0.0
 11
93.3069
 21
54.0357
 31
0.0
  0
LINE
  8
0
 62
     0
 10
93.3069
 20
54.0357
 30
0.0
 11
92.5079
 21
54.0357
 31
0.0
  0
LINE
  8
0
 62
     0
 10
92.5079
 20
54.0357
 30
0.0
 11
92.5079
 21
51.1362
 31
0.0
  0
LINE
  8
0
 62
     0
 10
92.5079
 20
51.1362
 30
0.0
 11
93.3069
 21
51.1362
 31
0.0
  0
LINE
  8
0
 62
     0
 10
93.3069
 20
51.1362
 30
0.0
 11
93.3069
 21
45.1362
 31
0.0
  0
LINE
  8
0
 62
     0
 10
93.3069
 20
45.1362
 30
0.0
 11
92.5079
 21
45.1362
 31
0.0
  0
LINE
  8
0
 62
     0
 10
92.5079
 20
45.1362
 30
0.0
 11
92.5079
 21
42.2356
 31
0.0
  0
LINE
  8
0
 62
     0
 10
92.5079
 20
42.2356
 30
0.0
 11
93.3069
 21
42.2356
 31
0.0
  0
LINE
  8
0
 62
     0
 10
93.3069
 20
42.2356
 30
0.0
 11
93.3069
 21
41.2365
 31
0.0
  0
LINE
  8
0
 62
     0
 10
93.3069
 20
41.2365
 30
0.0
 11
107.108
 21
41.2365
 31
0.0
  0
LINE
  8
0
 62
     0
 10
107.108
 20
41.2365
 30
0.0
 11
107.108
 21
42.2356
 31
0.0
  0
LINE
  8
0
 62
     0
 10
107.108
 20
42.2356
 30
0.0
 11
107.907
 21
42.2356
 31
0.0
  0
LINE
  8
0
 62
     0
 10
107.907
 20
42.2356
 30
0.0
 11
107.907
 21
45.1362
 31
0.0
  0
LINE
  8
0
 62
     0
 10
107.907
 20
45.1362
 30
0.0
 11
107.108
 21
45.1362
 31
0.0
  0
LINE
  8
0
 62
     0
 10
107.108
 20
45.1362
 30
0.0
 11
107.108
 21
51.1362
 31
0.0
  0
LINE
  8
0
 62
     0
 10
107.108
 20
51.1362
 30
0.0
 11
107.907
 21
51.1362
 31
0.0
  0
LINE
  8
0
 62
     0
 10
107.907
 20
51.1362
 30
0.0
 11
107.907
 21
54.0357
 31
0.0
  0
LINE
  8
0
 62
     0
 10
107.907
 20
54.0357
 30
0.0
 11
107.108
 21
54.0357
 31
0.0
  0
LINE
  8
0
 62
     0
 10
107.108
 20
54.0357
 30
0.0
 11
107.108
 21
55.0362
 31
0.0
  0
LINE
  8
0
 62
     0
 10
107.108
 20
55.0362
 30
0.0
 11
93.3069
 21
55.0362
 31
0.0
  0
LINE
  8
0
 62
     0
 10
74.2569
 20
55.0362
 30
0.0
 11
74.2569
 21
54.0357
 31
0.0
  0
LINE
  8
0
 62
     0
 10
74.2569
 20
54.0357
 30
0.0
 11
73.4579
 21
54.0357
 31
0.0
  0
LINE
  8
0
 62
     0
 10
73.4579
 20
54.0357
 30
0.0
 11
73.4579
 21
51.1362
 31
0.0
  0
LINE
  8
0
 62
     0
 10
73.4579
 20
51.1362
 30
0.0
 11
74.2569
 21
51.1362
 31
0.0
  0
LINE
  8
0
 62
     0
 10
74.2569
 20
51.1362
 30
0.0
 11
74.2569
 21
45.1362
 31
0.0
  0
LINE
  8
0
 62
     0
 10
74.2569
 20
45.1362
 30
0.0
 11
73.4579
 21
45.1362
 31
0.0
  0
LINE
  8
0
 62
     0
 10
73.4579
 20
45.1362
 30
0.0
 11
73.4579
 21
42.2356
 31
0.0
  0
LINE
  8
0
 62
     0
 10
73.4579
 20
42.2356
 30
0.0
 11
74.2569
 21
42.2356
 31
0.0
  0
LINE
  8
0
 62
     0
 10
74.2569
 20
42.2356
 30
0.0
 11
74.2569
 21
41.2365
 31
0.0
  0
LINE
  8
0
 62
     0
 10
74.2569
 20
41.2365
 30
0.0
 11
88.0579
 21
41.2365
 31
0.0
  0
LINE
  8
0
 62
     0
 10
88.0579
 20
41.2365
 30
0.0
 11
88.0579
 21
42.2356
 31
0.0
  0
LINE
  8
0
 62
     0
 10
88.0579
 20
42.2356
 30
0.0
 11
88.8573
 21
42.2356
 31
0.0
  0
LINE
  8
0
 62
     0
 10
88.8573
 20
42.2356
 30
0.0
 11
88.8573
 21
45.1362
 31
0.0
  0
LINE
  8
0
 62
     0
 10
88.8573
 20
45.1362
 30
0.0
 11
88.0579
 21
45.1362
 31
0.0
  0
LINE
  8
0
 62
     0
 10
88.0579
 20
45.1362
 30
0.0
 11
88.0579
 21
51.1362
 31
0.0
  0
LINE
  8
0
 62
     0
 10
88.0579
 20
51.1362
 30
0.0
 11
88.8573
 21
51.1362
 31
0.0
  0
LINE
  8
0
 62
     0
 10
88.8573
 20
51.1362
 30
0.0
 11
88.8573
 21
54.0357
 31
0.0
  0
LINE
  8
0
 62
     0
 10
88.8573
 20
54.0357
 30
0.0
 11
88.0579
 21
54.0357
 31
0.0
  0
LINE
  8
0
 62
     0
 10
88.0579
 20
54.0357
 30
0.0
 11
88.0579
 21
55.0362
 31
0.0
  0
LINE
  8
0
 62
     0
 10
88.0579
 20
55.0362
 30
0.0
 11
74.2569
 21
55.0362
 31
0.0
  0
LINE
  8
0
 62
     0
 10
55.2069
 20
55.0362
 30
0.0
 11
55.2069
 21
54.0357
 31
0.0
  0
LINE
  8
0
 62
     0
 10
55.2069
 20
54.0357
 30
0.0
 11
54.4079
 21
54.0357
 31
0.0
  0
LINE
  8
0
 62
     0
 10
54.4079
 20
54.0357
 30
0.0
 11
54.4079
 21
51.1362
 31
0.0
  0
LINE
  8
0
 62
     0
 10
54.4079
 20
51.1362
 30
0.0
 11
55.2069
 21
51.1362
 31
0.0
  0
LINE
  8
0
 62
     0
 10
55.2069
 20
51.1362
 30
0.0
 11
55.2069
 21
45.1362
 31
0.0
  0
LINE
  8
0
 62
     0
 10
55.2069
 20
45.1362
 30
0.0
 11
54.4079
 21
45.1362
 31
0.0
  0
LINE
  8
0
 62
     0
 10
54.4079
 20
45.1362
 30
0.0
 11
54.4079
 21
42.2356
 31
0.0
  0
LINE
  8
0
 62
     0
 10
54.4079
 20
42.2356
 30
0.0
 11
55.2069
 21
42.2356
 31
0.0
  0
LINE
  8
0
 62
     0
 10
55.2069
 20
42.2356
 30
0.0
 11
55.2069
 21
41.2365
 31
0.0
  0
LINE
  8
0
 62
     0
 10
55.2069
 20
41.2365
 30
0.0
 11
69.0079
 21
41.2365
 31
0.0
  0
LINE
  8
0
 62
     0
 10
69.0079
 20
41.2365
 30
0.0
 11
69.0079
 21
42.2356
 31
0.0
  0
LINE
  8
0
 62
     0
 10
69.0079
 20
42.2356
 30
0.0
 11
69.8073
 21
42.2356
 31
0.0
  0
LINE
  8
0
 62
     0
 10
69.8073
 20
42.2356
 30
0.0
 11
69.8073
 21
45.1362
 31
0.0
  0
LINE
  8
0
 62
     0
 10
69.8073
 20
45.1362
 30
0.0
 11
69.0079
 21
45.1362
 31
0.0
  0
LINE
  8
0
 62
     0
 10
69.0079
 20
45.1362
 30
0.0
 11
69.0079
 21
51.1362
 31
0.0
  0
LINE
  8
0
 62
     0
 10
69.0079
 20
51.1362
 30
0.0
 11
69.8073
 21
51.1362
 31
0.0
  0
LINE
  8
0
 62
     0
 10
69.8073
 20
51.1362
 30
0.0
 11
69.8073
 21
54.0357
 31
0.0
  0
LINE
  8
0
 62
     0
 10
69.8073
 20
54.0357
 30
0.0
 11
69.0079
 21
54.0357
 31
0.0
  0
LINE
  8
0
 62
     0
 10
69.0079
 20
54.0357
 30
0.0
 11
69.0079
 21
55.0362
 31
0.0
  0
LINE
  8
0
 62
     0
 10
69.0079
 20
55.0362
 30
0.0
 11
55.2069
 21
55.0362
 31
0.0
  0
LINE
  8
0
 62
     0
 10
36.1569
 20
55.0362
 30
0.0
 11
36.1569
 21
54.0357
 31
0.0
  0
LINE
  8
0
 62
     0
 10
36.1569
 20
54.0357
 30
0.0
 11
35.3579
 21
54.0357
 31
0.0
  0
LINE
  8
0
 62
     0
 10
35.3579
 20
54.0357
 30
0.0
 11
35.3579
 21
51.1362
 31
0.0
  0
LINE
  8
0
 62
     0
 10
35.3579
 20
51.1362
 30
0.0
 11
36.1569
 21
51.1362
 31
0.0
  0
LINE
  8
0
 62
     0
 10
36.1569
 20
51.1362
 30
0.0
 11
36.1569
 21
45.1362
 31
0.0
  0
LINE
  8
0
 62
     0
 10
36.1569
 20
45.1362
 30
0.0
 11
35.3579
 21
45.1362
 31
0.0
  0
LINE
  8
0
 62
     0
 10
35.3579
 20
45.1362
 30
0.0
 11
35.3579
 21
42.2356
 31
0.0
  0
LINE
  8
0
 62
     0
 10
35.3579
 20
42.2356
 30
0.0
 11
36.1569
 21
42.2356
 31
0.0
  0
LINE
  8
0
 62
     0
 10
36.1569
 20
42.2356
 30
0.0
 11
36.1569
 21
41.2365
 31
0.0
  0
LINE
  8
0
 62
     0
 10
36.1569
 20
41.2365
 30
0.0
 11
49.9579
 21
41.2365
 31
0.0
  0
LINE
  8
0
 62
     0
 10
49.9579
 20
41.2365
 30
0.0
 11
49.9579
 21
42.2356
 31
0.0
  0
LINE
  8
0
 62
     0
 10
49.9579
 20
42.2356
 30
0.0
 11
50.7573
 21
42.2356
 31
0.0
  0
LINE
  8
0
 62
     0
 10
50.7573
 20
42.2356
 30
0.0
 11
50.7573
 21
45.1362
 31
0.0
  0
LINE
  8
0
 62
     0
 10
50.7573
 20
45.1362
 30
0.0
 11
49.9579
 21
45.1362
 31
0.0
  0
LINE
  8
0
 62
     0
 10
49.9579
 20
45.1362
 30
0.0
 11
49.9579
 21
51.1362
 31
0.0
  0
LINE
  8
0
 62
     0
 10
49.9579
 20
51.1362
 30
0.0
 11
50.7573
 21
51.1362
 31
0.0
  0
LINE
  8
0
 62
     0
 10
50.7573
 20
51.1362
 30
0.0
 11
50.7573
 21
54.0357
 31
0.0
  0
LINE
  8
0
 62
     0
 10
50.7573
 20
54.0357
 30
0.0
 11
49.9579
 21
54.0357
 31
0.0
  0
LINE
  8
0
 62
     0
 10
49.9579
 20
54.0357
 30
0.0
 11
49.9579
 21
55.0362
 31
0.0
  0
LINE
  8
0
 62
     0
 10
49.9579
 20
55.0362
 30
0.0
 11
36.1569
 21
55.0362
 31
0.0
  0
LINE
  8
0
 62
     0
 10
9.96322
 20
55.0362
 30
0.0
 11
9.96322
 21
54.0357
 31
0.0
  0
LINE
  8
0
 62
     0
 10
9.96322
 20
54.0357
 30
0.0
 11
9.16397
 21
54.0357
 31
0.0
  0
LINE
  8
0
 62
     0
 10
9.16397
 20
54.0357
 30
0.0
 11
9.16397
 21
51.1362
 31
0.0
  0
LINE
  8
0
 62
     0
 10
9.16397
 20
51.1362
 30
0.0
 11
9.96322
 21
51.1362
 31
0.0
  0
LINE
  8
0
 62
     0
 10
9.96322
 20
51.1362
 30
0.0
 11
9.96322
 21
45.1362
 31
0.0
  0
LINE
  8
0
 62
     0
 10
9.96322
 20
45.1362
 30
0.0
 11
9.16397
 21
45.1362
 31
0.0
  0
LINE
  8
0
 62
     0
 10
9.16397
 20
45.1362
 30
0.0
 11
9.16397
 21
42.2356
 31
0.0
  0
LINE
  8
0
 62
     0
 10
9.16397
 20
42.2356
 30
0.0
 11
9.96322
 21
42.2356
 31
0.0
  0
LINE
  8
0
 62
     0
 10
9.96322
 20
42.2356
 30
0.0
 11
9.96322
 21
41.2365
 31
0.0
  0
LINE
  8
0
 62
     0
 10
9.96322
 20
41.2365
 30
0.0
 11
23.7629
 21
41.2365
 31
0.0
  0
LINE
  8
0
 62
     0
 10
23.7629
 20
41.2365
 30
0.0
 11
23.7629
 21
42.2356
 31
0.0
  0
LINE
  8
0
 62
     0
 10
23.7629
 20
42.2356
 30
0.0
 11
24.5635
 21
42.2356
 31
0.0
  0
LINE
  8
0
 62
     0
 10
24.5635
 20
42.2356
 30
0.0
 11
24.5635
 21
45.1362
 31
0.0
  0
LINE
  8
0
 62
     0
 10
24.5635
 20
45.1362
 30
0.0
 11
23.7629
 21
45.1362
 31
0.0
  0
LINE
  8
0
 62
     0
 10
23.7629
 20
45.1362
 30
0.0
 11
23.7629
 21
51.1362
 31
0.0
  0
LINE
  8
0
 62
     0
 10
23.7629
 20
51.1362
 30
0.0
 11
24.5635
 21
51.1362
 31
0.0
  0
LINE
  8
0
 62
     0
 10
24.5635
 20
51.1362
 30
0.0
 11
24.5635
 21
54.0357
 31
0.0
  0
LINE
  8
0
 62
     0
 10
24.5635
 20
54.0357
 30
0.0
 11
23.7629
 21
54.0357
 31
0.0
  0
LINE
  8
0
 62
     0
 10
23.7629
 20
54.0357
 30
0.0
 11
23.7629
 21
55.0362
 31
0.0
  0
LINE
  8
0
 62
     0
 10
23.7629
 20
55.0362
 30
0.0
 11
9.96322
 21
55.0362
 31
0.0
  0
LINE
  8
0
 62
     0
 10
331.432
 20
74.0847
 30
0.0
 11
331.432
 21
73.0857
 31
0.0
  0
LINE
  8
0
 62
     0
 10
331.432
 20
73.0857
 30
0.0
 11
330.633
 21
73.0857
 31
0.0
  0
LINE
  8
0
 62
     0
 10
330.633
 20
73.0857
 30
0.0
 11
330.633
 21
70.1862
 31
0.0
  0
LINE
  8
0
 62
     0
 10
330.633
 20
70.1862
 30
0.0
 11
331.432
 21
70.1862
 31
0.0
  0
LINE
  8
0
 62
     0
 10
331.432
 20
70.1862
 30
0.0
 11
331.432
 21
64.1847
 31
0.0
  0
LINE
  8
0
 62
     0
 10
331.432
 20
64.1847
 30
0.0
 11
330.633
 21
64.1847
 31
0.0
  0
LINE
  8
0
 62
     0
 10
330.633
 20
64.1847
 30
0.0
 11
330.633
 21
61.2856
 31
0.0
  0
LINE
  8
0
 62
     0
 10
330.633
 20
61.2856
 30
0.0
 11
331.432
 21
61.2856
 31
0.0
  0
LINE
  8
0
 62
     0
 10
331.432
 20
61.2856
 30
0.0
 11
331.432
 21
60.2865
 31
0.0
  0
LINE
  8
0
 62
     0
 10
331.432
 20
60.2865
 30
0.0
 11
345.233
 21
60.2865
 31
0.0
  0
LINE
  8
0
 62
     0
 10
345.233
 20
60.2865
 30
0.0
 11
345.233
 21
61.2856
 31
0.0
  0
LINE
  8
0
 62
     0
 10
345.233
 20
61.2856
 30
0.0
 11
346.032
 21
61.2856
 31
0.0
  0
LINE
  8
0
 62
     0
 10
346.032
 20
61.2856
 30
0.0
 11
346.032
 21
64.1847
 31
0.0
  0
LINE
  8
0
 62
     0
 10
346.032
 20
64.1847
 30
0.0
 11
345.233
 21
64.1847
 31
0.0
  0
LINE
  8
0
 62
     0
 10
345.233
 20
64.1847
 30
0.0
 11
345.233
 21
70.1862
 31
0.0
  0
LINE
  8
0
 62
     0
 10
345.233
 20
70.1862
 30
0.0
 11
346.032
 21
70.1862
 31
0.0
  0
LINE
  8
0
 62
     0
 10
346.032
 20
70.1862
 30
0.0
 11
346.032
 21
73.0857
 31
0.0
  0
LINE
  8
0
 62
     0
 10
346.032
 20
73.0857
 30
0.0
 11
345.233
 21
73.0857
 31
0.0
  0
LINE
  8
0
 62
     0
 10
345.233
 20
73.0857
 30
0.0
 11
345.233
 21
74.0847
 31
0.0
  0
LINE
  8
0
 62
     0
 10
345.233
 20
74.0847
 30
0.0
 11
331.432
 21
74.0847
 31
0.0
  0
LINE
  8
0
 62
     0
 10
312.382
 20
74.0847
 30
0.0
 11
312.382
 21
73.0857
 31
0.0
  0
LINE
  8
0
 62
     0
 10
312.382
 20
73.0857
 30
0.0
 11
311.583
 21
73.0857
 31
0.0
  0
LINE
  8
0
 62
     0
 10
311.583
 20
73.0857
 30
0.0
 11
311.583
 21
70.1862
 31
0.0
  0
LINE
  8
0
 62
     0
 10
311.583
 20
70.1862
 30
0.0
 11
312.382
 21
70.1862
 31
0.0
  0
LINE
  8
0
 62
     0
 10
312.382
 20
70.1862
 30
0.0
 11
312.382
 21
64.1847
 31
0.0
  0
LINE
  8
0
 62
     0
 10
312.382
 20
64.1847
 30
0.0
 11
311.583
 21
64.1847
 31
0.0
  0
LINE
  8
0
 62
     0
 10
311.583
 20
64.1847
 30
0.0
 11
311.583
 21
61.2856
 31
0.0
  0
LINE
  8
0
 62
     0
 10
311.583
 20
61.2856
 30
0.0
 11
312.382
 21
61.2856
 31
0.0
  0
LINE
  8
0
 62
     0
 10
312.382
 20
61.2856
 30
0.0
 11
312.382
 21
60.2865
 31
0.0
  0
LINE
  8
0
 62
     0
 10
312.382
 20
60.2865
 30
0.0
 11
326.183
 21
60.2865
 31
0.0
  0
LINE
  8
0
 62
     0
 10
326.183
 20
60.2865
 30
0.0
 11
326.183
 21
61.2856
 31
0.0
  0
LINE
  8
0
 62
     0
 10
326.183
 20
61.2856
 30
0.0
 11
326.982
 21
61.2856
 31
0.0
  0
LINE
  8
0
 62
     0
 10
326.982
 20
61.2856
 30
0.0
 11
326.982
 21
64.1847
 31
0.0
  0
LINE
  8
0
 62
     0
 10
326.982
 20
64.1847
 30
0.0
 11
326.183
 21
64.1847
 31
0.0
  0
LINE
  8
0
 62
     0
 10
326.183
 20
64.1847
 30
0.0
 11
326.183
 21
70.1862
 31
0.0
  0
LINE
  8
0
 62
     0
 10
326.183
 20
70.1862
 30
0.0
 11
326.982
 21
70.1862
 31
0.0
  0
LINE
  8
0
 62
     0
 10
326.982
 20
70.1862
 30
0.0
 11
326.982
 21
73.0857
 31
0.0
  0
LINE
  8
0
 62
     0
 10
326.982
 20
73.0857
 30
0.0
 11
326.183
 21
73.0857
 31
0.0
  0
LINE
  8
0
 62
     0
 10
326.183
 20
73.0857
 30
0.0
 11
326.183
 21
74.0847
 31
0.0
  0
LINE
  8
0
 62
     0
 10
326.183
 20
74.0847
 30
0.0
 11
312.382
 21
74.0847
 31
0.0
  0
LINE
  8
0
 62
     0
 10
293.332
 20
74.0847
 30
0.0
 11
293.332
 21
73.0857
 31
0.0
  0
LINE
  8
0
 62
     0
 10
293.332
 20
73.0857
 30
0.0
 11
292.533
 21
73.0857
 31
0.0
  0
LINE
  8
0
 62
     0
 10
292.533
 20
73.0857
 30
0.0
 11
292.533
 21
70.1862
 31
0.0
  0
LINE
  8
0
 62
     0
 10
292.533
 20
70.1862
 30
0.0
 11
293.332
 21
70.1862
 31
0.0
  0
LINE
  8
0
 62
     0
 10
293.332
 20
70.1862
 30
0.0
 11
293.332
 21
64.1847
 31
0.0
  0
LINE
  8
0
 62
     0
 10
293.332
 20
64.1847
 30
0.0
 11
292.533
 21
64.1847
 31
0.0
  0
LINE
  8
0
 62
     0
 10
292.533
 20
64.1847
 30
0.0
 11
292.533
 21
61.2856
 31
0.0
  0
LINE
  8
0
 62
     0
 10
292.533
 20
61.2856
 30
0.0
 11
293.332
 21
61.2856
 31
0.0
  0
LINE
  8
0
 62
     0
 10
293.332
 20
61.2856
 30
0.0
 11
293.332
 21
60.2865
 31
0.0
  0
LINE
  8
0
 62
     0
 10
293.332
 20
60.2865
 30
0.0
 11
307.133
 21
60.2865
 31
0.0
  0
LINE
  8
0
 62
     0
 10
307.133
 20
60.2865
 30
0.0
 11
307.133
 21
61.2856
 31
0.0
  0
LINE
  8
0
 62
     0
 10
307.133
 20
61.2856
 30
0.0
 11
307.932
 21
61.2856
 31
0.0
  0
LINE
  8
0
 62
     0
 10
307.932
 20
61.2856
 30
0.0
 11
307.932
 21
64.1847
 31
0.0
  0
LINE
  8
0
 62
     0
 10
307.932
 20
64.1847
 30
0.0
 11
307.133
 21
64.1847
 31
0.0
  0
LINE
  8
0
 62
     0
 10
307.133
 20
64.1847
 30
0.0
 11
307.133
 21
70.1862
 31
0.0
  0
LINE
  8
0
 62
     0
 10
307.133
 20
70.1862
 30
0.0
 11
307.932
 21
70.1862
 31
0.0
  0
LINE
  8
0
 62
     0
 10
307.932
 20
70.1862
 30
0.0
 11
307.932
 21
73.0857
 31
0.0
  0
LINE
  8
0
 62
     0
 10
307.932
 20
73.0857
 30
0.0
 11
307.133
 21
73.0857
 31
0.0
  0
LINE
  8
0
 62
     0
 10
307.133
 20
73.0857
 30
0.0
 11
307.133
 21
74.0847
 31
0.0
  0
LINE
  8
0
 62
     0
 10
307.133
 20
74.0847
 30
0.0
 11
293.332
 21
74.0847
 31
0.0
  0
LINE
  8
0
 62
     0
 10
264.757
 20
74.0847
 30
0.0
 11
264.757
 21
73.0857
 31
0.0
  0
LINE
  8
0
 62
     0
 10
264.757
 20
73.0857
 30
0.0
 11
263.958
 21
73.0857
 31
0.0
  0
LINE
  8
0
 62
     0
 10
263.958
 20
73.0857
 30
0.0
 11
263.958
 21
70.1862
 31
0.0
  0
LINE
  8
0
 62
     0
 10
263.958
 20
70.1862
 30
0.0
 11
264.757
 21
70.1862
 31
0.0
  0
LINE
  8
0
 62
     0
 10
264.757
 20
70.1862
 30
0.0
 11
264.757
 21
64.1847
 31
0.0
  0
LINE
  8
0
 62
     0
 10
264.757
 20
64.1847
 30
0.0
 11
263.958
 21
64.1847
 31
0.0
  0
LINE
  8
0
 62
     0
 10
263.958
 20
64.1847
 30
0.0
 11
263.958
 21
61.2856
 31
0.0
  0
LINE
  8
0
 62
     0
 10
263.958
 20
61.2856
 30
0.0
 11
264.757
 21
61.2856
 31
0.0
  0
LINE
  8
0
 62
     0
 10
264.757
 20
61.2856
 30
0.0
 11
264.757
 21
60.2865
 31
0.0
  0
LINE
  8
0
 62
     0
 10
264.757
 20
60.2865
 30
0.0
 11
278.558
 21
60.2865
 31
0.0
  0
LINE
  8
0
 62
     0
 10
278.558
 20
60.2865
 30
0.0
 11
278.558
 21
61.2856
 31
0.0
  0
LINE
  8
0
 62
     0
 10
278.558
 20
61.2856
 30
0.0
 11
279.357
 21
61.2856
 31
0.0
  0
LINE
  8
0
 62
     0
 10
279.357
 20
61.2856
 30
0.0
 11
279.357
 21
64.1847
 31
0.0
  0
LINE
  8
0
 62
     0
 10
279.357
 20
64.1847
 30
0.0
 11
278.558
 21
64.1847
 31
0.0
  0
LINE
  8
0
 62
     0
 10
278.558
 20
64.1847
 30
0.0
 11
278.558
 21
70.1862
 31
0.0
  0
LINE
  8
0
 62
     0
 10
278.558
 20
70.1862
 30
0.0
 11
279.357
 21
70.1862
 31
0.0
  0
LINE
  8
0
 62
     0
 10
279.357
 20
70.1862
 30
0.0
 11
279.357
 21
73.0857
 31
0.0
  0
LINE
  8
0
 62
     0
 10
279.357
 20
73.0857
 30
0.0
 11
278.558
 21
73.0857
 31
0.0
  0
LINE
  8
0
 62
     0
 10
278.558
 20
73.0857
 30
0.0
 11
278.558
 21
74.0847
 31
0.0
  0
LINE
  8
0
 62
     0
 10
278.558
 20
74.0847
 30
0.0
 11
264.757
 21
74.0847
 31
0.0
  0
LINE
  8
0
 62
     0
 10
240.946
 20
74.0847
 30
0.0
 11
240.946
 21
73.0857
 31
0.0
  0
LINE
  8
0
 62
     0
 10
240.946
 20
73.0857
 30
0.0
 11
240.145
 21
73.0857
 31
0.0
  0
LINE
  8
0
 62
     0
 10
240.145
 20
73.0857
 30
0.0
 11
240.145
 21
70.1862
 31
0.0
  0
LINE
  8
0
 62
     0
 10
240.145
 20
70.1862
 30
0.0
 11
240.946
 21
70.1862
 31
0.0
  0
LINE
  8
0
 62
     0
 10
240.946
 20
70.1862
 30
0.0
 11
240.946
 21
64.1847
 31
0.0
  0
LINE
  8
0
 62
     0
 10
240.946
 20
64.1847
 30
0.0
 11
240.145
 21
64.1847
 31
0.0
  0
LINE
  8
0
 62
     0
 10
240.145
 20
64.1847
 30
0.0
 11
240.145
 21
61.2856
 31
0.0
  0
LINE
  8
0
 62
     0
 10
240.145
 20
61.2856
 30
0.0
 11
240.946
 21
61.2856
 31
0.0
  0
LINE
  8
0
 62
     0
 10
240.946
 20
61.2856
 30
0.0
 11
240.946
 21
60.2865
 31
0.0
  0
LINE
  8
0
 62
     0
 10
240.946
 20
60.2865
 30
0.0
 11
254.744
 21
60.2865
 31
0.0
  0
LINE
  8
0
 62
     0
 10
254.744
 20
60.2865
 30
0.0
 11
254.744
 21
61.2856
 31
0.0
  0
LINE
  8
0
 62
     0
 10
254.744
 20
61.2856
 30
0.0
 11
255.546
 21
61.2856
 31
0.0
  0
LINE
  8
0
 62
     0
 10
255.546
 20
61.2856
 30
0.0
 11
255.546
 21
64.1847
 31
0.0
  0
LINE
  8
0
 62
     0
 10
255.546
 20
64.1847
 30
0.0
 11
254.744
 21
64.1847
 31
0.0
  0
LINE
  8
0
 62
     0
 10
254.744
 20
64.1847
 30
0.0
 11
254.744
 21
70.1862
 31
0.0
  0
LINE
  8
0
 62
     0
 10
254.744
 20
70.1862
 30
0.0
 11
255.546
 21
70.1862
 31
0.0
  0
LINE
  8
0
 62
     0
 10
255.546
 20
70.1862
 30
0.0
 11
255.546
 21
73.0857
 31
0.0
  0
LINE
  8
0
 62
     0
 10
255.546
 20
73.0857
 30
0.0
 11
254.744
 21
73.0857
 31
0.0
  0
LINE
  8
0
 62
     0
 10
254.744
 20
73.0857
 30
0.0
 11
254.744
 21
74.0847
 31
0.0
  0
LINE
  8
0
 62
     0
 10
254.744
 20
74.0847
 30
0.0
 11
240.946
 21
74.0847
 31
0.0
  0
LINE
  8
0
 62
     0
 10
221.896
 20
74.0847
 30
0.0
 11
221.896
 21
73.0857
 31
0.0
  0
LINE
  8
0
 62
     0
 10
221.896
 20
73.0857
 30
0.0
 11
221.095
 21
73.0857
 31
0.0
  0
LINE
  8
0
 62
     0
 10
221.095
 20
73.0857
 30
0.0
 11
221.095
 21
70.1862
 31
0.0
  0
LINE
  8
0
 62
     0
 10
221.095
 20
70.1862
 30
0.0
 11
221.896
 21
70.1862
 31
0.0
  0
LINE
  8
0
 62
     0
 10
221.896
 20
70.1862
 30
0.0
 11
221.896
 21
64.1847
 31
0.0
  0
LINE
  8
0
 62
     0
 10
221.896
 20
64.1847
 30
0.0
 11
221.095
 21
64.1847
 31
0.0
  0
LINE
  8
0
 62
     0
 10
221.095
 20
64.1847
 30
0.0
 11
221.095
 21
61.2856
 31
0.0
  0
LINE
  8
0
 62
     0
 10
221.095
 20
61.2856
 30
0.0
 11
221.896
 21
61.2856
 31
0.0
  0
LINE
  8
0
 62
     0
 10
221.896
 20
61.2856
 30
0.0
 11
221.896
 21
60.2865
 31
0.0
  0
LINE
  8
0
 62
     0
 10
221.896
 20
60.2865
 30
0.0
 11
235.695
 21
60.2865
 31
0.0
  0
LINE
  8
0
 62
     0
 10
235.695
 20
60.2865
 30
0.0
 11
235.695
 21
61.2856
 31
0.0
  0
LINE
  8
0
 62
     0
 10
235.695
 20
61.2856
 30
0.0
 11
236.496
 21
61.2856
 31
0.0
  0
LINE
  8
0
 62
     0
 10
236.496
 20
61.2856
 30
0.0
 11
236.496
 21
64.1847
 31
0.0
  0
LINE
  8
0
 62
     0
 10
236.496
 20
64.1847
 30
0.0
 11
235.695
 21
64.1847
 31
0.0
  0
LINE
  8
0
 62
     0
 10
235.695
 20
64.1847
 30
0.0
 11
235.695
 21
70.1862
 31
0.0
  0
LINE
  8
0
 62
     0
 10
235.695
 20
70.1862
 30
0.0
 11
236.496
 21
70.1862
 31
0.0
  0
LINE
  8
0
 62
     0
 10
236.496
 20
70.1862
 30
0.0
 11
236.496
 21
73.0857
 31
0.0
  0
LINE
  8
0
 62
     0
 10
236.496
 20
73.0857
 30
0.0
 11
235.695
 21
73.0857
 31
0.0
  0
LINE
  8
0
 62
     0
 10
235.695
 20
73.0857
 30
0.0
 11
235.695
 21
74.0847
 31
0.0
  0
LINE
  8
0
 62
     0
 10
235.695
 20
74.0847
 30
0.0
 11
221.896
 21
74.0847
 31
0.0
  0
LINE
  8
0
 62
     0
 10
202.846
 20
74.0847
 30
0.0
 11
202.846
 21
73.0857
 31
0.0
  0
LINE
  8
0
 62
     0
 10
202.846
 20
73.0857
 30
0.0
 11
202.045
 21
73.0857
 31
0.0
  0
LINE
  8
0
 62
     0
 10
202.045
 20
73.0857
 30
0.0
 11
202.045
 21
70.1862
 31
0.0
  0
LINE
  8
0
 62
     0
 10
202.045
 20
70.1862
 30
0.0
 11
202.846
 21
70.1862
 31
0.0
  0
LINE
  8
0
 62
     0
 10
202.846
 20
70.1862
 30
0.0
 11
202.846
 21
64.1847
 31
0.0
  0
LINE
  8
0
 62
     0
 10
202.846
 20
64.1847
 30
0.0
 11
202.045
 21
64.1847
 31
0.0
  0
LINE
  8
0
 62
     0
 10
202.045
 20
64.1847
 30
0.0
 11
202.045
 21
61.2856
 31
0.0
  0
LINE
  8
0
 62
     0
 10
202.045
 20
61.2856
 30
0.0
 11
202.846
 21
61.2856
 31
0.0
  0
LINE
  8
0
 62
     0
 10
202.846
 20
61.2856
 30
0.0
 11
202.846
 21
60.2865
 31
0.0
  0
LINE
  8
0
 62
     0
 10
202.846
 20
60.2865
 30
0.0
 11
216.645
 21
60.2865
 31
0.0
  0
LINE
  8
0
 62
     0
 10
216.645
 20
60.2865
 30
0.0
 11
216.645
 21
61.2856
 31
0.0
  0
LINE
  8
0
 62
     0
 10
216.645
 20
61.2856
 30
0.0
 11
217.446
 21
61.2856
 31
0.0
  0
LINE
  8
0
 62
     0
 10
217.446
 20
61.2856
 30
0.0
 11
217.446
 21
64.1847
 31
0.0
  0
LINE
  8
0
 62
     0
 10
217.446
 20
64.1847
 30
0.0
 11
216.645
 21
64.1847
 31
0.0
  0
LINE
  8
0
 62
     0
 10
216.645
 20
64.1847
 30
0.0
 11
216.645
 21
70.1862
 31
0.0
  0
LINE
  8
0
 62
     0
 10
216.645
 20
70.1862
 30
0.0
 11
217.446
 21
70.1862
 31
0.0
  0
LINE
  8
0
 62
     0
 10
217.446
 20
70.1862
 30
0.0
 11
217.446
 21
73.0857
 31
0.0
  0
LINE
  8
0
 62
     0
 10
217.446
 20
73.0857
 30
0.0
 11
216.645
 21
73.0857
 31
0.0
  0
LINE
  8
0
 62
     0
 10
216.645
 20
73.0857
 30
0.0
 11
216.645
 21
74.0847
 31
0.0
  0
LINE
  8
0
 62
     0
 10
216.645
 20
74.0847
 30
0.0
 11
202.846
 21
74.0847
 31
0.0
  0
LINE
  8
0
 62
     0
 10
183.796
 20
74.0847
 30
0.0
 11
183.796
 21
73.0857
 31
0.0
  0
LINE
  8
0
 62
     0
 10
183.796
 20
73.0857
 30
0.0
 11
182.995
 21
73.0857
 31
0.0
  0
LINE
  8
0
 62
     0
 10
182.995
 20
73.0857
 30
0.0
 11
182.995
 21
70.1862
 31
0.0
  0
LINE
  8
0
 62
     0
 10
182.995
 20
70.1862
 30
0.0
 11
183.796
 21
70.1862
 31
0.0
  0
LINE
  8
0
 62
     0
 10
183.796
 20
70.1862
 30
0.0
 11
183.796
 21
64.1847
 31
0.0
  0
LINE
  8
0
 62
     0
 10
183.796
 20
64.1847
 30
0.0
 11
182.995
 21
64.1847
 31
0.0
  0
LINE
  8
0
 62
     0
 10
182.995
 20
64.1847
 30
0.0
 11
182.995
 21
61.2856
 31
0.0
  0
LINE
  8
0
 62
     0
 10
182.995
 20
61.2856
 30
0.0
 11
183.796
 21
61.2856
 31
0.0
  0
LINE
  8
0
 62
     0
 10
183.796
 20
61.2856
 30
0.0
 11
183.796
 21
60.2865
 31
0.0
  0
LINE
  8
0
 62
     0
 10
183.796
 20
60.2865
 30
0.0
 11
197.595
 21
60.2865
 31
0.0
  0
LINE
  8
0
 62
     0
 10
197.595
 20
60.2865
 30
0.0
 11
197.595
 21
61.2856
 31
0.0
  0
LINE
  8
0
 62
     0
 10
197.595
 20
61.2856
 30
0.0
 11
198.396
 21
61.2856
 31
0.0
  0
LINE
  8
0
 62
     0
 10
198.396
 20
61.2856
 30
0.0
 11
198.396
 21
64.1847
 31
0.0
  0
LINE
  8
0
 62
     0
 10
198.396
 20
64.1847
 30
0.0
 11
197.595
 21
64.1847
 31
0.0
  0
LINE
  8
0
 62
     0
 10
197.595
 20
64.1847
 30
0.0
 11
197.595
 21
70.1862
 31
0.0
  0
LINE
  8
0
 62
     0
 10
197.595
 20
70.1862
 30
0.0
 11
198.396
 21
70.1862
 31
0.0
  0
LINE
  8
0
 62
     0
 10
198.396
 20
70.1862
 30
0.0
 11
198.396
 21
73.0857
 31
0.0
  0
LINE
  8
0
 62
     0
 10
198.396
 20
73.0857
 30
0.0
 11
197.595
 21
73.0857
 31
0.0
  0
LINE
  8
0
 62
     0
 10
197.595
 20
73.0857
 30
0.0
 11
197.595
 21
74.0847
 31
0.0
  0
LINE
  8
0
 62
     0
 10
197.595
 20
74.0847
 30
0.0
 11
183.796
 21
74.0847
 31
0.0
  0
LINE
  8
0
 62
     0
 10
164.746
 20
74.0847
 30
0.0
 11
164.746
 21
73.0857
 31
0.0
  0
LINE
  8
0
 62
     0
 10
164.746
 20
73.0857
 30
0.0
 11
163.945
 21
73.0857
 31
0.0
  0
LINE
  8
0
 62
     0
 10
163.945
 20
73.0857
 30
0.0
 11
163.945
 21
70.1862
 31
0.0
  0
LINE
  8
0
 62
     0
 10
163.945
 20
70.1862
 30
0.0
 11
164.746
 21
70.1862
 31
0.0
  0
LINE
  8
0
 62
     0
 10
164.746
 20
70.1862
 30
0.0
 11
164.746
 21
64.1847
 31
0.0
  0
LINE
  8
0
 62
     0
 10
164.746
 20
64.1847
 30
0.0
 11
163.945
 21
64.1847
 31
0.0
  0
LINE
  8
0
 62
     0
 10
163.945
 20
64.1847
 30
0.0
 11
163.945
 21
61.2856
 31
0.0
  0
LINE
  8
0
 62
     0
 10
163.945
 20
61.2856
 30
0.0
 11
164.746
 21
61.2856
 31
0.0
  0
LINE
  8
0
 62
     0
 10
164.746
 20
61.2856
 30
0.0
 11
164.746
 21
60.2865
 31
0.0
  0
LINE
  8
0
 62
     0
 10
164.746
 20
60.2865
 30
0.0
 11
178.545
 21
60.2865
 31
0.0
  0
LINE
  8
0
 62
     0
 10
178.545
 20
60.2865
 30
0.0
 11
178.545
 21
61.2856
 31
0.0
  0
LINE
  8
0
 62
     0
 10
178.545
 20
61.2856
 30
0.0
 11
179.346
 21
61.2856
 31
0.0
  0
LINE
  8
0
 62
     0
 10
179.346
 20
61.2856
 30
0.0
 11
179.346
 21
64.1847
 31
0.0
  0
LINE
  8
0
 62
     0
 10
179.346
 20
64.1847
 30
0.0
 11
178.545
 21
64.1847
 31
0.0
  0
LINE
  8
0
 62
     0
 10
178.545
 20
64.1847
 30
0.0
 11
178.545
 21
70.1862
 31
0.0
  0
LINE
  8
0
 62
     0
 10
178.545
 20
70.1862
 30
0.0
 11
179.346
 21
70.1862
 31
0.0
  0
LINE
  8
0
 62
     0
 10
179.346
 20
70.1862
 30
0.0
 11
179.346
 21
73.0857
 31
0.0
  0
LINE
  8
0
 62
     0
 10
179.346
 20
73.0857
 30
0.0
 11
178.545
 21
73.0857
 31
0.0
  0
LINE
  8
0
 62
     0
 10
178.545
 20
73.0857
 30
0.0
 11
178.545
 21
74.0847
 31
0.0
  0
LINE
  8
0
 62
     0
 10
178.545
 20
74.0847
 30
0.0
 11
164.746
 21
74.0847
 31
0.0
  0
LINE
  8
0
 62
     0
 10
145.696
 20
74.0847
 30
0.0
 11
145.696
 21
73.0857
 31
0.0
  0
LINE
  8
0
 62
     0
 10
145.696
 20
73.0857
 30
0.0
 11
144.895
 21
73.0857
 31
0.0
  0
LINE
  8
0
 62
     0
 10
144.895
 20
73.0857
 30
0.0
 11
144.895
 21
70.1862
 31
0.0
  0
LINE
  8
0
 62
     0
 10
144.895
 20
70.1862
 30
0.0
 11
145.696
 21
70.1862
 31
0.0
  0
LINE
  8
0
 62
     0
 10
145.696
 20
70.1862
 30
0.0
 11
145.696
 21
64.1847
 31
0.0
  0
LINE
  8
0
 62
     0
 10
145.696
 20
64.1847
 30
0.0
 11
144.895
 21
64.1847
 31
0.0
  0
LINE
  8
0
 62
     0
 10
144.895
 20
64.1847
 30
0.0
 11
144.895
 21
61.2856
 31
0.0
  0
LINE
  8
0
 62
     0
 10
144.895
 20
61.2856
 30
0.0
 11
145.696
 21
61.2856
 31
0.0
  0
LINE
  8
0
 62
     0
 10
145.696
 20
61.2856
 30
0.0
 11
145.696
 21
60.2865
 31
0.0
  0
LINE
  8
0
 62
     0
 10
145.696
 20
60.2865
 30
0.0
 11
159.495
 21
60.2865
 31
0.0
  0
LINE
  8
0
 62
     0
 10
159.495
 20
60.2865
 30
0.0
 11
159.495
 21
61.2856
 31
0.0
  0
LINE
  8
0
 62
     0
 10
159.495
 20
61.2856
 30
0.0
 11
160.296
 21
61.2856
 31
0.0
  0
LINE
  8
0
 62
     0
 10
160.296
 20
61.2856
 30
0.0
 11
160.296
 21
64.1847
 31
0.0
  0
LINE
  8
0
 62
     0
 10
160.296
 20
64.1847
 30
0.0
 11
159.495
 21
64.1847
 31
0.0
  0
LINE
  8
0
 62
     0
 10
159.495
 20
64.1847
 30
0.0
 11
159.495
 21
70.1862
 31
0.0
  0
LINE
  8
0
 62
     0
 10
159.495
 20
70.1862
 30
0.0
 11
160.296
 21
70.1862
 31
0.0
  0
LINE
  8
0
 62
     0
 10
160.296
 20
70.1862
 30
0.0
 11
160.296
 21
73.0857
 31
0.0
  0
LINE
  8
0
 62
     0
 10
160.296
 20
73.0857
 30
0.0
 11
159.495
 21
73.0857
 31
0.0
  0
LINE
  8
0
 62
     0
 10
159.495
 20
73.0857
 30
0.0
 11
159.495
 21
74.0847
 31
0.0
  0
LINE
  8
0
 62
     0
 10
159.495
 20
74.0847
 30
0.0
 11
145.696
 21
74.0847
 31
0.0
  0
LINE
  8
0
 62
     0
 10
126.644
 20
74.0847
 30
0.0
 11
126.644
 21
73.0857
 31
0.0
  0
LINE
  8
0
 62
     0
 10
126.644
 20
73.0857
 30
0.0
 11
125.845
 21
73.0857
 31
0.0
  0
LINE
  8
0
 62
     0
 10
125.845
 20
73.0857
 30
0.0
 11
125.845
 21
70.1862
 31
0.0
  0
LINE
  8
0
 62
     0
 10
125.845
 20
70.1862
 30
0.0
 11
126.644
 21
70.1862
 31
0.0
  0
LINE
  8
0
 62
     0
 10
126.644
 20
70.1862
 30
0.0
 11
126.644
 21
64.1847
 31
0.0
  0
LINE
  8
0
 62
     0
 10
126.644
 20
64.1847
 30
0.0
 11
125.845
 21
64.1847
 31
0.0
  0
LINE
  8
0
 62
     0
 10
125.845
 20
64.1847
 30
0.0
 11
125.845
 21
61.2856
 31
0.0
  0
LINE
  8
0
 62
     0
 10
125.845
 20
61.2856
 30
0.0
 11
126.644
 21
61.2856
 31
0.0
  0
LINE
  8
0
 62
     0
 10
126.644
 20
61.2856
 30
0.0
 11
126.644
 21
60.2865
 31
0.0
  0
LINE
  8
0
 62
     0
 10
126.644
 20
60.2865
 30
0.0
 11
140.445
 21
60.2865
 31
0.0
  0
LINE
  8
0
 62
     0
 10
140.445
 20
60.2865
 30
0.0
 11
140.445
 21
61.2856
 31
0.0
  0
LINE
  8
0
 62
     0
 10
140.445
 20
61.2856
 30
0.0
 11
141.245
 21
61.2856
 31
0.0
  0
LINE
  8
0
 62
     0
 10
141.245
 20
61.2856
 30
0.0
 11
141.245
 21
64.1847
 31
0.0
  0
LINE
  8
0
 62
     0
 10
141.245
 20
64.1847
 30
0.0
 11
140.445
 21
64.1847
 31
0.0
  0
LINE
  8
0
 62
     0
 10
140.445
 20
64.1847
 30
0.0
 11
140.445
 21
70.1862
 31
0.0
  0
LINE
  8
0
 62
     0
 10
140.445
 20
70.1862
 30
0.0
 11
141.245
 21
70.1862
 31
0.0
  0
LINE
  8
0
 62
     0
 10
141.245
 20
70.1862
 30
0.0
 11
141.245
 21
73.0857
 31
0.0
  0
LINE
  8
0
 62
     0
 10
141.245
 20
73.0857
 30
0.0
 11
140.445
 21
73.0857
 31
0.0
  0
LINE
  8
0
 62
     0
 10
140.445
 20
73.0857
 30
0.0
 11
140.445
 21
74.0847
 31
0.0
  0
LINE
  8
0
 62
     0
 10
140.445
 20
74.0847
 30
0.0
 11
126.644
 21
74.0847
 31
0.0
  0
LINE
  8
0
 62
     0
 10
107.594
 20
74.0847
 30
0.0
 11
107.594
 21
73.0857
 31
0.0
  0
LINE
  8
0
 62
     0
 10
107.594
 20
73.0857
 30
0.0
 11
106.794
 21
73.0857
 31
0.0
  0
LINE
  8
0
 62
     0
 10
106.794
 20
73.0857
 30
0.0
 11
106.794
 21
70.1862
 31
0.0
  0
LINE
  8
0
 62
     0
 10
106.794
 20
70.1862
 30
0.0
 11
107.594
 21
70.1862
 31
0.0
  0
LINE
  8
0
 62
     0
 10
107.594
 20
70.1862
 30
0.0
 11
107.594
 21
64.1847
 31
0.0
  0
LINE
  8
0
 62
     0
 10
107.594
 20
64.1847
 30
0.0
 11
106.794
 21
64.1847
 31
0.0
  0
LINE
  8
0
 62
     0
 10
106.794
 20
64.1847
 30
0.0
 11
106.794
 21
61.2856
 31
0.0
  0
LINE
  8
0
 62
     0
 10
106.794
 20
61.2856
 30
0.0
 11
107.594
 21
61.2856
 31
0.0
  0
LINE
  8
0
 62
     0
 10
107.594
 20
61.2856
 30
0.0
 11
107.594
 21
60.2865
 31
0.0
  0
LINE
  8
0
 62
     0
 10
107.594
 20
60.2865
 30
0.0
 11
121.395
 21
60.2865
 31
0.0
  0
LINE
  8
0
 62
     0
 10
121.395
 20
60.2865
 30
0.0
 11
121.395
 21
61.2856
 31
0.0
  0
LINE
  8
0
 62
     0
 10
121.395
 20
61.2856
 30
0.0
 11
122.196
 21
61.2856
 31
0.0
  0
LINE
  8
0
 62
     0
 10
122.196
 20
61.2856
 30
0.0
 11
122.196
 21
64.1847
 31
0.0
  0
LINE
  8
0
 62
     0
 10
122.196
 20
64.1847
 30
0.0
 11
121.395
 21
64.1847
 31
0.0
  0
LINE
  8
0
 62
     0
 10
121.395
 20
64.1847
 30
0.0
 11
121.395
 21
70.1862
 31
0.0
  0
LINE
  8
0
 62
     0
 10
121.395
 20
70.1862
 30
0.0
 11
122.196
 21
70.1862
 31
0.0
  0
LINE
  8
0
 62
     0
 10
122.196
 20
70.1862
 30
0.0
 11
122.196
 21
73.0857
 31
0.0
  0
LINE
  8
0
 62
     0
 10
122.196
 20
73.0857
 30
0.0
 11
121.395
 21
73.0857
 31
0.0
  0
LINE
  8
0
 62
     0
 10
121.395
 20
73.0857
 30
0.0
 11
121.395
 21
74.0847
 31
0.0
  0
LINE
  8
0
 62
     0
 10
121.395
 20
74.0847
 30
0.0
 11
107.594
 21
74.0847
 31
0.0
  0
LINE
  8
0
 62
     0
 10
88.5444
 20
74.0847
 30
0.0
 11
88.5444
 21
73.0857
 31
0.0
  0
LINE
  8
0
 62
     0
 10
88.5444
 20
73.0857
 30
0.0
 11
87.744
 21
73.0857
 31
0.0
  0
LINE
  8
0
 62
     0
 10
87.744
 20
73.0857
 30
0.0
 11
87.744
 21
70.1862
 31
0.0
  0
LINE
  8
0
 62
     0
 10
87.744
 20
70.1862
 30
0.0
 11
88.5444
 21
70.1862
 31
0.0
  0
LINE
  8
0
 62
     0
 10
88.5444
 20
70.1862
 30
0.0
 11
88.5444
 21
64.1847
 31
0.0
  0
LINE
  8
0
 62
     0
 10
88.5444
 20
64.1847
 30
0.0
 11
87.744
 21
64.1847
 31
0.0
  0
LINE
  8
0
 62
     0
 10
87.744
 20
64.1847
 30
0.0
 11
87.744
 21
61.2856
 31
0.0
  0
LINE
  8
0
 62
     0
 10
87.744
 20
61.2856
 30
0.0
 11
88.5444
 21
61.2856
 31
0.0
  0
LINE
  8
0
 62
     0
 10
88.5444
 20
61.2856
 30
0.0
 11
88.5444
 21
60.2865
 31
0.0
  0
LINE
  8
0
 62
     0
 10
88.5444
 20
60.2865
 30
0.0
 11
102.345
 21
60.2865
 31
0.0
  0
LINE
  8
0
 62
     0
 10
102.345
 20
60.2865
 30
0.0
 11
102.345
 21
61.2856
 31
0.0
  0
LINE
  8
0
 62
     0
 10
102.345
 20
61.2856
 30
0.0
 11
103.146
 21
61.2856
 31
0.0
  0
LINE
  8
0
 62
     0
 10
103.146
 20
61.2856
 30
0.0
 11
103.146
 21
64.1847
 31
0.0
  0
LINE
  8
0
 62
     0
 10
103.146
 20
64.1847
 30
0.0
 11
102.345
 21
64.1847
 31
0.0
  0
LINE
  8
0
 62
     0
 10
102.345
 20
64.1847
 30
0.0
 11
102.345
 21
70.1862
 31
0.0
  0
LINE
  8
0
 62
     0
 10
102.345
 20
70.1862
 30
0.0
 11
103.146
 21
70.1862
 31
0.0
  0
LINE
  8
0
 62
     0
 10
103.146
 20
70.1862
 30
0.0
 11
103.146
 21
73.0857
 31
0.0
  0
LINE
  8
0
 62
     0
 10
103.146
 20
73.0857
 30
0.0
 11
102.345
 21
73.0857
 31
0.0
  0
LINE
  8
0
 62
     0
 10
102.345
 20
73.0857
 30
0.0
 11
102.345
 21
74.0847
 31
0.0
  0
LINE
  8
0
 62
     0
 10
102.345
 20
74.0847
 30
0.0
 11
88.5444
 21
74.0847
 31
0.0
  0
LINE
  8
0
 62
     0
 10
69.4944
 20
74.0847
 30
0.0
 11
69.4944
 21
73.0857
 31
0.0
  0
LINE
  8
0
 62
     0
 10
69.4944
 20
73.0857
 30
0.0
 11
68.6954
 21
73.0857
 31
0.0
  0
LINE
  8
0
 62
     0
 10
68.6954
 20
73.0857
 30
0.0
 11
68.6954
 21
70.1862
 31
0.0
  0
LINE
  8
0
 62
     0
 10
68.6954
 20
70.1862
 30
0.0
 11
69.4944
 21
70.1862
 31
0.0
  0
LINE
  8
0
 62
     0
 10
69.4944
 20
70.1862
 30
0.0
 11
69.4944
 21
64.1847
 31
0.0
  0
LINE
  8
0
 62
     0
 10
69.4944
 20
64.1847
 30
0.0
 11
68.6954
 21
64.1847
 31
0.0
  0
LINE
  8
0
 62
     0
 10
68.6954
 20
64.1847
 30
0.0
 11
68.6954
 21
61.2856
 31
0.0
  0
LINE
  8
0
 62
     0
 10
68.6954
 20
61.2856
 30
0.0
 11
69.4944
 21
61.2856
 31
0.0
  0
LINE
  8
0
 62
     0
 10
69.4944
 20
61.2856
 30
0.0
 11
69.4944
 21
60.2865
 31
0.0
  0
LINE
  8
0
 62
     0
 10
69.4944
 20
60.2865
 30
0.0
 11
83.2954
 21
60.2865
 31
0.0
  0
LINE
  8
0
 62
     0
 10
83.2954
 20
60.2865
 30
0.0
 11
83.2954
 21
61.2856
 31
0.0
  0
LINE
  8
0
 62
     0
 10
83.2954
 20
61.2856
 30
0.0
 11
84.0962
 21
61.2856
 31
0.0
  0
LINE
  8
0
 62
     0
 10
84.0962
 20
61.2856
 30
0.0
 11
84.0962
 21
64.1847
 31
0.0
  0
LINE
  8
0
 62
     0
 10
84.0962
 20
64.1847
 30
0.0
 11
83.2954
 21
64.1847
 31
0.0
  0
LINE
  8
0
 62
     0
 10
83.2954
 20
64.1847
 30
0.0
 11
83.2954
 21
70.1862
 31
0.0
  0
LINE
  8
0
 62
     0
 10
83.2954
 20
70.1862
 30
0.0
 11
84.0962
 21
70.1862
 31
0.0
  0
LINE
  8
0
 62
     0
 10
84.0962
 20
70.1862
 30
0.0
 11
84.0962
 21
73.0857
 31
0.0
  0
LINE
  8
0
 62
     0
 10
84.0962
 20
73.0857
 30
0.0
 11
83.2954
 21
73.0857
 31
0.0
  0
LINE
  8
0
 62
     0
 10
83.2954
 20
73.0857
 30
0.0
 11
83.2954
 21
74.0847
 31
0.0
  0
LINE
  8
0
 62
     0
 10
83.2954
 20
74.0847
 30
0.0
 11
69.4944
 21
74.0847
 31
0.0
  0
LINE
  8
0
 62
     0
 10
50.4458
 20
74.0847
 30
0.0
 11
50.4458
 21
73.0857
 31
0.0
  0
LINE
  8
0
 62
     0
 10
50.4458
 20
73.0857
 30
0.0
 11
49.6454
 21
73.0857
 31
0.0
  0
LINE
  8
0
 62
     0
 10
49.6454
 20
73.0857
 30
0.0
 11
49.6454
 21
70.1862
 31
0.0
  0
LINE
  8
0
 62
     0
 10
49.6454
 20
70.1862
 30
0.0
 11
50.4458
 21
70.1862
 31
0.0
  0
LINE
  8
0
 62
     0
 10
50.4458
 20
70.1862
 30
0.0
 11
50.4458
 21
64.1847
 31
0.0
  0
LINE
  8
0
 62
     0
 10
50.4458
 20
64.1847
 30
0.0
 11
49.6454
 21
64.1847
 31
0.0
  0
LINE
  8
0
 62
     0
 10
49.6454
 20
64.1847
 30
0.0
 11
49.6454
 21
61.2856
 31
0.0
  0
LINE
  8
0
 62
     0
 10
49.6454
 20
61.2856
 30
0.0
 11
50.4458
 21
61.2856
 31
0.0
  0
LINE
  8
0
 62
     0
 10
50.4458
 20
61.2856
 30
0.0
 11
50.4458
 21
60.2865
 31
0.0
  0
LINE
  8
0
 62
     0
 10
50.4458
 20
60.2865
 30
0.0
 11
64.2454
 21
60.2865
 31
0.0
  0
LINE
  8
0
 62
     0
 10
64.2454
 20
60.2865
 30
0.0
 11
64.2454
 21
61.2856
 31
0.0
  0
LINE
  8
0
 62
     0
 10
64.2454
 20
61.2856
 30
0.0
 11
65.0462
 21
61.2856
 31
0.0
  0
LINE
  8
0
 62
     0
 10
65.0462
 20
61.2856
 30
0.0
 11
65.0462
 21
64.1847
 31
0.0
  0
LINE
  8
0
 62
     0
 10
65.0462
 20
64.1847
 30
0.0
 11
64.2454
 21
64.1847
 31
0.0
  0
LINE
  8
0
 62
     0
 10
64.2454
 20
64.1847
 30
0.0
 11
64.2454
 21
70.1862
 31
0.0
  0
LINE
  8
0
 62
     0
 10
64.2454
 20
70.1862
 30
0.0
 11
65.0462
 21
70.1862
 31
0.0
  0
LINE
  8
0
 62
     0
 10
65.0462
 20
70.1862
 30
0.0
 11
65.0462
 21
73.0857
 31
0.0
  0
LINE
  8
0
 62
     0
 10
65.0462
 20
73.0857
 30
0.0
 11
64.2454
 21
73.0857
 31
0.0
  0
LINE
  8
0
 62
     0
 10
64.2454
 20
73.0857
 30
0.0
 11
64.2454
 21
74.0847
 31
0.0
  0
LINE
  8
0
 62
     0
 10
64.2454
 20
74.0847
 30
0.0
 11
50.4458
 21
74.0847
 31
0.0
  0
LINE
  8
0
 62
     0
 10
31.3958
 20
74.0847
 30
0.0
 11
31.3958
 21
73.0857
 31
0.0
  0
LINE
  8
0
 62
     0
 10
31.3958
 20
73.0857
 30
0.0
 11
30.5952
 21
73.0857
 31
0.0
  0
LINE
  8
0
 62
     0
 10
30.5952
 20
73.0857
 30
0.0
 11
30.5952
 21
70.1862
 31
0.0
  0
LINE
  8
0
 62
     0
 10
30.5952
 20
70.1862
 30
0.0
 11
31.3958
 21
70.1862
 31
0.0
  0
LINE
  8
0
 62
     0
 10
31.3958
 20
70.1862
 30
0.0
 11
31.3958
 21
64.1847
 31
0.0
  0
LINE
  8
0
 62
     0
 10
31.3958
 20
64.1847
 30
0.0
 11
30.5952
 21
64.1847
 31
0.0
  0
LINE
  8
0
 62
     0
 10
30.5952
 20
64.1847
 30
0.0
 11
30.5952
 21
61.2856
 31
0.0
  0
LINE
  8
0
 62
     0
 10
30.5952
 20
61.2856
 30
0.0
 11
31.3958
 21
61.2856
 31
0.0
  0
LINE
  8
0
 62
     0
 10
31.3958
 20
61.2856
 30
0.0
 11
31.3958
 21
60.2865
 31
0.0
  0
LINE
  8
0
 62
     0
 10
31.3958
 20
60.2865
 30
0.0
 11
45.1954
 21
60.2865
 31
0.0
  0
LINE
  8
0
 62
     0
 10
45.1954
 20
60.2865
 30
0.0
 11
45.1954
 21
61.2856
 31
0.0
  0
LINE
  8
0
 62
     0
 10
45.1954
 20
61.2856
 30
0.0
 11
45.9962
 21
61.2856
 31
0.0
  0
LINE
  8
0
 62
     0
 10
45.9962
 20
61.2856
 30
0.0
 11
45.9962
 21
64.1847
 31
0.0
  0
LINE
  8
0
 62
     0
 10
45.9962
 20
64.1847
 30
0.0
 11
45.1954
 21
64.1847
 31
0.0
  0
LINE
  8
0
 62
     0
 10
45.1954
 20
64.1847
 30
0.0
 11
45.1954
 21
70.1862
 31
0.0
  0
LINE
  8
0
 62
     0
 10
45.1954
 20
70.1862
 30
0.0
 11
45.9962
 21
70.1862
 31
0.0
  0
LINE
  8
0
 62
     0
 10
45.9962
 20
70.1862
 30
0.0
 11
45.9962
 21
73.0857
 31
0.0
  0
LINE
  8
0
 62
     0
 10
45.9962
 20
73.0857
 30
0.0
 11
45.1954
 21
73.0857
 31
0.0
  0
LINE
  8
0
 62
     0
 10
45.1954
 20
73.0857
 30
0.0
 11
45.1954
 21
74.0847
 31
0.0
  0
LINE
  8
0
 62
     0
 10
45.1954
 20
74.0847
 30
0.0
 11
31.3958
 21
74.0847
 31
0.0
  0
LINE
  8
0
 62
     0
 10
7.58197
 20
74.0847
 30
0.0
 11
7.58197
 21
73.0857
 31
0.0
  0
LINE
  8
0
 62
     0
 10
7.58197
 20
73.0857
 30
0.0
 11
6.78272
 21
73.0857
 31
0.0
  0
LINE
  8
0
 62
     0
 10
6.78272
 20
73.0857
 30
0.0
 11
6.78272
 21
70.1862
 31
0.0
  0
LINE
  8
0
 62
     0
 10
6.78272
 20
70.1862
 30
0.0
 11
7.58197
 21
70.1862
 31
0.0
  0
LINE
  8
0
 62
     0
 10
7.58197
 20
70.1862
 30
0.0
 11
7.58197
 21
64.1847
 31
0.0
  0
LINE
  8
0
 62
     0
 10
7.58197
 20
64.1847
 30
0.0
 11
6.78272
 21
64.1847
 31
0.0
  0
LINE
  8
0
 62
     0
 10
6.78272
 20
64.1847
 30
0.0
 11
6.78272
 21
61.2856
 31
0.0
  0
LINE
  8
0
 62
     0
 10
6.78272
 20
61.2856
 30
0.0
 11
7.58197
 21
61.2856
 31
0.0
  0
LINE
  8
0
 62
     0
 10
7.58197
 20
61.2856
 30
0.0
 11
7.58197
 21
60.2865
 31
0.0
  0
LINE
  8
0
 62
     0
 10
7.58197
 20
60.2865
 30
0.0
 11
21.383
 21
60.2865
 31
0.0
  0
LINE
  8
0
 62
     0
 10
21.383
 20
60.2865
 30
0.0
 11
21.383
 21
61.2856
 31
0.0
  0
LINE
  8
0
 62
     0
 10
21.383
 20
61.2856
 30
0.0
 11
22.1823
 21
61.2856
 31
0.0
  0
LINE
  8
0
 62
     0
 10
22.1823
 20
61.2856
 30
0.0
 11
22.1823
 21
64.1847
 31
0.0
  0
LINE
  8
0
 62
     0
 10
22.1823
 20
64.1847
 30
0.0
 11
21.383
 21
64.1847
 31
0.0
  0
LINE
  8
0
 62
     0
 10
21.383
 20
64.1847
 30
0.0
 11
21.383
 21
70.1862
 31
0.0
  0
LINE
  8
0
 62
     0
 10
21.383
 20
70.1862
 30
0.0
 11
22.1823
 21
70.1862
 31
0.0
  0
LINE
  8
0
 62
     0
 10
22.1823
 20
70.1862
 30
0.0
 11
22.1823
 21
73.0857
 31
0.0
  0
LINE
  8
0
 62
     0
 10
22.1823
 20
73.0857
 30
0.0
 11
21.383
 21
73.0857
 31
0.0
  0
LINE
  8
0
 62
     0
 10
21.383
 20
73.0857
 30
0.0
 11
21.383
 21
74.0847
 31
0.0
  0
LINE
  8
0
 62
     0
 10
21.383
 20
74.0847
 30
0.0
 11
7.58197
 21
74.0847
 31
0.0
  0
LINE
  8
0
 62
     0
 10
259.996
 20
93.1347
 30
0.0
 11
259.996
 21
92.1357
 31
0.0
  0
LINE
  8
0
 62
     0
 10
259.996
 20
92.1357
 30
0.0
 11
259.195
 21
92.1357
 31
0.0
  0
LINE
  8
0
 62
     0
 10
259.195
 20
92.1357
 30
0.0
 11
259.195
 21
89.2348
 31
0.0
  0
LINE
  8
0
 62
     0
 10
259.195
 20
89.2348
 30
0.0
 11
259.996
 21
89.2348
 31
0.0
  0
LINE
  8
0
 62
     0
 10
259.996
 20
89.2348
 30
0.0
 11
259.996
 21
88.4357
 31
0.0
  0
LINE
  8
0
 62
     0
 10
259.996
 20
88.4357
 30
0.0
 11
258.27
 21
88.4357
 31
0.0
  0
LINE
  8
0
 62
     0
 10
258.27
 20
88.4357
 30
0.0
 11
258.27
 21
91.6658
 31
0.0
  0
LINE
  8
0
 62
     0
 10
258.27
 20
91.6658
 30
0.0
 11
251.721
 21
91.6658
 31
0.0
  0
LINE
  8
0
 62
     0
 10
251.721
 20
91.6658
 30
0.0
 11
251.721
 21
88.4357
 31
0.0
  0
LINE
  8
0
 62
     0
 10
251.721
 20
88.4357
 30
0.0
 11
250.895
 21
88.4357
 31
0.0
  0
LINE
  8
0
 62
     0
 10
250.895
 20
88.4357
 30
0.0
 11
250.895
 21
85.8354
 31
0.0
  0
LINE
  8
0
 62
     0
 10
250.895
 20
85.8354
 30
0.0
 11
251.721
 21
85.8354
 31
0.0
  0
LINE
  8
0
 62
     0
 10
251.721
 20
85.8354
 30
0.0
 11
251.721
 21
79.5651
 31
0.0
  0
LINE
  8
0
 62
     0
 10
251.721
 20
79.5651
 30
0.0
 11
253.446
 21
79.5651
 31
0.0
  0
LINE
  8
0
 62
     0
 10
253.446
 20
79.5651
 30
0.0
 11
253.446
 21
78.365
 31
0.0
  0
LINE
  8
0
 62
     0
 10
253.446
 20
78.365
 30
0.0
 11
256.545
 21
78.365
 31
0.0
  0
LINE
  8
0
 62
     0
 10
256.545
 20
78.365
 30
0.0
 11
256.545
 21
79.5651
 31
0.0
  0
LINE
  8
0
 62
     0
 10
256.545
 20
79.5651
 30
0.0
 11
258.27
 21
79.5651
 31
0.0
  0
LINE
  8
0
 62
     0
 10
258.27
 20
79.5651
 30
0.0
 11
258.27
 21
84.0355
 31
0.0
  0
LINE
  8
0
 62
     0
 10
258.27
 20
84.0355
 30
0.0
 11
259.996
 21
84.0355
 31
0.0
  0
LINE
  8
0
 62
     0
 10
259.996
 20
84.0355
 30
0.0
 11
259.996
 21
83.2347
 31
0.0
  0
LINE
  8
0
 62
     0
 10
259.996
 20
83.2347
 30
0.0
 11
259.195
 21
83.2347
 31
0.0
  0
LINE
  8
0
 62
     0
 10
259.195
 20
83.2347
 30
0.0
 11
259.195
 21
80.3356
 31
0.0
  0
LINE
  8
0
 62
     0
 10
259.195
 20
80.3356
 30
0.0
 11
259.996
 21
80.3356
 31
0.0
  0
LINE
  8
0
 62
     0
 10
259.996
 20
80.3356
 30
0.0
 11
259.996
 21
79.3351
 31
0.0
  0
LINE
  8
0
 62
     0
 10
259.996
 20
79.3351
 30
0.0
 11
273.795
 21
79.3351
 31
0.0
  0
LINE
  8
0
 62
     0
 10
273.795
 20
79.3351
 30
0.0
 11
273.795
 21
80.3356
 31
0.0
  0
LINE
  8
0
 62
     0
 10
273.795
 20
80.3356
 30
0.0
 11
274.596
 21
80.3356
 31
0.0
  0
LINE
  8
0
 62
     0
 10
274.596
 20
80.3356
 30
0.0
 11
274.596
 21
83.2347
 31
0.0
  0
LINE
  8
0
 62
     0
 10
274.596
 20
83.2347
 30
0.0
 11
273.795
 21
83.2347
 31
0.0
  0
LINE
  8
0
 62
     0
 10
273.795
 20
83.2347
 30
0.0
 11
273.795
 21
84.0355
 31
0.0
  0
LINE
  8
0
 62
     0
 10
273.795
 20
84.0355
 30
0.0
 11
275.521
 21
84.0355
 31
0.0
  0
LINE
  8
0
 62
     0
 10
275.521
 20
84.0355
 30
0.0
 11
275.521
 21
79.5651
 31
0.0
  0
LINE
  8
0
 62
     0
 10
275.521
 20
79.5651
 30
0.0
 11
277.246
 21
79.5651
 31
0.0
  0
LINE
  8
0
 62
     0
 10
277.246
 20
79.5651
 30
0.0
 11
277.246
 21
78.365
 31
0.0
  0
LINE
  8
0
 62
     0
 10
277.246
 20
78.365
 30
0.0
 11
280.345
 21
78.365
 31
0.0
  0
LINE
  8
0
 62
     0
 10
280.345
 20
78.365
 30
0.0
 11
280.345
 21
79.5651
 31
0.0
  0
LINE
  8
0
 62
     0
 10
280.345
 20
79.5651
 30
0.0
 11
282.071
 21
79.5651
 31
0.0
  0
LINE
  8
0
 62
     0
 10
282.071
 20
79.5651
 30
0.0
 11
282.071
 21
85.8354
 31
0.0
  0
LINE
  8
0
 62
     0
 10
282.071
 20
85.8354
 30
0.0
 11
282.896
 21
85.8354
 31
0.0
  0
LINE
  8
0
 62
     0
 10
282.896
 20
85.8354
 30
0.0
 11
282.896
 21
88.4357
 31
0.0
  0
LINE
  8
0
 62
     0
 10
282.896
 20
88.4357
 30
0.0
 11
282.071
 21
88.4357
 31
0.0
  0
LINE
  8
0
 62
     0
 10
282.071
 20
88.4357
 30
0.0
 11
282.071
 21
91.6658
 31
0.0
  0
LINE
  8
0
 62
     0
 10
282.071
 20
91.6658
 30
0.0
 11
275.521
 21
91.6658
 31
0.0
  0
LINE
  8
0
 62
     0
 10
275.521
 20
91.6658
 30
0.0
 11
275.521
 21
88.4357
 31
0.0
  0
LINE
  8
0
 62
     0
 10
275.521
 20
88.4357
 30
0.0
 11
273.795
 21
88.4357
 31
0.0
  0
LINE
  8
0
 62
     0
 10
273.795
 20
88.4357
 30
0.0
 11
273.795
 21
89.2348
 31
0.0
  0
LINE
  8
0
 62
     0
 10
273.795
 20
89.2348
 30
0.0
 11
274.596
 21
89.2348
 31
0.0
  0
LINE
  8
0
 62
     0
 10
274.596
 20
89.2348
 30
0.0
 11
274.596
 21
92.1357
 31
0.0
  0
LINE
  8
0
 62
     0
 10
274.596
 20
92.1357
 30
0.0
 11
273.795
 21
92.1357
 31
0.0
  0
LINE
  8
0
 62
     0
 10
273.795
 20
92.1357
 30
0.0
 11
273.795
 21
93.1347
 31
0.0
  0
LINE
  8
0
 62
     0
 10
273.795
 20
93.1347
 30
0.0
 11
259.996
 21
93.1347
 31
0.0
  0
LINE
  8
0
 62
     0
 10
331.432
 20
93.1347
 30
0.0
 11
331.432
 21
92.1357
 31
0.0
  0
LINE
  8
0
 62
     0
 10
331.432
 20
92.1357
 30
0.0
 11
330.633
 21
92.1357
 31
0.0
  0
LINE
  8
0
 62
     0
 10
330.633
 20
92.1357
 30
0.0
 11
330.633
 21
89.2348
 31
0.0
  0
LINE
  8
0
 62
     0
 10
330.633
 20
89.2348
 30
0.0
 11
331.432
 21
89.2348
 31
0.0
  0
LINE
  8
0
 62
     0
 10
331.432
 20
89.2348
 30
0.0
 11
331.432
 21
83.2347
 31
0.0
  0
LINE
  8
0
 62
     0
 10
331.432
 20
83.2347
 30
0.0
 11
330.633
 21
83.2347
 31
0.0
  0
LINE
  8
0
 62
     0
 10
330.633
 20
83.2347
 30
0.0
 11
330.633
 21
80.3356
 31
0.0
  0
LINE
  8
0
 62
     0
 10
330.633
 20
80.3356
 30
0.0
 11
331.432
 21
80.3356
 31
0.0
  0
LINE
  8
0
 62
     0
 10
331.432
 20
80.3356
 30
0.0
 11
331.432
 21
79.3351
 31
0.0
  0
LINE
  8
0
 62
     0
 10
331.432
 20
79.3351
 30
0.0
 11
345.233
 21
79.3351
 31
0.0
  0
LINE
  8
0
 62
     0
 10
345.233
 20
79.3351
 30
0.0
 11
345.233
 21
80.3356
 31
0.0
  0
LINE
  8
0
 62
     0
 10
345.233
 20
80.3356
 30
0.0
 11
346.032
 21
80.3356
 31
0.0
  0
LINE
  8
0
 62
     0
 10
346.032
 20
80.3356
 30
0.0
 11
346.032
 21
83.2347
 31
0.0
  0
LINE
  8
0
 62
     0
 10
346.032
 20
83.2347
 30
0.0
 11
345.233
 21
83.2347
 31
0.0
  0
LINE
  8
0
 62
     0
 10
345.233
 20
83.2347
 30
0.0
 11
345.233
 21
89.2348
 31
0.0
  0
LINE
  8
0
 62
     0
 10
345.233
 20
89.2348
 30
0.0
 11
346.032
 21
89.2348
 31
0.0
  0
LINE
  8
0
 62
     0
 10
346.032
 20
89.2348
 30
0.0
 11
346.032
 21
92.1357
 31
0.0
  0
LINE
  8
0
 62
     0
 10
346.032
 20
92.1357
 30
0.0
 11
345.233
 21
92.1357
 31
0.0
  0
LINE
  8
0
 62
     0
 10
345.233
 20
92.1357
 30
0.0
 11
345.233
 21
93.1347
 31
0.0
  0
LINE
  8
0
 62
     0
 10
345.233
 20
93.1347
 30
0.0
 11
331.432
 21
93.1347
 31
0.0
  0
LINE
  8
0
 62
     0
 10
312.382
 20
93.1347
 30
0.0
 11
312.382
 21
92.1357
 31
0.0
  0
LINE
  8
0
 62
     0
 10
312.382
 20
92.1357
 30
0.0
 11
311.583
 21
92.1357
 31
0.0
  0
LINE
  8
0
 62
     0
 10
311.583
 20
92.1357
 30
0.0
 11
311.583
 21
89.2348
 31
0.0
  0
LINE
  8
0
 62
     0
 10
311.583
 20
89.2348
 30
0.0
 11
312.382
 21
89.2348
 31
0.0
  0
LINE
  8
0
 62
     0
 10
312.382
 20
89.2348
 30
0.0
 11
312.382
 21
83.2347
 31
0.0
  0
LINE
  8
0
 62
     0
 10
312.382
 20
83.2347
 30
0.0
 11
311.583
 21
83.2347
 31
0.0
  0
LINE
  8
0
 62
     0
 10
311.583
 20
83.2347
 30
0.0
 11
311.583
 21
80.3356
 31
0.0
  0
LINE
  8
0
 62
     0
 10
311.583
 20
80.3356
 30
0.0
 11
312.382
 21
80.3356
 31
0.0
  0
LINE
  8
0
 62
     0
 10
312.382
 20
80.3356
 30
0.0
 11
312.382
 21
79.3351
 31
0.0
  0
LINE
  8
0
 62
     0
 10
312.382
 20
79.3351
 30
0.0
 11
326.183
 21
79.3351
 31
0.0
  0
LINE
  8
0
 62
     0
 10
326.183
 20
79.3351
 30
0.0
 11
326.183
 21
80.3356
 31
0.0
  0
LINE
  8
0
 62
     0
 10
326.183
 20
80.3356
 30
0.0
 11
326.982
 21
80.3356
 31
0.0
  0
LINE
  8
0
 62
     0
 10
326.982
 20
80.3356
 30
0.0
 11
326.982
 21
83.2347
 31
0.0
  0
LINE
  8
0
 62
     0
 10
326.982
 20
83.2347
 30
0.0
 11
326.183
 21
83.2347
 31
0.0
  0
LINE
  8
0
 62
     0
 10
326.183
 20
83.2347
 30
0.0
 11
326.183
 21
89.2348
 31
0.0
  0
LINE
  8
0
 62
     0
 10
326.183
 20
89.2348
 30
0.0
 11
326.982
 21
89.2348
 31
0.0
  0
LINE
  8
0
 62
     0
 10
326.982
 20
89.2348
 30
0.0
 11
326.982
 21
92.1357
 31
0.0
  0
LINE
  8
0
 62
     0
 10
326.982
 20
92.1357
 30
0.0
 11
326.183
 21
92.1357
 31
0.0
  0
LINE
  8
0
 62
     0
 10
326.183
 20
92.1357
 30
0.0
 11
326.183
 21
93.1347
 31
0.0
  0
LINE
  8
0
 62
     0
 10
326.183
 20
93.1347
 30
0.0
 11
312.382
 21
93.1347
 31
0.0
  0
LINE
  8
0
 62
     0
 10
293.332
 20
93.1347
 30
0.0
 11
293.332
 21
92.1357
 31
0.0
  0
LINE
  8
0
 62
     0
 10
293.332
 20
92.1357
 30
0.0
 11
292.533
 21
92.1357
 31
0.0
  0
LINE
  8
0
 62
     0
 10
292.533
 20
92.1357
 30
0.0
 11
292.533
 21
89.2348
 31
0.0
  0
LINE
  8
0
 62
     0
 10
292.533
 20
89.2348
 30
0.0
 11
293.332
 21
89.2348
 31
0.0
  0
LINE
  8
0
 62
     0
 10
293.332
 20
89.2348
 30
0.0
 11
293.332
 21
83.2347
 31
0.0
  0
LINE
  8
0
 62
     0
 10
293.332
 20
83.2347
 30
0.0
 11
292.533
 21
83.2347
 31
0.0
  0
LINE
  8
0
 62
     0
 10
292.533
 20
83.2347
 30
0.0
 11
292.533
 21
80.3356
 31
0.0
  0
LINE
  8
0
 62
     0
 10
292.533
 20
80.3356
 30
0.0
 11
293.332
 21
80.3356
 31
0.0
  0
LINE
  8
0
 62
     0
 10
293.332
 20
80.3356
 30
0.0
 11
293.332
 21
79.3351
 31
0.0
  0
LINE
  8
0
 62
     0
 10
293.332
 20
79.3351
 30
0.0
 11
307.133
 21
79.3351
 31
0.0
  0
LINE
  8
0
 62
     0
 10
307.133
 20
79.3351
 30
0.0
 11
307.133
 21
80.3356
 31
0.0
  0
LINE
  8
0
 62
     0
 10
307.133
 20
80.3356
 30
0.0
 11
307.932
 21
80.3356
 31
0.0
  0
LINE
  8
0
 62
     0
 10
307.932
 20
80.3356
 30
0.0
 11
307.932
 21
83.2347
 31
0.0
  0
LINE
  8
0
 62
     0
 10
307.932
 20
83.2347
 30
0.0
 11
307.133
 21
83.2347
 31
0.0
  0
LINE
  8
0
 62
     0
 10
307.133
 20
83.2347
 30
0.0
 11
307.133
 21
89.2348
 31
0.0
  0
LINE
  8
0
 62
     0
 10
307.133
 20
89.2348
 30
0.0
 11
307.932
 21
89.2348
 31
0.0
  0
LINE
  8
0
 62
     0
 10
307.932
 20
89.2348
 30
0.0
 11
307.932
 21
92.1357
 31
0.0
  0
LINE
  8
0
 62
     0
 10
307.932
 20
92.1357
 30
0.0
 11
307.133
 21
92.1357
 31
0.0
  0
LINE
  8
0
 62
     0
 10
307.133
 20
92.1357
 30
0.0
 11
307.133
 21
93.1347
 31
0.0
  0
LINE
  8
0
 62
     0
 10
307.133
 20
93.1347
 30
0.0
 11
293.332
 21
93.1347
 31
0.0
  0
LINE
  8
0
 62
     0
 10
231.421
 20
93.1347
 30
0.0
 11
231.421
 21
92.1357
 31
0.0
  0
LINE
  8
0
 62
     0
 10
231.421
 20
92.1357
 30
0.0
 11
230.62
 21
92.1357
 31
0.0
  0
LINE
  8
0
 62
     0
 10
230.62
 20
92.1357
 30
0.0
 11
230.62
 21
89.2348
 31
0.0
  0
LINE
  8
0
 62
     0
 10
230.62
 20
89.2348
 30
0.0
 11
231.421
 21
89.2348
 31
0.0
  0
LINE
  8
0
 62
     0
 10
231.421
 20
89.2348
 30
0.0
 11
231.421
 21
83.2347
 31
0.0
  0
LINE
  8
0
 62
     0
 10
231.421
 20
83.2347
 30
0.0
 11
230.62
 21
83.2347
 31
0.0
  0
LINE
  8
0
 62
     0
 10
230.62
 20
83.2347
 30
0.0
 11
230.62
 21
80.3356
 31
0.0
  0
LINE
  8
0
 62
     0
 10
230.62
 20
80.3356
 30
0.0
 11
231.421
 21
80.3356
 31
0.0
  0
LINE
  8
0
 62
     0
 10
231.421
 20
80.3356
 30
0.0
 11
231.421
 21
79.3351
 31
0.0
  0
LINE
  8
0
 62
     0
 10
231.421
 20
79.3351
 30
0.0
 11
245.22
 21
79.3351
 31
0.0
  0
LINE
  8
0
 62
     0
 10
245.22
 20
79.3351
 30
0.0
 11
245.22
 21
80.3356
 31
0.0
  0
LINE
  8
0
 62
     0
 10
245.22
 20
80.3356
 30
0.0
 11
246.021
 21
80.3356
 31
0.0
  0
LINE
  8
0
 62
     0
 10
246.021
 20
80.3356
 30
0.0
 11
246.021
 21
83.2347
 31
0.0
  0
LINE
  8
0
 62
     0
 10
246.021
 20
83.2347
 30
0.0
 11
245.22
 21
83.2347
 31
0.0
  0
LINE
  8
0
 62
     0
 10
245.22
 20
83.2347
 30
0.0
 11
245.22
 21
89.2348
 31
0.0
  0
LINE
  8
0
 62
     0
 10
245.22
 20
89.2348
 30
0.0
 11
246.021
 21
89.2348
 31
0.0
  0
LINE
  8
0
 62
     0
 10
246.021
 20
89.2348
 30
0.0
 11
246.021
 21
92.1357
 31
0.0
  0
LINE
  8
0
 62
     0
 10
246.021
 20
92.1357
 30
0.0
 11
245.22
 21
92.1357
 31
0.0
  0
LINE
  8
0
 62
     0
 10
245.22
 20
92.1357
 30
0.0
 11
245.22
 21
93.1347
 31
0.0
  0
LINE
  8
0
 62
     0
 10
245.22
 20
93.1347
 30
0.0
 11
231.421
 21
93.1347
 31
0.0
  0
LINE
  8
0
 62
     0
 10
212.371
 20
93.1347
 30
0.0
 11
212.371
 21
92.1357
 31
0.0
  0
LINE
  8
0
 62
     0
 10
212.371
 20
92.1357
 30
0.0
 11
211.57
 21
92.1357
 31
0.0
  0
LINE
  8
0
 62
     0
 10
211.57
 20
92.1357
 30
0.0
 11
211.57
 21
89.2348
 31
0.0
  0
LINE
  8
0
 62
     0
 10
211.57
 20
89.2348
 30
0.0
 11
212.371
 21
89.2348
 31
0.0
  0
LINE
  8
0
 62
     0
 10
212.371
 20
89.2348
 30
0.0
 11
212.371
 21
83.2347
 31
0.0
  0
LINE
  8
0
 62
     0
 10
212.371
 20
83.2347
 30
0.0
 11
211.57
 21
83.2347
 31
0.0
  0
LINE
  8
0
 62
     0
 10
211.57
 20
83.2347
 30
0.0
 11
211.57
 21
80.3356
 31
0.0
  0
LINE
  8
0
 62
     0
 10
211.57
 20
80.3356
 30
0.0
 11
212.371
 21
80.3356
 31
0.0
  0
LINE
  8
0
 62
     0
 10
212.371
 20
80.3356
 30
0.0
 11
212.371
 21
79.3351
 31
0.0
  0
LINE
  8
0
 62
     0
 10
212.371
 20
79.3351
 30
0.0
 11
226.17
 21
79.3351
 31
0.0
  0
LINE
  8
0
 62
     0
 10
226.17
 20
79.3351
 30
0.0
 11
226.17
 21
80.3356
 31
0.0
  0
LINE
  8
0
 62
     0
 10
226.17
 20
80.3356
 30
0.0
 11
226.971
 21
80.3356
 31
0.0
  0
LINE
  8
0
 62
     0
 10
226.971
 20
80.3356
 30
0.0
 11
226.971
 21
83.2347
 31
0.0
  0
LINE
  8
0
 62
     0
 10
226.971
 20
83.2347
 30
0.0
 11
226.17
 21
83.2347
 31
0.0
  0
LINE
  8
0
 62
     0
 10
226.17
 20
83.2347
 30
0.0
 11
226.17
 21
89.2348
 31
0.0
  0
LINE
  8
0
 62
     0
 10
226.17
 20
89.2348
 30
0.0
 11
226.971
 21
89.2348
 31
0.0
  0
LINE
  8
0
 62
     0
 10
226.971
 20
89.2348
 30
0.0
 11
226.971
 21
92.1357
 31
0.0
  0
LINE
  8
0
 62
     0
 10
226.971
 20
92.1357
 30
0.0
 11
226.17
 21
92.1357
 31
0.0
  0
LINE
  8
0
 62
     0
 10
226.17
 20
92.1357
 30
0.0
 11
226.17
 21
93.1347
 31
0.0
  0
LINE
  8
0
 62
     0
 10
226.17
 20
93.1347
 30
0.0
 11
212.371
 21
93.1347
 31
0.0
  0
LINE
  8
0
 62
     0
 10
193.321
 20
93.1347
 30
0.0
 11
193.321
 21
92.1357
 31
0.0
  0
LINE
  8
0
 62
     0
 10
193.321
 20
92.1357
 30
0.0
 11
192.52
 21
92.1357
 31
0.0
  0
LINE
  8
0
 62
     0
 10
192.52
 20
92.1357
 30
0.0
 11
192.52
 21
89.2348
 31
0.0
  0
LINE
  8
0
 62
     0
 10
192.52
 20
89.2348
 30
0.0
 11
193.321
 21
89.2348
 31
0.0
  0
LINE
  8
0
 62
     0
 10
193.321
 20
89.2348
 30
0.0
 11
193.321
 21
83.2347
 31
0.0
  0
LINE
  8
0
 62
     0
 10
193.321
 20
83.2347
 30
0.0
 11
192.52
 21
83.2347
 31
0.0
  0
LINE
  8
0
 62
     0
 10
192.52
 20
83.2347
 30
0.0
 11
192.52
 21
80.3356
 31
0.0
  0
LINE
  8
0
 62
     0
 10
192.52
 20
80.3356
 30
0.0
 11
193.321
 21
80.3356
 31
0.0
  0
LINE
  8
0
 62
     0
 10
193.321
 20
80.3356
 30
0.0
 11
193.321
 21
79.3351
 31
0.0
  0
LINE
  8
0
 62
     0
 10
193.321
 20
79.3351
 30
0.0
 11
207.12
 21
79.3351
 31
0.0
  0
LINE
  8
0
 62
     0
 10
207.12
 20
79.3351
 30
0.0
 11
207.12
 21
80.3356
 31
0.0
  0
LINE
  8
0
 62
     0
 10
207.12
 20
80.3356
 30
0.0
 11
207.921
 21
80.3356
 31
0.0
  0
LINE
  8
0
 62
     0
 10
207.921
 20
80.3356
 30
0.0
 11
207.921
 21
83.2347
 31
0.0
  0
LINE
  8
0
 62
     0
 10
207.921
 20
83.2347
 30
0.0
 11
207.12
 21
83.2347
 31
0.0
  0
LINE
  8
0
 62
     0
 10
207.12
 20
83.2347
 30
0.0
 11
207.12
 21
89.2348
 31
0.0
  0
LINE
  8
0
 62
     0
 10
207.12
 20
89.2348
 30
0.0
 11
207.921
 21
89.2348
 31
0.0
  0
LINE
  8
0
 62
     0
 10
207.921
 20
89.2348
 30
0.0
 11
207.921
 21
92.1357
 31
0.0
  0
LINE
  8
0
 62
     0
 10
207.921
 20
92.1357
 30
0.0
 11
207.12
 21
92.1357
 31
0.0
  0
LINE
  8
0
 62
     0
 10
207.12
 20
92.1357
 30
0.0
 11
207.12
 21
93.1347
 31
0.0
  0
LINE
  8
0
 62
     0
 10
207.12
 20
93.1347
 30
0.0
 11
193.321
 21
93.1347
 31
0.0
  0
LINE
  8
0
 62
     0
 10
174.271
 20
93.1347
 30
0.0
 11
174.271
 21
92.1357
 31
0.0
  0
LINE
  8
0
 62
     0
 10
174.271
 20
92.1357
 30
0.0
 11
173.47
 21
92.1357
 31
0.0
  0
LINE
  8
0
 62
     0
 10
173.47
 20
92.1357
 30
0.0
 11
173.47
 21
89.2348
 31
0.0
  0
LINE
  8
0
 62
     0
 10
173.47
 20
89.2348
 30
0.0
 11
174.271
 21
89.2348
 31
0.0
  0
LINE
  8
0
 62
     0
 10
174.271
 20
89.2348
 30
0.0
 11
174.271
 21
83.2347
 31
0.0
  0
LINE
  8
0
 62
     0
 10
174.271
 20
83.2347
 30
0.0
 11
173.47
 21
83.2347
 31
0.0
  0
LINE
  8
0
 62
     0
 10
173.47
 20
83.2347
 30
0.0
 11
173.47
 21
80.3356
 31
0.0
  0
LINE
  8
0
 62
     0
 10
173.47
 20
80.3356
 30
0.0
 11
174.271
 21
80.3356
 31
0.0
  0
LINE
  8
0
 62
     0
 10
174.271
 20
80.3356
 30
0.0
 11
174.271
 21
79.3351
 31
0.0
  0
LINE
  8
0
 62
     0
 10
174.271
 20
79.3351
 30
0.0
 11
188.07
 21
79.3351
 31
0.0
  0
LINE
  8
0
 62
     0
 10
188.07
 20
79.3351
 30
0.0
 11
188.07
 21
80.3356
 31
0.0
  0
LINE
  8
0
 62
     0
 10
188.07
 20
80.3356
 30
0.0
 11
188.871
 21
80.3356
 31
0.0
  0
LINE
  8
0
 62
     0
 10
188.871
 20
80.3356
 30
0.0
 11
188.871
 21
83.2347
 31
0.0
  0
LINE
  8
0
 62
     0
 10
188.871
 20
83.2347
 30
0.0
 11
188.07
 21
83.2347
 31
0.0
  0
LINE
  8
0
 62
     0
 10
188.07
 20
83.2347
 30
0.0
 11
188.07
 21
89.2348
 31
0.0
  0
LINE
  8
0
 62
     0
 10
188.07
 20
89.2348
 30
0.0
 11
188.871
 21
89.2348
 31
0.0
  0
LINE
  8
0
 62
     0
 10
188.871
 20
89.2348
 30
0.0
 11
188.871
 21
92.1357
 31
0.0
  0
LINE
  8
0
 62
     0
 10
188.871
 20
92.1357
 30
0.0
 11
188.07
 21
92.1357
 31
0.0
  0
LINE
  8
0
 62
     0
 10
188.07
 20
92.1357
 30
0.0
 11
188.07
 21
93.1347
 31
0.0
  0
LINE
  8
0
 62
     0
 10
188.07
 20
93.1347
 30
0.0
 11
174.271
 21
93.1347
 31
0.0
  0
LINE
  8
0
 62
     0
 10
155.221
 20
93.1347
 30
0.0
 11
155.221
 21
92.1357
 31
0.0
  0
LINE
  8
0
 62
     0
 10
155.221
 20
92.1357
 30
0.0
 11
154.42
 21
92.1357
 31
0.0
  0
LINE
  8
0
 62
     0
 10
154.42
 20
92.1357
 30
0.0
 11
154.42
 21
89.2348
 31
0.0
  0
LINE
  8
0
 62
     0
 10
154.42
 20
89.2348
 30
0.0
 11
155.221
 21
89.2348
 31
0.0
  0
LINE
  8
0
 62
     0
 10
155.221
 20
89.2348
 30
0.0
 11
155.221
 21
83.2347
 31
0.0
  0
LINE
  8
0
 62
     0
 10
155.221
 20
83.2347
 30
0.0
 11
154.42
 21
83.2347
 31
0.0
  0
LINE
  8
0
 62
     0
 10
154.42
 20
83.2347
 30
0.0
 11
154.42
 21
80.3356
 31
0.0
  0
LINE
  8
0
 62
     0
 10
154.42
 20
80.3356
 30
0.0
 11
155.221
 21
80.3356
 31
0.0
  0
LINE
  8
0
 62
     0
 10
155.221
 20
80.3356
 30
0.0
 11
155.221
 21
79.3351
 31
0.0
  0
LINE
  8
0
 62
     0
 10
155.221
 20
79.3351
 30
0.0
 11
169.02
 21
79.3351
 31
0.0
  0
LINE
  8
0
 62
     0
 10
169.02
 20
79.3351
 30
0.0
 11
169.02
 21
80.3356
 31
0.0
  0
LINE
  8
0
 62
     0
 10
169.02
 20
80.3356
 30
0.0
 11
169.821
 21
80.3356
 31
0.0
  0
LINE
  8
0
 62
     0
 10
169.821
 20
80.3356
 30
0.0
 11
169.821
 21
83.2347
 31
0.0
  0
LINE
  8
0
 62
     0
 10
169.821
 20
83.2347
 30
0.0
 11
169.02
 21
83.2347
 31
0.0
  0
LINE
  8
0
 62
     0
 10
169.02
 20
83.2347
 30
0.0
 11
169.02
 21
89.2348
 31
0.0
  0
LINE
  8
0
 62
     0
 10
169.02
 20
89.2348
 30
0.0
 11
169.821
 21
89.2348
 31
0.0
  0
LINE
  8
0
 62
     0
 10
169.821
 20
89.2348
 30
0.0
 11
169.821
 21
92.1357
 31
0.0
  0
LINE
  8
0
 62
     0
 10
169.821
 20
92.1357
 30
0.0
 11
169.02
 21
92.1357
 31
0.0
  0
LINE
  8
0
 62
     0
 10
169.02
 20
92.1357
 30
0.0
 11
169.02
 21
93.1347
 31
0.0
  0
LINE
  8
0
 62
     0
 10
169.02
 20
93.1347
 30
0.0
 11
155.221
 21
93.1347
 31
0.0
  0
LINE
  8
0
 62
     0
 10
136.171
 20
93.1347
 30
0.0
 11
136.171
 21
92.1357
 31
0.0
  0
LINE
  8
0
 62
     0
 10
136.171
 20
92.1357
 30
0.0
 11
135.37
 21
92.1357
 31
0.0
  0
LINE
  8
0
 62
     0
 10
135.37
 20
92.1357
 30
0.0
 11
135.37
 21
89.2348
 31
0.0
  0
LINE
  8
0
 62
     0
 10
135.37
 20
89.2348
 30
0.0
 11
136.171
 21
89.2348
 31
0.0
  0
LINE
  8
0
 62
     0
 10
136.171
 20
89.2348
 30
0.0
 11
136.171
 21
83.2347
 31
0.0
  0
LINE
  8
0
 62
     0
 10
136.171
 20
83.2347
 30
0.0
 11
135.37
 21
83.2347
 31
0.0
  0
LINE
  8
0
 62
     0
 10
135.37
 20
83.2347
 30
0.0
 11
135.37
 21
80.3356
 31
0.0
  0
LINE
  8
0
 62
     0
 10
135.37
 20
80.3356
 30
0.0
 11
136.171
 21
80.3356
 31
0.0
  0
LINE
  8
0
 62
     0
 10
136.171
 20
80.3356
 30
0.0
 11
136.171
 21
79.3351
 31
0.0
  0
LINE
  8
0
 62
     0
 10
136.171
 20
79.3351
 30
0.0
 11
149.97
 21
79.3351
 31
0.0
  0
LINE
  8
0
 62
     0
 10
149.97
 20
79.3351
 30
0.0
 11
149.97
 21
80.3356
 31
0.0
  0
LINE
  8
0
 62
     0
 10
149.97
 20
80.3356
 30
0.0
 11
150.77
 21
80.3356
 31
0.0
  0
LINE
  8
0
 62
     0
 10
150.77
 20
80.3356
 30
0.0
 11
150.77
 21
83.2347
 31
0.0
  0
LINE
  8
0
 62
     0
 10
150.77
 20
83.2347
 30
0.0
 11
149.97
 21
83.2347
 31
0.0
  0
LINE
  8
0
 62
     0
 10
149.97
 20
83.2347
 30
0.0
 11
149.97
 21
89.2348
 31
0.0
  0
LINE
  8
0
 62
     0
 10
149.97
 20
89.2348
 30
0.0
 11
150.77
 21
89.2348
 31
0.0
  0
LINE
  8
0
 62
     0
 10
150.77
 20
89.2348
 30
0.0
 11
150.77
 21
92.1357
 31
0.0
  0
LINE
  8
0
 62
     0
 10
150.77
 20
92.1357
 30
0.0
 11
149.97
 21
92.1357
 31
0.0
  0
LINE
  8
0
 62
     0
 10
149.97
 20
92.1357
 30
0.0
 11
149.97
 21
93.1347
 31
0.0
  0
LINE
  8
0
 62
     0
 10
149.97
 20
93.1347
 30
0.0
 11
136.171
 21
93.1347
 31
0.0
  0
LINE
  8
0
 62
     0
 10
117.119
 20
93.1347
 30
0.0
 11
117.119
 21
92.1357
 31
0.0
  0
LINE
  8
0
 62
     0
 10
117.119
 20
92.1357
 30
0.0
 11
116.319
 21
92.1357
 31
0.0
  0
LINE
  8
0
 62
     0
 10
116.319
 20
92.1357
 30
0.0
 11
116.319
 21
89.2348
 31
0.0
  0
LINE
  8
0
 62
     0
 10
116.319
 20
89.2348
 30
0.0
 11
117.119
 21
89.2348
 31
0.0
  0
LINE
  8
0
 62
     0
 10
117.119
 20
89.2348
 30
0.0
 11
117.119
 21
83.2347
 31
0.0
  0
LINE
  8
0
 62
     0
 10
117.119
 20
83.2347
 30
0.0
 11
116.319
 21
83.2347
 31
0.0
  0
LINE
  8
0
 62
     0
 10
116.319
 20
83.2347
 30
0.0
 11
116.319
 21
80.3356
 31
0.0
  0
LINE
  8
0
 62
     0
 10
116.319
 20
80.3356
 30
0.0
 11
117.119
 21
80.3356
 31
0.0
  0
LINE
  8
0
 62
     0
 10
117.119
 20
80.3356
 30
0.0
 11
117.119
 21
79.3351
 31
0.0
  0
LINE
  8
0
 62
     0
 10
117.119
 20
79.3351
 30
0.0
 11
130.92
 21
79.3351
 31
0.0
  0
LINE
  8
0
 62
     0
 10
130.92
 20
79.3351
 30
0.0
 11
130.92
 21
80.3356
 31
0.0
  0
LINE
  8
0
 62
     0
 10
130.92
 20
80.3356
 30
0.0
 11
131.72
 21
80.3356
 31
0.0
  0
LINE
  8
0
 62
     0
 10
131.72
 20
80.3356
 30
0.0
 11
131.72
 21
83.2347
 31
0.0
  0
LINE
  8
0
 62
     0
 10
131.72
 20
83.2347
 30
0.0
 11
130.92
 21
83.2347
 31
0.0
  0
LINE
  8
0
 62
     0
 10
130.92
 20
83.2347
 30
0.0
 11
130.92
 21
89.2348
 31
0.0
  0
LINE
  8
0
 62
     0
 10
130.92
 20
89.2348
 30
0.0
 11
131.72
 21
89.2348
 31
0.0
  0
LINE
  8
0
 62
     0
 10
131.72
 20
89.2348
 30
0.0
 11
131.72
 21
92.1357
 31
0.0
  0
LINE
  8
0
 62
     0
 10
131.72
 20
92.1357
 30
0.0
 11
130.92
 21
92.1357
 31
0.0
  0
LINE
  8
0
 62
     0
 10
130.92
 20
92.1357
 30
0.0
 11
130.92
 21
93.1347
 31
0.0
  0
LINE
  8
0
 62
     0
 10
130.92
 20
93.1347
 30
0.0
 11
117.119
 21
93.1347
 31
0.0
  0
LINE
  8
0
 62
     0
 10
98.0694
 20
93.1347
 30
0.0
 11
98.0694
 21
92.1357
 31
0.0
  0
LINE
  8
0
 62
     0
 10
98.0694
 20
92.1357
 30
0.0
 11
97.2689
 21
92.1357
 31
0.0
  0
LINE
  8
0
 62
     0
 10
97.2689
 20
92.1357
 30
0.0
 11
97.2689
 21
89.2348
 31
0.0
  0
LINE
  8
0
 62
     0
 10
97.2689
 20
89.2348
 30
0.0
 11
98.0694
 21
89.2348
 31
0.0
  0
LINE
  8
0
 62
     0
 10
98.0694
 20
89.2348
 30
0.0
 11
98.0694
 21
83.2347
 31
0.0
  0
LINE
  8
0
 62
     0
 10
98.0694
 20
83.2347
 30
0.0
 11
97.2689
 21
83.2347
 31
0.0
  0
LINE
  8
0
 62
     0
 10
97.2689
 20
83.2347
 30
0.0
 11
97.2689
 21
80.3356
 31
0.0
  0
LINE
  8
0
 62
     0
 10
97.2689
 20
80.3356
 30
0.0
 11
98.0694
 21
80.3356
 31
0.0
  0
LINE
  8
0
 62
     0
 10
98.0694
 20
80.3356
 30
0.0
 11
98.0694
 21
79.3351
 31
0.0
  0
LINE
  8
0
 62
     0
 10
98.0694
 20
79.3351
 30
0.0
 11
111.869
 21
79.3351
 31
0.0
  0
LINE
  8
0
 62
     0
 10
111.869
 20
79.3351
 30
0.0
 11
111.869
 21
80.3356
 31
0.0
  0
LINE
  8
0
 62
     0
 10
111.869
 20
80.3356
 30
0.0
 11
112.67
 21
80.3356
 31
0.0
  0
LINE
  8
0
 62
     0
 10
112.67
 20
80.3356
 30
0.0
 11
112.67
 21
83.2347
 31
0.0
  0
LINE
  8
0
 62
     0
 10
112.67
 20
83.2347
 30
0.0
 11
111.869
 21
83.2347
 31
0.0
  0
LINE
  8
0
 62
     0
 10
111.869
 20
83.2347
 30
0.0
 11
111.869
 21
89.2348
 31
0.0
  0
LINE
  8
0
 62
     0
 10
111.869
 20
89.2348
 30
0.0
 11
112.67
 21
89.2348
 31
0.0
  0
LINE
  8
0
 62
     0
 10
112.67
 20
89.2348
 30
0.0
 11
112.67
 21
92.1357
 31
0.0
  0
LINE
  8
0
 62
     0
 10
112.67
 20
92.1357
 30
0.0
 11
111.869
 21
92.1357
 31
0.0
  0
LINE
  8
0
 62
     0
 10
111.869
 20
92.1357
 30
0.0
 11
111.869
 21
93.1347
 31
0.0
  0
LINE
  8
0
 62
     0
 10
111.869
 20
93.1347
 30
0.0
 11
98.0694
 21
93.1347
 31
0.0
  0
LINE
  8
0
 62
     0
 10
79.0194
 20
93.1347
 30
0.0
 11
79.0194
 21
92.1357
 31
0.0
  0
LINE
  8
0
 62
     0
 10
79.0194
 20
92.1357
 30
0.0
 11
78.219
 21
92.1357
 31
0.0
  0
LINE
  8
0
 62
     0
 10
78.219
 20
92.1357
 30
0.0
 11
78.219
 21
89.2348
 31
0.0
  0
LINE
  8
0
 62
     0
 10
78.219
 20
89.2348
 30
0.0
 11
79.0194
 21
89.2348
 31
0.0
  0
LINE
  8
0
 62
     0
 10
79.0194
 20
89.2348
 30
0.0
 11
79.0194
 21
83.2347
 31
0.0
  0
LINE
  8
0
 62
     0
 10
79.0194
 20
83.2347
 30
0.0
 11
78.219
 21
83.2347
 31
0.0
  0
LINE
  8
0
 62
     0
 10
78.219
 20
83.2347
 30
0.0
 11
78.219
 21
80.3356
 31
0.0
  0
LINE
  8
0
 62
     0
 10
78.219
 20
80.3356
 30
0.0
 11
79.0194
 21
80.3356
 31
0.0
  0
LINE
  8
0
 62
     0
 10
79.0194
 20
80.3356
 30
0.0
 11
79.0194
 21
79.3351
 31
0.0
  0
LINE
  8
0
 62
     0
 10
79.0194
 20
79.3351
 30
0.0
 11
92.8204
 21
79.3351
 31
0.0
  0
LINE
  8
0
 62
     0
 10
92.8204
 20
79.3351
 30
0.0
 11
92.8204
 21
80.3356
 31
0.0
  0
LINE
  8
0
 62
     0
 10
92.8204
 20
80.3356
 30
0.0
 11
93.6198
 21
80.3356
 31
0.0
  0
LINE
  8
0
 62
     0
 10
93.6198
 20
80.3356
 30
0.0
 11
93.6198
 21
83.2347
 31
0.0
  0
LINE
  8
0
 62
     0
 10
93.6198
 20
83.2347
 30
0.0
 11
92.8204
 21
83.2347
 31
0.0
  0
LINE
  8
0
 62
     0
 10
92.8204
 20
83.2347
 30
0.0
 11
92.8204
 21
89.2348
 31
0.0
  0
LINE
  8
0
 62
     0
 10
92.8204
 20
89.2348
 30
0.0
 11
93.6198
 21
89.2348
 31
0.0
  0
LINE
  8
0
 62
     0
 10
93.6198
 20
89.2348
 30
0.0
 11
93.6198
 21
92.1357
 31
0.0
  0
LINE
  8
0
 62
     0
 10
93.6198
 20
92.1357
 30
0.0
 11
92.8204
 21
92.1357
 31
0.0
  0
LINE
  8
0
 62
     0
 10
92.8204
 20
92.1357
 30
0.0
 11
92.8204
 21
93.1347
 31
0.0
  0
LINE
  8
0
 62
     0
 10
92.8204
 20
93.1347
 30
0.0
 11
79.0194
 21
93.1347
 31
0.0
  0
LINE
  8
0
 62
     0
 10
59.968
 20
93.1347
 30
0.0
 11
59.968
 21
92.1357
 31
0.0
  0
LINE
  8
0
 62
     0
 10
59.968
 20
92.1357
 30
0.0
 11
59.1689
 21
92.1357
 31
0.0
  0
LINE
  8
0
 62
     0
 10
59.1689
 20
92.1357
 30
0.0
 11
59.1689
 21
89.2348
 31
0.0
  0
LINE
  8
0
 62
     0
 10
59.1689
 20
89.2348
 30
0.0
 11
59.968
 21
89.2348
 31
0.0
  0
LINE
  8
0
 62
     0
 10
59.968
 20
89.2348
 30
0.0
 11
59.968
 21
83.2347
 31
0.0
  0
LINE
  8
0
 62
     0
 10
59.968
 20
83.2347
 30
0.0
 11
59.1689
 21
83.2347
 31
0.0
  0
LINE
  8
0
 62
     0
 10
59.1689
 20
83.2347
 30
0.0
 11
59.1689
 21
80.3356
 31
0.0
  0
LINE
  8
0
 62
     0
 10
59.1689
 20
80.3356
 30
0.0
 11
59.968
 21
80.3356
 31
0.0
  0
LINE
  8
0
 62
     0
 10
59.968
 20
80.3356
 30
0.0
 11
59.968
 21
79.3351
 31
0.0
  0
LINE
  8
0
 62
     0
 10
59.968
 20
79.3351
 30
0.0
 11
73.7704
 21
79.3351
 31
0.0
  0
LINE
  8
0
 62
     0
 10
73.7704
 20
79.3351
 30
0.0
 11
73.7704
 21
80.3356
 31
0.0
  0
LINE
  8
0
 62
     0
 10
73.7704
 20
80.3356
 30
0.0
 11
74.5712
 21
80.3356
 31
0.0
  0
LINE
  8
0
 62
     0
 10
74.5712
 20
80.3356
 30
0.0
 11
74.5712
 21
83.2347
 31
0.0
  0
LINE
  8
0
 62
     0
 10
74.5712
 20
83.2347
 30
0.0
 11
73.7704
 21
83.2347
 31
0.0
  0
LINE
  8
0
 62
     0
 10
73.7704
 20
83.2347
 30
0.0
 11
73.7704
 21
89.2348
 31
0.0
  0
LINE
  8
0
 62
     0
 10
73.7704
 20
89.2348
 30
0.0
 11
74.5712
 21
89.2348
 31
0.0
  0
LINE
  8
0
 62
     0
 10
74.5712
 20
89.2348
 30
0.0
 11
74.5712
 21
92.1357
 31
0.0
  0
LINE
  8
0
 62
     0
 10
74.5712
 20
92.1357
 30
0.0
 11
73.7704
 21
92.1357
 31
0.0
  0
LINE
  8
0
 62
     0
 10
73.7704
 20
92.1357
 30
0.0
 11
73.7704
 21
93.1347
 31
0.0
  0
LINE
  8
0
 62
     0
 10
73.7704
 20
93.1347
 30
0.0
 11
59.968
 21
93.1347
 31
0.0
  0
LINE
  8
0
 62
     0
 10
40.9194
 20
93.1347
 30
0.0
 11
40.9194
 21
92.1357
 31
0.0
  0
LINE
  8
0
 62
     0
 10
40.9194
 20
92.1357
 30
0.0
 11
40.1189
 21
92.1357
 31
0.0
  0
LINE
  8
0
 62
     0
 10
40.1189
 20
92.1357
 30
0.0
 11
40.1189
 21
89.2348
 31
0.0
  0
LINE
  8
0
 62
     0
 10
40.1189
 20
89.2348
 30
0.0
 11
40.9194
 21
89.2348
 31
0.0
  0
LINE
  8
0
 62
     0
 10
40.9194
 20
89.2348
 30
0.0
 11
40.9194
 21
83.2347
 31
0.0
  0
LINE
  8
0
 62
     0
 10
40.9194
 20
83.2347
 30
0.0
 11
40.1189
 21
83.2347
 31
0.0
  0
LINE
  8
0
 62
     0
 10
40.1189
 20
83.2347
 30
0.0
 11
40.1189
 21
80.3356
 31
0.0
  0
LINE
  8
0
 62
     0
 10
40.1189
 20
80.3356
 30
0.0
 11
40.9194
 21
80.3356
 31
0.0
  0
LINE
  8
0
 62
     0
 10
40.9194
 20
80.3356
 30
0.0
 11
40.9194
 21
79.3351
 31
0.0
  0
LINE
  8
0
 62
     0
 10
40.9194
 20
79.3351
 30
0.0
 11
54.719
 21
79.3351
 31
0.0
  0
LINE
  8
0
 62
     0
 10
54.719
 20
79.3351
 30
0.0
 11
54.719
 21
80.3356
 31
0.0
  0
LINE
  8
0
 62
     0
 10
54.719
 20
80.3356
 30
0.0
 11
55.5212
 21
80.3356
 31
0.0
  0
LINE
  8
0
 62
     0
 10
55.5212
 20
80.3356
 30
0.0
 11
55.5212
 21
83.2347
 31
0.0
  0
LINE
  8
0
 62
     0
 10
55.5212
 20
83.2347
 30
0.0
 11
54.719
 21
83.2347
 31
0.0
  0
LINE
  8
0
 62
     0
 10
54.719
 20
83.2347
 30
0.0
 11
54.719
 21
89.2348
 31
0.0
  0
LINE
  8
0
 62
     0
 10
54.719
 20
89.2348
 30
0.0
 11
55.5212
 21
89.2348
 31
0.0
  0
LINE
  8
0
 62
     0
 10
55.5212
 20
89.2348
 30
0.0
 11
55.5212
 21
92.1357
 31
0.0
  0
LINE
  8
0
 62
     0
 10
55.5212
 20
92.1357
 30
0.0
 11
54.719
 21
92.1357
 31
0.0
  0
LINE
  8
0
 62
     0
 10
54.719
 20
92.1357
 30
0.0
 11
54.719
 21
93.1347
 31
0.0
  0
LINE
  8
0
 62
     0
 10
54.719
 20
93.1347
 30
0.0
 11
40.9194
 21
93.1347
 31
0.0
  0
LINE
  8
0
 62
     0
 10
21.8708
 20
93.1347
 30
0.0
 11
21.8708
 21
92.1357
 31
0.0
  0
LINE
  8
0
 62
     0
 10
21.8708
 20
92.1357
 30
0.0
 11
21.0688
 21
92.1357
 31
0.0
  0
LINE
  8
0
 62
     0
 10
21.0688
 20
92.1357
 30
0.0
 11
21.0688
 21
89.2348
 31
0.0
  0
LINE
  8
0
 62
     0
 10
21.0688
 20
89.2348
 30
0.0
 11
21.8708
 21
89.2348
 31
0.0
  0
LINE
  8
0
 62
     0
 10
21.8708
 20
89.2348
 30
0.0
 11
21.8708
 21
83.2347
 31
0.0
  0
LINE
  8
0
 62
     0
 10
21.8708
 20
83.2347
 30
0.0
 11
21.0688
 21
83.2347
 31
0.0
  0
LINE
  8
0
 62
     0
 10
21.0688
 20
83.2347
 30
0.0
 11
21.0688
 21
80.3356
 31
0.0
  0
LINE
  8
0
 62
     0
 10
21.0688
 20
80.3356
 30
0.0
 11
21.8708
 21
80.3356
 31
0.0
  0
LINE
  8
0
 62
     0
 10
21.8708
 20
80.3356
 30
0.0
 11
21.8708
 21
79.3351
 31
0.0
  0
LINE
  8
0
 62
     0
 10
21.8708
 20
79.3351
 30
0.0
 11
35.669
 21
79.3351
 31
0.0
  0
LINE
  8
0
 62
     0
 10
35.669
 20
79.3351
 30
0.0
 11
35.669
 21
80.3356
 31
0.0
  0
LINE
  8
0
 62
     0
 10
35.669
 20
80.3356
 30
0.0
 11
36.4712
 21
80.3356
 31
0.0
  0
LINE
  8
0
 62
     0
 10
36.4712
 20
80.3356
 30
0.0
 11
36.4712
 21
83.2347
 31
0.0
  0
LINE
  8
0
 62
     0
 10
36.4712
 20
83.2347
 30
0.0
 11
35.669
 21
83.2347
 31
0.0
  0
LINE
  8
0
 62
     0
 10
35.669
 20
83.2347
 30
0.0
 11
35.669
 21
89.2348
 31
0.0
  0
LINE
  8
0
 62
     0
 10
35.669
 20
89.2348
 30
0.0
 11
36.4712
 21
89.2348
 31
0.0
  0
LINE
  8
0
 62
     0
 10
36.4712
 20
89.2348
 30
0.0
 11
36.4712
 21
92.1357
 31
0.0
  0
LINE
  8
0
 62
     0
 10
36.4712
 20
92.1357
 30
0.0
 11
35.669
 21
92.1357
 31
0.0
  0
LINE
  8
0
 62
     0
 10
35.669
 20
92.1357
 30
0.0
 11
35.669
 21
93.1347
 31
0.0
  0
LINE
  8
0
 62
     0
 10
35.669
 20
93.1347
 30
0.0
 11
21.8708
 21
93.1347
 31
0.0
  0
LINE
  8
0
 62
     0
 10
2.82084
 20
93.1347
 30
0.0
 11
2.82084
 21
92.1357
 31
0.0
  0
LINE
  8
0
 62
     0
 10
2.82084
 20
92.1357
 30
0.0
 11
2.0202
 21
92.1357
 31
0.0
  0
LINE
  8
0
 62
     0
 10
2.0202
 20
92.1357
 30
0.0
 11
2.0202
 21
89.2348
 31
0.0
  0
LINE
  8
0
 62
     0
 10
2.0202
 20
89.2348
 30
0.0
 11
2.82084
 21
89.2348
 31
0.0
  0
LINE
  8
0
 62
     0
 10
2.82084
 20
89.2348
 30
0.0
 11
2.82084
 21
83.2347
 31
0.0
  0
LINE
  8
0
 62
     0
 10
2.82084
 20
83.2347
 30
0.0
 11
2.0202
 21
83.2347
 31
0.0
  0
LINE
  8
0
 62
     0
 10
2.0202
 20
83.2347
 30
0.0
 11
2.0202
 21
80.3356
 31
0.0
  0
LINE
  8
0
 62
     0
 10
2.0202
 20
80.3356
 30
0.0
 11
2.82084
 21
80.3356
 31
0.0
  0
LINE
  8
0
 62
     0
 10
2.82084
 20
80.3356
 30
0.0
 11
2.82084
 21
79.3351
 31
0.0
  0
LINE
  8
0
 62
     0
 10
2.82084
 20
79.3351
 30
0.0
 11
16.6205
 21
79.3351
 31
0.0
  0
LINE
  8
0
 62
     0
 10
16.6205
 20
79.3351
 30
0.0
 11
16.6205
 21
80.3356
 31
0.0
  0
LINE
  8
0
 62
     0
 10
16.6205
 20
80.3356
 30
0.0
 11
17.4212
 21
80.3356
 31
0.0
  0
LINE
  8
0
 62
     0
 10
17.4212
 20
80.3356
 30
0.0
 11
17.4212
 21
83.2347
 31
0.0
  0
LINE
  8
0
 62
     0
 10
17.4212
 20
83.2347
 30
0.0
 11
16.6205
 21
83.2347
 31
0.0
  0
LINE
  8
0
 62
     0
 10
16.6205
 20
83.2347
 30
0.0
 11
16.6205
 21
89.2348
 31
0.0
  0
LINE
  8
0
 62
     0
 10
16.6205
 20
89.2348
 30
0.0
 11
17.4212
 21
89.2348
 31
0.0
  0
LINE
  8
0
 62
     0
 10
17.4212
 20
89.2348
 30
0.0
 11
17.4212
 21
92.1357
 31
0.0
  0
LINE
  8
0
 62
     0
 10
17.4212
 20
92.1357
 30
0.0
 11
16.6205
 21
92.1357
 31
0.0
  0
LINE
  8
0
 62
     0
 10
16.6205
 20
92.1357
 30
0.0
 11
16.6205
 21
93.1347
 31
0.0
  0
LINE
  8
0
 62
     0
 10
16.6205
 20
93.1347
 30
0.0
 11
2.82084
 21
93.1347
 31
0.0
  0
ENDSEC
  0
EOF
