M48
; DRILL file {KiCad (5.1.6)-1} date 07/22/20 19:59:08
; FORMAT={-:-/ absolute / inch / decimal}
; #@! TF.CreationDate,2020-07-22T19:59:08-04:00
; #@! TF.GenerationSoftware,Kicad,Pcbnew,(5.1.6)-1
; #@! TF.FileFunction,Plated,1,2,PTH
FMAT,2
INCH
T1C0.0157
T2C0.0197
T3C0.0276
T4C0.0591
T5C0.1693
%
G90
G05
T1
X7.9724Y-5.6654
X10.878Y-5.815
X11.3386Y-5.6654
X12.1339Y-4.0787
X12.2874Y-4.2323
X12.3898Y-4.3386
X12.4764Y-5.4409
X12.5669Y-4.5748
X12.5669Y-5.063
X12.6417Y-4.5906
X12.7283Y-5.1142
X12.7913Y-5.1142
X12.7992Y-4.9961
X12.815Y-4.0157
X12.8307Y-5.3937
X12.8465Y-4.0906
X12.8543Y-4.9528
X12.8583Y-4.8583
X12.8701Y-3.9724
X12.8819Y-5.4409
X12.8898Y-4.8898
X12.9094Y-5.1929
X12.9094Y-5.2677
X12.9252Y-4.7913
X12.9331Y-4.9409
X12.9567Y-4.8228
X12.9646Y-4.3346
X12.9724Y-3.378
X13.0Y-3.9724
X13.0Y-4.4331
X13.0Y-5.1929
X13.0Y-5.2677
X13.0118Y-4.8622
X13.0659Y-4.999
X13.0709Y-3.0118
X13.1024Y-3.1929
X13.1063Y-4.4567
X13.1457Y-3.3819
X13.2008Y-4.7126
X13.2283Y-3.9724
X13.2323Y-4.9577
X13.2362Y-4.999
X13.2441Y-5.9606
X13.2537Y-5.6321
X13.2559Y-5.3937
X13.2559Y-5.4409
X13.2559Y-5.5669
X13.3622Y-5.122
X13.3661Y-4.4567
X13.3976Y-5.1535
X13.4488Y-5.7559
X13.4606Y-4.7756
X13.4954Y-4.7204
X13.5551Y-4.8976
X13.6181Y-4.8976
X13.6496Y-4.7559
X13.6811Y-4.8976
X13.6811Y-4.9646
X13.6811Y-5.0906
X13.6811Y-5.7756
X13.7008Y-4.6811
X13.752Y-5.811
X13.8189Y-5.0591
X13.8661Y-5.6969
X13.874Y-4.9961
X14.1535Y-5.7756
X14.5669Y-5.6929
X14.5906Y-5.9134
X14.6535Y-5.7795
X14.6575Y-5.6102
X14.7205Y-5.9134
X14.7402Y-5.6929
T3
X5.9447Y-5.5834
X6.2518Y-5.5834
X3.8822Y-4.0834
X4.1893Y-4.0834
X13.4447Y-4.0834
X13.7518Y-4.0834
X5.1947Y-5.5834
X5.5018Y-5.5834
X10.0697Y-4.8334
X10.3768Y-4.8334
X13.4447Y-6.3334
X13.7518Y-6.3334
X10.2572Y-3.3335
X10.5643Y-3.3335
X9.6947Y-5.5834
X10.0018Y-5.5834
X14.1947Y-5.5834
X14.5018Y-5.5834
X10.6322Y-4.0834
X10.9393Y-4.0834
X7.6322Y-4.0834
X7.9393Y-4.0834
X6.1322Y-4.0834
X6.4393Y-4.0834
X4.0697Y-4.8334
X4.3768Y-4.8334
X3.3197Y-4.8334
X3.6268Y-4.8334
X8.5697Y-4.8334
X8.8768Y-4.8334
X7.2572Y-3.3335
X7.5643Y-3.3335
X4.2572Y-3.3335
X4.5643Y-3.3335
X11.851Y-5.5834
X12.1581Y-5.5834
X10.4447Y-5.5834
X10.7518Y-5.5834
X9.8822Y-4.0834
X10.1893Y-4.0834
X4.6322Y-4.0834
X4.9393Y-4.0834
X12.3197Y-4.0834
X12.6268Y-4.0834
X2.2884Y-4.8334
X2.5955Y-4.8334
X6.3197Y-4.8334
X6.6268Y-4.8334
X7.0697Y-4.8334
X7.3768Y-4.8334
X11.476Y-6.3334
X11.7831Y-6.3334
X9.5072Y-3.3335
X9.8143Y-3.3335
X8.7572Y-3.3335
X9.0643Y-3.3335
X8.1947Y-5.5834
X8.5018Y-5.5834
X14.9447Y-3.3335
X15.2518Y-3.3335
X3.1322Y-4.0834
X3.4393Y-4.0834
X5.3822Y-4.0834
X5.6893Y-4.0834
X7.8197Y-4.8334
X8.1268Y-4.8334
X2.4664Y-5.5834
X2.7735Y-5.5834
X4.8197Y-4.8334
X5.1268Y-4.8334
X3.0384Y-6.3334
X3.3455Y-6.3334
X13.4447Y-3.3335
X13.7518Y-3.3335
X8.0072Y-3.3335
X8.3143Y-3.3335
X8.9447Y-5.5834
X9.2518Y-5.5834
X2.1947Y-4.0834
X2.5018Y-4.0834
X14.1947Y-3.3335
X14.5018Y-3.3335
X11.3822Y-4.0834
X11.6893Y-4.0834
X3.6947Y-5.5834
X4.0018Y-5.5834
X4.4447Y-5.5834
X4.7518Y-5.5834
X14.9447Y-4.0834
X15.2518Y-4.0834
X5.7572Y-3.3335
X6.0643Y-3.3335
X14.9447Y-6.3334
X15.2518Y-6.3334
X12.1322Y-3.3334
X12.4393Y-3.3334
X10.5384Y-6.3334
X10.8455Y-6.3334
X6.5072Y-3.3335
X6.8143Y-3.3335
X7.4447Y-5.5834
X7.7518Y-5.5834
X9.1322Y-4.0834
X9.4393Y-4.0834
X6.8822Y-4.0834
X7.1893Y-4.0834
X9.3197Y-4.8334
X9.6268Y-4.8334
X10.8197Y-4.8334
X11.1268Y-4.8334
X5.0072Y-3.3335
X5.3143Y-3.3335
X14.1947Y-6.3334
X14.5018Y-6.3334
X11.0072Y-3.3335
X11.3143Y-3.3335
X3.976Y-6.3334
X4.2831Y-6.3334
X2.0072Y-3.3335
X2.3143Y-3.3335
X6.6947Y-5.5834
X7.0018Y-5.5834
X6.798Y-6.3334
X7.1051Y-6.3334
X8.3822Y-4.0834
X8.6893Y-4.0834
X14.1947Y-4.0834
X14.5018Y-4.0834
X5.5697Y-4.8334
X5.8768Y-4.8334
X12.048Y-4.8334
X12.3551Y-4.8334
X2.101Y-6.3334
X2.4081Y-6.3334
X2.7572Y-3.3335
X3.0643Y-3.3335
X12.4134Y-6.3334
X12.7205Y-6.3334
X3.5072Y-3.3335
X3.8143Y-3.3335
X9.601Y-6.3334
X9.9081Y-6.3334
T5
X1.9787Y-4.6769
X11.089Y-5.4141
X15.2804Y-4.6769
X7.5993Y-4.3004
T2
G00X12.9138Y-2.8154
M15
G01X12.9138Y-2.839
M16
G05
G00X12.928Y-3.0496
M15
G01X12.928Y-3.0732
M16
G05
G00X13.2531Y-3.0496
M15
G01X13.2531Y-3.0732
M16
G05
G00X13.2673Y-2.8154
M15
G01X13.2673Y-2.839
M16
G05
T4
G00X14.9939Y-5.9724
M15
G01X14.9463Y-6.0471
M16
G05
G00X15.1983Y-5.9484
M15
G01X15.1967Y-5.9712
M16
G05
G00X8.4314Y-3.7225
M15
G01X8.3838Y-3.7972
M16
G05
G00X8.6358Y-3.6984
M15
G01X8.6342Y-3.7212
M16
G05
G00X5.9939Y-5.2224
M15
G01X5.9463Y-5.2971
M16
G05
G00X6.1983Y-5.1984
M15
G01X6.1967Y-5.2212
M16
G05
G00X5.4314Y-3.7225
M15
G01X5.3838Y-3.7972
M16
G05
G00X5.6357Y-3.6984
M15
G01X5.6342Y-3.7212
M16
G05
G00X9.3689Y-4.4724
M15
G01X9.3213Y-4.5471
M16
G05
G00X9.5733Y-4.4484
M15
G01X9.5717Y-4.4712
M16
G05
G00X10.6814Y-3.7225
M15
G01X10.6338Y-3.7972
M16
G05
G00X10.8858Y-3.6984
M15
G01X10.8842Y-3.7212
M16
G05
G00X14.2439Y-3.7225
M15
G01X14.1963Y-3.7972
M16
G05
G00X14.4483Y-3.6984
M15
G01X14.4467Y-3.7212
M16
G05
G00X6.5564Y-2.9725
M15
G01X6.5088Y-3.0472
M16
G05
G00X6.7607Y-2.9484
M15
G01X6.7592Y-2.9712
M16
G05
G00X3.5564Y-2.9725
M15
G01X3.5088Y-3.0472
M16
G05
G00X3.7607Y-2.9484
M15
G01X3.7592Y-2.9712
M16
G05
G00X14.2439Y-5.2224
M15
G01X14.1963Y-5.2971
M16
G05
G00X14.4483Y-5.1984
M15
G01X14.4467Y-5.2212
M16
G05
G00X10.4939Y-5.2224
M15
G01X10.4463Y-5.2971
M16
G05
G00X10.6983Y-5.1984
M15
G01X10.6967Y-5.2212
M16
G05
G00X11.0564Y-2.9725
M15
G01X11.0088Y-3.0472
M16
G05
G00X11.2608Y-2.9484
M15
G01X11.2592Y-2.9712
M16
G05
G00X10.8689Y-4.4724
M15
G01X10.8213Y-4.5471
M16
G05
G00X11.0733Y-4.4484
M15
G01X11.0717Y-4.4712
M16
G05
G00X4.6814Y-3.7225
M15
G01X4.6338Y-3.7972
M16
G05
G00X4.8857Y-3.6984
M15
G01X4.8842Y-3.7212
M16
G05
G00X4.1189Y-4.4724
M15
G01X4.0713Y-4.5471
M16
G05
G00X4.3232Y-4.4484
M15
G01X4.3217Y-4.4712
M16
G05
G00X12.3689Y-3.7225
M15
G01X12.3213Y-3.7972
M16
G05
G00X12.5733Y-3.6984
M15
G01X12.5717Y-3.7212
M16
G05
G00X10.3064Y-2.9725
M15
G01X10.2588Y-3.0472
M16
G05
G00X10.5108Y-2.9484
M15
G01X10.5092Y-2.9712
M16
G05
G00X4.4939Y-5.2224
M15
G01X4.4463Y-5.2971
M16
G05
G00X4.6982Y-5.1984
M15
G01X4.6967Y-5.2212
M16
G05
G00X2.5156Y-5.2224
M15
G01X2.468Y-5.2972
M16
G05
G00X2.7199Y-5.1984
M15
G01X2.7184Y-5.2212
M16
G05
G00X11.5252Y-5.9724
M15
G01X11.4776Y-6.0471
M16
G05
G00X11.7295Y-5.9484
M15
G01X11.728Y-5.9712
M16
G05
G00X7.3064Y-2.9725
M15
G01X7.2588Y-3.0472
M16
G05
G00X7.5108Y-2.9484
M15
G01X7.5092Y-2.9712
M16
G05
G00X4.0252Y-5.9724
M15
G01X3.9776Y-6.0471
M16
G05
G00X4.2295Y-5.9484
M15
G01X4.228Y-5.9712
M16
G05
G00X13.4939Y-5.9724
M15
G01X13.4463Y-6.0471
M16
G05
G00X13.6983Y-5.9484
M15
G01X13.6967Y-5.9712
M16
G05
G00X7.6814Y-3.7225
M15
G01X7.6338Y-3.7972
M16
G05
G00X7.8858Y-3.6984
M15
G01X7.8842Y-3.7212
M16
G05
G00X14.9939Y-3.7225
M15
G01X14.9463Y-3.7972
M16
G05
G00X15.1983Y-3.6984
M15
G01X15.1967Y-3.7212
M16
G05
G00X13.4939Y-3.7225
M15
G01X13.4463Y-3.7972
M16
G05
G00X13.6983Y-3.6984
M15
G01X13.6967Y-3.7212
M16
G05
G00X3.3689Y-4.4724
M15
G01X3.3213Y-4.5471
M16
G05
G00X3.5732Y-4.4484
M15
G01X3.5717Y-4.4712
M16
G05
G00X2.2439Y-3.7225
M15
G01X2.1963Y-3.7972
M16
G05
G00X2.4483Y-3.6984
M15
G01X2.4467Y-3.7212
M16
G05
G00X9.9314Y-3.7225
M15
G01X9.8838Y-3.7972
M16
G05
G00X10.1358Y-3.6984
M15
G01X10.1342Y-3.7212
M16
G05
G00X5.2439Y-5.2224
M15
G01X5.1963Y-5.2971
M16
G05
G00X5.4482Y-5.1984
M15
G01X5.4467Y-5.2212
M16
G05
G00X12.0972Y-4.4724
M15
G01X12.0496Y-4.5472
M16
G05
G00X12.3016Y-4.4484
M15
G01X12.3Y-4.4712
M16
G05
G00X9.5564Y-2.9725
M15
G01X9.5088Y-3.0472
M16
G05
G00X9.7608Y-2.9484
M15
G01X9.7592Y-2.9712
M16
G05
G00X2.1502Y-5.9724
M15
G01X2.1026Y-6.0471
M16
G05
G00X2.3545Y-5.9484
M15
G01X2.353Y-5.9712
M16
G05
G00X2.0564Y-2.9725
M15
G01X2.0088Y-3.0472
M16
G05
G00X2.2608Y-2.9484
M15
G01X2.2592Y-2.9712
M16
G05
G00X9.7439Y-5.2224
M15
G01X9.6963Y-5.2971
M16
G05
G00X9.9483Y-5.1984
M15
G01X9.9467Y-5.2212
M16
G05
G00X3.1814Y-3.7225
M15
G01X3.1338Y-3.7972
M16
G05
G00X3.3858Y-3.6984
M15
G01X3.3842Y-3.7212
M16
G05
G00X4.8689Y-4.4724
M15
G01X4.8213Y-4.5471
M16
G05
G00X5.0732Y-4.4484
M15
G01X5.0717Y-4.4712
M16
G05
G00X3.9314Y-3.7225
M15
G01X3.8838Y-3.7972
M16
G05
G00X4.1358Y-3.6984
M15
G01X4.1342Y-3.7212
M16
G05
G00X6.3689Y-4.4724
M15
G01X6.3213Y-4.5471
M16
G05
G00X6.5733Y-4.4484
M15
G01X6.5717Y-4.4712
M16
G05
G00X2.3376Y-4.4724
M15
G01X2.29Y-4.5471
M16
G05
G00X2.542Y-4.4484
M15
G01X2.5404Y-4.4712
M16
G05
G00X9.1814Y-3.7225
M15
G01X9.1338Y-3.7972
M16
G05
G00X9.3858Y-3.6984
M15
G01X9.3842Y-3.7212
M16
G05
G00X6.8472Y-5.9724
M15
G01X6.7996Y-6.0472
M16
G05
G00X7.0516Y-5.9484
M15
G01X7.05Y-5.9712
M16
G05
G00X8.8064Y-2.9725
M15
G01X8.7588Y-3.0472
M16
G05
G00X9.0108Y-2.9484
M15
G01X9.0092Y-2.9712
M16
G05
G00X5.8064Y-2.9725
M15
G01X5.7588Y-3.0472
M16
G05
G00X6.0107Y-2.9484
M15
G01X6.0092Y-2.9712
M16
G05
G00X12.4626Y-5.9724
M15
G01X12.415Y-6.0471
M16
G05
G00X12.667Y-5.9484
M15
G01X12.6654Y-5.9712
M16
G05
G00X7.4939Y-5.2224
M15
G01X7.4463Y-5.2971
M16
G05
G00X7.6983Y-5.1984
M15
G01X7.6967Y-5.2212
M16
G05
G00X8.2439Y-5.2224
M15
G01X8.1963Y-5.2971
M16
G05
G00X8.4483Y-5.1984
M15
G01X8.4467Y-5.2212
M16
G05
G00X6.9314Y-3.7225
M15
G01X6.8838Y-3.7972
M16
G05
G00X7.1357Y-3.6984
M15
G01X7.1342Y-3.7212
M16
G05
G00X8.6189Y-4.4724
M15
G01X8.5713Y-4.5471
M16
G05
G00X8.8233Y-4.4484
M15
G01X8.8217Y-4.4712
M16
G05
G00X11.4314Y-3.7225
M15
G01X11.3838Y-3.7972
M16
G05
G00X11.6358Y-3.6984
M15
G01X11.6342Y-3.7212
M16
G05
G00X7.1189Y-4.4724
M15
G01X7.0713Y-4.5471
M16
G05
G00X7.3233Y-4.4484
M15
G01X7.3217Y-4.4712
M16
G05
G00X12.1814Y-2.9724
M15
G01X12.1338Y-3.0472
M16
G05
G00X12.3858Y-2.9484
M15
G01X12.3842Y-2.9712
M16
G05
G00X8.0564Y-2.9725
M15
G01X8.0088Y-3.0472
M16
G05
G00X8.2608Y-2.9484
M15
G01X8.2592Y-2.9712
M16
G05
G00X5.0564Y-2.9725
M15
G01X5.0088Y-3.0472
M16
G05
G00X5.2607Y-2.9484
M15
G01X5.2592Y-2.9712
M16
G05
G00X10.5876Y-5.9724
M15
G01X10.54Y-6.0471
M16
G05
G00X10.792Y-5.9484
M15
G01X10.7904Y-5.9712
M16
G05
G00X8.9939Y-5.2224
M15
G01X8.9463Y-5.2971
M16
G05
G00X9.1983Y-5.1984
M15
G01X9.1967Y-5.2212
M16
G05
G00X14.2439Y-5.9724
M15
G01X14.1963Y-6.0471
M16
G05
G00X14.4483Y-5.9484
M15
G01X14.4467Y-5.9712
M16
G05
G00X6.1814Y-3.7225
M15
G01X6.1338Y-3.7972
M16
G05
G00X6.3857Y-3.6984
M15
G01X6.3842Y-3.7212
M16
G05
G00X10.1189Y-4.4724
M15
G01X10.0713Y-4.5471
M16
G05
G00X10.3233Y-4.4484
M15
G01X10.3217Y-4.4712
M16
G05
G00X14.2439Y-2.9725
M15
G01X14.1963Y-3.0472
M16
G05
G00X14.4483Y-2.9484
M15
G01X14.4467Y-2.9712
M16
G05
G00X5.6189Y-4.4724
M15
G01X5.5713Y-4.5471
M16
G05
G00X5.8233Y-4.4484
M15
G01X5.8217Y-4.4712
M16
G05
G00X11.9002Y-5.2224
M15
G01X11.8526Y-5.2972
M16
G05
G00X12.1045Y-5.1984
M15
G01X12.103Y-5.2212
M16
G05
G00X2.8064Y-2.9725
M15
G01X2.7588Y-3.0472
M16
G05
G00X3.0107Y-2.9484
M15
G01X3.0092Y-2.9712
M16
G05
G00X4.3064Y-2.9725
M15
G01X4.2588Y-3.0472
M16
G05
G00X4.5107Y-2.9484
M15
G01X4.5092Y-2.9712
M16
G05
G00X6.7439Y-5.2224
M15
G01X6.6963Y-5.2971
M16
G05
G00X6.9483Y-5.1984
M15
G01X6.9467Y-5.2212
M16
G05
G00X14.9939Y-2.9725
M15
G01X14.9463Y-3.0472
M16
G05
G00X15.1983Y-2.9484
M15
G01X15.1967Y-2.9712
M16
G05
G00X7.8689Y-4.4724
M15
G01X7.8213Y-4.5471
M16
G05
G00X8.0733Y-4.4484
M15
G01X8.0717Y-4.4712
M16
G05
G00X13.4939Y-2.9725
M15
G01X13.4463Y-3.0472
M16
G05
G00X13.6983Y-2.9484
M15
G01X13.6967Y-2.9712
M16
G05
G00X3.7439Y-5.2224
M15
G01X3.6963Y-5.2971
M16
G05
G00X3.9482Y-5.1984
M15
G01X3.9467Y-5.2212
M16
G05
G00X9.6502Y-5.9724
M15
G01X9.6026Y-6.0471
M16
G05
G00X9.8545Y-5.9484
M15
G01X9.853Y-5.9712
M16
G05
G00X3.0876Y-5.9724
M15
G01X3.04Y-6.0471
M16
G05
G00X3.292Y-5.9484
M15
G01X3.2904Y-5.9712
M16
G05
T0
M30
