%TF.GenerationSoftware,KiCad,Pcbnew,(5.1.6)-1*%
%TF.CreationDate,2020-08-04T19:17:24-04:00*%
%TF.ProjectId,prosaic,70726f73-6169-4632-9e6b-696361645f70,A.1*%
%TF.SameCoordinates,Original*%
%TF.FileFunction,Profile,NP*%
%FSLAX46Y46*%
G04 Gerber Fmt 4.6, Leading zero omitted, Abs format (unit mm)*
G04 Created by KiCad (PCBNEW (5.1.6)-1) date 2020-08-04 19:17:24*
%MOMM*%
%LPD*%
G01*
G04 APERTURE LIST*
%TA.AperFunction,Profile*%
%ADD10C,0.200000*%
%TD*%
G04 APERTURE END LIST*
D10*
X47263556Y-70336660D02*
X391125556Y-70336660D01*
X47106456Y-70343360D02*
X47263556Y-70336660D01*
X46949356Y-70361360D02*
X47106456Y-70343360D01*
X46796396Y-70391660D02*
X46949356Y-70361360D01*
X46643436Y-70434360D02*
X46796396Y-70391660D01*
X46497366Y-70489360D02*
X46643436Y-70434360D01*
X46355426Y-70554360D02*
X46497366Y-70489360D01*
X46217616Y-70631260D02*
X46355426Y-70554360D01*
X46086708Y-70718360D02*
X46217616Y-70631260D01*
X45964061Y-70816060D02*
X46086708Y-70718360D01*
X45848308Y-70922260D02*
X45964061Y-70816060D01*
X45738037Y-71045517D02*
X45848308Y-70922260D01*
X45258479Y-121043862D02*
X45258479Y-72344817D01*
X393122394Y-121043862D02*
X393122394Y-163794327D01*
X45640194Y-71167917D02*
X45738037Y-71045517D01*
X45553379Y-71299217D02*
X45640194Y-71167917D01*
X45476209Y-71436717D02*
X45553379Y-71299217D01*
X45411441Y-71578917D02*
X45476209Y-71436717D01*
X45356319Y-71725017D02*
X45411441Y-71578917D01*
X45313600Y-71877717D02*
X45356319Y-71725017D01*
X45283283Y-72030817D02*
X45313600Y-71877717D01*
X45265369Y-72187817D02*
X45283283Y-72030817D01*
X45258479Y-72344817D02*
X45265369Y-72187817D01*
X45258479Y-163795707D02*
X45258479Y-121043862D01*
X45265369Y-163951427D02*
X45258479Y-163795707D01*
X45283283Y-164107147D02*
X45265369Y-163951427D01*
X45313600Y-164261487D02*
X45283283Y-164107147D01*
X45356319Y-164413067D02*
X45313600Y-164261487D01*
X45411441Y-164560517D02*
X45356319Y-164413067D01*
X45476209Y-164702457D02*
X45411441Y-164560517D01*
X45553379Y-164838887D02*
X45476209Y-164702457D01*
X45640194Y-164969797D02*
X45553379Y-164838887D01*
X45738037Y-165093817D02*
X45640194Y-164969797D01*
X45844146Y-165209574D02*
X45738037Y-165093817D01*
X45959899Y-165315683D02*
X45844146Y-165209574D01*
X46082546Y-165413522D02*
X45959899Y-165315683D01*
X46213454Y-165500341D02*
X46082546Y-165413522D01*
X46351264Y-165577511D02*
X46213454Y-165500341D01*
X46493204Y-165642277D02*
X46351264Y-165577511D01*
X46639274Y-165697399D02*
X46493204Y-165642277D01*
X46792234Y-165740117D02*
X46639274Y-165697399D01*
X46945194Y-165770435D02*
X46792234Y-165740117D01*
X47102294Y-165788349D02*
X46945194Y-165770435D01*
X47259394Y-165793862D02*
X47102294Y-165788349D01*
X391121394Y-165793862D02*
X47259394Y-165793862D01*
X391278394Y-165788349D02*
X391121394Y-165793862D01*
X391435394Y-165770435D02*
X391278394Y-165788349D01*
X391588394Y-165740117D02*
X391435394Y-165770435D01*
X391740394Y-165697399D02*
X391588394Y-165740117D01*
X391887394Y-165642277D02*
X391740394Y-165697399D01*
X392029394Y-165577511D02*
X391887394Y-165642277D01*
X392167394Y-165500341D02*
X392029394Y-165577511D01*
X392298394Y-165413522D02*
X392167394Y-165500341D01*
X392421394Y-165315683D02*
X392298394Y-165413522D01*
X392536394Y-165209574D02*
X392421394Y-165315683D01*
X392642394Y-165093817D02*
X392536394Y-165209574D01*
X392740394Y-164969797D02*
X392642394Y-165093817D01*
X392827394Y-164838887D02*
X392740394Y-164969797D01*
X392904394Y-164702457D02*
X392827394Y-164838887D01*
X392969394Y-164560517D02*
X392904394Y-164702457D01*
X393024394Y-164413067D02*
X392969394Y-164560517D01*
X393067394Y-164261487D02*
X393024394Y-164413067D01*
X393097394Y-164107147D02*
X393067394Y-164261487D01*
X393115394Y-163951427D02*
X393097394Y-164107147D01*
X393122394Y-163794327D02*
X393115394Y-163951427D01*
X393122394Y-72344817D02*
X393122394Y-121043862D01*
X393115394Y-72187817D02*
X393122394Y-72344817D01*
X393097394Y-72030817D02*
X393115394Y-72187817D01*
X393067394Y-71877717D02*
X393097394Y-72030817D01*
X393024394Y-71725017D02*
X393067394Y-71877717D01*
X392969394Y-71578917D02*
X393024394Y-71725017D01*
X392904394Y-71436717D02*
X392969394Y-71578917D01*
X392827394Y-71299217D02*
X392904394Y-71436717D01*
X392740394Y-71167917D02*
X392827394Y-71299217D01*
X392642394Y-71045517D02*
X392740394Y-71167917D01*
X392536394Y-70929817D02*
X392642394Y-71045517D01*
X392421394Y-70823617D02*
X392536394Y-70929817D01*
X392298394Y-70725917D02*
X392421394Y-70823617D01*
X392167394Y-70638817D02*
X392298394Y-70725917D01*
X392029394Y-70561917D02*
X392167394Y-70638817D01*
X391887394Y-70496917D02*
X392029394Y-70561917D01*
X391740394Y-70441917D02*
X391887394Y-70496917D01*
X391588394Y-70399217D02*
X391740394Y-70441917D01*
X391435394Y-70368917D02*
X391588394Y-70399217D01*
X391278394Y-70350917D02*
X391435394Y-70368917D01*
X391125556Y-70336660D02*
X391278394Y-70350917D01*
M02*
