%TF.GenerationSoftware,KiCad,Pcbnew,(5.1.6)-1*%
%TF.CreationDate,2020-08-04T19:17:24-04:00*%
%TF.ProjectId,prosaic,70726f73-6169-4632-9e6b-696361645f70,A.1*%
%TF.SameCoordinates,Original*%
%TF.FileFunction,Legend,Bot*%
%TF.FilePolarity,Positive*%
%FSLAX46Y46*%
G04 Gerber Fmt 4.6, Leading zero omitted, Abs format (unit mm)*
G04 Created by KiCad (PCBNEW (5.1.6)-1) date 2020-08-04 19:17:24*
%MOMM*%
%LPD*%
G01*
G04 APERTURE LIST*
%ADD10C,0.120000*%
%ADD11C,0.200000*%
%ADD12C,0.150000*%
G04 APERTURE END LIST*
D10*
%TO.C,C1*%
X338710000Y-116286252D02*
X338710000Y-115763748D01*
X337290000Y-116286252D02*
X337290000Y-115763748D01*
%TO.C,C2*%
X348710000Y-116286252D02*
X348710000Y-115763748D01*
X347290000Y-116286252D02*
X347290000Y-115763748D01*
%TO.C,C3*%
X349538748Y-138410000D02*
X350061252Y-138410000D01*
X349538748Y-136990000D02*
X350061252Y-136990000D01*
%TO.C,C4*%
X353400000Y-124126252D02*
X353400000Y-123603748D01*
X351980000Y-124126252D02*
X351980000Y-123603748D01*
%TO.C,C5*%
X335010000Y-125336252D02*
X335010000Y-124813748D01*
X333590000Y-125336252D02*
X333590000Y-124813748D01*
%TO.C,C6*%
X335210000Y-116286252D02*
X335210000Y-115763748D01*
X333790000Y-116286252D02*
X333790000Y-115763748D01*
%TO.C,C7*%
X333590000Y-132863748D02*
X333590000Y-133386252D01*
X335010000Y-132863748D02*
X335010000Y-133386252D01*
%TO.C,C8*%
X335010000Y-129336252D02*
X335010000Y-128813748D01*
X333590000Y-129336252D02*
X333590000Y-128813748D01*
D11*
%TO.C,D1*%
X52609064Y-85869767D02*
X52609064Y-83469767D01*
X52434064Y-85869767D02*
X52434064Y-83469767D01*
X52259064Y-85869767D02*
X52259064Y-83469767D01*
X51859064Y-83469767D02*
X51859064Y-85869767D01*
X52084064Y-85869767D02*
X52084064Y-83469767D01*
X51959064Y-85869767D02*
X51959064Y-83469767D01*
X51884064Y-85869767D02*
X57684064Y-85869767D01*
X57684064Y-85869767D02*
X57684064Y-83469767D01*
X57684064Y-83469767D02*
X51884064Y-83469767D01*
%TO.C,D6*%
X71658294Y-85869767D02*
X71658294Y-83469767D01*
X71483294Y-85869767D02*
X71483294Y-83469767D01*
X71308294Y-85869767D02*
X71308294Y-83469767D01*
X70908294Y-83469767D02*
X70908294Y-85869767D01*
X71133294Y-85869767D02*
X71133294Y-83469767D01*
X71008294Y-85869767D02*
X71008294Y-83469767D01*
X70933294Y-85869767D02*
X76733294Y-85869767D01*
X76733294Y-85869767D02*
X76733294Y-83469767D01*
X76733294Y-83469767D02*
X70933294Y-83469767D01*
%TO.C,D11*%
X90707594Y-85869767D02*
X90707594Y-83469767D01*
X90532594Y-85869767D02*
X90532594Y-83469767D01*
X90357594Y-85869767D02*
X90357594Y-83469767D01*
X89957594Y-83469767D02*
X89957594Y-85869767D01*
X90182594Y-85869767D02*
X90182594Y-83469767D01*
X90057594Y-85869767D02*
X90057594Y-83469767D01*
X89982594Y-85869767D02*
X95782594Y-85869767D01*
X95782594Y-85869767D02*
X95782594Y-83469767D01*
X95782594Y-83469767D02*
X89982594Y-83469767D01*
%TO.C,D16*%
X109757594Y-85869767D02*
X109757594Y-83469767D01*
X109582594Y-85869767D02*
X109582594Y-83469767D01*
X109407594Y-85869767D02*
X109407594Y-83469767D01*
X109007594Y-83469767D02*
X109007594Y-85869767D01*
X109232594Y-85869767D02*
X109232594Y-83469767D01*
X109107594Y-85869767D02*
X109107594Y-83469767D01*
X109032594Y-85869767D02*
X114832594Y-85869767D01*
X114832594Y-85869767D02*
X114832594Y-83469767D01*
X114832594Y-83469767D02*
X109032594Y-83469767D01*
%TO.C,D21*%
X128808294Y-85869767D02*
X128808294Y-83469767D01*
X128633294Y-85869767D02*
X128633294Y-83469767D01*
X128458294Y-85869767D02*
X128458294Y-83469767D01*
X128058294Y-83469767D02*
X128058294Y-85869767D01*
X128283294Y-85869767D02*
X128283294Y-83469767D01*
X128158294Y-85869767D02*
X128158294Y-83469767D01*
X128083294Y-85869767D02*
X133883294Y-85869767D01*
X133883294Y-85869767D02*
X133883294Y-83469767D01*
X133883294Y-83469767D02*
X128083294Y-83469767D01*
%TO.C,D26*%
X147857594Y-85869767D02*
X147857594Y-83469767D01*
X147682594Y-85869767D02*
X147682594Y-83469767D01*
X147507594Y-85869767D02*
X147507594Y-83469767D01*
X147107594Y-83469767D02*
X147107594Y-85869767D01*
X147332594Y-85869767D02*
X147332594Y-83469767D01*
X147207594Y-85869767D02*
X147207594Y-83469767D01*
X147132594Y-85869767D02*
X152932594Y-85869767D01*
X152932594Y-85869767D02*
X152932594Y-83469767D01*
X152932594Y-83469767D02*
X147132594Y-83469767D01*
%TO.C,D31*%
X166907894Y-85869767D02*
X166907894Y-83469767D01*
X166732894Y-85869767D02*
X166732894Y-83469767D01*
X166557894Y-85869767D02*
X166557894Y-83469767D01*
X166157894Y-83469767D02*
X166157894Y-85869767D01*
X166382894Y-85869767D02*
X166382894Y-83469767D01*
X166257894Y-85869767D02*
X166257894Y-83469767D01*
X166182894Y-85869767D02*
X171982894Y-85869767D01*
X171982894Y-85869767D02*
X171982894Y-83469767D01*
X171982894Y-83469767D02*
X166182894Y-83469767D01*
%TO.C,D36*%
X185958894Y-85869767D02*
X185958894Y-83469767D01*
X185783894Y-85869767D02*
X185783894Y-83469767D01*
X185608894Y-85869767D02*
X185608894Y-83469767D01*
X185208894Y-83469767D02*
X185208894Y-85869767D01*
X185433894Y-85869767D02*
X185433894Y-83469767D01*
X185308894Y-85869767D02*
X185308894Y-83469767D01*
X185233894Y-85869767D02*
X191033894Y-85869767D01*
X191033894Y-85869767D02*
X191033894Y-83469767D01*
X191033894Y-83469767D02*
X185233894Y-83469767D01*
%TO.C,D41*%
X205008894Y-85869767D02*
X205008894Y-83469767D01*
X204833894Y-85869767D02*
X204833894Y-83469767D01*
X204658894Y-85869767D02*
X204658894Y-83469767D01*
X204258894Y-83469767D02*
X204258894Y-85869767D01*
X204483894Y-85869767D02*
X204483894Y-83469767D01*
X204358894Y-85869767D02*
X204358894Y-83469767D01*
X204283894Y-85869767D02*
X210083894Y-85869767D01*
X210083894Y-85869767D02*
X210083894Y-83469767D01*
X210083894Y-83469767D02*
X204283894Y-83469767D01*
%TO.C,D46*%
X224058894Y-85869767D02*
X224058894Y-83469767D01*
X223883894Y-85869767D02*
X223883894Y-83469767D01*
X223708894Y-85869767D02*
X223708894Y-83469767D01*
X223308894Y-83469767D02*
X223308894Y-85869767D01*
X223533894Y-85869767D02*
X223533894Y-83469767D01*
X223408894Y-85869767D02*
X223408894Y-83469767D01*
X223333894Y-85869767D02*
X229133894Y-85869767D01*
X229133894Y-85869767D02*
X229133894Y-83469767D01*
X229133894Y-83469767D02*
X223333894Y-83469767D01*
%TO.C,D51*%
X243108894Y-85869767D02*
X243108894Y-83469767D01*
X242933894Y-85869767D02*
X242933894Y-83469767D01*
X242758894Y-85869767D02*
X242758894Y-83469767D01*
X242358894Y-83469767D02*
X242358894Y-85869767D01*
X242583894Y-85869767D02*
X242583894Y-83469767D01*
X242458894Y-85869767D02*
X242458894Y-83469767D01*
X242383894Y-85869767D02*
X248183894Y-85869767D01*
X248183894Y-85869767D02*
X248183894Y-83469767D01*
X248183894Y-83469767D02*
X242383894Y-83469767D01*
%TO.C,D56*%
X262158894Y-85869767D02*
X262158894Y-83469767D01*
X261983894Y-85869767D02*
X261983894Y-83469767D01*
X261808894Y-85869767D02*
X261808894Y-83469767D01*
X261408894Y-83469767D02*
X261408894Y-85869767D01*
X261633894Y-85869767D02*
X261633894Y-83469767D01*
X261508894Y-85869767D02*
X261508894Y-83469767D01*
X261433894Y-85869767D02*
X267233894Y-85869767D01*
X267233894Y-85869767D02*
X267233894Y-83469767D01*
X267233894Y-83469767D02*
X261433894Y-83469767D01*
%TO.C,D60*%
X281208894Y-85869767D02*
X281208894Y-83469767D01*
X281033894Y-85869767D02*
X281033894Y-83469767D01*
X280858894Y-85869767D02*
X280858894Y-83469767D01*
X280458894Y-83469767D02*
X280458894Y-85869767D01*
X280683894Y-85869767D02*
X280683894Y-83469767D01*
X280558894Y-85869767D02*
X280558894Y-83469767D01*
X280483894Y-85869767D02*
X286283894Y-85869767D01*
X286283894Y-85869767D02*
X286283894Y-83469767D01*
X286283894Y-83469767D02*
X280483894Y-83469767D01*
%TO.C,D64*%
X309783894Y-85868917D02*
X309783894Y-83468917D01*
X309608894Y-85868917D02*
X309608894Y-83468917D01*
X309433894Y-85868917D02*
X309433894Y-83468917D01*
X309033894Y-83468917D02*
X309033894Y-85868917D01*
X309258894Y-85868917D02*
X309258894Y-83468917D01*
X309133894Y-85868917D02*
X309133894Y-83468917D01*
X309058894Y-85868917D02*
X314858894Y-85868917D01*
X314858894Y-85868917D02*
X314858894Y-83468917D01*
X314858894Y-83468917D02*
X309058894Y-83468917D01*
%TO.C,D68*%
X343120894Y-85869767D02*
X343120894Y-83469767D01*
X342945894Y-85869767D02*
X342945894Y-83469767D01*
X342770894Y-85869767D02*
X342770894Y-83469767D01*
X342370894Y-83469767D02*
X342370894Y-85869767D01*
X342595894Y-85869767D02*
X342595894Y-83469767D01*
X342470894Y-85869767D02*
X342470894Y-83469767D01*
X342395894Y-85869767D02*
X348195894Y-85869767D01*
X348195894Y-85869767D02*
X348195894Y-83469767D01*
X348195894Y-83469767D02*
X342395894Y-83469767D01*
%TO.C,D66*%
X362170894Y-85869767D02*
X362170894Y-83469767D01*
X361995894Y-85869767D02*
X361995894Y-83469767D01*
X361820894Y-85869767D02*
X361820894Y-83469767D01*
X361420894Y-83469767D02*
X361420894Y-85869767D01*
X361645894Y-85869767D02*
X361645894Y-83469767D01*
X361520894Y-85869767D02*
X361520894Y-83469767D01*
X361445894Y-85869767D02*
X367245894Y-85869767D01*
X367245894Y-85869767D02*
X367245894Y-83469767D01*
X367245894Y-83469767D02*
X361445894Y-83469767D01*
%TO.C,D70*%
X381220894Y-85869767D02*
X381220894Y-83469767D01*
X381045894Y-85869767D02*
X381045894Y-83469767D01*
X380870894Y-85869767D02*
X380870894Y-83469767D01*
X380470894Y-83469767D02*
X380470894Y-85869767D01*
X380695894Y-85869767D02*
X380695894Y-83469767D01*
X380570894Y-85869767D02*
X380570894Y-83469767D01*
X380495894Y-85869767D02*
X386295894Y-85869767D01*
X386295894Y-85869767D02*
X386295894Y-83469767D01*
X386295894Y-83469767D02*
X380495894Y-83469767D01*
%TO.C,D2*%
X57370879Y-104919067D02*
X57370879Y-102519067D01*
X57195879Y-104919067D02*
X57195879Y-102519067D01*
X57020879Y-104919067D02*
X57020879Y-102519067D01*
X56620879Y-102519067D02*
X56620879Y-104919067D01*
X56845879Y-104919067D02*
X56845879Y-102519067D01*
X56720879Y-104919067D02*
X56720879Y-102519067D01*
X56645879Y-104919067D02*
X62445879Y-104919067D01*
X62445879Y-104919067D02*
X62445879Y-102519067D01*
X62445879Y-102519067D02*
X56645879Y-102519067D01*
%TO.C,D7*%
X81183994Y-104919067D02*
X81183994Y-102519067D01*
X81008994Y-104919067D02*
X81008994Y-102519067D01*
X80833994Y-104919067D02*
X80833994Y-102519067D01*
X80433994Y-102519067D02*
X80433994Y-104919067D01*
X80658994Y-104919067D02*
X80658994Y-102519067D01*
X80533994Y-104919067D02*
X80533994Y-102519067D01*
X80458994Y-104919067D02*
X86258994Y-104919067D01*
X86258994Y-104919067D02*
X86258994Y-102519067D01*
X86258994Y-102519067D02*
X80458994Y-102519067D01*
%TO.C,D12*%
X100233994Y-104919067D02*
X100233994Y-102519067D01*
X100058994Y-104919067D02*
X100058994Y-102519067D01*
X99883994Y-104919067D02*
X99883994Y-102519067D01*
X99483994Y-102519067D02*
X99483994Y-104919067D01*
X99708994Y-104919067D02*
X99708994Y-102519067D01*
X99583994Y-104919067D02*
X99583994Y-102519067D01*
X99508994Y-104919067D02*
X105308994Y-104919067D01*
X105308994Y-104919067D02*
X105308994Y-102519067D01*
X105308994Y-102519067D02*
X99508994Y-102519067D01*
%TO.C,D17*%
X119283294Y-104919067D02*
X119283294Y-102519067D01*
X119108294Y-104919067D02*
X119108294Y-102519067D01*
X118933294Y-104919067D02*
X118933294Y-102519067D01*
X118533294Y-102519067D02*
X118533294Y-104919067D01*
X118758294Y-104919067D02*
X118758294Y-102519067D01*
X118633294Y-104919067D02*
X118633294Y-102519067D01*
X118558294Y-104919067D02*
X124358294Y-104919067D01*
X124358294Y-104919067D02*
X124358294Y-102519067D01*
X124358294Y-102519067D02*
X118558294Y-102519067D01*
%TO.C,D22*%
X138333094Y-104919067D02*
X138333094Y-102519067D01*
X138158094Y-104919067D02*
X138158094Y-102519067D01*
X137983094Y-104919067D02*
X137983094Y-102519067D01*
X137583094Y-102519067D02*
X137583094Y-104919067D01*
X137808094Y-104919067D02*
X137808094Y-102519067D01*
X137683094Y-104919067D02*
X137683094Y-102519067D01*
X137608094Y-104919067D02*
X143408094Y-104919067D01*
X143408094Y-104919067D02*
X143408094Y-102519067D01*
X143408094Y-102519067D02*
X137608094Y-102519067D01*
%TO.C,D27*%
X157382894Y-104919067D02*
X157382894Y-102519067D01*
X157207894Y-104919067D02*
X157207894Y-102519067D01*
X157032894Y-104919067D02*
X157032894Y-102519067D01*
X156632894Y-102519067D02*
X156632894Y-104919067D01*
X156857894Y-104919067D02*
X156857894Y-102519067D01*
X156732894Y-104919067D02*
X156732894Y-102519067D01*
X156657894Y-104919067D02*
X162457894Y-104919067D01*
X162457894Y-104919067D02*
X162457894Y-102519067D01*
X162457894Y-102519067D02*
X156657894Y-102519067D01*
%TO.C,D32*%
X176432894Y-104919067D02*
X176432894Y-102519067D01*
X176257894Y-104919067D02*
X176257894Y-102519067D01*
X176082894Y-104919067D02*
X176082894Y-102519067D01*
X175682894Y-102519067D02*
X175682894Y-104919067D01*
X175907894Y-104919067D02*
X175907894Y-102519067D01*
X175782894Y-104919067D02*
X175782894Y-102519067D01*
X175707894Y-104919067D02*
X181507894Y-104919067D01*
X181507894Y-104919067D02*
X181507894Y-102519067D01*
X181507894Y-102519067D02*
X175707894Y-102519067D01*
%TO.C,D37*%
X195483894Y-104919067D02*
X195483894Y-102519067D01*
X195308894Y-104919067D02*
X195308894Y-102519067D01*
X195133894Y-104919067D02*
X195133894Y-102519067D01*
X194733894Y-102519067D02*
X194733894Y-104919067D01*
X194958894Y-104919067D02*
X194958894Y-102519067D01*
X194833894Y-104919067D02*
X194833894Y-102519067D01*
X194758894Y-104919067D02*
X200558894Y-104919067D01*
X200558894Y-104919067D02*
X200558894Y-102519067D01*
X200558894Y-102519067D02*
X194758894Y-102519067D01*
%TO.C,D42*%
X214533894Y-104919067D02*
X214533894Y-102519067D01*
X214358894Y-104919067D02*
X214358894Y-102519067D01*
X214183894Y-104919067D02*
X214183894Y-102519067D01*
X213783894Y-102519067D02*
X213783894Y-104919067D01*
X214008894Y-104919067D02*
X214008894Y-102519067D01*
X213883894Y-104919067D02*
X213883894Y-102519067D01*
X213808894Y-104919067D02*
X219608894Y-104919067D01*
X219608894Y-104919067D02*
X219608894Y-102519067D01*
X219608894Y-102519067D02*
X213808894Y-102519067D01*
%TO.C,D47*%
X233583894Y-104919067D02*
X233583894Y-102519067D01*
X233408894Y-104919067D02*
X233408894Y-102519067D01*
X233233894Y-104919067D02*
X233233894Y-102519067D01*
X232833894Y-102519067D02*
X232833894Y-104919067D01*
X233058894Y-104919067D02*
X233058894Y-102519067D01*
X232933894Y-104919067D02*
X232933894Y-102519067D01*
X232858894Y-104919067D02*
X238658894Y-104919067D01*
X238658894Y-104919067D02*
X238658894Y-102519067D01*
X238658894Y-102519067D02*
X232858894Y-102519067D01*
%TO.C,D52*%
X252633894Y-104919067D02*
X252633894Y-102519067D01*
X252458894Y-104919067D02*
X252458894Y-102519067D01*
X252283894Y-104919067D02*
X252283894Y-102519067D01*
X251883894Y-102519067D02*
X251883894Y-104919067D01*
X252108894Y-104919067D02*
X252108894Y-102519067D01*
X251983894Y-104919067D02*
X251983894Y-102519067D01*
X251908894Y-104919067D02*
X257708894Y-104919067D01*
X257708894Y-104919067D02*
X257708894Y-102519067D01*
X257708894Y-102519067D02*
X251908894Y-102519067D01*
%TO.C,D57*%
X271683894Y-104919067D02*
X271683894Y-102519067D01*
X271508894Y-104919067D02*
X271508894Y-102519067D01*
X271333894Y-104919067D02*
X271333894Y-102519067D01*
X270933894Y-102519067D02*
X270933894Y-104919067D01*
X271158894Y-104919067D02*
X271158894Y-102519067D01*
X271033894Y-104919067D02*
X271033894Y-102519067D01*
X270958894Y-104919067D02*
X276758894Y-104919067D01*
X276758894Y-104919067D02*
X276758894Y-102519067D01*
X276758894Y-102519067D02*
X270958894Y-102519067D01*
%TO.C,D61*%
X290733394Y-104919067D02*
X290733394Y-102519067D01*
X290558394Y-104919067D02*
X290558394Y-102519067D01*
X290383394Y-104919067D02*
X290383394Y-102519067D01*
X289983394Y-102519067D02*
X289983394Y-104919067D01*
X290208394Y-104919067D02*
X290208394Y-102519067D01*
X290083394Y-104919067D02*
X290083394Y-102519067D01*
X290008394Y-104919067D02*
X295808394Y-104919067D01*
X295808394Y-104919067D02*
X295808394Y-102519067D01*
X295808394Y-102519067D02*
X290008394Y-102519067D01*
%TO.C,D65*%
X314545894Y-104919067D02*
X314545894Y-102519067D01*
X314370894Y-104919067D02*
X314370894Y-102519067D01*
X314195894Y-104919067D02*
X314195894Y-102519067D01*
X313795894Y-102519067D02*
X313795894Y-104919067D01*
X314020894Y-104919067D02*
X314020894Y-102519067D01*
X313895894Y-104919067D02*
X313895894Y-102519067D01*
X313820894Y-104919067D02*
X319620894Y-104919067D01*
X319620894Y-104919067D02*
X319620894Y-102519067D01*
X319620894Y-102519067D02*
X313820894Y-102519067D01*
%TO.C,D69*%
X343120894Y-104919067D02*
X343120894Y-102519067D01*
X342945894Y-104919067D02*
X342945894Y-102519067D01*
X342770894Y-104919067D02*
X342770894Y-102519067D01*
X342370894Y-102519067D02*
X342370894Y-104919067D01*
X342595894Y-104919067D02*
X342595894Y-102519067D01*
X342470894Y-104919067D02*
X342470894Y-102519067D01*
X342395894Y-104919067D02*
X348195894Y-104919067D01*
X348195894Y-104919067D02*
X348195894Y-102519067D01*
X348195894Y-102519067D02*
X342395894Y-102519067D01*
%TO.C,D67*%
X362170894Y-104919067D02*
X362170894Y-102519067D01*
X361995894Y-104919067D02*
X361995894Y-102519067D01*
X361820894Y-104919067D02*
X361820894Y-102519067D01*
X361420894Y-102519067D02*
X361420894Y-104919067D01*
X361645894Y-104919067D02*
X361645894Y-102519067D01*
X361520894Y-104919067D02*
X361520894Y-102519067D01*
X361445894Y-104919067D02*
X367245894Y-104919067D01*
X367245894Y-104919067D02*
X367245894Y-102519067D01*
X367245894Y-102519067D02*
X361445894Y-102519067D01*
%TO.C,D71*%
X381220894Y-104919067D02*
X381220894Y-102519067D01*
X381045894Y-104919067D02*
X381045894Y-102519067D01*
X380870894Y-104919067D02*
X380870894Y-102519067D01*
X380470894Y-102519067D02*
X380470894Y-104919067D01*
X380695894Y-104919067D02*
X380695894Y-102519067D01*
X380570894Y-104919067D02*
X380570894Y-102519067D01*
X380495894Y-104919067D02*
X386295894Y-104919067D01*
X386295894Y-104919067D02*
X386295894Y-102519067D01*
X386295894Y-102519067D02*
X380495894Y-102519067D01*
%TO.C,D3*%
X59751454Y-123968317D02*
X59751454Y-121568317D01*
X59576454Y-123968317D02*
X59576454Y-121568317D01*
X59401454Y-123968317D02*
X59401454Y-121568317D01*
X59001454Y-121568317D02*
X59001454Y-123968317D01*
X59226454Y-123968317D02*
X59226454Y-121568317D01*
X59101454Y-123968317D02*
X59101454Y-121568317D01*
X59026454Y-123968317D02*
X64826454Y-123968317D01*
X64826454Y-123968317D02*
X64826454Y-121568317D01*
X64826454Y-121568317D02*
X59026454Y-121568317D01*
%TO.C,D8*%
X85945794Y-123968317D02*
X85945794Y-121568317D01*
X85770794Y-123968317D02*
X85770794Y-121568317D01*
X85595794Y-123968317D02*
X85595794Y-121568317D01*
X85195794Y-121568317D02*
X85195794Y-123968317D01*
X85420794Y-123968317D02*
X85420794Y-121568317D01*
X85295794Y-123968317D02*
X85295794Y-121568317D01*
X85220794Y-123968317D02*
X91020794Y-123968317D01*
X91020794Y-123968317D02*
X91020794Y-121568317D01*
X91020794Y-121568317D02*
X85220794Y-121568317D01*
%TO.C,D13*%
X104995794Y-123968317D02*
X104995794Y-121568317D01*
X104820794Y-123968317D02*
X104820794Y-121568317D01*
X104645794Y-123968317D02*
X104645794Y-121568317D01*
X104245794Y-121568317D02*
X104245794Y-123968317D01*
X104470794Y-123968317D02*
X104470794Y-121568317D01*
X104345794Y-123968317D02*
X104345794Y-121568317D01*
X104270794Y-123968317D02*
X110070794Y-123968317D01*
X110070794Y-123968317D02*
X110070794Y-121568317D01*
X110070794Y-121568317D02*
X104270794Y-121568317D01*
%TO.C,D18*%
X124045794Y-123968317D02*
X124045794Y-121568317D01*
X123870794Y-123968317D02*
X123870794Y-121568317D01*
X123695794Y-123968317D02*
X123695794Y-121568317D01*
X123295794Y-121568317D02*
X123295794Y-123968317D01*
X123520794Y-123968317D02*
X123520794Y-121568317D01*
X123395794Y-123968317D02*
X123395794Y-121568317D01*
X123320794Y-123968317D02*
X129120794Y-123968317D01*
X129120794Y-123968317D02*
X129120794Y-121568317D01*
X129120794Y-121568317D02*
X123320794Y-121568317D01*
%TO.C,D23*%
X143095844Y-123968317D02*
X143095844Y-121568317D01*
X142920844Y-123968317D02*
X142920844Y-121568317D01*
X142745844Y-123968317D02*
X142745844Y-121568317D01*
X142345844Y-121568317D02*
X142345844Y-123968317D01*
X142570844Y-123968317D02*
X142570844Y-121568317D01*
X142445844Y-123968317D02*
X142445844Y-121568317D01*
X142370844Y-123968317D02*
X148170844Y-123968317D01*
X148170844Y-123968317D02*
X148170844Y-121568317D01*
X148170844Y-121568317D02*
X142370844Y-121568317D01*
%TO.C,D28*%
X162145894Y-123968317D02*
X162145894Y-121568317D01*
X161970894Y-123968317D02*
X161970894Y-121568317D01*
X161795894Y-123968317D02*
X161795894Y-121568317D01*
X161395894Y-121568317D02*
X161395894Y-123968317D01*
X161620894Y-123968317D02*
X161620894Y-121568317D01*
X161495894Y-123968317D02*
X161495894Y-121568317D01*
X161420894Y-123968317D02*
X167220894Y-123968317D01*
X167220894Y-123968317D02*
X167220894Y-121568317D01*
X167220894Y-121568317D02*
X161420894Y-121568317D01*
%TO.C,D33*%
X181195894Y-123968317D02*
X181195894Y-121568317D01*
X181020894Y-123968317D02*
X181020894Y-121568317D01*
X180845894Y-123968317D02*
X180845894Y-121568317D01*
X180445894Y-121568317D02*
X180445894Y-123968317D01*
X180670894Y-123968317D02*
X180670894Y-121568317D01*
X180545894Y-123968317D02*
X180545894Y-121568317D01*
X180470894Y-123968317D02*
X186270894Y-123968317D01*
X186270894Y-123968317D02*
X186270894Y-121568317D01*
X186270894Y-121568317D02*
X180470894Y-121568317D01*
%TO.C,D38*%
X200245894Y-123968317D02*
X200245894Y-121568317D01*
X200070894Y-123968317D02*
X200070894Y-121568317D01*
X199895894Y-123968317D02*
X199895894Y-121568317D01*
X199495894Y-121568317D02*
X199495894Y-123968317D01*
X199720894Y-123968317D02*
X199720894Y-121568317D01*
X199595894Y-123968317D02*
X199595894Y-121568317D01*
X199520894Y-123968317D02*
X205320894Y-123968317D01*
X205320894Y-123968317D02*
X205320894Y-121568317D01*
X205320894Y-121568317D02*
X199520894Y-121568317D01*
%TO.C,D43*%
X219295894Y-123968317D02*
X219295894Y-121568317D01*
X219120894Y-123968317D02*
X219120894Y-121568317D01*
X218945894Y-123968317D02*
X218945894Y-121568317D01*
X218545894Y-121568317D02*
X218545894Y-123968317D01*
X218770894Y-123968317D02*
X218770894Y-121568317D01*
X218645894Y-123968317D02*
X218645894Y-121568317D01*
X218570894Y-123968317D02*
X224370894Y-123968317D01*
X224370894Y-123968317D02*
X224370894Y-121568317D01*
X224370894Y-121568317D02*
X218570894Y-121568317D01*
%TO.C,D48*%
X238345894Y-123968317D02*
X238345894Y-121568317D01*
X238170894Y-123968317D02*
X238170894Y-121568317D01*
X237995894Y-123968317D02*
X237995894Y-121568317D01*
X237595894Y-121568317D02*
X237595894Y-123968317D01*
X237820894Y-123968317D02*
X237820894Y-121568317D01*
X237695894Y-123968317D02*
X237695894Y-121568317D01*
X237620894Y-123968317D02*
X243420894Y-123968317D01*
X243420894Y-123968317D02*
X243420894Y-121568317D01*
X243420894Y-121568317D02*
X237620894Y-121568317D01*
%TO.C,D53*%
X257395894Y-123968317D02*
X257395894Y-121568317D01*
X257220894Y-123968317D02*
X257220894Y-121568317D01*
X257045894Y-123968317D02*
X257045894Y-121568317D01*
X256645894Y-121568317D02*
X256645894Y-123968317D01*
X256870894Y-123968317D02*
X256870894Y-121568317D01*
X256745894Y-123968317D02*
X256745894Y-121568317D01*
X256670894Y-123968317D02*
X262470894Y-123968317D01*
X262470894Y-123968317D02*
X262470894Y-121568317D01*
X262470894Y-121568317D02*
X256670894Y-121568317D01*
%TO.C,D58*%
X276445894Y-123968317D02*
X276445894Y-121568317D01*
X276270894Y-123968317D02*
X276270894Y-121568317D01*
X276095894Y-123968317D02*
X276095894Y-121568317D01*
X275695894Y-121568317D02*
X275695894Y-123968317D01*
X275920894Y-123968317D02*
X275920894Y-121568317D01*
X275795894Y-123968317D02*
X275795894Y-121568317D01*
X275720894Y-123968317D02*
X281520894Y-123968317D01*
X281520894Y-123968317D02*
X281520894Y-121568317D01*
X281520894Y-121568317D02*
X275720894Y-121568317D01*
%TO.C,D62*%
X307645394Y-123968917D02*
X307645394Y-121568917D01*
X307470394Y-123968917D02*
X307470394Y-121568917D01*
X307295394Y-123968917D02*
X307295394Y-121568917D01*
X306895394Y-121568917D02*
X306895394Y-123968917D01*
X307120394Y-123968917D02*
X307120394Y-121568917D01*
X306995394Y-123968917D02*
X306995394Y-121568917D01*
X306920394Y-123968917D02*
X312720394Y-123968917D01*
X312720394Y-123968917D02*
X312720394Y-121568917D01*
X312720394Y-121568917D02*
X306920394Y-121568917D01*
%TO.C,D4*%
X64271394Y-143018967D02*
X64271394Y-140618967D01*
X64096394Y-143018967D02*
X64096394Y-140618967D01*
X63921394Y-143018967D02*
X63921394Y-140618967D01*
X63521394Y-140618967D02*
X63521394Y-143018967D01*
X63746394Y-143018967D02*
X63746394Y-140618967D01*
X63621394Y-143018967D02*
X63621394Y-140618967D01*
X63546394Y-143018967D02*
X69346394Y-143018967D01*
X69346394Y-143018967D02*
X69346394Y-140618967D01*
X69346394Y-140618967D02*
X63546394Y-140618967D01*
%TO.C,D9*%
X95470794Y-143018267D02*
X95470794Y-140618267D01*
X95295794Y-143018267D02*
X95295794Y-140618267D01*
X95120794Y-143018267D02*
X95120794Y-140618267D01*
X94720794Y-140618267D02*
X94720794Y-143018267D01*
X94945794Y-143018267D02*
X94945794Y-140618267D01*
X94820794Y-143018267D02*
X94820794Y-140618267D01*
X94745794Y-143018267D02*
X100545794Y-143018267D01*
X100545794Y-143018267D02*
X100545794Y-140618267D01*
X100545794Y-140618267D02*
X94745794Y-140618267D01*
%TO.C,D14*%
X114520794Y-143018267D02*
X114520794Y-140618267D01*
X114345794Y-143018267D02*
X114345794Y-140618267D01*
X114170794Y-143018267D02*
X114170794Y-140618267D01*
X113770794Y-140618267D02*
X113770794Y-143018267D01*
X113995794Y-143018267D02*
X113995794Y-140618267D01*
X113870794Y-143018267D02*
X113870794Y-140618267D01*
X113795794Y-143018267D02*
X119595794Y-143018267D01*
X119595794Y-143018267D02*
X119595794Y-140618267D01*
X119595794Y-140618267D02*
X113795794Y-140618267D01*
%TO.C,D19*%
X133570794Y-143018267D02*
X133570794Y-140618267D01*
X133395794Y-143018267D02*
X133395794Y-140618267D01*
X133220794Y-143018267D02*
X133220794Y-140618267D01*
X132820794Y-140618267D02*
X132820794Y-143018267D01*
X133045794Y-143018267D02*
X133045794Y-140618267D01*
X132920794Y-143018267D02*
X132920794Y-140618267D01*
X132845794Y-143018267D02*
X138645794Y-143018267D01*
X138645794Y-143018267D02*
X138645794Y-140618267D01*
X138645794Y-140618267D02*
X132845794Y-140618267D01*
%TO.C,D24*%
X152620894Y-143018267D02*
X152620894Y-140618267D01*
X152445894Y-143018267D02*
X152445894Y-140618267D01*
X152270894Y-143018267D02*
X152270894Y-140618267D01*
X151870894Y-140618267D02*
X151870894Y-143018267D01*
X152095894Y-143018267D02*
X152095894Y-140618267D01*
X151970894Y-143018267D02*
X151970894Y-140618267D01*
X151895894Y-143018267D02*
X157695894Y-143018267D01*
X157695894Y-143018267D02*
X157695894Y-140618267D01*
X157695894Y-140618267D02*
X151895894Y-140618267D01*
%TO.C,D29*%
X171670894Y-143018267D02*
X171670894Y-140618267D01*
X171495894Y-143018267D02*
X171495894Y-140618267D01*
X171320894Y-143018267D02*
X171320894Y-140618267D01*
X170920894Y-140618267D02*
X170920894Y-143018267D01*
X171145894Y-143018267D02*
X171145894Y-140618267D01*
X171020894Y-143018267D02*
X171020894Y-140618267D01*
X170945894Y-143018267D02*
X176745894Y-143018267D01*
X176745894Y-143018267D02*
X176745894Y-140618267D01*
X176745894Y-140618267D02*
X170945894Y-140618267D01*
%TO.C,D34*%
X190720894Y-143018267D02*
X190720894Y-140618267D01*
X190545894Y-143018267D02*
X190545894Y-140618267D01*
X190370894Y-143018267D02*
X190370894Y-140618267D01*
X189970894Y-140618267D02*
X189970894Y-143018267D01*
X190195894Y-143018267D02*
X190195894Y-140618267D01*
X190070894Y-143018267D02*
X190070894Y-140618267D01*
X189995894Y-143018267D02*
X195795894Y-143018267D01*
X195795894Y-143018267D02*
X195795894Y-140618267D01*
X195795894Y-140618267D02*
X189995894Y-140618267D01*
%TO.C,D39*%
X209770894Y-143018267D02*
X209770894Y-140618267D01*
X209595894Y-143018267D02*
X209595894Y-140618267D01*
X209420894Y-143018267D02*
X209420894Y-140618267D01*
X209020894Y-140618267D02*
X209020894Y-143018267D01*
X209245894Y-143018267D02*
X209245894Y-140618267D01*
X209120894Y-143018267D02*
X209120894Y-140618267D01*
X209045894Y-143018267D02*
X214845894Y-143018267D01*
X214845894Y-143018267D02*
X214845894Y-140618267D01*
X214845894Y-140618267D02*
X209045894Y-140618267D01*
%TO.C,D44*%
X228820894Y-143018267D02*
X228820894Y-140618267D01*
X228645894Y-143018267D02*
X228645894Y-140618267D01*
X228470894Y-143018267D02*
X228470894Y-140618267D01*
X228070894Y-140618267D02*
X228070894Y-143018267D01*
X228295894Y-143018267D02*
X228295894Y-140618267D01*
X228170894Y-143018267D02*
X228170894Y-140618267D01*
X228095894Y-143018267D02*
X233895894Y-143018267D01*
X233895894Y-143018267D02*
X233895894Y-140618267D01*
X233895894Y-140618267D02*
X228095894Y-140618267D01*
%TO.C,D49*%
X247870894Y-143018267D02*
X247870894Y-140618267D01*
X247695894Y-143018267D02*
X247695894Y-140618267D01*
X247520894Y-143018267D02*
X247520894Y-140618267D01*
X247120894Y-140618267D02*
X247120894Y-143018267D01*
X247345894Y-143018267D02*
X247345894Y-140618267D01*
X247220894Y-143018267D02*
X247220894Y-140618267D01*
X247145894Y-143018267D02*
X252945894Y-143018267D01*
X252945894Y-143018267D02*
X252945894Y-140618267D01*
X252945894Y-140618267D02*
X247145894Y-140618267D01*
%TO.C,D54*%
X266920894Y-143018267D02*
X266920894Y-140618267D01*
X266745894Y-143018267D02*
X266745894Y-140618267D01*
X266570894Y-143018267D02*
X266570894Y-140618267D01*
X266170894Y-140618267D02*
X266170894Y-143018267D01*
X266395894Y-143018267D02*
X266395894Y-140618267D01*
X266270894Y-143018267D02*
X266270894Y-140618267D01*
X266195894Y-143018267D02*
X271995894Y-143018267D01*
X271995894Y-143018267D02*
X271995894Y-140618267D01*
X271995894Y-140618267D02*
X266195894Y-140618267D01*
%TO.C,D59*%
X302639894Y-143018967D02*
X302639894Y-140618967D01*
X302464894Y-143018967D02*
X302464894Y-140618967D01*
X302289894Y-143018967D02*
X302289894Y-140618967D01*
X301889894Y-140618967D02*
X301889894Y-143018967D01*
X302114894Y-143018967D02*
X302114894Y-140618967D01*
X301989894Y-143018967D02*
X301989894Y-140618967D01*
X301914894Y-143018967D02*
X307714894Y-143018967D01*
X307714894Y-143018967D02*
X307714894Y-140618967D01*
X307714894Y-140618967D02*
X301914894Y-140618967D01*
%TO.C,D63*%
X362170894Y-143018267D02*
X362170894Y-140618267D01*
X361995894Y-143018267D02*
X361995894Y-140618267D01*
X361820894Y-143018267D02*
X361820894Y-140618267D01*
X361420894Y-140618267D02*
X361420894Y-143018267D01*
X361645894Y-143018267D02*
X361645894Y-140618267D01*
X361520894Y-143018267D02*
X361520894Y-140618267D01*
X361445894Y-143018267D02*
X367245894Y-143018267D01*
X367245894Y-143018267D02*
X367245894Y-140618267D01*
X367245894Y-140618267D02*
X361445894Y-140618267D01*
%TO.C,D5*%
X54990344Y-162068287D02*
X54990344Y-159668287D01*
X54815344Y-162068287D02*
X54815344Y-159668287D01*
X54640344Y-162068287D02*
X54640344Y-159668287D01*
X54240344Y-159668287D02*
X54240344Y-162068287D01*
X54465344Y-162068287D02*
X54465344Y-159668287D01*
X54340344Y-162068287D02*
X54340344Y-159668287D01*
X54265344Y-162068287D02*
X60065344Y-162068287D01*
X60065344Y-162068287D02*
X60065344Y-159668287D01*
X60065344Y-159668287D02*
X54265344Y-159668287D01*
%TO.C,D10*%
X78801394Y-162068287D02*
X78801394Y-159668287D01*
X78626394Y-162068287D02*
X78626394Y-159668287D01*
X78451394Y-162068287D02*
X78451394Y-159668287D01*
X78051394Y-159668287D02*
X78051394Y-162068287D01*
X78276394Y-162068287D02*
X78276394Y-159668287D01*
X78151394Y-162068287D02*
X78151394Y-159668287D01*
X78076394Y-162068287D02*
X83876394Y-162068287D01*
X83876394Y-162068287D02*
X83876394Y-159668287D01*
X83876394Y-159668287D02*
X78076394Y-159668287D01*
%TO.C,D15*%
X102615294Y-162068287D02*
X102615294Y-159668287D01*
X102440294Y-162068287D02*
X102440294Y-159668287D01*
X102265294Y-162068287D02*
X102265294Y-159668287D01*
X101865294Y-159668287D02*
X101865294Y-162068287D01*
X102090294Y-162068287D02*
X102090294Y-159668287D01*
X101965294Y-162068287D02*
X101965294Y-159668287D01*
X101890294Y-162068287D02*
X107690294Y-162068287D01*
X107690294Y-162068287D02*
X107690294Y-159668287D01*
X107690294Y-159668287D02*
X101890294Y-159668287D01*
%TO.C,D20*%
X174295394Y-162068962D02*
X174295394Y-159668962D01*
X174120394Y-162068962D02*
X174120394Y-159668962D01*
X173945394Y-162068962D02*
X173945394Y-159668962D01*
X173545394Y-159668962D02*
X173545394Y-162068962D01*
X173770394Y-162068962D02*
X173770394Y-159668962D01*
X173645394Y-162068962D02*
X173645394Y-159668962D01*
X173570394Y-162068962D02*
X179370394Y-162068962D01*
X179370394Y-162068962D02*
X179370394Y-159668962D01*
X179370394Y-159668962D02*
X173570394Y-159668962D01*
%TO.C,D25*%
X245490394Y-162068287D02*
X245490394Y-159668287D01*
X245315394Y-162068287D02*
X245315394Y-159668287D01*
X245140394Y-162068287D02*
X245140394Y-159668287D01*
X244740394Y-159668287D02*
X244740394Y-162068287D01*
X244965394Y-162068287D02*
X244965394Y-159668287D01*
X244840394Y-162068287D02*
X244840394Y-159668287D01*
X244765394Y-162068287D02*
X250565394Y-162068287D01*
X250565394Y-162068287D02*
X250565394Y-159668287D01*
X250565394Y-159668287D02*
X244765394Y-159668287D01*
%TO.C,D30*%
X269301394Y-162068287D02*
X269301394Y-159668287D01*
X269126394Y-162068287D02*
X269126394Y-159668287D01*
X268951394Y-162068287D02*
X268951394Y-159668287D01*
X268551394Y-159668287D02*
X268551394Y-162068287D01*
X268776394Y-162068287D02*
X268776394Y-159668287D01*
X268651394Y-162068287D02*
X268651394Y-159668287D01*
X268576394Y-162068287D02*
X274376394Y-162068287D01*
X274376394Y-162068287D02*
X274376394Y-159668287D01*
X274376394Y-159668287D02*
X268576394Y-159668287D01*
%TO.C,D35*%
X293115394Y-162068287D02*
X293115394Y-159668287D01*
X292940394Y-162068287D02*
X292940394Y-159668287D01*
X292765394Y-162068287D02*
X292765394Y-159668287D01*
X292365394Y-159668287D02*
X292365394Y-162068287D01*
X292590394Y-162068287D02*
X292590394Y-159668287D01*
X292465394Y-162068287D02*
X292465394Y-159668287D01*
X292390394Y-162068287D02*
X298190394Y-162068287D01*
X298190394Y-162068287D02*
X298190394Y-159668287D01*
X298190394Y-159668287D02*
X292390394Y-159668287D01*
%TO.C,D40*%
X316926394Y-162068287D02*
X316926394Y-159668287D01*
X316751394Y-162068287D02*
X316751394Y-159668287D01*
X316576394Y-162068287D02*
X316576394Y-159668287D01*
X316176394Y-159668287D02*
X316176394Y-162068287D01*
X316401394Y-162068287D02*
X316401394Y-159668287D01*
X316276394Y-162068287D02*
X316276394Y-159668287D01*
X316201394Y-162068287D02*
X322001394Y-162068287D01*
X322001394Y-162068287D02*
X322001394Y-159668287D01*
X322001394Y-159668287D02*
X316201394Y-159668287D01*
%TO.C,D45*%
X343120894Y-162068287D02*
X343120894Y-159668287D01*
X342945894Y-162068287D02*
X342945894Y-159668287D01*
X342770894Y-162068287D02*
X342770894Y-159668287D01*
X342370894Y-159668287D02*
X342370894Y-162068287D01*
X342595894Y-162068287D02*
X342595894Y-159668287D01*
X342470894Y-162068287D02*
X342470894Y-159668287D01*
X342395894Y-162068287D02*
X348195894Y-162068287D01*
X348195894Y-162068287D02*
X348195894Y-159668287D01*
X348195894Y-159668287D02*
X342395894Y-159668287D01*
%TO.C,D50*%
X362170894Y-162068287D02*
X362170894Y-159668287D01*
X361995894Y-162068287D02*
X361995894Y-159668287D01*
X361820894Y-162068287D02*
X361820894Y-159668287D01*
X361420894Y-159668287D02*
X361420894Y-162068287D01*
X361645894Y-162068287D02*
X361645894Y-159668287D01*
X361520894Y-162068287D02*
X361520894Y-159668287D01*
X361445894Y-162068287D02*
X367245894Y-162068287D01*
X367245894Y-162068287D02*
X367245894Y-159668287D01*
X367245894Y-159668287D02*
X361445894Y-159668287D01*
%TO.C,D55*%
X381220894Y-162068287D02*
X381220894Y-159668287D01*
X381045894Y-162068287D02*
X381045894Y-159668287D01*
X380870894Y-162068287D02*
X380870894Y-159668287D01*
X380470894Y-159668287D02*
X380470894Y-162068287D01*
X380695894Y-162068287D02*
X380695894Y-159668287D01*
X380570894Y-162068287D02*
X380570894Y-159668287D01*
X380495894Y-162068287D02*
X386295894Y-162068287D01*
X386295894Y-162068287D02*
X386295894Y-159668287D01*
X386295894Y-159668287D02*
X380495894Y-159668287D01*
D10*
%TO.C,R1*%
X327538748Y-114960000D02*
X328061252Y-114960000D01*
X327538748Y-113540000D02*
X328061252Y-113540000D01*
%TO.C,R2*%
X353410000Y-133761252D02*
X353410000Y-133238748D01*
X351990000Y-133761252D02*
X351990000Y-133238748D01*
%TO.C,R3*%
X334893748Y-109000000D02*
X335416252Y-109000000D01*
X334893748Y-110420000D02*
X335416252Y-110420000D01*
%TO.C,R4*%
X340293748Y-110400000D02*
X340816252Y-110400000D01*
X340293748Y-108980000D02*
X340816252Y-108980000D01*
%TO.C,SW1*%
X326090000Y-118140000D02*
X326540000Y-117690000D01*
X329490000Y-118140000D02*
X329040000Y-117690000D01*
X329490000Y-122740000D02*
X329040000Y-123190000D01*
X326090000Y-122740000D02*
X326540000Y-123190000D01*
X330540000Y-121440000D02*
X330540000Y-119440000D01*
X326540000Y-117690000D02*
X329040000Y-117690000D01*
X325040000Y-121440000D02*
X325040000Y-119440000D01*
X326540000Y-123190000D02*
X329040000Y-123190000D01*
D12*
%TO.C,U1*%
X338325000Y-133675000D02*
X338325000Y-133100000D01*
X348675000Y-133675000D02*
X348675000Y-133000000D01*
X348675000Y-123325000D02*
X348675000Y-124000000D01*
X338325000Y-123325000D02*
X338325000Y-124000000D01*
X338325000Y-133675000D02*
X339000000Y-133675000D01*
X338325000Y-123325000D02*
X339000000Y-123325000D01*
X348675000Y-123325000D02*
X348000000Y-123325000D01*
X348675000Y-133675000D02*
X348000000Y-133675000D01*
X338325000Y-133100000D02*
X337050000Y-133100000D01*
D11*
%TO.C,X1*%
X343768356Y-114073248D02*
X339974837Y-116931869D01*
X346025163Y-117068131D02*
X343768356Y-114073248D01*
X342231644Y-119926752D02*
X346025163Y-117068131D01*
X339974837Y-116931869D02*
X342231644Y-119926752D01*
D10*
%TO.C,R5*%
X336720000Y-83526252D02*
X336720000Y-83003748D01*
X335300000Y-83526252D02*
X335300000Y-83003748D01*
%TO.C,R6*%
X328200000Y-83521252D02*
X328200000Y-82998748D01*
X329620000Y-83521252D02*
X329620000Y-82998748D01*
%TO.C,K59*%
D11*
X306129179Y-135031347D02*
X306129179Y-134031347D01*
X305557751Y-135031347D02*
X305986322Y-134459919D01*
X305557751Y-134031347D02*
X306129179Y-134602776D01*
X304652989Y-134031347D02*
X305129179Y-134031347D01*
X305176798Y-134507538D01*
X305129179Y-134459919D01*
X305033941Y-134412300D01*
X304795846Y-134412300D01*
X304700608Y-134459919D01*
X304652989Y-134507538D01*
X304605370Y-134602776D01*
X304605370Y-134840871D01*
X304652989Y-134936109D01*
X304700608Y-134983728D01*
X304795846Y-135031347D01*
X305033941Y-135031347D01*
X305129179Y-134983728D01*
X305176798Y-134936109D01*
X304129179Y-135031347D02*
X303938703Y-135031347D01*
X303843465Y-134983728D01*
X303795846Y-134936109D01*
X303700608Y-134793252D01*
X303652989Y-134602776D01*
X303652989Y-134221824D01*
X303700608Y-134126586D01*
X303748227Y-134078967D01*
X303843465Y-134031347D01*
X304033941Y-134031347D01*
X304129179Y-134078967D01*
X304176798Y-134126586D01*
X304224417Y-134221824D01*
X304224417Y-134459919D01*
X304176798Y-134555157D01*
X304129179Y-134602776D01*
X304033941Y-134650395D01*
X303843465Y-134650395D01*
X303748227Y-134602776D01*
X303700608Y-134555157D01*
X303652989Y-134459919D01*
%TO.C,K62*%
X311134679Y-115981297D02*
X311134679Y-114981297D01*
X310563251Y-115981297D02*
X310991822Y-115409869D01*
X310563251Y-114981297D02*
X311134679Y-115552726D01*
X309706108Y-114981297D02*
X309896584Y-114981297D01*
X309991822Y-115028917D01*
X310039441Y-115076536D01*
X310134679Y-115219393D01*
X310182298Y-115409869D01*
X310182298Y-115790821D01*
X310134679Y-115886059D01*
X310087060Y-115933678D01*
X309991822Y-115981297D01*
X309801346Y-115981297D01*
X309706108Y-115933678D01*
X309658489Y-115886059D01*
X309610870Y-115790821D01*
X309610870Y-115552726D01*
X309658489Y-115457488D01*
X309706108Y-115409869D01*
X309801346Y-115362250D01*
X309991822Y-115362250D01*
X310087060Y-115409869D01*
X310134679Y-115457488D01*
X310182298Y-115552726D01*
X309229917Y-115076536D02*
X309182298Y-115028917D01*
X309087060Y-114981297D01*
X308848965Y-114981297D01*
X308753727Y-115028917D01*
X308706108Y-115076536D01*
X308658489Y-115171774D01*
X308658489Y-115267012D01*
X308706108Y-115409869D01*
X309277536Y-115981297D01*
X308658489Y-115981297D01*
%TO.C,K4*%
X67284489Y-135031347D02*
X67284489Y-134031347D01*
X66713060Y-135031347D02*
X67141632Y-134459919D01*
X66713060Y-134031347D02*
X67284489Y-134602776D01*
X65855917Y-134364681D02*
X65855917Y-135031347D01*
X66094013Y-133983728D02*
X66332108Y-134698014D01*
X65713060Y-134698014D01*
%TO.C,K64*%
X313273179Y-77881297D02*
X313273179Y-76881297D01*
X312701751Y-77881297D02*
X313130322Y-77309869D01*
X312701751Y-76881297D02*
X313273179Y-77452726D01*
X311844608Y-76881297D02*
X312035084Y-76881297D01*
X312130322Y-76928917D01*
X312177941Y-76976536D01*
X312273179Y-77119393D01*
X312320798Y-77309869D01*
X312320798Y-77690821D01*
X312273179Y-77786059D01*
X312225560Y-77833678D01*
X312130322Y-77881297D01*
X311939846Y-77881297D01*
X311844608Y-77833678D01*
X311796989Y-77786059D01*
X311749370Y-77690821D01*
X311749370Y-77452726D01*
X311796989Y-77357488D01*
X311844608Y-77309869D01*
X311939846Y-77262250D01*
X312130322Y-77262250D01*
X312225560Y-77309869D01*
X312273179Y-77357488D01*
X312320798Y-77452726D01*
X310892227Y-77214631D02*
X310892227Y-77881297D01*
X311130322Y-76833678D02*
X311368417Y-77547964D01*
X310749370Y-77547964D01*
%TO.C,K3*%
X62764549Y-115980697D02*
X62764549Y-114980697D01*
X62193120Y-115980697D02*
X62621692Y-115409269D01*
X62193120Y-114980697D02*
X62764549Y-115552126D01*
X61859787Y-114980697D02*
X61240739Y-114980697D01*
X61574073Y-115361650D01*
X61431215Y-115361650D01*
X61335977Y-115409269D01*
X61288358Y-115456888D01*
X61240739Y-115552126D01*
X61240739Y-115790221D01*
X61288358Y-115885459D01*
X61335977Y-115933078D01*
X61431215Y-115980697D01*
X61716930Y-115980697D01*
X61812168Y-115933078D01*
X61859787Y-115885459D01*
%TO.C,K2*%
X60383974Y-96931447D02*
X60383974Y-95931447D01*
X59812545Y-96931447D02*
X60241117Y-96360019D01*
X59812545Y-95931447D02*
X60383974Y-96502876D01*
X59431593Y-96026686D02*
X59383974Y-95979067D01*
X59288736Y-95931447D01*
X59050640Y-95931447D01*
X58955402Y-95979067D01*
X58907783Y-96026686D01*
X58860164Y-96121924D01*
X58860164Y-96217162D01*
X58907783Y-96360019D01*
X59479212Y-96931447D01*
X58860164Y-96931447D01*
%TO.C,K65*%
X318035179Y-96931447D02*
X318035179Y-95931447D01*
X317463751Y-96931447D02*
X317892322Y-96360019D01*
X317463751Y-95931447D02*
X318035179Y-96502876D01*
X316606608Y-95931447D02*
X316797084Y-95931447D01*
X316892322Y-95979067D01*
X316939941Y-96026686D01*
X317035179Y-96169543D01*
X317082798Y-96360019D01*
X317082798Y-96740971D01*
X317035179Y-96836209D01*
X316987560Y-96883828D01*
X316892322Y-96931447D01*
X316701846Y-96931447D01*
X316606608Y-96883828D01*
X316558989Y-96836209D01*
X316511370Y-96740971D01*
X316511370Y-96502876D01*
X316558989Y-96407638D01*
X316606608Y-96360019D01*
X316701846Y-96312400D01*
X316892322Y-96312400D01*
X316987560Y-96360019D01*
X317035179Y-96407638D01*
X317082798Y-96502876D01*
X315606608Y-95931447D02*
X316082798Y-95931447D01*
X316130417Y-96407638D01*
X316082798Y-96360019D01*
X315987560Y-96312400D01*
X315749465Y-96312400D01*
X315654227Y-96360019D01*
X315606608Y-96407638D01*
X315558989Y-96502876D01*
X315558989Y-96740971D01*
X315606608Y-96836209D01*
X315654227Y-96883828D01*
X315749465Y-96931447D01*
X315987560Y-96931447D01*
X316082798Y-96883828D01*
X316130417Y-96836209D01*
%TO.C,K5*%
X58003439Y-154080667D02*
X58003439Y-153080667D01*
X57432010Y-154080667D02*
X57860582Y-153509239D01*
X57432010Y-153080667D02*
X58003439Y-153652096D01*
X56527248Y-153080667D02*
X57003439Y-153080667D01*
X57051058Y-153556858D01*
X57003439Y-153509239D01*
X56908201Y-153461620D01*
X56670105Y-153461620D01*
X56574867Y-153509239D01*
X56527248Y-153556858D01*
X56479629Y-153652096D01*
X56479629Y-153890191D01*
X56527248Y-153985429D01*
X56574867Y-154033048D01*
X56670105Y-154080667D01*
X56908201Y-154080667D01*
X57003439Y-154033048D01*
X57051058Y-153985429D01*
%TO.C,K10*%
X82290679Y-154080667D02*
X82290679Y-153080667D01*
X81719251Y-154080667D02*
X82147822Y-153509239D01*
X81719251Y-153080667D02*
X82290679Y-153652096D01*
X80766870Y-154080667D02*
X81338298Y-154080667D01*
X81052584Y-154080667D02*
X81052584Y-153080667D01*
X81147822Y-153223525D01*
X81243060Y-153318763D01*
X81338298Y-153366382D01*
X80147822Y-153080667D02*
X80052584Y-153080667D01*
X79957346Y-153128287D01*
X79909727Y-153175906D01*
X79862108Y-153271144D01*
X79814489Y-153461620D01*
X79814489Y-153699715D01*
X79862108Y-153890191D01*
X79909727Y-153985429D01*
X79957346Y-154033048D01*
X80052584Y-154080667D01*
X80147822Y-154080667D01*
X80243060Y-154033048D01*
X80290679Y-153985429D01*
X80338298Y-153890191D01*
X80385917Y-153699715D01*
X80385917Y-153461620D01*
X80338298Y-153271144D01*
X80290679Y-153175906D01*
X80243060Y-153128287D01*
X80147822Y-153080667D01*
%TO.C,K15*%
X106104579Y-154080667D02*
X106104579Y-153080667D01*
X105533151Y-154080667D02*
X105961722Y-153509239D01*
X105533151Y-153080667D02*
X106104579Y-153652096D01*
X104580770Y-154080667D02*
X105152198Y-154080667D01*
X104866484Y-154080667D02*
X104866484Y-153080667D01*
X104961722Y-153223525D01*
X105056960Y-153318763D01*
X105152198Y-153366382D01*
X103676008Y-153080667D02*
X104152198Y-153080667D01*
X104199817Y-153556858D01*
X104152198Y-153509239D01*
X104056960Y-153461620D01*
X103818865Y-153461620D01*
X103723627Y-153509239D01*
X103676008Y-153556858D01*
X103628389Y-153652096D01*
X103628389Y-153890191D01*
X103676008Y-153985429D01*
X103723627Y-154033048D01*
X103818865Y-154080667D01*
X104056960Y-154080667D01*
X104152198Y-154033048D01*
X104199817Y-153985429D01*
%TO.C,K25*%
X248979679Y-154080667D02*
X248979679Y-153080667D01*
X248408251Y-154080667D02*
X248836822Y-153509239D01*
X248408251Y-153080667D02*
X248979679Y-153652096D01*
X248027298Y-153175906D02*
X247979679Y-153128287D01*
X247884441Y-153080667D01*
X247646346Y-153080667D01*
X247551108Y-153128287D01*
X247503489Y-153175906D01*
X247455870Y-153271144D01*
X247455870Y-153366382D01*
X247503489Y-153509239D01*
X248074917Y-154080667D01*
X247455870Y-154080667D01*
X246551108Y-153080667D02*
X247027298Y-153080667D01*
X247074917Y-153556858D01*
X247027298Y-153509239D01*
X246932060Y-153461620D01*
X246693965Y-153461620D01*
X246598727Y-153509239D01*
X246551108Y-153556858D01*
X246503489Y-153652096D01*
X246503489Y-153890191D01*
X246551108Y-153985429D01*
X246598727Y-154033048D01*
X246693965Y-154080667D01*
X246932060Y-154080667D01*
X247027298Y-154033048D01*
X247074917Y-153985429D01*
%TO.C,K30*%
X272790679Y-154080667D02*
X272790679Y-153080667D01*
X272219251Y-154080667D02*
X272647822Y-153509239D01*
X272219251Y-153080667D02*
X272790679Y-153652096D01*
X271885917Y-153080667D02*
X271266870Y-153080667D01*
X271600203Y-153461620D01*
X271457346Y-153461620D01*
X271362108Y-153509239D01*
X271314489Y-153556858D01*
X271266870Y-153652096D01*
X271266870Y-153890191D01*
X271314489Y-153985429D01*
X271362108Y-154033048D01*
X271457346Y-154080667D01*
X271743060Y-154080667D01*
X271838298Y-154033048D01*
X271885917Y-153985429D01*
X270647822Y-153080667D02*
X270552584Y-153080667D01*
X270457346Y-153128287D01*
X270409727Y-153175906D01*
X270362108Y-153271144D01*
X270314489Y-153461620D01*
X270314489Y-153699715D01*
X270362108Y-153890191D01*
X270409727Y-153985429D01*
X270457346Y-154033048D01*
X270552584Y-154080667D01*
X270647822Y-154080667D01*
X270743060Y-154033048D01*
X270790679Y-153985429D01*
X270838298Y-153890191D01*
X270885917Y-153699715D01*
X270885917Y-153461620D01*
X270838298Y-153271144D01*
X270790679Y-153175906D01*
X270743060Y-153128287D01*
X270647822Y-153080667D01*
%TO.C,K35*%
X296604679Y-154080667D02*
X296604679Y-153080667D01*
X296033251Y-154080667D02*
X296461822Y-153509239D01*
X296033251Y-153080667D02*
X296604679Y-153652096D01*
X295699917Y-153080667D02*
X295080870Y-153080667D01*
X295414203Y-153461620D01*
X295271346Y-153461620D01*
X295176108Y-153509239D01*
X295128489Y-153556858D01*
X295080870Y-153652096D01*
X295080870Y-153890191D01*
X295128489Y-153985429D01*
X295176108Y-154033048D01*
X295271346Y-154080667D01*
X295557060Y-154080667D01*
X295652298Y-154033048D01*
X295699917Y-153985429D01*
X294176108Y-153080667D02*
X294652298Y-153080667D01*
X294699917Y-153556858D01*
X294652298Y-153509239D01*
X294557060Y-153461620D01*
X294318965Y-153461620D01*
X294223727Y-153509239D01*
X294176108Y-153556858D01*
X294128489Y-153652096D01*
X294128489Y-153890191D01*
X294176108Y-153985429D01*
X294223727Y-154033048D01*
X294318965Y-154080667D01*
X294557060Y-154080667D01*
X294652298Y-154033048D01*
X294699917Y-153985429D01*
%TO.C,K40*%
X320415679Y-154080667D02*
X320415679Y-153080667D01*
X319844251Y-154080667D02*
X320272822Y-153509239D01*
X319844251Y-153080667D02*
X320415679Y-153652096D01*
X318987108Y-153414001D02*
X318987108Y-154080667D01*
X319225203Y-153033048D02*
X319463298Y-153747334D01*
X318844251Y-153747334D01*
X318272822Y-153080667D02*
X318177584Y-153080667D01*
X318082346Y-153128287D01*
X318034727Y-153175906D01*
X317987108Y-153271144D01*
X317939489Y-153461620D01*
X317939489Y-153699715D01*
X317987108Y-153890191D01*
X318034727Y-153985429D01*
X318082346Y-154033048D01*
X318177584Y-154080667D01*
X318272822Y-154080667D01*
X318368060Y-154033048D01*
X318415679Y-153985429D01*
X318463298Y-153890191D01*
X318510917Y-153699715D01*
X318510917Y-153461620D01*
X318463298Y-153271144D01*
X318415679Y-153175906D01*
X318368060Y-153128287D01*
X318272822Y-153080667D01*
%TO.C,K11*%
X94196879Y-77882147D02*
X94196879Y-76882147D01*
X93625451Y-77882147D02*
X94054022Y-77310719D01*
X93625451Y-76882147D02*
X94196879Y-77453576D01*
X92673070Y-77882147D02*
X93244498Y-77882147D01*
X92958784Y-77882147D02*
X92958784Y-76882147D01*
X93054022Y-77025005D01*
X93149260Y-77120243D01*
X93244498Y-77167862D01*
X91720689Y-77882147D02*
X92292117Y-77882147D01*
X92006403Y-77882147D02*
X92006403Y-76882147D01*
X92101641Y-77025005D01*
X92196879Y-77120243D01*
X92292117Y-77167862D01*
%TO.C,K6*%
X74671389Y-77882147D02*
X74671389Y-76882147D01*
X74099960Y-77882147D02*
X74528532Y-77310719D01*
X74099960Y-76882147D02*
X74671389Y-77453576D01*
X73242817Y-76882147D02*
X73433294Y-76882147D01*
X73528532Y-76929767D01*
X73576151Y-76977386D01*
X73671389Y-77120243D01*
X73719008Y-77310719D01*
X73719008Y-77691671D01*
X73671389Y-77786909D01*
X73623770Y-77834528D01*
X73528532Y-77882147D01*
X73338055Y-77882147D01*
X73242817Y-77834528D01*
X73195198Y-77786909D01*
X73147579Y-77691671D01*
X73147579Y-77453576D01*
X73195198Y-77358338D01*
X73242817Y-77310719D01*
X73338055Y-77263100D01*
X73528532Y-77263100D01*
X73623770Y-77310719D01*
X73671389Y-77358338D01*
X73719008Y-77453576D01*
%TO.C,K1*%
X55622159Y-77882147D02*
X55622159Y-76882147D01*
X55050730Y-77882147D02*
X55479302Y-77310719D01*
X55050730Y-76882147D02*
X55622159Y-77453576D01*
X54098349Y-77882147D02*
X54669778Y-77882147D01*
X54384064Y-77882147D02*
X54384064Y-76882147D01*
X54479302Y-77025005D01*
X54574540Y-77120243D01*
X54669778Y-77167862D01*
%TO.C,K16*%
X113246879Y-77882147D02*
X113246879Y-76882147D01*
X112675451Y-77882147D02*
X113104022Y-77310719D01*
X112675451Y-76882147D02*
X113246879Y-77453576D01*
X111723070Y-77882147D02*
X112294498Y-77882147D01*
X112008784Y-77882147D02*
X112008784Y-76882147D01*
X112104022Y-77025005D01*
X112199260Y-77120243D01*
X112294498Y-77167862D01*
X110865927Y-76882147D02*
X111056403Y-76882147D01*
X111151641Y-76929767D01*
X111199260Y-76977386D01*
X111294498Y-77120243D01*
X111342117Y-77310719D01*
X111342117Y-77691671D01*
X111294498Y-77786909D01*
X111246879Y-77834528D01*
X111151641Y-77882147D01*
X110961165Y-77882147D01*
X110865927Y-77834528D01*
X110818308Y-77786909D01*
X110770689Y-77691671D01*
X110770689Y-77453576D01*
X110818308Y-77358338D01*
X110865927Y-77310719D01*
X110961165Y-77263100D01*
X111151641Y-77263100D01*
X111246879Y-77310719D01*
X111294498Y-77358338D01*
X111342117Y-77453576D01*
%TO.C,K21*%
X132297579Y-77882147D02*
X132297579Y-76882147D01*
X131726151Y-77882147D02*
X132154722Y-77310719D01*
X131726151Y-76882147D02*
X132297579Y-77453576D01*
X131345198Y-76977386D02*
X131297579Y-76929767D01*
X131202341Y-76882147D01*
X130964246Y-76882147D01*
X130869008Y-76929767D01*
X130821389Y-76977386D01*
X130773770Y-77072624D01*
X130773770Y-77167862D01*
X130821389Y-77310719D01*
X131392817Y-77882147D01*
X130773770Y-77882147D01*
X129821389Y-77882147D02*
X130392817Y-77882147D01*
X130107103Y-77882147D02*
X130107103Y-76882147D01*
X130202341Y-77025005D01*
X130297579Y-77120243D01*
X130392817Y-77167862D01*
%TO.C,K26*%
X151346879Y-77882147D02*
X151346879Y-76882147D01*
X150775451Y-77882147D02*
X151204022Y-77310719D01*
X150775451Y-76882147D02*
X151346879Y-77453576D01*
X150394498Y-76977386D02*
X150346879Y-76929767D01*
X150251641Y-76882147D01*
X150013546Y-76882147D01*
X149918308Y-76929767D01*
X149870689Y-76977386D01*
X149823070Y-77072624D01*
X149823070Y-77167862D01*
X149870689Y-77310719D01*
X150442117Y-77882147D01*
X149823070Y-77882147D01*
X148965927Y-76882147D02*
X149156403Y-76882147D01*
X149251641Y-76929767D01*
X149299260Y-76977386D01*
X149394498Y-77120243D01*
X149442117Y-77310719D01*
X149442117Y-77691671D01*
X149394498Y-77786909D01*
X149346879Y-77834528D01*
X149251641Y-77882147D01*
X149061165Y-77882147D01*
X148965927Y-77834528D01*
X148918308Y-77786909D01*
X148870689Y-77691671D01*
X148870689Y-77453576D01*
X148918308Y-77358338D01*
X148965927Y-77310719D01*
X149061165Y-77263100D01*
X149251641Y-77263100D01*
X149346879Y-77310719D01*
X149394498Y-77358338D01*
X149442117Y-77453576D01*
%TO.C,K31*%
X170397179Y-77882147D02*
X170397179Y-76882147D01*
X169825751Y-77882147D02*
X170254322Y-77310719D01*
X169825751Y-76882147D02*
X170397179Y-77453576D01*
X169492417Y-76882147D02*
X168873370Y-76882147D01*
X169206703Y-77263100D01*
X169063846Y-77263100D01*
X168968608Y-77310719D01*
X168920989Y-77358338D01*
X168873370Y-77453576D01*
X168873370Y-77691671D01*
X168920989Y-77786909D01*
X168968608Y-77834528D01*
X169063846Y-77882147D01*
X169349560Y-77882147D01*
X169444798Y-77834528D01*
X169492417Y-77786909D01*
X167920989Y-77882147D02*
X168492417Y-77882147D01*
X168206703Y-77882147D02*
X168206703Y-76882147D01*
X168301941Y-77025005D01*
X168397179Y-77120243D01*
X168492417Y-77167862D01*
%TO.C,K36*%
X189448179Y-77882147D02*
X189448179Y-76882147D01*
X188876751Y-77882147D02*
X189305322Y-77310719D01*
X188876751Y-76882147D02*
X189448179Y-77453576D01*
X188543417Y-76882147D02*
X187924370Y-76882147D01*
X188257703Y-77263100D01*
X188114846Y-77263100D01*
X188019608Y-77310719D01*
X187971989Y-77358338D01*
X187924370Y-77453576D01*
X187924370Y-77691671D01*
X187971989Y-77786909D01*
X188019608Y-77834528D01*
X188114846Y-77882147D01*
X188400560Y-77882147D01*
X188495798Y-77834528D01*
X188543417Y-77786909D01*
X187067227Y-76882147D02*
X187257703Y-76882147D01*
X187352941Y-76929767D01*
X187400560Y-76977386D01*
X187495798Y-77120243D01*
X187543417Y-77310719D01*
X187543417Y-77691671D01*
X187495798Y-77786909D01*
X187448179Y-77834528D01*
X187352941Y-77882147D01*
X187162465Y-77882147D01*
X187067227Y-77834528D01*
X187019608Y-77786909D01*
X186971989Y-77691671D01*
X186971989Y-77453576D01*
X187019608Y-77358338D01*
X187067227Y-77310719D01*
X187162465Y-77263100D01*
X187352941Y-77263100D01*
X187448179Y-77310719D01*
X187495798Y-77358338D01*
X187543417Y-77453576D01*
%TO.C,K41*%
X208498179Y-77882147D02*
X208498179Y-76882147D01*
X207926751Y-77882147D02*
X208355322Y-77310719D01*
X207926751Y-76882147D02*
X208498179Y-77453576D01*
X207069608Y-77215481D02*
X207069608Y-77882147D01*
X207307703Y-76834528D02*
X207545798Y-77548814D01*
X206926751Y-77548814D01*
X206021989Y-77882147D02*
X206593417Y-77882147D01*
X206307703Y-77882147D02*
X206307703Y-76882147D01*
X206402941Y-77025005D01*
X206498179Y-77120243D01*
X206593417Y-77167862D01*
%TO.C,K46*%
X227548179Y-77882147D02*
X227548179Y-76882147D01*
X226976751Y-77882147D02*
X227405322Y-77310719D01*
X226976751Y-76882147D02*
X227548179Y-77453576D01*
X226119608Y-77215481D02*
X226119608Y-77882147D01*
X226357703Y-76834528D02*
X226595798Y-77548814D01*
X225976751Y-77548814D01*
X225167227Y-76882147D02*
X225357703Y-76882147D01*
X225452941Y-76929767D01*
X225500560Y-76977386D01*
X225595798Y-77120243D01*
X225643417Y-77310719D01*
X225643417Y-77691671D01*
X225595798Y-77786909D01*
X225548179Y-77834528D01*
X225452941Y-77882147D01*
X225262465Y-77882147D01*
X225167227Y-77834528D01*
X225119608Y-77786909D01*
X225071989Y-77691671D01*
X225071989Y-77453576D01*
X225119608Y-77358338D01*
X225167227Y-77310719D01*
X225262465Y-77263100D01*
X225452941Y-77263100D01*
X225548179Y-77310719D01*
X225595798Y-77358338D01*
X225643417Y-77453576D01*
%TO.C,K51*%
X246598179Y-77882147D02*
X246598179Y-76882147D01*
X246026751Y-77882147D02*
X246455322Y-77310719D01*
X246026751Y-76882147D02*
X246598179Y-77453576D01*
X245121989Y-76882147D02*
X245598179Y-76882147D01*
X245645798Y-77358338D01*
X245598179Y-77310719D01*
X245502941Y-77263100D01*
X245264846Y-77263100D01*
X245169608Y-77310719D01*
X245121989Y-77358338D01*
X245074370Y-77453576D01*
X245074370Y-77691671D01*
X245121989Y-77786909D01*
X245169608Y-77834528D01*
X245264846Y-77882147D01*
X245502941Y-77882147D01*
X245598179Y-77834528D01*
X245645798Y-77786909D01*
X244121989Y-77882147D02*
X244693417Y-77882147D01*
X244407703Y-77882147D02*
X244407703Y-76882147D01*
X244502941Y-77025005D01*
X244598179Y-77120243D01*
X244693417Y-77167862D01*
%TO.C,K56*%
X265648179Y-77882147D02*
X265648179Y-76882147D01*
X265076751Y-77882147D02*
X265505322Y-77310719D01*
X265076751Y-76882147D02*
X265648179Y-77453576D01*
X264171989Y-76882147D02*
X264648179Y-76882147D01*
X264695798Y-77358338D01*
X264648179Y-77310719D01*
X264552941Y-77263100D01*
X264314846Y-77263100D01*
X264219608Y-77310719D01*
X264171989Y-77358338D01*
X264124370Y-77453576D01*
X264124370Y-77691671D01*
X264171989Y-77786909D01*
X264219608Y-77834528D01*
X264314846Y-77882147D01*
X264552941Y-77882147D01*
X264648179Y-77834528D01*
X264695798Y-77786909D01*
X263267227Y-76882147D02*
X263457703Y-76882147D01*
X263552941Y-76929767D01*
X263600560Y-76977386D01*
X263695798Y-77120243D01*
X263743417Y-77310719D01*
X263743417Y-77691671D01*
X263695798Y-77786909D01*
X263648179Y-77834528D01*
X263552941Y-77882147D01*
X263362465Y-77882147D01*
X263267227Y-77834528D01*
X263219608Y-77786909D01*
X263171989Y-77691671D01*
X263171989Y-77453576D01*
X263219608Y-77358338D01*
X263267227Y-77310719D01*
X263362465Y-77263100D01*
X263552941Y-77263100D01*
X263648179Y-77310719D01*
X263695798Y-77358338D01*
X263743417Y-77453576D01*
%TO.C,K60*%
X284698179Y-77882147D02*
X284698179Y-76882147D01*
X284126751Y-77882147D02*
X284555322Y-77310719D01*
X284126751Y-76882147D02*
X284698179Y-77453576D01*
X283269608Y-76882147D02*
X283460084Y-76882147D01*
X283555322Y-76929767D01*
X283602941Y-76977386D01*
X283698179Y-77120243D01*
X283745798Y-77310719D01*
X283745798Y-77691671D01*
X283698179Y-77786909D01*
X283650560Y-77834528D01*
X283555322Y-77882147D01*
X283364846Y-77882147D01*
X283269608Y-77834528D01*
X283221989Y-77786909D01*
X283174370Y-77691671D01*
X283174370Y-77453576D01*
X283221989Y-77358338D01*
X283269608Y-77310719D01*
X283364846Y-77263100D01*
X283555322Y-77263100D01*
X283650560Y-77310719D01*
X283698179Y-77358338D01*
X283745798Y-77453576D01*
X282555322Y-76882147D02*
X282460084Y-76882147D01*
X282364846Y-76929767D01*
X282317227Y-76977386D01*
X282269608Y-77072624D01*
X282221989Y-77263100D01*
X282221989Y-77501195D01*
X282269608Y-77691671D01*
X282317227Y-77786909D01*
X282364846Y-77834528D01*
X282460084Y-77882147D01*
X282555322Y-77882147D01*
X282650560Y-77834528D01*
X282698179Y-77786909D01*
X282745798Y-77691671D01*
X282793417Y-77501195D01*
X282793417Y-77263100D01*
X282745798Y-77072624D01*
X282698179Y-76977386D01*
X282650560Y-76929767D01*
X282555322Y-76882147D01*
%TO.C,K68*%
X346610179Y-77882147D02*
X346610179Y-76882147D01*
X346038751Y-77882147D02*
X346467322Y-77310719D01*
X346038751Y-76882147D02*
X346610179Y-77453576D01*
X345181608Y-76882147D02*
X345372084Y-76882147D01*
X345467322Y-76929767D01*
X345514941Y-76977386D01*
X345610179Y-77120243D01*
X345657798Y-77310719D01*
X345657798Y-77691671D01*
X345610179Y-77786909D01*
X345562560Y-77834528D01*
X345467322Y-77882147D01*
X345276846Y-77882147D01*
X345181608Y-77834528D01*
X345133989Y-77786909D01*
X345086370Y-77691671D01*
X345086370Y-77453576D01*
X345133989Y-77358338D01*
X345181608Y-77310719D01*
X345276846Y-77263100D01*
X345467322Y-77263100D01*
X345562560Y-77310719D01*
X345610179Y-77358338D01*
X345657798Y-77453576D01*
X344514941Y-77310719D02*
X344610179Y-77263100D01*
X344657798Y-77215481D01*
X344705417Y-77120243D01*
X344705417Y-77072624D01*
X344657798Y-76977386D01*
X344610179Y-76929767D01*
X344514941Y-76882147D01*
X344324465Y-76882147D01*
X344229227Y-76929767D01*
X344181608Y-76977386D01*
X344133989Y-77072624D01*
X344133989Y-77120243D01*
X344181608Y-77215481D01*
X344229227Y-77263100D01*
X344324465Y-77310719D01*
X344514941Y-77310719D01*
X344610179Y-77358338D01*
X344657798Y-77405957D01*
X344705417Y-77501195D01*
X344705417Y-77691671D01*
X344657798Y-77786909D01*
X344610179Y-77834528D01*
X344514941Y-77882147D01*
X344324465Y-77882147D01*
X344229227Y-77834528D01*
X344181608Y-77786909D01*
X344133989Y-77691671D01*
X344133989Y-77501195D01*
X344181608Y-77405957D01*
X344229227Y-77358338D01*
X344324465Y-77310719D01*
%TO.C,K66*%
X365660179Y-77882147D02*
X365660179Y-76882147D01*
X365088751Y-77882147D02*
X365517322Y-77310719D01*
X365088751Y-76882147D02*
X365660179Y-77453576D01*
X364231608Y-76882147D02*
X364422084Y-76882147D01*
X364517322Y-76929767D01*
X364564941Y-76977386D01*
X364660179Y-77120243D01*
X364707798Y-77310719D01*
X364707798Y-77691671D01*
X364660179Y-77786909D01*
X364612560Y-77834528D01*
X364517322Y-77882147D01*
X364326846Y-77882147D01*
X364231608Y-77834528D01*
X364183989Y-77786909D01*
X364136370Y-77691671D01*
X364136370Y-77453576D01*
X364183989Y-77358338D01*
X364231608Y-77310719D01*
X364326846Y-77263100D01*
X364517322Y-77263100D01*
X364612560Y-77310719D01*
X364660179Y-77358338D01*
X364707798Y-77453576D01*
X363279227Y-76882147D02*
X363469703Y-76882147D01*
X363564941Y-76929767D01*
X363612560Y-76977386D01*
X363707798Y-77120243D01*
X363755417Y-77310719D01*
X363755417Y-77691671D01*
X363707798Y-77786909D01*
X363660179Y-77834528D01*
X363564941Y-77882147D01*
X363374465Y-77882147D01*
X363279227Y-77834528D01*
X363231608Y-77786909D01*
X363183989Y-77691671D01*
X363183989Y-77453576D01*
X363231608Y-77358338D01*
X363279227Y-77310719D01*
X363374465Y-77263100D01*
X363564941Y-77263100D01*
X363660179Y-77310719D01*
X363707798Y-77358338D01*
X363755417Y-77453576D01*
%TO.C,K70*%
X384710179Y-77882147D02*
X384710179Y-76882147D01*
X384138751Y-77882147D02*
X384567322Y-77310719D01*
X384138751Y-76882147D02*
X384710179Y-77453576D01*
X383805417Y-76882147D02*
X383138751Y-76882147D01*
X383567322Y-77882147D01*
X382567322Y-76882147D02*
X382472084Y-76882147D01*
X382376846Y-76929767D01*
X382329227Y-76977386D01*
X382281608Y-77072624D01*
X382233989Y-77263100D01*
X382233989Y-77501195D01*
X382281608Y-77691671D01*
X382329227Y-77786909D01*
X382376846Y-77834528D01*
X382472084Y-77882147D01*
X382567322Y-77882147D01*
X382662560Y-77834528D01*
X382710179Y-77786909D01*
X382757798Y-77691671D01*
X382805417Y-77501195D01*
X382805417Y-77263100D01*
X382757798Y-77072624D01*
X382710179Y-76977386D01*
X382662560Y-76929767D01*
X382567322Y-76882147D01*
%TO.C,K7*%
X84197089Y-96931447D02*
X84197089Y-95931447D01*
X83625660Y-96931447D02*
X84054232Y-96360019D01*
X83625660Y-95931447D02*
X84197089Y-96502876D01*
X83292327Y-95931447D02*
X82625660Y-95931447D01*
X83054232Y-96931447D01*
%TO.C,K12*%
X103723279Y-96931447D02*
X103723279Y-95931447D01*
X103151851Y-96931447D02*
X103580422Y-96360019D01*
X103151851Y-95931447D02*
X103723279Y-96502876D01*
X102199470Y-96931447D02*
X102770898Y-96931447D01*
X102485184Y-96931447D02*
X102485184Y-95931447D01*
X102580422Y-96074305D01*
X102675660Y-96169543D01*
X102770898Y-96217162D01*
X101818517Y-96026686D02*
X101770898Y-95979067D01*
X101675660Y-95931447D01*
X101437565Y-95931447D01*
X101342327Y-95979067D01*
X101294708Y-96026686D01*
X101247089Y-96121924D01*
X101247089Y-96217162D01*
X101294708Y-96360019D01*
X101866136Y-96931447D01*
X101247089Y-96931447D01*
%TO.C,K17*%
X122772579Y-96931447D02*
X122772579Y-95931447D01*
X122201151Y-96931447D02*
X122629722Y-96360019D01*
X122201151Y-95931447D02*
X122772579Y-96502876D01*
X121248770Y-96931447D02*
X121820198Y-96931447D01*
X121534484Y-96931447D02*
X121534484Y-95931447D01*
X121629722Y-96074305D01*
X121724960Y-96169543D01*
X121820198Y-96217162D01*
X120915436Y-95931447D02*
X120248770Y-95931447D01*
X120677341Y-96931447D01*
%TO.C,K22*%
X141822379Y-96931447D02*
X141822379Y-95931447D01*
X141250951Y-96931447D02*
X141679522Y-96360019D01*
X141250951Y-95931447D02*
X141822379Y-96502876D01*
X140869998Y-96026686D02*
X140822379Y-95979067D01*
X140727141Y-95931447D01*
X140489046Y-95931447D01*
X140393808Y-95979067D01*
X140346189Y-96026686D01*
X140298570Y-96121924D01*
X140298570Y-96217162D01*
X140346189Y-96360019D01*
X140917617Y-96931447D01*
X140298570Y-96931447D01*
X139917617Y-96026686D02*
X139869998Y-95979067D01*
X139774760Y-95931447D01*
X139536665Y-95931447D01*
X139441427Y-95979067D01*
X139393808Y-96026686D01*
X139346189Y-96121924D01*
X139346189Y-96217162D01*
X139393808Y-96360019D01*
X139965236Y-96931447D01*
X139346189Y-96931447D01*
%TO.C,K27*%
X160872179Y-96931447D02*
X160872179Y-95931447D01*
X160300751Y-96931447D02*
X160729322Y-96360019D01*
X160300751Y-95931447D02*
X160872179Y-96502876D01*
X159919798Y-96026686D02*
X159872179Y-95979067D01*
X159776941Y-95931447D01*
X159538846Y-95931447D01*
X159443608Y-95979067D01*
X159395989Y-96026686D01*
X159348370Y-96121924D01*
X159348370Y-96217162D01*
X159395989Y-96360019D01*
X159967417Y-96931447D01*
X159348370Y-96931447D01*
X159015036Y-95931447D02*
X158348370Y-95931447D01*
X158776941Y-96931447D01*
%TO.C,K32*%
X179922179Y-96931447D02*
X179922179Y-95931447D01*
X179350751Y-96931447D02*
X179779322Y-96360019D01*
X179350751Y-95931447D02*
X179922179Y-96502876D01*
X179017417Y-95931447D02*
X178398370Y-95931447D01*
X178731703Y-96312400D01*
X178588846Y-96312400D01*
X178493608Y-96360019D01*
X178445989Y-96407638D01*
X178398370Y-96502876D01*
X178398370Y-96740971D01*
X178445989Y-96836209D01*
X178493608Y-96883828D01*
X178588846Y-96931447D01*
X178874560Y-96931447D01*
X178969798Y-96883828D01*
X179017417Y-96836209D01*
X178017417Y-96026686D02*
X177969798Y-95979067D01*
X177874560Y-95931447D01*
X177636465Y-95931447D01*
X177541227Y-95979067D01*
X177493608Y-96026686D01*
X177445989Y-96121924D01*
X177445989Y-96217162D01*
X177493608Y-96360019D01*
X178065036Y-96931447D01*
X177445989Y-96931447D01*
%TO.C,K37*%
X198973179Y-96931447D02*
X198973179Y-95931447D01*
X198401751Y-96931447D02*
X198830322Y-96360019D01*
X198401751Y-95931447D02*
X198973179Y-96502876D01*
X198068417Y-95931447D02*
X197449370Y-95931447D01*
X197782703Y-96312400D01*
X197639846Y-96312400D01*
X197544608Y-96360019D01*
X197496989Y-96407638D01*
X197449370Y-96502876D01*
X197449370Y-96740971D01*
X197496989Y-96836209D01*
X197544608Y-96883828D01*
X197639846Y-96931447D01*
X197925560Y-96931447D01*
X198020798Y-96883828D01*
X198068417Y-96836209D01*
X197116036Y-95931447D02*
X196449370Y-95931447D01*
X196877941Y-96931447D01*
%TO.C,K42*%
X218023179Y-96931447D02*
X218023179Y-95931447D01*
X217451751Y-96931447D02*
X217880322Y-96360019D01*
X217451751Y-95931447D02*
X218023179Y-96502876D01*
X216594608Y-96264781D02*
X216594608Y-96931447D01*
X216832703Y-95883828D02*
X217070798Y-96598114D01*
X216451751Y-96598114D01*
X216118417Y-96026686D02*
X216070798Y-95979067D01*
X215975560Y-95931447D01*
X215737465Y-95931447D01*
X215642227Y-95979067D01*
X215594608Y-96026686D01*
X215546989Y-96121924D01*
X215546989Y-96217162D01*
X215594608Y-96360019D01*
X216166036Y-96931447D01*
X215546989Y-96931447D01*
%TO.C,K47*%
X237073179Y-96931447D02*
X237073179Y-95931447D01*
X236501751Y-96931447D02*
X236930322Y-96360019D01*
X236501751Y-95931447D02*
X237073179Y-96502876D01*
X235644608Y-96264781D02*
X235644608Y-96931447D01*
X235882703Y-95883828D02*
X236120798Y-96598114D01*
X235501751Y-96598114D01*
X235216036Y-95931447D02*
X234549370Y-95931447D01*
X234977941Y-96931447D01*
%TO.C,K52*%
X256123179Y-96931447D02*
X256123179Y-95931447D01*
X255551751Y-96931447D02*
X255980322Y-96360019D01*
X255551751Y-95931447D02*
X256123179Y-96502876D01*
X254646989Y-95931447D02*
X255123179Y-95931447D01*
X255170798Y-96407638D01*
X255123179Y-96360019D01*
X255027941Y-96312400D01*
X254789846Y-96312400D01*
X254694608Y-96360019D01*
X254646989Y-96407638D01*
X254599370Y-96502876D01*
X254599370Y-96740971D01*
X254646989Y-96836209D01*
X254694608Y-96883828D01*
X254789846Y-96931447D01*
X255027941Y-96931447D01*
X255123179Y-96883828D01*
X255170798Y-96836209D01*
X254218417Y-96026686D02*
X254170798Y-95979067D01*
X254075560Y-95931447D01*
X253837465Y-95931447D01*
X253742227Y-95979067D01*
X253694608Y-96026686D01*
X253646989Y-96121924D01*
X253646989Y-96217162D01*
X253694608Y-96360019D01*
X254266036Y-96931447D01*
X253646989Y-96931447D01*
%TO.C,K57*%
X275173179Y-96931447D02*
X275173179Y-95931447D01*
X274601751Y-96931447D02*
X275030322Y-96360019D01*
X274601751Y-95931447D02*
X275173179Y-96502876D01*
X273696989Y-95931447D02*
X274173179Y-95931447D01*
X274220798Y-96407638D01*
X274173179Y-96360019D01*
X274077941Y-96312400D01*
X273839846Y-96312400D01*
X273744608Y-96360019D01*
X273696989Y-96407638D01*
X273649370Y-96502876D01*
X273649370Y-96740971D01*
X273696989Y-96836209D01*
X273744608Y-96883828D01*
X273839846Y-96931447D01*
X274077941Y-96931447D01*
X274173179Y-96883828D01*
X274220798Y-96836209D01*
X273316036Y-95931447D02*
X272649370Y-95931447D01*
X273077941Y-96931447D01*
%TO.C,K61*%
X294222679Y-96931447D02*
X294222679Y-95931447D01*
X293651251Y-96931447D02*
X294079822Y-96360019D01*
X293651251Y-95931447D02*
X294222679Y-96502876D01*
X292794108Y-95931447D02*
X292984584Y-95931447D01*
X293079822Y-95979067D01*
X293127441Y-96026686D01*
X293222679Y-96169543D01*
X293270298Y-96360019D01*
X293270298Y-96740971D01*
X293222679Y-96836209D01*
X293175060Y-96883828D01*
X293079822Y-96931447D01*
X292889346Y-96931447D01*
X292794108Y-96883828D01*
X292746489Y-96836209D01*
X292698870Y-96740971D01*
X292698870Y-96502876D01*
X292746489Y-96407638D01*
X292794108Y-96360019D01*
X292889346Y-96312400D01*
X293079822Y-96312400D01*
X293175060Y-96360019D01*
X293222679Y-96407638D01*
X293270298Y-96502876D01*
X291746489Y-96931447D02*
X292317917Y-96931447D01*
X292032203Y-96931447D02*
X292032203Y-95931447D01*
X292127441Y-96074305D01*
X292222679Y-96169543D01*
X292317917Y-96217162D01*
%TO.C,K69*%
X346610179Y-96931447D02*
X346610179Y-95931447D01*
X346038751Y-96931447D02*
X346467322Y-96360019D01*
X346038751Y-95931447D02*
X346610179Y-96502876D01*
X345181608Y-95931447D02*
X345372084Y-95931447D01*
X345467322Y-95979067D01*
X345514941Y-96026686D01*
X345610179Y-96169543D01*
X345657798Y-96360019D01*
X345657798Y-96740971D01*
X345610179Y-96836209D01*
X345562560Y-96883828D01*
X345467322Y-96931447D01*
X345276846Y-96931447D01*
X345181608Y-96883828D01*
X345133989Y-96836209D01*
X345086370Y-96740971D01*
X345086370Y-96502876D01*
X345133989Y-96407638D01*
X345181608Y-96360019D01*
X345276846Y-96312400D01*
X345467322Y-96312400D01*
X345562560Y-96360019D01*
X345610179Y-96407638D01*
X345657798Y-96502876D01*
X344610179Y-96931447D02*
X344419703Y-96931447D01*
X344324465Y-96883828D01*
X344276846Y-96836209D01*
X344181608Y-96693352D01*
X344133989Y-96502876D01*
X344133989Y-96121924D01*
X344181608Y-96026686D01*
X344229227Y-95979067D01*
X344324465Y-95931447D01*
X344514941Y-95931447D01*
X344610179Y-95979067D01*
X344657798Y-96026686D01*
X344705417Y-96121924D01*
X344705417Y-96360019D01*
X344657798Y-96455257D01*
X344610179Y-96502876D01*
X344514941Y-96550495D01*
X344324465Y-96550495D01*
X344229227Y-96502876D01*
X344181608Y-96455257D01*
X344133989Y-96360019D01*
%TO.C,K67*%
X365660179Y-96931447D02*
X365660179Y-95931447D01*
X365088751Y-96931447D02*
X365517322Y-96360019D01*
X365088751Y-95931447D02*
X365660179Y-96502876D01*
X364231608Y-95931447D02*
X364422084Y-95931447D01*
X364517322Y-95979067D01*
X364564941Y-96026686D01*
X364660179Y-96169543D01*
X364707798Y-96360019D01*
X364707798Y-96740971D01*
X364660179Y-96836209D01*
X364612560Y-96883828D01*
X364517322Y-96931447D01*
X364326846Y-96931447D01*
X364231608Y-96883828D01*
X364183989Y-96836209D01*
X364136370Y-96740971D01*
X364136370Y-96502876D01*
X364183989Y-96407638D01*
X364231608Y-96360019D01*
X364326846Y-96312400D01*
X364517322Y-96312400D01*
X364612560Y-96360019D01*
X364660179Y-96407638D01*
X364707798Y-96502876D01*
X363803036Y-95931447D02*
X363136370Y-95931447D01*
X363564941Y-96931447D01*
%TO.C,K71*%
X384710179Y-96931447D02*
X384710179Y-95931447D01*
X384138751Y-96931447D02*
X384567322Y-96360019D01*
X384138751Y-95931447D02*
X384710179Y-96502876D01*
X383805417Y-95931447D02*
X383138751Y-95931447D01*
X383567322Y-96931447D01*
X382233989Y-96931447D02*
X382805417Y-96931447D01*
X382519703Y-96931447D02*
X382519703Y-95931447D01*
X382614941Y-96074305D01*
X382710179Y-96169543D01*
X382805417Y-96217162D01*
%TO.C,K8*%
X88958889Y-115980697D02*
X88958889Y-114980697D01*
X88387460Y-115980697D02*
X88816032Y-115409269D01*
X88387460Y-114980697D02*
X88958889Y-115552126D01*
X87816032Y-115409269D02*
X87911270Y-115361650D01*
X87958889Y-115314031D01*
X88006508Y-115218793D01*
X88006508Y-115171174D01*
X87958889Y-115075936D01*
X87911270Y-115028317D01*
X87816032Y-114980697D01*
X87625555Y-114980697D01*
X87530317Y-115028317D01*
X87482698Y-115075936D01*
X87435079Y-115171174D01*
X87435079Y-115218793D01*
X87482698Y-115314031D01*
X87530317Y-115361650D01*
X87625555Y-115409269D01*
X87816032Y-115409269D01*
X87911270Y-115456888D01*
X87958889Y-115504507D01*
X88006508Y-115599745D01*
X88006508Y-115790221D01*
X87958889Y-115885459D01*
X87911270Y-115933078D01*
X87816032Y-115980697D01*
X87625555Y-115980697D01*
X87530317Y-115933078D01*
X87482698Y-115885459D01*
X87435079Y-115790221D01*
X87435079Y-115599745D01*
X87482698Y-115504507D01*
X87530317Y-115456888D01*
X87625555Y-115409269D01*
%TO.C,K13*%
X108485079Y-115980697D02*
X108485079Y-114980697D01*
X107913651Y-115980697D02*
X108342222Y-115409269D01*
X107913651Y-114980697D02*
X108485079Y-115552126D01*
X106961270Y-115980697D02*
X107532698Y-115980697D01*
X107246984Y-115980697D02*
X107246984Y-114980697D01*
X107342222Y-115123555D01*
X107437460Y-115218793D01*
X107532698Y-115266412D01*
X106627936Y-114980697D02*
X106008889Y-114980697D01*
X106342222Y-115361650D01*
X106199365Y-115361650D01*
X106104127Y-115409269D01*
X106056508Y-115456888D01*
X106008889Y-115552126D01*
X106008889Y-115790221D01*
X106056508Y-115885459D01*
X106104127Y-115933078D01*
X106199365Y-115980697D01*
X106485079Y-115980697D01*
X106580317Y-115933078D01*
X106627936Y-115885459D01*
%TO.C,K18*%
X127535079Y-115980697D02*
X127535079Y-114980697D01*
X126963651Y-115980697D02*
X127392222Y-115409269D01*
X126963651Y-114980697D02*
X127535079Y-115552126D01*
X126011270Y-115980697D02*
X126582698Y-115980697D01*
X126296984Y-115980697D02*
X126296984Y-114980697D01*
X126392222Y-115123555D01*
X126487460Y-115218793D01*
X126582698Y-115266412D01*
X125439841Y-115409269D02*
X125535079Y-115361650D01*
X125582698Y-115314031D01*
X125630317Y-115218793D01*
X125630317Y-115171174D01*
X125582698Y-115075936D01*
X125535079Y-115028317D01*
X125439841Y-114980697D01*
X125249365Y-114980697D01*
X125154127Y-115028317D01*
X125106508Y-115075936D01*
X125058889Y-115171174D01*
X125058889Y-115218793D01*
X125106508Y-115314031D01*
X125154127Y-115361650D01*
X125249365Y-115409269D01*
X125439841Y-115409269D01*
X125535079Y-115456888D01*
X125582698Y-115504507D01*
X125630317Y-115599745D01*
X125630317Y-115790221D01*
X125582698Y-115885459D01*
X125535079Y-115933078D01*
X125439841Y-115980697D01*
X125249365Y-115980697D01*
X125154127Y-115933078D01*
X125106508Y-115885459D01*
X125058889Y-115790221D01*
X125058889Y-115599745D01*
X125106508Y-115504507D01*
X125154127Y-115456888D01*
X125249365Y-115409269D01*
%TO.C,K23*%
X146585129Y-115980697D02*
X146585129Y-114980697D01*
X146013701Y-115980697D02*
X146442272Y-115409269D01*
X146013701Y-114980697D02*
X146585129Y-115552126D01*
X145632748Y-115075936D02*
X145585129Y-115028317D01*
X145489891Y-114980697D01*
X145251796Y-114980697D01*
X145156558Y-115028317D01*
X145108939Y-115075936D01*
X145061320Y-115171174D01*
X145061320Y-115266412D01*
X145108939Y-115409269D01*
X145680367Y-115980697D01*
X145061320Y-115980697D01*
X144727986Y-114980697D02*
X144108939Y-114980697D01*
X144442272Y-115361650D01*
X144299415Y-115361650D01*
X144204177Y-115409269D01*
X144156558Y-115456888D01*
X144108939Y-115552126D01*
X144108939Y-115790221D01*
X144156558Y-115885459D01*
X144204177Y-115933078D01*
X144299415Y-115980697D01*
X144585129Y-115980697D01*
X144680367Y-115933078D01*
X144727986Y-115885459D01*
%TO.C,K28*%
X165635179Y-115980697D02*
X165635179Y-114980697D01*
X165063751Y-115980697D02*
X165492322Y-115409269D01*
X165063751Y-114980697D02*
X165635179Y-115552126D01*
X164682798Y-115075936D02*
X164635179Y-115028317D01*
X164539941Y-114980697D01*
X164301846Y-114980697D01*
X164206608Y-115028317D01*
X164158989Y-115075936D01*
X164111370Y-115171174D01*
X164111370Y-115266412D01*
X164158989Y-115409269D01*
X164730417Y-115980697D01*
X164111370Y-115980697D01*
X163539941Y-115409269D02*
X163635179Y-115361650D01*
X163682798Y-115314031D01*
X163730417Y-115218793D01*
X163730417Y-115171174D01*
X163682798Y-115075936D01*
X163635179Y-115028317D01*
X163539941Y-114980697D01*
X163349465Y-114980697D01*
X163254227Y-115028317D01*
X163206608Y-115075936D01*
X163158989Y-115171174D01*
X163158989Y-115218793D01*
X163206608Y-115314031D01*
X163254227Y-115361650D01*
X163349465Y-115409269D01*
X163539941Y-115409269D01*
X163635179Y-115456888D01*
X163682798Y-115504507D01*
X163730417Y-115599745D01*
X163730417Y-115790221D01*
X163682798Y-115885459D01*
X163635179Y-115933078D01*
X163539941Y-115980697D01*
X163349465Y-115980697D01*
X163254227Y-115933078D01*
X163206608Y-115885459D01*
X163158989Y-115790221D01*
X163158989Y-115599745D01*
X163206608Y-115504507D01*
X163254227Y-115456888D01*
X163349465Y-115409269D01*
%TO.C,K33*%
X184685179Y-115980697D02*
X184685179Y-114980697D01*
X184113751Y-115980697D02*
X184542322Y-115409269D01*
X184113751Y-114980697D02*
X184685179Y-115552126D01*
X183780417Y-114980697D02*
X183161370Y-114980697D01*
X183494703Y-115361650D01*
X183351846Y-115361650D01*
X183256608Y-115409269D01*
X183208989Y-115456888D01*
X183161370Y-115552126D01*
X183161370Y-115790221D01*
X183208989Y-115885459D01*
X183256608Y-115933078D01*
X183351846Y-115980697D01*
X183637560Y-115980697D01*
X183732798Y-115933078D01*
X183780417Y-115885459D01*
X182828036Y-114980697D02*
X182208989Y-114980697D01*
X182542322Y-115361650D01*
X182399465Y-115361650D01*
X182304227Y-115409269D01*
X182256608Y-115456888D01*
X182208989Y-115552126D01*
X182208989Y-115790221D01*
X182256608Y-115885459D01*
X182304227Y-115933078D01*
X182399465Y-115980697D01*
X182685179Y-115980697D01*
X182780417Y-115933078D01*
X182828036Y-115885459D01*
%TO.C,K38*%
X203735179Y-115980697D02*
X203735179Y-114980697D01*
X203163751Y-115980697D02*
X203592322Y-115409269D01*
X203163751Y-114980697D02*
X203735179Y-115552126D01*
X202830417Y-114980697D02*
X202211370Y-114980697D01*
X202544703Y-115361650D01*
X202401846Y-115361650D01*
X202306608Y-115409269D01*
X202258989Y-115456888D01*
X202211370Y-115552126D01*
X202211370Y-115790221D01*
X202258989Y-115885459D01*
X202306608Y-115933078D01*
X202401846Y-115980697D01*
X202687560Y-115980697D01*
X202782798Y-115933078D01*
X202830417Y-115885459D01*
X201639941Y-115409269D02*
X201735179Y-115361650D01*
X201782798Y-115314031D01*
X201830417Y-115218793D01*
X201830417Y-115171174D01*
X201782798Y-115075936D01*
X201735179Y-115028317D01*
X201639941Y-114980697D01*
X201449465Y-114980697D01*
X201354227Y-115028317D01*
X201306608Y-115075936D01*
X201258989Y-115171174D01*
X201258989Y-115218793D01*
X201306608Y-115314031D01*
X201354227Y-115361650D01*
X201449465Y-115409269D01*
X201639941Y-115409269D01*
X201735179Y-115456888D01*
X201782798Y-115504507D01*
X201830417Y-115599745D01*
X201830417Y-115790221D01*
X201782798Y-115885459D01*
X201735179Y-115933078D01*
X201639941Y-115980697D01*
X201449465Y-115980697D01*
X201354227Y-115933078D01*
X201306608Y-115885459D01*
X201258989Y-115790221D01*
X201258989Y-115599745D01*
X201306608Y-115504507D01*
X201354227Y-115456888D01*
X201449465Y-115409269D01*
%TO.C,K43*%
X222785179Y-115980697D02*
X222785179Y-114980697D01*
X222213751Y-115980697D02*
X222642322Y-115409269D01*
X222213751Y-114980697D02*
X222785179Y-115552126D01*
X221356608Y-115314031D02*
X221356608Y-115980697D01*
X221594703Y-114933078D02*
X221832798Y-115647364D01*
X221213751Y-115647364D01*
X220928036Y-114980697D02*
X220308989Y-114980697D01*
X220642322Y-115361650D01*
X220499465Y-115361650D01*
X220404227Y-115409269D01*
X220356608Y-115456888D01*
X220308989Y-115552126D01*
X220308989Y-115790221D01*
X220356608Y-115885459D01*
X220404227Y-115933078D01*
X220499465Y-115980697D01*
X220785179Y-115980697D01*
X220880417Y-115933078D01*
X220928036Y-115885459D01*
%TO.C,K48*%
X241835179Y-115980697D02*
X241835179Y-114980697D01*
X241263751Y-115980697D02*
X241692322Y-115409269D01*
X241263751Y-114980697D02*
X241835179Y-115552126D01*
X240406608Y-115314031D02*
X240406608Y-115980697D01*
X240644703Y-114933078D02*
X240882798Y-115647364D01*
X240263751Y-115647364D01*
X239739941Y-115409269D02*
X239835179Y-115361650D01*
X239882798Y-115314031D01*
X239930417Y-115218793D01*
X239930417Y-115171174D01*
X239882798Y-115075936D01*
X239835179Y-115028317D01*
X239739941Y-114980697D01*
X239549465Y-114980697D01*
X239454227Y-115028317D01*
X239406608Y-115075936D01*
X239358989Y-115171174D01*
X239358989Y-115218793D01*
X239406608Y-115314031D01*
X239454227Y-115361650D01*
X239549465Y-115409269D01*
X239739941Y-115409269D01*
X239835179Y-115456888D01*
X239882798Y-115504507D01*
X239930417Y-115599745D01*
X239930417Y-115790221D01*
X239882798Y-115885459D01*
X239835179Y-115933078D01*
X239739941Y-115980697D01*
X239549465Y-115980697D01*
X239454227Y-115933078D01*
X239406608Y-115885459D01*
X239358989Y-115790221D01*
X239358989Y-115599745D01*
X239406608Y-115504507D01*
X239454227Y-115456888D01*
X239549465Y-115409269D01*
%TO.C,K53*%
X260885179Y-115980697D02*
X260885179Y-114980697D01*
X260313751Y-115980697D02*
X260742322Y-115409269D01*
X260313751Y-114980697D02*
X260885179Y-115552126D01*
X259408989Y-114980697D02*
X259885179Y-114980697D01*
X259932798Y-115456888D01*
X259885179Y-115409269D01*
X259789941Y-115361650D01*
X259551846Y-115361650D01*
X259456608Y-115409269D01*
X259408989Y-115456888D01*
X259361370Y-115552126D01*
X259361370Y-115790221D01*
X259408989Y-115885459D01*
X259456608Y-115933078D01*
X259551846Y-115980697D01*
X259789941Y-115980697D01*
X259885179Y-115933078D01*
X259932798Y-115885459D01*
X259028036Y-114980697D02*
X258408989Y-114980697D01*
X258742322Y-115361650D01*
X258599465Y-115361650D01*
X258504227Y-115409269D01*
X258456608Y-115456888D01*
X258408989Y-115552126D01*
X258408989Y-115790221D01*
X258456608Y-115885459D01*
X258504227Y-115933078D01*
X258599465Y-115980697D01*
X258885179Y-115980697D01*
X258980417Y-115933078D01*
X259028036Y-115885459D01*
%TO.C,K58*%
X279935179Y-115980697D02*
X279935179Y-114980697D01*
X279363751Y-115980697D02*
X279792322Y-115409269D01*
X279363751Y-114980697D02*
X279935179Y-115552126D01*
X278458989Y-114980697D02*
X278935179Y-114980697D01*
X278982798Y-115456888D01*
X278935179Y-115409269D01*
X278839941Y-115361650D01*
X278601846Y-115361650D01*
X278506608Y-115409269D01*
X278458989Y-115456888D01*
X278411370Y-115552126D01*
X278411370Y-115790221D01*
X278458989Y-115885459D01*
X278506608Y-115933078D01*
X278601846Y-115980697D01*
X278839941Y-115980697D01*
X278935179Y-115933078D01*
X278982798Y-115885459D01*
X277839941Y-115409269D02*
X277935179Y-115361650D01*
X277982798Y-115314031D01*
X278030417Y-115218793D01*
X278030417Y-115171174D01*
X277982798Y-115075936D01*
X277935179Y-115028317D01*
X277839941Y-114980697D01*
X277649465Y-114980697D01*
X277554227Y-115028317D01*
X277506608Y-115075936D01*
X277458989Y-115171174D01*
X277458989Y-115218793D01*
X277506608Y-115314031D01*
X277554227Y-115361650D01*
X277649465Y-115409269D01*
X277839941Y-115409269D01*
X277935179Y-115456888D01*
X277982798Y-115504507D01*
X278030417Y-115599745D01*
X278030417Y-115790221D01*
X277982798Y-115885459D01*
X277935179Y-115933078D01*
X277839941Y-115980697D01*
X277649465Y-115980697D01*
X277554227Y-115933078D01*
X277506608Y-115885459D01*
X277458989Y-115790221D01*
X277458989Y-115599745D01*
X277506608Y-115504507D01*
X277554227Y-115456888D01*
X277649465Y-115409269D01*
%TO.C,K9*%
X98483889Y-135030647D02*
X98483889Y-134030647D01*
X97912460Y-135030647D02*
X98341032Y-134459219D01*
X97912460Y-134030647D02*
X98483889Y-134602076D01*
X97436270Y-135030647D02*
X97245794Y-135030647D01*
X97150555Y-134983028D01*
X97102936Y-134935409D01*
X97007698Y-134792552D01*
X96960079Y-134602076D01*
X96960079Y-134221124D01*
X97007698Y-134125886D01*
X97055317Y-134078267D01*
X97150555Y-134030647D01*
X97341032Y-134030647D01*
X97436270Y-134078267D01*
X97483889Y-134125886D01*
X97531508Y-134221124D01*
X97531508Y-134459219D01*
X97483889Y-134554457D01*
X97436270Y-134602076D01*
X97341032Y-134649695D01*
X97150555Y-134649695D01*
X97055317Y-134602076D01*
X97007698Y-134554457D01*
X96960079Y-134459219D01*
%TO.C,K14*%
X118010079Y-135030647D02*
X118010079Y-134030647D01*
X117438651Y-135030647D02*
X117867222Y-134459219D01*
X117438651Y-134030647D02*
X118010079Y-134602076D01*
X116486270Y-135030647D02*
X117057698Y-135030647D01*
X116771984Y-135030647D02*
X116771984Y-134030647D01*
X116867222Y-134173505D01*
X116962460Y-134268743D01*
X117057698Y-134316362D01*
X115629127Y-134363981D02*
X115629127Y-135030647D01*
X115867222Y-133983028D02*
X116105317Y-134697314D01*
X115486270Y-134697314D01*
%TO.C,K19*%
X137060079Y-135030647D02*
X137060079Y-134030647D01*
X136488651Y-135030647D02*
X136917222Y-134459219D01*
X136488651Y-134030647D02*
X137060079Y-134602076D01*
X135536270Y-135030647D02*
X136107698Y-135030647D01*
X135821984Y-135030647D02*
X135821984Y-134030647D01*
X135917222Y-134173505D01*
X136012460Y-134268743D01*
X136107698Y-134316362D01*
X135060079Y-135030647D02*
X134869603Y-135030647D01*
X134774365Y-134983028D01*
X134726746Y-134935409D01*
X134631508Y-134792552D01*
X134583889Y-134602076D01*
X134583889Y-134221124D01*
X134631508Y-134125886D01*
X134679127Y-134078267D01*
X134774365Y-134030647D01*
X134964841Y-134030647D01*
X135060079Y-134078267D01*
X135107698Y-134125886D01*
X135155317Y-134221124D01*
X135155317Y-134459219D01*
X135107698Y-134554457D01*
X135060079Y-134602076D01*
X134964841Y-134649695D01*
X134774365Y-134649695D01*
X134679127Y-134602076D01*
X134631508Y-134554457D01*
X134583889Y-134459219D01*
%TO.C,K24*%
X156110179Y-135030647D02*
X156110179Y-134030647D01*
X155538751Y-135030647D02*
X155967322Y-134459219D01*
X155538751Y-134030647D02*
X156110179Y-134602076D01*
X155157798Y-134125886D02*
X155110179Y-134078267D01*
X155014941Y-134030647D01*
X154776846Y-134030647D01*
X154681608Y-134078267D01*
X154633989Y-134125886D01*
X154586370Y-134221124D01*
X154586370Y-134316362D01*
X154633989Y-134459219D01*
X155205417Y-135030647D01*
X154586370Y-135030647D01*
X153729227Y-134363981D02*
X153729227Y-135030647D01*
X153967322Y-133983028D02*
X154205417Y-134697314D01*
X153586370Y-134697314D01*
%TO.C,K29*%
X175160179Y-135030647D02*
X175160179Y-134030647D01*
X174588751Y-135030647D02*
X175017322Y-134459219D01*
X174588751Y-134030647D02*
X175160179Y-134602076D01*
X174207798Y-134125886D02*
X174160179Y-134078267D01*
X174064941Y-134030647D01*
X173826846Y-134030647D01*
X173731608Y-134078267D01*
X173683989Y-134125886D01*
X173636370Y-134221124D01*
X173636370Y-134316362D01*
X173683989Y-134459219D01*
X174255417Y-135030647D01*
X173636370Y-135030647D01*
X173160179Y-135030647D02*
X172969703Y-135030647D01*
X172874465Y-134983028D01*
X172826846Y-134935409D01*
X172731608Y-134792552D01*
X172683989Y-134602076D01*
X172683989Y-134221124D01*
X172731608Y-134125886D01*
X172779227Y-134078267D01*
X172874465Y-134030647D01*
X173064941Y-134030647D01*
X173160179Y-134078267D01*
X173207798Y-134125886D01*
X173255417Y-134221124D01*
X173255417Y-134459219D01*
X173207798Y-134554457D01*
X173160179Y-134602076D01*
X173064941Y-134649695D01*
X172874465Y-134649695D01*
X172779227Y-134602076D01*
X172731608Y-134554457D01*
X172683989Y-134459219D01*
%TO.C,K34*%
X194210179Y-135030647D02*
X194210179Y-134030647D01*
X193638751Y-135030647D02*
X194067322Y-134459219D01*
X193638751Y-134030647D02*
X194210179Y-134602076D01*
X193305417Y-134030647D02*
X192686370Y-134030647D01*
X193019703Y-134411600D01*
X192876846Y-134411600D01*
X192781608Y-134459219D01*
X192733989Y-134506838D01*
X192686370Y-134602076D01*
X192686370Y-134840171D01*
X192733989Y-134935409D01*
X192781608Y-134983028D01*
X192876846Y-135030647D01*
X193162560Y-135030647D01*
X193257798Y-134983028D01*
X193305417Y-134935409D01*
X191829227Y-134363981D02*
X191829227Y-135030647D01*
X192067322Y-133983028D02*
X192305417Y-134697314D01*
X191686370Y-134697314D01*
%TO.C,K39*%
X213260179Y-135030647D02*
X213260179Y-134030647D01*
X212688751Y-135030647D02*
X213117322Y-134459219D01*
X212688751Y-134030647D02*
X213260179Y-134602076D01*
X212355417Y-134030647D02*
X211736370Y-134030647D01*
X212069703Y-134411600D01*
X211926846Y-134411600D01*
X211831608Y-134459219D01*
X211783989Y-134506838D01*
X211736370Y-134602076D01*
X211736370Y-134840171D01*
X211783989Y-134935409D01*
X211831608Y-134983028D01*
X211926846Y-135030647D01*
X212212560Y-135030647D01*
X212307798Y-134983028D01*
X212355417Y-134935409D01*
X211260179Y-135030647D02*
X211069703Y-135030647D01*
X210974465Y-134983028D01*
X210926846Y-134935409D01*
X210831608Y-134792552D01*
X210783989Y-134602076D01*
X210783989Y-134221124D01*
X210831608Y-134125886D01*
X210879227Y-134078267D01*
X210974465Y-134030647D01*
X211164941Y-134030647D01*
X211260179Y-134078267D01*
X211307798Y-134125886D01*
X211355417Y-134221124D01*
X211355417Y-134459219D01*
X211307798Y-134554457D01*
X211260179Y-134602076D01*
X211164941Y-134649695D01*
X210974465Y-134649695D01*
X210879227Y-134602076D01*
X210831608Y-134554457D01*
X210783989Y-134459219D01*
%TO.C,K44*%
X232310179Y-135030647D02*
X232310179Y-134030647D01*
X231738751Y-135030647D02*
X232167322Y-134459219D01*
X231738751Y-134030647D02*
X232310179Y-134602076D01*
X230881608Y-134363981D02*
X230881608Y-135030647D01*
X231119703Y-133983028D02*
X231357798Y-134697314D01*
X230738751Y-134697314D01*
X229929227Y-134363981D02*
X229929227Y-135030647D01*
X230167322Y-133983028D02*
X230405417Y-134697314D01*
X229786370Y-134697314D01*
%TO.C,K49*%
X251360179Y-135030647D02*
X251360179Y-134030647D01*
X250788751Y-135030647D02*
X251217322Y-134459219D01*
X250788751Y-134030647D02*
X251360179Y-134602076D01*
X249931608Y-134363981D02*
X249931608Y-135030647D01*
X250169703Y-133983028D02*
X250407798Y-134697314D01*
X249788751Y-134697314D01*
X249360179Y-135030647D02*
X249169703Y-135030647D01*
X249074465Y-134983028D01*
X249026846Y-134935409D01*
X248931608Y-134792552D01*
X248883989Y-134602076D01*
X248883989Y-134221124D01*
X248931608Y-134125886D01*
X248979227Y-134078267D01*
X249074465Y-134030647D01*
X249264941Y-134030647D01*
X249360179Y-134078267D01*
X249407798Y-134125886D01*
X249455417Y-134221124D01*
X249455417Y-134459219D01*
X249407798Y-134554457D01*
X249360179Y-134602076D01*
X249264941Y-134649695D01*
X249074465Y-134649695D01*
X248979227Y-134602076D01*
X248931608Y-134554457D01*
X248883989Y-134459219D01*
%TO.C,K54*%
X270410179Y-135030647D02*
X270410179Y-134030647D01*
X269838751Y-135030647D02*
X270267322Y-134459219D01*
X269838751Y-134030647D02*
X270410179Y-134602076D01*
X268933989Y-134030647D02*
X269410179Y-134030647D01*
X269457798Y-134506838D01*
X269410179Y-134459219D01*
X269314941Y-134411600D01*
X269076846Y-134411600D01*
X268981608Y-134459219D01*
X268933989Y-134506838D01*
X268886370Y-134602076D01*
X268886370Y-134840171D01*
X268933989Y-134935409D01*
X268981608Y-134983028D01*
X269076846Y-135030647D01*
X269314941Y-135030647D01*
X269410179Y-134983028D01*
X269457798Y-134935409D01*
X268029227Y-134363981D02*
X268029227Y-135030647D01*
X268267322Y-133983028D02*
X268505417Y-134697314D01*
X267886370Y-134697314D01*
%TO.C,K63*%
X365660179Y-135030647D02*
X365660179Y-134030647D01*
X365088751Y-135030647D02*
X365517322Y-134459219D01*
X365088751Y-134030647D02*
X365660179Y-134602076D01*
X364231608Y-134030647D02*
X364422084Y-134030647D01*
X364517322Y-134078267D01*
X364564941Y-134125886D01*
X364660179Y-134268743D01*
X364707798Y-134459219D01*
X364707798Y-134840171D01*
X364660179Y-134935409D01*
X364612560Y-134983028D01*
X364517322Y-135030647D01*
X364326846Y-135030647D01*
X364231608Y-134983028D01*
X364183989Y-134935409D01*
X364136370Y-134840171D01*
X364136370Y-134602076D01*
X364183989Y-134506838D01*
X364231608Y-134459219D01*
X364326846Y-134411600D01*
X364517322Y-134411600D01*
X364612560Y-134459219D01*
X364660179Y-134506838D01*
X364707798Y-134602076D01*
X363803036Y-134030647D02*
X363183989Y-134030647D01*
X363517322Y-134411600D01*
X363374465Y-134411600D01*
X363279227Y-134459219D01*
X363231608Y-134506838D01*
X363183989Y-134602076D01*
X363183989Y-134840171D01*
X363231608Y-134935409D01*
X363279227Y-134983028D01*
X363374465Y-135030647D01*
X363660179Y-135030647D01*
X363755417Y-134983028D01*
X363803036Y-134935409D01*
%TO.C,K45*%
X346610179Y-154080667D02*
X346610179Y-153080667D01*
X346038751Y-154080667D02*
X346467322Y-153509239D01*
X346038751Y-153080667D02*
X346610179Y-153652096D01*
X345181608Y-153414001D02*
X345181608Y-154080667D01*
X345419703Y-153033048D02*
X345657798Y-153747334D01*
X345038751Y-153747334D01*
X344181608Y-153080667D02*
X344657798Y-153080667D01*
X344705417Y-153556858D01*
X344657798Y-153509239D01*
X344562560Y-153461620D01*
X344324465Y-153461620D01*
X344229227Y-153509239D01*
X344181608Y-153556858D01*
X344133989Y-153652096D01*
X344133989Y-153890191D01*
X344181608Y-153985429D01*
X344229227Y-154033048D01*
X344324465Y-154080667D01*
X344562560Y-154080667D01*
X344657798Y-154033048D01*
X344705417Y-153985429D01*
%TO.C,K50*%
X365660179Y-154080667D02*
X365660179Y-153080667D01*
X365088751Y-154080667D02*
X365517322Y-153509239D01*
X365088751Y-153080667D02*
X365660179Y-153652096D01*
X364183989Y-153080667D02*
X364660179Y-153080667D01*
X364707798Y-153556858D01*
X364660179Y-153509239D01*
X364564941Y-153461620D01*
X364326846Y-153461620D01*
X364231608Y-153509239D01*
X364183989Y-153556858D01*
X364136370Y-153652096D01*
X364136370Y-153890191D01*
X364183989Y-153985429D01*
X364231608Y-154033048D01*
X364326846Y-154080667D01*
X364564941Y-154080667D01*
X364660179Y-154033048D01*
X364707798Y-153985429D01*
X363517322Y-153080667D02*
X363422084Y-153080667D01*
X363326846Y-153128287D01*
X363279227Y-153175906D01*
X363231608Y-153271144D01*
X363183989Y-153461620D01*
X363183989Y-153699715D01*
X363231608Y-153890191D01*
X363279227Y-153985429D01*
X363326846Y-154033048D01*
X363422084Y-154080667D01*
X363517322Y-154080667D01*
X363612560Y-154033048D01*
X363660179Y-153985429D01*
X363707798Y-153890191D01*
X363755417Y-153699715D01*
X363755417Y-153461620D01*
X363707798Y-153271144D01*
X363660179Y-153175906D01*
X363612560Y-153128287D01*
X363517322Y-153080667D01*
%TO.C,K55*%
X384710179Y-154080667D02*
X384710179Y-153080667D01*
X384138751Y-154080667D02*
X384567322Y-153509239D01*
X384138751Y-153080667D02*
X384710179Y-153652096D01*
X383233989Y-153080667D02*
X383710179Y-153080667D01*
X383757798Y-153556858D01*
X383710179Y-153509239D01*
X383614941Y-153461620D01*
X383376846Y-153461620D01*
X383281608Y-153509239D01*
X383233989Y-153556858D01*
X383186370Y-153652096D01*
X383186370Y-153890191D01*
X383233989Y-153985429D01*
X383281608Y-154033048D01*
X383376846Y-154080667D01*
X383614941Y-154080667D01*
X383710179Y-154033048D01*
X383757798Y-153985429D01*
X382281608Y-153080667D02*
X382757798Y-153080667D01*
X382805417Y-153556858D01*
X382757798Y-153509239D01*
X382662560Y-153461620D01*
X382424465Y-153461620D01*
X382329227Y-153509239D01*
X382281608Y-153556858D01*
X382233989Y-153652096D01*
X382233989Y-153890191D01*
X382281608Y-153985429D01*
X382329227Y-154033048D01*
X382424465Y-154080667D01*
X382662560Y-154080667D01*
X382757798Y-154033048D01*
X382805417Y-153985429D01*
%TO.C,C1*%
D12*
X338166666Y-113882142D02*
X338214285Y-113929761D01*
X338357142Y-113977380D01*
X338452380Y-113977380D01*
X338595238Y-113929761D01*
X338690476Y-113834523D01*
X338738095Y-113739285D01*
X338785714Y-113548809D01*
X338785714Y-113405952D01*
X338738095Y-113215476D01*
X338690476Y-113120238D01*
X338595238Y-113025000D01*
X338452380Y-112977380D01*
X338357142Y-112977380D01*
X338214285Y-113025000D01*
X338166666Y-113072619D01*
X337214285Y-113977380D02*
X337785714Y-113977380D01*
X337500000Y-113977380D02*
X337500000Y-112977380D01*
X337595238Y-113120238D01*
X337690476Y-113215476D01*
X337785714Y-113263095D01*
%TO.C,C2*%
X348166666Y-113882142D02*
X348214285Y-113929761D01*
X348357142Y-113977380D01*
X348452380Y-113977380D01*
X348595238Y-113929761D01*
X348690476Y-113834523D01*
X348738095Y-113739285D01*
X348785714Y-113548809D01*
X348785714Y-113405952D01*
X348738095Y-113215476D01*
X348690476Y-113120238D01*
X348595238Y-113025000D01*
X348452380Y-112977380D01*
X348357142Y-112977380D01*
X348214285Y-113025000D01*
X348166666Y-113072619D01*
X347785714Y-113072619D02*
X347738095Y-113025000D01*
X347642857Y-112977380D01*
X347404761Y-112977380D01*
X347309523Y-113025000D01*
X347261904Y-113072619D01*
X347214285Y-113167857D01*
X347214285Y-113263095D01*
X347261904Y-113405952D01*
X347833333Y-113977380D01*
X347214285Y-113977380D01*
%TO.C,C3*%
X349966666Y-139707142D02*
X350014285Y-139754761D01*
X350157142Y-139802380D01*
X350252380Y-139802380D01*
X350395238Y-139754761D01*
X350490476Y-139659523D01*
X350538095Y-139564285D01*
X350585714Y-139373809D01*
X350585714Y-139230952D01*
X350538095Y-139040476D01*
X350490476Y-138945238D01*
X350395238Y-138850000D01*
X350252380Y-138802380D01*
X350157142Y-138802380D01*
X350014285Y-138850000D01*
X349966666Y-138897619D01*
X349633333Y-138802380D02*
X349014285Y-138802380D01*
X349347619Y-139183333D01*
X349204761Y-139183333D01*
X349109523Y-139230952D01*
X349061904Y-139278571D01*
X349014285Y-139373809D01*
X349014285Y-139611904D01*
X349061904Y-139707142D01*
X349109523Y-139754761D01*
X349204761Y-139802380D01*
X349490476Y-139802380D01*
X349585714Y-139754761D01*
X349633333Y-139707142D01*
%TO.C,C4*%
X354697142Y-123698333D02*
X354744761Y-123650714D01*
X354792380Y-123507857D01*
X354792380Y-123412619D01*
X354744761Y-123269761D01*
X354649523Y-123174523D01*
X354554285Y-123126904D01*
X354363809Y-123079285D01*
X354220952Y-123079285D01*
X354030476Y-123126904D01*
X353935238Y-123174523D01*
X353840000Y-123269761D01*
X353792380Y-123412619D01*
X353792380Y-123507857D01*
X353840000Y-123650714D01*
X353887619Y-123698333D01*
X354125714Y-124555476D02*
X354792380Y-124555476D01*
X353744761Y-124317380D02*
X354459047Y-124079285D01*
X354459047Y-124698333D01*
%TO.C,C5*%
X336307142Y-124908333D02*
X336354761Y-124860714D01*
X336402380Y-124717857D01*
X336402380Y-124622619D01*
X336354761Y-124479761D01*
X336259523Y-124384523D01*
X336164285Y-124336904D01*
X335973809Y-124289285D01*
X335830952Y-124289285D01*
X335640476Y-124336904D01*
X335545238Y-124384523D01*
X335450000Y-124479761D01*
X335402380Y-124622619D01*
X335402380Y-124717857D01*
X335450000Y-124860714D01*
X335497619Y-124908333D01*
X335402380Y-125813095D02*
X335402380Y-125336904D01*
X335878571Y-125289285D01*
X335830952Y-125336904D01*
X335783333Y-125432142D01*
X335783333Y-125670238D01*
X335830952Y-125765476D01*
X335878571Y-125813095D01*
X335973809Y-125860714D01*
X336211904Y-125860714D01*
X336307142Y-125813095D01*
X336354761Y-125765476D01*
X336402380Y-125670238D01*
X336402380Y-125432142D01*
X336354761Y-125336904D01*
X336307142Y-125289285D01*
%TO.C,C6*%
X336507142Y-115858333D02*
X336554761Y-115810714D01*
X336602380Y-115667857D01*
X336602380Y-115572619D01*
X336554761Y-115429761D01*
X336459523Y-115334523D01*
X336364285Y-115286904D01*
X336173809Y-115239285D01*
X336030952Y-115239285D01*
X335840476Y-115286904D01*
X335745238Y-115334523D01*
X335650000Y-115429761D01*
X335602380Y-115572619D01*
X335602380Y-115667857D01*
X335650000Y-115810714D01*
X335697619Y-115858333D01*
X335602380Y-116715476D02*
X335602380Y-116525000D01*
X335650000Y-116429761D01*
X335697619Y-116382142D01*
X335840476Y-116286904D01*
X336030952Y-116239285D01*
X336411904Y-116239285D01*
X336507142Y-116286904D01*
X336554761Y-116334523D01*
X336602380Y-116429761D01*
X336602380Y-116620238D01*
X336554761Y-116715476D01*
X336507142Y-116763095D01*
X336411904Y-116810714D01*
X336173809Y-116810714D01*
X336078571Y-116763095D01*
X336030952Y-116715476D01*
X335983333Y-116620238D01*
X335983333Y-116429761D01*
X336030952Y-116334523D01*
X336078571Y-116286904D01*
X336173809Y-116239285D01*
%TO.C,C7*%
X333007142Y-132958333D02*
X333054761Y-132910714D01*
X333102380Y-132767857D01*
X333102380Y-132672619D01*
X333054761Y-132529761D01*
X332959523Y-132434523D01*
X332864285Y-132386904D01*
X332673809Y-132339285D01*
X332530952Y-132339285D01*
X332340476Y-132386904D01*
X332245238Y-132434523D01*
X332150000Y-132529761D01*
X332102380Y-132672619D01*
X332102380Y-132767857D01*
X332150000Y-132910714D01*
X332197619Y-132958333D01*
X332102380Y-133291666D02*
X332102380Y-133958333D01*
X333102380Y-133529761D01*
%TO.C,C8*%
X336307142Y-128908333D02*
X336354761Y-128860714D01*
X336402380Y-128717857D01*
X336402380Y-128622619D01*
X336354761Y-128479761D01*
X336259523Y-128384523D01*
X336164285Y-128336904D01*
X335973809Y-128289285D01*
X335830952Y-128289285D01*
X335640476Y-128336904D01*
X335545238Y-128384523D01*
X335450000Y-128479761D01*
X335402380Y-128622619D01*
X335402380Y-128717857D01*
X335450000Y-128860714D01*
X335497619Y-128908333D01*
X335830952Y-129479761D02*
X335783333Y-129384523D01*
X335735714Y-129336904D01*
X335640476Y-129289285D01*
X335592857Y-129289285D01*
X335497619Y-129336904D01*
X335450000Y-129384523D01*
X335402380Y-129479761D01*
X335402380Y-129670238D01*
X335450000Y-129765476D01*
X335497619Y-129813095D01*
X335592857Y-129860714D01*
X335640476Y-129860714D01*
X335735714Y-129813095D01*
X335783333Y-129765476D01*
X335830952Y-129670238D01*
X335830952Y-129479761D01*
X335878571Y-129384523D01*
X335926190Y-129336904D01*
X336021428Y-129289285D01*
X336211904Y-129289285D01*
X336307142Y-129336904D01*
X336354761Y-129384523D01*
X336402380Y-129479761D01*
X336402380Y-129670238D01*
X336354761Y-129765476D01*
X336307142Y-129813095D01*
X336211904Y-129860714D01*
X336021428Y-129860714D01*
X335926190Y-129813095D01*
X335878571Y-129765476D01*
X335830952Y-129670238D01*
%TO.C,D1*%
X55474540Y-83106671D02*
X55474540Y-82306671D01*
X55284064Y-82306671D01*
X55169778Y-82344767D01*
X55093587Y-82420957D01*
X55055492Y-82497147D01*
X55017397Y-82649528D01*
X55017397Y-82763814D01*
X55055492Y-82916195D01*
X55093587Y-82992386D01*
X55169778Y-83068576D01*
X55284064Y-83106671D01*
X55474540Y-83106671D01*
X54255492Y-83106671D02*
X54712635Y-83106671D01*
X54484064Y-83106671D02*
X54484064Y-82306671D01*
X54560254Y-82420957D01*
X54636444Y-82497147D01*
X54712635Y-82535243D01*
%TO.C,D6*%
X74523770Y-83106671D02*
X74523770Y-82306671D01*
X74333294Y-82306671D01*
X74219008Y-82344767D01*
X74142817Y-82420957D01*
X74104722Y-82497147D01*
X74066627Y-82649528D01*
X74066627Y-82763814D01*
X74104722Y-82916195D01*
X74142817Y-82992386D01*
X74219008Y-83068576D01*
X74333294Y-83106671D01*
X74523770Y-83106671D01*
X73380913Y-82306671D02*
X73533294Y-82306671D01*
X73609484Y-82344767D01*
X73647579Y-82382862D01*
X73723770Y-82497147D01*
X73761865Y-82649528D01*
X73761865Y-82954290D01*
X73723770Y-83030481D01*
X73685674Y-83068576D01*
X73609484Y-83106671D01*
X73457103Y-83106671D01*
X73380913Y-83068576D01*
X73342817Y-83030481D01*
X73304722Y-82954290D01*
X73304722Y-82763814D01*
X73342817Y-82687624D01*
X73380913Y-82649528D01*
X73457103Y-82611433D01*
X73609484Y-82611433D01*
X73685674Y-82649528D01*
X73723770Y-82687624D01*
X73761865Y-82763814D01*
%TO.C,D11*%
X93954022Y-83106671D02*
X93954022Y-82306671D01*
X93763546Y-82306671D01*
X93649260Y-82344767D01*
X93573070Y-82420957D01*
X93534974Y-82497147D01*
X93496879Y-82649528D01*
X93496879Y-82763814D01*
X93534974Y-82916195D01*
X93573070Y-82992386D01*
X93649260Y-83068576D01*
X93763546Y-83106671D01*
X93954022Y-83106671D01*
X92734974Y-83106671D02*
X93192117Y-83106671D01*
X92963546Y-83106671D02*
X92963546Y-82306671D01*
X93039736Y-82420957D01*
X93115927Y-82497147D01*
X93192117Y-82535243D01*
X91973070Y-83106671D02*
X92430213Y-83106671D01*
X92201641Y-83106671D02*
X92201641Y-82306671D01*
X92277832Y-82420957D01*
X92354022Y-82497147D01*
X92430213Y-82535243D01*
%TO.C,D16*%
X113004022Y-83106671D02*
X113004022Y-82306671D01*
X112813546Y-82306671D01*
X112699260Y-82344767D01*
X112623070Y-82420957D01*
X112584974Y-82497147D01*
X112546879Y-82649528D01*
X112546879Y-82763814D01*
X112584974Y-82916195D01*
X112623070Y-82992386D01*
X112699260Y-83068576D01*
X112813546Y-83106671D01*
X113004022Y-83106671D01*
X111784974Y-83106671D02*
X112242117Y-83106671D01*
X112013546Y-83106671D02*
X112013546Y-82306671D01*
X112089736Y-82420957D01*
X112165927Y-82497147D01*
X112242117Y-82535243D01*
X111099260Y-82306671D02*
X111251641Y-82306671D01*
X111327832Y-82344767D01*
X111365927Y-82382862D01*
X111442117Y-82497147D01*
X111480213Y-82649528D01*
X111480213Y-82954290D01*
X111442117Y-83030481D01*
X111404022Y-83068576D01*
X111327832Y-83106671D01*
X111175451Y-83106671D01*
X111099260Y-83068576D01*
X111061165Y-83030481D01*
X111023070Y-82954290D01*
X111023070Y-82763814D01*
X111061165Y-82687624D01*
X111099260Y-82649528D01*
X111175451Y-82611433D01*
X111327832Y-82611433D01*
X111404022Y-82649528D01*
X111442117Y-82687624D01*
X111480213Y-82763814D01*
%TO.C,D21*%
X132054722Y-83106671D02*
X132054722Y-82306671D01*
X131864246Y-82306671D01*
X131749960Y-82344767D01*
X131673770Y-82420957D01*
X131635674Y-82497147D01*
X131597579Y-82649528D01*
X131597579Y-82763814D01*
X131635674Y-82916195D01*
X131673770Y-82992386D01*
X131749960Y-83068576D01*
X131864246Y-83106671D01*
X132054722Y-83106671D01*
X131292817Y-82382862D02*
X131254722Y-82344767D01*
X131178532Y-82306671D01*
X130988055Y-82306671D01*
X130911865Y-82344767D01*
X130873770Y-82382862D01*
X130835674Y-82459052D01*
X130835674Y-82535243D01*
X130873770Y-82649528D01*
X131330913Y-83106671D01*
X130835674Y-83106671D01*
X130073770Y-83106671D02*
X130530913Y-83106671D01*
X130302341Y-83106671D02*
X130302341Y-82306671D01*
X130378532Y-82420957D01*
X130454722Y-82497147D01*
X130530913Y-82535243D01*
%TO.C,D26*%
X151104022Y-83106671D02*
X151104022Y-82306671D01*
X150913546Y-82306671D01*
X150799260Y-82344767D01*
X150723070Y-82420957D01*
X150684974Y-82497147D01*
X150646879Y-82649528D01*
X150646879Y-82763814D01*
X150684974Y-82916195D01*
X150723070Y-82992386D01*
X150799260Y-83068576D01*
X150913546Y-83106671D01*
X151104022Y-83106671D01*
X150342117Y-82382862D02*
X150304022Y-82344767D01*
X150227832Y-82306671D01*
X150037355Y-82306671D01*
X149961165Y-82344767D01*
X149923070Y-82382862D01*
X149884974Y-82459052D01*
X149884974Y-82535243D01*
X149923070Y-82649528D01*
X150380213Y-83106671D01*
X149884974Y-83106671D01*
X149199260Y-82306671D02*
X149351641Y-82306671D01*
X149427832Y-82344767D01*
X149465927Y-82382862D01*
X149542117Y-82497147D01*
X149580213Y-82649528D01*
X149580213Y-82954290D01*
X149542117Y-83030481D01*
X149504022Y-83068576D01*
X149427832Y-83106671D01*
X149275451Y-83106671D01*
X149199260Y-83068576D01*
X149161165Y-83030481D01*
X149123070Y-82954290D01*
X149123070Y-82763814D01*
X149161165Y-82687624D01*
X149199260Y-82649528D01*
X149275451Y-82611433D01*
X149427832Y-82611433D01*
X149504022Y-82649528D01*
X149542117Y-82687624D01*
X149580213Y-82763814D01*
%TO.C,D31*%
X170154322Y-83106671D02*
X170154322Y-82306671D01*
X169963846Y-82306671D01*
X169849560Y-82344767D01*
X169773370Y-82420957D01*
X169735274Y-82497147D01*
X169697179Y-82649528D01*
X169697179Y-82763814D01*
X169735274Y-82916195D01*
X169773370Y-82992386D01*
X169849560Y-83068576D01*
X169963846Y-83106671D01*
X170154322Y-83106671D01*
X169430513Y-82306671D02*
X168935274Y-82306671D01*
X169201941Y-82611433D01*
X169087655Y-82611433D01*
X169011465Y-82649528D01*
X168973370Y-82687624D01*
X168935274Y-82763814D01*
X168935274Y-82954290D01*
X168973370Y-83030481D01*
X169011465Y-83068576D01*
X169087655Y-83106671D01*
X169316227Y-83106671D01*
X169392417Y-83068576D01*
X169430513Y-83030481D01*
X168173370Y-83106671D02*
X168630513Y-83106671D01*
X168401941Y-83106671D02*
X168401941Y-82306671D01*
X168478132Y-82420957D01*
X168554322Y-82497147D01*
X168630513Y-82535243D01*
%TO.C,D36*%
X189205322Y-83106671D02*
X189205322Y-82306671D01*
X189014846Y-82306671D01*
X188900560Y-82344767D01*
X188824370Y-82420957D01*
X188786274Y-82497147D01*
X188748179Y-82649528D01*
X188748179Y-82763814D01*
X188786274Y-82916195D01*
X188824370Y-82992386D01*
X188900560Y-83068576D01*
X189014846Y-83106671D01*
X189205322Y-83106671D01*
X188481513Y-82306671D02*
X187986274Y-82306671D01*
X188252941Y-82611433D01*
X188138655Y-82611433D01*
X188062465Y-82649528D01*
X188024370Y-82687624D01*
X187986274Y-82763814D01*
X187986274Y-82954290D01*
X188024370Y-83030481D01*
X188062465Y-83068576D01*
X188138655Y-83106671D01*
X188367227Y-83106671D01*
X188443417Y-83068576D01*
X188481513Y-83030481D01*
X187300560Y-82306671D02*
X187452941Y-82306671D01*
X187529132Y-82344767D01*
X187567227Y-82382862D01*
X187643417Y-82497147D01*
X187681513Y-82649528D01*
X187681513Y-82954290D01*
X187643417Y-83030481D01*
X187605322Y-83068576D01*
X187529132Y-83106671D01*
X187376751Y-83106671D01*
X187300560Y-83068576D01*
X187262465Y-83030481D01*
X187224370Y-82954290D01*
X187224370Y-82763814D01*
X187262465Y-82687624D01*
X187300560Y-82649528D01*
X187376751Y-82611433D01*
X187529132Y-82611433D01*
X187605322Y-82649528D01*
X187643417Y-82687624D01*
X187681513Y-82763814D01*
%TO.C,D41*%
X208255322Y-83106671D02*
X208255322Y-82306671D01*
X208064846Y-82306671D01*
X207950560Y-82344767D01*
X207874370Y-82420957D01*
X207836274Y-82497147D01*
X207798179Y-82649528D01*
X207798179Y-82763814D01*
X207836274Y-82916195D01*
X207874370Y-82992386D01*
X207950560Y-83068576D01*
X208064846Y-83106671D01*
X208255322Y-83106671D01*
X207112465Y-82573338D02*
X207112465Y-83106671D01*
X207302941Y-82268576D02*
X207493417Y-82840005D01*
X206998179Y-82840005D01*
X206274370Y-83106671D02*
X206731513Y-83106671D01*
X206502941Y-83106671D02*
X206502941Y-82306671D01*
X206579132Y-82420957D01*
X206655322Y-82497147D01*
X206731513Y-82535243D01*
%TO.C,D46*%
X227305322Y-83106671D02*
X227305322Y-82306671D01*
X227114846Y-82306671D01*
X227000560Y-82344767D01*
X226924370Y-82420957D01*
X226886274Y-82497147D01*
X226848179Y-82649528D01*
X226848179Y-82763814D01*
X226886274Y-82916195D01*
X226924370Y-82992386D01*
X227000560Y-83068576D01*
X227114846Y-83106671D01*
X227305322Y-83106671D01*
X226162465Y-82573338D02*
X226162465Y-83106671D01*
X226352941Y-82268576D02*
X226543417Y-82840005D01*
X226048179Y-82840005D01*
X225400560Y-82306671D02*
X225552941Y-82306671D01*
X225629132Y-82344767D01*
X225667227Y-82382862D01*
X225743417Y-82497147D01*
X225781513Y-82649528D01*
X225781513Y-82954290D01*
X225743417Y-83030481D01*
X225705322Y-83068576D01*
X225629132Y-83106671D01*
X225476751Y-83106671D01*
X225400560Y-83068576D01*
X225362465Y-83030481D01*
X225324370Y-82954290D01*
X225324370Y-82763814D01*
X225362465Y-82687624D01*
X225400560Y-82649528D01*
X225476751Y-82611433D01*
X225629132Y-82611433D01*
X225705322Y-82649528D01*
X225743417Y-82687624D01*
X225781513Y-82763814D01*
%TO.C,D51*%
X246355322Y-83106671D02*
X246355322Y-82306671D01*
X246164846Y-82306671D01*
X246050560Y-82344767D01*
X245974370Y-82420957D01*
X245936274Y-82497147D01*
X245898179Y-82649528D01*
X245898179Y-82763814D01*
X245936274Y-82916195D01*
X245974370Y-82992386D01*
X246050560Y-83068576D01*
X246164846Y-83106671D01*
X246355322Y-83106671D01*
X245174370Y-82306671D02*
X245555322Y-82306671D01*
X245593417Y-82687624D01*
X245555322Y-82649528D01*
X245479132Y-82611433D01*
X245288655Y-82611433D01*
X245212465Y-82649528D01*
X245174370Y-82687624D01*
X245136274Y-82763814D01*
X245136274Y-82954290D01*
X245174370Y-83030481D01*
X245212465Y-83068576D01*
X245288655Y-83106671D01*
X245479132Y-83106671D01*
X245555322Y-83068576D01*
X245593417Y-83030481D01*
X244374370Y-83106671D02*
X244831513Y-83106671D01*
X244602941Y-83106671D02*
X244602941Y-82306671D01*
X244679132Y-82420957D01*
X244755322Y-82497147D01*
X244831513Y-82535243D01*
%TO.C,D56*%
X265405322Y-83106671D02*
X265405322Y-82306671D01*
X265214846Y-82306671D01*
X265100560Y-82344767D01*
X265024370Y-82420957D01*
X264986274Y-82497147D01*
X264948179Y-82649528D01*
X264948179Y-82763814D01*
X264986274Y-82916195D01*
X265024370Y-82992386D01*
X265100560Y-83068576D01*
X265214846Y-83106671D01*
X265405322Y-83106671D01*
X264224370Y-82306671D02*
X264605322Y-82306671D01*
X264643417Y-82687624D01*
X264605322Y-82649528D01*
X264529132Y-82611433D01*
X264338655Y-82611433D01*
X264262465Y-82649528D01*
X264224370Y-82687624D01*
X264186274Y-82763814D01*
X264186274Y-82954290D01*
X264224370Y-83030481D01*
X264262465Y-83068576D01*
X264338655Y-83106671D01*
X264529132Y-83106671D01*
X264605322Y-83068576D01*
X264643417Y-83030481D01*
X263500560Y-82306671D02*
X263652941Y-82306671D01*
X263729132Y-82344767D01*
X263767227Y-82382862D01*
X263843417Y-82497147D01*
X263881513Y-82649528D01*
X263881513Y-82954290D01*
X263843417Y-83030481D01*
X263805322Y-83068576D01*
X263729132Y-83106671D01*
X263576751Y-83106671D01*
X263500560Y-83068576D01*
X263462465Y-83030481D01*
X263424370Y-82954290D01*
X263424370Y-82763814D01*
X263462465Y-82687624D01*
X263500560Y-82649528D01*
X263576751Y-82611433D01*
X263729132Y-82611433D01*
X263805322Y-82649528D01*
X263843417Y-82687624D01*
X263881513Y-82763814D01*
%TO.C,D60*%
X284455322Y-83106671D02*
X284455322Y-82306671D01*
X284264846Y-82306671D01*
X284150560Y-82344767D01*
X284074370Y-82420957D01*
X284036274Y-82497147D01*
X283998179Y-82649528D01*
X283998179Y-82763814D01*
X284036274Y-82916195D01*
X284074370Y-82992386D01*
X284150560Y-83068576D01*
X284264846Y-83106671D01*
X284455322Y-83106671D01*
X283312465Y-82306671D02*
X283464846Y-82306671D01*
X283541036Y-82344767D01*
X283579132Y-82382862D01*
X283655322Y-82497147D01*
X283693417Y-82649528D01*
X283693417Y-82954290D01*
X283655322Y-83030481D01*
X283617227Y-83068576D01*
X283541036Y-83106671D01*
X283388655Y-83106671D01*
X283312465Y-83068576D01*
X283274370Y-83030481D01*
X283236274Y-82954290D01*
X283236274Y-82763814D01*
X283274370Y-82687624D01*
X283312465Y-82649528D01*
X283388655Y-82611433D01*
X283541036Y-82611433D01*
X283617227Y-82649528D01*
X283655322Y-82687624D01*
X283693417Y-82763814D01*
X282741036Y-82306671D02*
X282664846Y-82306671D01*
X282588655Y-82344767D01*
X282550560Y-82382862D01*
X282512465Y-82459052D01*
X282474370Y-82611433D01*
X282474370Y-82801909D01*
X282512465Y-82954290D01*
X282550560Y-83030481D01*
X282588655Y-83068576D01*
X282664846Y-83106671D01*
X282741036Y-83106671D01*
X282817227Y-83068576D01*
X282855322Y-83030481D01*
X282893417Y-82954290D01*
X282931513Y-82801909D01*
X282931513Y-82611433D01*
X282893417Y-82459052D01*
X282855322Y-82382862D01*
X282817227Y-82344767D01*
X282741036Y-82306671D01*
%TO.C,D64*%
X313030322Y-83105821D02*
X313030322Y-82305821D01*
X312839846Y-82305821D01*
X312725560Y-82343917D01*
X312649370Y-82420107D01*
X312611274Y-82496297D01*
X312573179Y-82648678D01*
X312573179Y-82762964D01*
X312611274Y-82915345D01*
X312649370Y-82991536D01*
X312725560Y-83067726D01*
X312839846Y-83105821D01*
X313030322Y-83105821D01*
X311887465Y-82305821D02*
X312039846Y-82305821D01*
X312116036Y-82343917D01*
X312154132Y-82382012D01*
X312230322Y-82496297D01*
X312268417Y-82648678D01*
X312268417Y-82953440D01*
X312230322Y-83029631D01*
X312192227Y-83067726D01*
X312116036Y-83105821D01*
X311963655Y-83105821D01*
X311887465Y-83067726D01*
X311849370Y-83029631D01*
X311811274Y-82953440D01*
X311811274Y-82762964D01*
X311849370Y-82686774D01*
X311887465Y-82648678D01*
X311963655Y-82610583D01*
X312116036Y-82610583D01*
X312192227Y-82648678D01*
X312230322Y-82686774D01*
X312268417Y-82762964D01*
X311125560Y-82572488D02*
X311125560Y-83105821D01*
X311316036Y-82267726D02*
X311506513Y-82839155D01*
X311011274Y-82839155D01*
%TO.C,D68*%
X346367322Y-83106671D02*
X346367322Y-82306671D01*
X346176846Y-82306671D01*
X346062560Y-82344767D01*
X345986370Y-82420957D01*
X345948274Y-82497147D01*
X345910179Y-82649528D01*
X345910179Y-82763814D01*
X345948274Y-82916195D01*
X345986370Y-82992386D01*
X346062560Y-83068576D01*
X346176846Y-83106671D01*
X346367322Y-83106671D01*
X345224465Y-82306671D02*
X345376846Y-82306671D01*
X345453036Y-82344767D01*
X345491132Y-82382862D01*
X345567322Y-82497147D01*
X345605417Y-82649528D01*
X345605417Y-82954290D01*
X345567322Y-83030481D01*
X345529227Y-83068576D01*
X345453036Y-83106671D01*
X345300655Y-83106671D01*
X345224465Y-83068576D01*
X345186370Y-83030481D01*
X345148274Y-82954290D01*
X345148274Y-82763814D01*
X345186370Y-82687624D01*
X345224465Y-82649528D01*
X345300655Y-82611433D01*
X345453036Y-82611433D01*
X345529227Y-82649528D01*
X345567322Y-82687624D01*
X345605417Y-82763814D01*
X344691132Y-82649528D02*
X344767322Y-82611433D01*
X344805417Y-82573338D01*
X344843513Y-82497147D01*
X344843513Y-82459052D01*
X344805417Y-82382862D01*
X344767322Y-82344767D01*
X344691132Y-82306671D01*
X344538751Y-82306671D01*
X344462560Y-82344767D01*
X344424465Y-82382862D01*
X344386370Y-82459052D01*
X344386370Y-82497147D01*
X344424465Y-82573338D01*
X344462560Y-82611433D01*
X344538751Y-82649528D01*
X344691132Y-82649528D01*
X344767322Y-82687624D01*
X344805417Y-82725719D01*
X344843513Y-82801909D01*
X344843513Y-82954290D01*
X344805417Y-83030481D01*
X344767322Y-83068576D01*
X344691132Y-83106671D01*
X344538751Y-83106671D01*
X344462560Y-83068576D01*
X344424465Y-83030481D01*
X344386370Y-82954290D01*
X344386370Y-82801909D01*
X344424465Y-82725719D01*
X344462560Y-82687624D01*
X344538751Y-82649528D01*
%TO.C,D66*%
X365417322Y-83106671D02*
X365417322Y-82306671D01*
X365226846Y-82306671D01*
X365112560Y-82344767D01*
X365036370Y-82420957D01*
X364998274Y-82497147D01*
X364960179Y-82649528D01*
X364960179Y-82763814D01*
X364998274Y-82916195D01*
X365036370Y-82992386D01*
X365112560Y-83068576D01*
X365226846Y-83106671D01*
X365417322Y-83106671D01*
X364274465Y-82306671D02*
X364426846Y-82306671D01*
X364503036Y-82344767D01*
X364541132Y-82382862D01*
X364617322Y-82497147D01*
X364655417Y-82649528D01*
X364655417Y-82954290D01*
X364617322Y-83030481D01*
X364579227Y-83068576D01*
X364503036Y-83106671D01*
X364350655Y-83106671D01*
X364274465Y-83068576D01*
X364236370Y-83030481D01*
X364198274Y-82954290D01*
X364198274Y-82763814D01*
X364236370Y-82687624D01*
X364274465Y-82649528D01*
X364350655Y-82611433D01*
X364503036Y-82611433D01*
X364579227Y-82649528D01*
X364617322Y-82687624D01*
X364655417Y-82763814D01*
X363512560Y-82306671D02*
X363664941Y-82306671D01*
X363741132Y-82344767D01*
X363779227Y-82382862D01*
X363855417Y-82497147D01*
X363893513Y-82649528D01*
X363893513Y-82954290D01*
X363855417Y-83030481D01*
X363817322Y-83068576D01*
X363741132Y-83106671D01*
X363588751Y-83106671D01*
X363512560Y-83068576D01*
X363474465Y-83030481D01*
X363436370Y-82954290D01*
X363436370Y-82763814D01*
X363474465Y-82687624D01*
X363512560Y-82649528D01*
X363588751Y-82611433D01*
X363741132Y-82611433D01*
X363817322Y-82649528D01*
X363855417Y-82687624D01*
X363893513Y-82763814D01*
%TO.C,D70*%
X384467322Y-83106671D02*
X384467322Y-82306671D01*
X384276846Y-82306671D01*
X384162560Y-82344767D01*
X384086370Y-82420957D01*
X384048274Y-82497147D01*
X384010179Y-82649528D01*
X384010179Y-82763814D01*
X384048274Y-82916195D01*
X384086370Y-82992386D01*
X384162560Y-83068576D01*
X384276846Y-83106671D01*
X384467322Y-83106671D01*
X383743513Y-82306671D02*
X383210179Y-82306671D01*
X383553036Y-83106671D01*
X382753036Y-82306671D02*
X382676846Y-82306671D01*
X382600655Y-82344767D01*
X382562560Y-82382862D01*
X382524465Y-82459052D01*
X382486370Y-82611433D01*
X382486370Y-82801909D01*
X382524465Y-82954290D01*
X382562560Y-83030481D01*
X382600655Y-83068576D01*
X382676846Y-83106671D01*
X382753036Y-83106671D01*
X382829227Y-83068576D01*
X382867322Y-83030481D01*
X382905417Y-82954290D01*
X382943513Y-82801909D01*
X382943513Y-82611433D01*
X382905417Y-82459052D01*
X382867322Y-82382862D01*
X382829227Y-82344767D01*
X382753036Y-82306671D01*
%TO.C,D2*%
X60236355Y-102155971D02*
X60236355Y-101355971D01*
X60045879Y-101355971D01*
X59931593Y-101394067D01*
X59855402Y-101470257D01*
X59817307Y-101546447D01*
X59779212Y-101698828D01*
X59779212Y-101813114D01*
X59817307Y-101965495D01*
X59855402Y-102041686D01*
X59931593Y-102117876D01*
X60045879Y-102155971D01*
X60236355Y-102155971D01*
X59474450Y-101432162D02*
X59436355Y-101394067D01*
X59360164Y-101355971D01*
X59169688Y-101355971D01*
X59093498Y-101394067D01*
X59055402Y-101432162D01*
X59017307Y-101508352D01*
X59017307Y-101584543D01*
X59055402Y-101698828D01*
X59512545Y-102155971D01*
X59017307Y-102155971D01*
%TO.C,D7*%
X84049470Y-102155971D02*
X84049470Y-101355971D01*
X83858994Y-101355971D01*
X83744708Y-101394067D01*
X83668517Y-101470257D01*
X83630422Y-101546447D01*
X83592327Y-101698828D01*
X83592327Y-101813114D01*
X83630422Y-101965495D01*
X83668517Y-102041686D01*
X83744708Y-102117876D01*
X83858994Y-102155971D01*
X84049470Y-102155971D01*
X83325660Y-101355971D02*
X82792327Y-101355971D01*
X83135184Y-102155971D01*
%TO.C,D12*%
X103480422Y-102155971D02*
X103480422Y-101355971D01*
X103289946Y-101355971D01*
X103175660Y-101394067D01*
X103099470Y-101470257D01*
X103061374Y-101546447D01*
X103023279Y-101698828D01*
X103023279Y-101813114D01*
X103061374Y-101965495D01*
X103099470Y-102041686D01*
X103175660Y-102117876D01*
X103289946Y-102155971D01*
X103480422Y-102155971D01*
X102261374Y-102155971D02*
X102718517Y-102155971D01*
X102489946Y-102155971D02*
X102489946Y-101355971D01*
X102566136Y-101470257D01*
X102642327Y-101546447D01*
X102718517Y-101584543D01*
X101956613Y-101432162D02*
X101918517Y-101394067D01*
X101842327Y-101355971D01*
X101651851Y-101355971D01*
X101575660Y-101394067D01*
X101537565Y-101432162D01*
X101499470Y-101508352D01*
X101499470Y-101584543D01*
X101537565Y-101698828D01*
X101994708Y-102155971D01*
X101499470Y-102155971D01*
%TO.C,D17*%
X122529722Y-102155971D02*
X122529722Y-101355971D01*
X122339246Y-101355971D01*
X122224960Y-101394067D01*
X122148770Y-101470257D01*
X122110674Y-101546447D01*
X122072579Y-101698828D01*
X122072579Y-101813114D01*
X122110674Y-101965495D01*
X122148770Y-102041686D01*
X122224960Y-102117876D01*
X122339246Y-102155971D01*
X122529722Y-102155971D01*
X121310674Y-102155971D02*
X121767817Y-102155971D01*
X121539246Y-102155971D02*
X121539246Y-101355971D01*
X121615436Y-101470257D01*
X121691627Y-101546447D01*
X121767817Y-101584543D01*
X121044008Y-101355971D02*
X120510674Y-101355971D01*
X120853532Y-102155971D01*
%TO.C,D22*%
X141579522Y-102155971D02*
X141579522Y-101355971D01*
X141389046Y-101355971D01*
X141274760Y-101394067D01*
X141198570Y-101470257D01*
X141160474Y-101546447D01*
X141122379Y-101698828D01*
X141122379Y-101813114D01*
X141160474Y-101965495D01*
X141198570Y-102041686D01*
X141274760Y-102117876D01*
X141389046Y-102155971D01*
X141579522Y-102155971D01*
X140817617Y-101432162D02*
X140779522Y-101394067D01*
X140703332Y-101355971D01*
X140512855Y-101355971D01*
X140436665Y-101394067D01*
X140398570Y-101432162D01*
X140360474Y-101508352D01*
X140360474Y-101584543D01*
X140398570Y-101698828D01*
X140855713Y-102155971D01*
X140360474Y-102155971D01*
X140055713Y-101432162D02*
X140017617Y-101394067D01*
X139941427Y-101355971D01*
X139750951Y-101355971D01*
X139674760Y-101394067D01*
X139636665Y-101432162D01*
X139598570Y-101508352D01*
X139598570Y-101584543D01*
X139636665Y-101698828D01*
X140093808Y-102155971D01*
X139598570Y-102155971D01*
%TO.C,D27*%
X160629322Y-102155971D02*
X160629322Y-101355971D01*
X160438846Y-101355971D01*
X160324560Y-101394067D01*
X160248370Y-101470257D01*
X160210274Y-101546447D01*
X160172179Y-101698828D01*
X160172179Y-101813114D01*
X160210274Y-101965495D01*
X160248370Y-102041686D01*
X160324560Y-102117876D01*
X160438846Y-102155971D01*
X160629322Y-102155971D01*
X159867417Y-101432162D02*
X159829322Y-101394067D01*
X159753132Y-101355971D01*
X159562655Y-101355971D01*
X159486465Y-101394067D01*
X159448370Y-101432162D01*
X159410274Y-101508352D01*
X159410274Y-101584543D01*
X159448370Y-101698828D01*
X159905513Y-102155971D01*
X159410274Y-102155971D01*
X159143608Y-101355971D02*
X158610274Y-101355971D01*
X158953132Y-102155971D01*
%TO.C,D32*%
X179679322Y-102155971D02*
X179679322Y-101355971D01*
X179488846Y-101355971D01*
X179374560Y-101394067D01*
X179298370Y-101470257D01*
X179260274Y-101546447D01*
X179222179Y-101698828D01*
X179222179Y-101813114D01*
X179260274Y-101965495D01*
X179298370Y-102041686D01*
X179374560Y-102117876D01*
X179488846Y-102155971D01*
X179679322Y-102155971D01*
X178955513Y-101355971D02*
X178460274Y-101355971D01*
X178726941Y-101660733D01*
X178612655Y-101660733D01*
X178536465Y-101698828D01*
X178498370Y-101736924D01*
X178460274Y-101813114D01*
X178460274Y-102003590D01*
X178498370Y-102079781D01*
X178536465Y-102117876D01*
X178612655Y-102155971D01*
X178841227Y-102155971D01*
X178917417Y-102117876D01*
X178955513Y-102079781D01*
X178155513Y-101432162D02*
X178117417Y-101394067D01*
X178041227Y-101355971D01*
X177850751Y-101355971D01*
X177774560Y-101394067D01*
X177736465Y-101432162D01*
X177698370Y-101508352D01*
X177698370Y-101584543D01*
X177736465Y-101698828D01*
X178193608Y-102155971D01*
X177698370Y-102155971D01*
%TO.C,D37*%
X198730322Y-102155971D02*
X198730322Y-101355971D01*
X198539846Y-101355971D01*
X198425560Y-101394067D01*
X198349370Y-101470257D01*
X198311274Y-101546447D01*
X198273179Y-101698828D01*
X198273179Y-101813114D01*
X198311274Y-101965495D01*
X198349370Y-102041686D01*
X198425560Y-102117876D01*
X198539846Y-102155971D01*
X198730322Y-102155971D01*
X198006513Y-101355971D02*
X197511274Y-101355971D01*
X197777941Y-101660733D01*
X197663655Y-101660733D01*
X197587465Y-101698828D01*
X197549370Y-101736924D01*
X197511274Y-101813114D01*
X197511274Y-102003590D01*
X197549370Y-102079781D01*
X197587465Y-102117876D01*
X197663655Y-102155971D01*
X197892227Y-102155971D01*
X197968417Y-102117876D01*
X198006513Y-102079781D01*
X197244608Y-101355971D02*
X196711274Y-101355971D01*
X197054132Y-102155971D01*
%TO.C,D42*%
X217780322Y-102155971D02*
X217780322Y-101355971D01*
X217589846Y-101355971D01*
X217475560Y-101394067D01*
X217399370Y-101470257D01*
X217361274Y-101546447D01*
X217323179Y-101698828D01*
X217323179Y-101813114D01*
X217361274Y-101965495D01*
X217399370Y-102041686D01*
X217475560Y-102117876D01*
X217589846Y-102155971D01*
X217780322Y-102155971D01*
X216637465Y-101622638D02*
X216637465Y-102155971D01*
X216827941Y-101317876D02*
X217018417Y-101889305D01*
X216523179Y-101889305D01*
X216256513Y-101432162D02*
X216218417Y-101394067D01*
X216142227Y-101355971D01*
X215951751Y-101355971D01*
X215875560Y-101394067D01*
X215837465Y-101432162D01*
X215799370Y-101508352D01*
X215799370Y-101584543D01*
X215837465Y-101698828D01*
X216294608Y-102155971D01*
X215799370Y-102155971D01*
%TO.C,D47*%
X236830322Y-102155971D02*
X236830322Y-101355971D01*
X236639846Y-101355971D01*
X236525560Y-101394067D01*
X236449370Y-101470257D01*
X236411274Y-101546447D01*
X236373179Y-101698828D01*
X236373179Y-101813114D01*
X236411274Y-101965495D01*
X236449370Y-102041686D01*
X236525560Y-102117876D01*
X236639846Y-102155971D01*
X236830322Y-102155971D01*
X235687465Y-101622638D02*
X235687465Y-102155971D01*
X235877941Y-101317876D02*
X236068417Y-101889305D01*
X235573179Y-101889305D01*
X235344608Y-101355971D02*
X234811274Y-101355971D01*
X235154132Y-102155971D01*
%TO.C,D52*%
X255880322Y-102155971D02*
X255880322Y-101355971D01*
X255689846Y-101355971D01*
X255575560Y-101394067D01*
X255499370Y-101470257D01*
X255461274Y-101546447D01*
X255423179Y-101698828D01*
X255423179Y-101813114D01*
X255461274Y-101965495D01*
X255499370Y-102041686D01*
X255575560Y-102117876D01*
X255689846Y-102155971D01*
X255880322Y-102155971D01*
X254699370Y-101355971D02*
X255080322Y-101355971D01*
X255118417Y-101736924D01*
X255080322Y-101698828D01*
X255004132Y-101660733D01*
X254813655Y-101660733D01*
X254737465Y-101698828D01*
X254699370Y-101736924D01*
X254661274Y-101813114D01*
X254661274Y-102003590D01*
X254699370Y-102079781D01*
X254737465Y-102117876D01*
X254813655Y-102155971D01*
X255004132Y-102155971D01*
X255080322Y-102117876D01*
X255118417Y-102079781D01*
X254356513Y-101432162D02*
X254318417Y-101394067D01*
X254242227Y-101355971D01*
X254051751Y-101355971D01*
X253975560Y-101394067D01*
X253937465Y-101432162D01*
X253899370Y-101508352D01*
X253899370Y-101584543D01*
X253937465Y-101698828D01*
X254394608Y-102155971D01*
X253899370Y-102155971D01*
%TO.C,D57*%
X274930322Y-102155971D02*
X274930322Y-101355971D01*
X274739846Y-101355971D01*
X274625560Y-101394067D01*
X274549370Y-101470257D01*
X274511274Y-101546447D01*
X274473179Y-101698828D01*
X274473179Y-101813114D01*
X274511274Y-101965495D01*
X274549370Y-102041686D01*
X274625560Y-102117876D01*
X274739846Y-102155971D01*
X274930322Y-102155971D01*
X273749370Y-101355971D02*
X274130322Y-101355971D01*
X274168417Y-101736924D01*
X274130322Y-101698828D01*
X274054132Y-101660733D01*
X273863655Y-101660733D01*
X273787465Y-101698828D01*
X273749370Y-101736924D01*
X273711274Y-101813114D01*
X273711274Y-102003590D01*
X273749370Y-102079781D01*
X273787465Y-102117876D01*
X273863655Y-102155971D01*
X274054132Y-102155971D01*
X274130322Y-102117876D01*
X274168417Y-102079781D01*
X273444608Y-101355971D02*
X272911274Y-101355971D01*
X273254132Y-102155971D01*
%TO.C,D61*%
X293979822Y-102155971D02*
X293979822Y-101355971D01*
X293789346Y-101355971D01*
X293675060Y-101394067D01*
X293598870Y-101470257D01*
X293560774Y-101546447D01*
X293522679Y-101698828D01*
X293522679Y-101813114D01*
X293560774Y-101965495D01*
X293598870Y-102041686D01*
X293675060Y-102117876D01*
X293789346Y-102155971D01*
X293979822Y-102155971D01*
X292836965Y-101355971D02*
X292989346Y-101355971D01*
X293065536Y-101394067D01*
X293103632Y-101432162D01*
X293179822Y-101546447D01*
X293217917Y-101698828D01*
X293217917Y-102003590D01*
X293179822Y-102079781D01*
X293141727Y-102117876D01*
X293065536Y-102155971D01*
X292913155Y-102155971D01*
X292836965Y-102117876D01*
X292798870Y-102079781D01*
X292760774Y-102003590D01*
X292760774Y-101813114D01*
X292798870Y-101736924D01*
X292836965Y-101698828D01*
X292913155Y-101660733D01*
X293065536Y-101660733D01*
X293141727Y-101698828D01*
X293179822Y-101736924D01*
X293217917Y-101813114D01*
X291998870Y-102155971D02*
X292456013Y-102155971D01*
X292227441Y-102155971D02*
X292227441Y-101355971D01*
X292303632Y-101470257D01*
X292379822Y-101546447D01*
X292456013Y-101584543D01*
%TO.C,D65*%
X317792322Y-102155971D02*
X317792322Y-101355971D01*
X317601846Y-101355971D01*
X317487560Y-101394067D01*
X317411370Y-101470257D01*
X317373274Y-101546447D01*
X317335179Y-101698828D01*
X317335179Y-101813114D01*
X317373274Y-101965495D01*
X317411370Y-102041686D01*
X317487560Y-102117876D01*
X317601846Y-102155971D01*
X317792322Y-102155971D01*
X316649465Y-101355971D02*
X316801846Y-101355971D01*
X316878036Y-101394067D01*
X316916132Y-101432162D01*
X316992322Y-101546447D01*
X317030417Y-101698828D01*
X317030417Y-102003590D01*
X316992322Y-102079781D01*
X316954227Y-102117876D01*
X316878036Y-102155971D01*
X316725655Y-102155971D01*
X316649465Y-102117876D01*
X316611370Y-102079781D01*
X316573274Y-102003590D01*
X316573274Y-101813114D01*
X316611370Y-101736924D01*
X316649465Y-101698828D01*
X316725655Y-101660733D01*
X316878036Y-101660733D01*
X316954227Y-101698828D01*
X316992322Y-101736924D01*
X317030417Y-101813114D01*
X315849465Y-101355971D02*
X316230417Y-101355971D01*
X316268513Y-101736924D01*
X316230417Y-101698828D01*
X316154227Y-101660733D01*
X315963751Y-101660733D01*
X315887560Y-101698828D01*
X315849465Y-101736924D01*
X315811370Y-101813114D01*
X315811370Y-102003590D01*
X315849465Y-102079781D01*
X315887560Y-102117876D01*
X315963751Y-102155971D01*
X316154227Y-102155971D01*
X316230417Y-102117876D01*
X316268513Y-102079781D01*
%TO.C,D69*%
X346367322Y-102155971D02*
X346367322Y-101355971D01*
X346176846Y-101355971D01*
X346062560Y-101394067D01*
X345986370Y-101470257D01*
X345948274Y-101546447D01*
X345910179Y-101698828D01*
X345910179Y-101813114D01*
X345948274Y-101965495D01*
X345986370Y-102041686D01*
X346062560Y-102117876D01*
X346176846Y-102155971D01*
X346367322Y-102155971D01*
X345224465Y-101355971D02*
X345376846Y-101355971D01*
X345453036Y-101394067D01*
X345491132Y-101432162D01*
X345567322Y-101546447D01*
X345605417Y-101698828D01*
X345605417Y-102003590D01*
X345567322Y-102079781D01*
X345529227Y-102117876D01*
X345453036Y-102155971D01*
X345300655Y-102155971D01*
X345224465Y-102117876D01*
X345186370Y-102079781D01*
X345148274Y-102003590D01*
X345148274Y-101813114D01*
X345186370Y-101736924D01*
X345224465Y-101698828D01*
X345300655Y-101660733D01*
X345453036Y-101660733D01*
X345529227Y-101698828D01*
X345567322Y-101736924D01*
X345605417Y-101813114D01*
X344767322Y-102155971D02*
X344614941Y-102155971D01*
X344538751Y-102117876D01*
X344500655Y-102079781D01*
X344424465Y-101965495D01*
X344386370Y-101813114D01*
X344386370Y-101508352D01*
X344424465Y-101432162D01*
X344462560Y-101394067D01*
X344538751Y-101355971D01*
X344691132Y-101355971D01*
X344767322Y-101394067D01*
X344805417Y-101432162D01*
X344843513Y-101508352D01*
X344843513Y-101698828D01*
X344805417Y-101775019D01*
X344767322Y-101813114D01*
X344691132Y-101851209D01*
X344538751Y-101851209D01*
X344462560Y-101813114D01*
X344424465Y-101775019D01*
X344386370Y-101698828D01*
%TO.C,D67*%
X365417322Y-102155971D02*
X365417322Y-101355971D01*
X365226846Y-101355971D01*
X365112560Y-101394067D01*
X365036370Y-101470257D01*
X364998274Y-101546447D01*
X364960179Y-101698828D01*
X364960179Y-101813114D01*
X364998274Y-101965495D01*
X365036370Y-102041686D01*
X365112560Y-102117876D01*
X365226846Y-102155971D01*
X365417322Y-102155971D01*
X364274465Y-101355971D02*
X364426846Y-101355971D01*
X364503036Y-101394067D01*
X364541132Y-101432162D01*
X364617322Y-101546447D01*
X364655417Y-101698828D01*
X364655417Y-102003590D01*
X364617322Y-102079781D01*
X364579227Y-102117876D01*
X364503036Y-102155971D01*
X364350655Y-102155971D01*
X364274465Y-102117876D01*
X364236370Y-102079781D01*
X364198274Y-102003590D01*
X364198274Y-101813114D01*
X364236370Y-101736924D01*
X364274465Y-101698828D01*
X364350655Y-101660733D01*
X364503036Y-101660733D01*
X364579227Y-101698828D01*
X364617322Y-101736924D01*
X364655417Y-101813114D01*
X363931608Y-101355971D02*
X363398274Y-101355971D01*
X363741132Y-102155971D01*
%TO.C,D71*%
X384467322Y-102155971D02*
X384467322Y-101355971D01*
X384276846Y-101355971D01*
X384162560Y-101394067D01*
X384086370Y-101470257D01*
X384048274Y-101546447D01*
X384010179Y-101698828D01*
X384010179Y-101813114D01*
X384048274Y-101965495D01*
X384086370Y-102041686D01*
X384162560Y-102117876D01*
X384276846Y-102155971D01*
X384467322Y-102155971D01*
X383743513Y-101355971D02*
X383210179Y-101355971D01*
X383553036Y-102155971D01*
X382486370Y-102155971D02*
X382943513Y-102155971D01*
X382714941Y-102155971D02*
X382714941Y-101355971D01*
X382791132Y-101470257D01*
X382867322Y-101546447D01*
X382943513Y-101584543D01*
%TO.C,D3*%
X62616930Y-121205221D02*
X62616930Y-120405221D01*
X62426454Y-120405221D01*
X62312168Y-120443317D01*
X62235977Y-120519507D01*
X62197882Y-120595697D01*
X62159787Y-120748078D01*
X62159787Y-120862364D01*
X62197882Y-121014745D01*
X62235977Y-121090936D01*
X62312168Y-121167126D01*
X62426454Y-121205221D01*
X62616930Y-121205221D01*
X61893120Y-120405221D02*
X61397882Y-120405221D01*
X61664549Y-120709983D01*
X61550263Y-120709983D01*
X61474073Y-120748078D01*
X61435977Y-120786174D01*
X61397882Y-120862364D01*
X61397882Y-121052840D01*
X61435977Y-121129031D01*
X61474073Y-121167126D01*
X61550263Y-121205221D01*
X61778834Y-121205221D01*
X61855025Y-121167126D01*
X61893120Y-121129031D01*
%TO.C,D8*%
X88811270Y-121205221D02*
X88811270Y-120405221D01*
X88620794Y-120405221D01*
X88506508Y-120443317D01*
X88430317Y-120519507D01*
X88392222Y-120595697D01*
X88354127Y-120748078D01*
X88354127Y-120862364D01*
X88392222Y-121014745D01*
X88430317Y-121090936D01*
X88506508Y-121167126D01*
X88620794Y-121205221D01*
X88811270Y-121205221D01*
X87896984Y-120748078D02*
X87973174Y-120709983D01*
X88011270Y-120671888D01*
X88049365Y-120595697D01*
X88049365Y-120557602D01*
X88011270Y-120481412D01*
X87973174Y-120443317D01*
X87896984Y-120405221D01*
X87744603Y-120405221D01*
X87668413Y-120443317D01*
X87630317Y-120481412D01*
X87592222Y-120557602D01*
X87592222Y-120595697D01*
X87630317Y-120671888D01*
X87668413Y-120709983D01*
X87744603Y-120748078D01*
X87896984Y-120748078D01*
X87973174Y-120786174D01*
X88011270Y-120824269D01*
X88049365Y-120900459D01*
X88049365Y-121052840D01*
X88011270Y-121129031D01*
X87973174Y-121167126D01*
X87896984Y-121205221D01*
X87744603Y-121205221D01*
X87668413Y-121167126D01*
X87630317Y-121129031D01*
X87592222Y-121052840D01*
X87592222Y-120900459D01*
X87630317Y-120824269D01*
X87668413Y-120786174D01*
X87744603Y-120748078D01*
%TO.C,D13*%
X108242222Y-121205221D02*
X108242222Y-120405221D01*
X108051746Y-120405221D01*
X107937460Y-120443317D01*
X107861270Y-120519507D01*
X107823174Y-120595697D01*
X107785079Y-120748078D01*
X107785079Y-120862364D01*
X107823174Y-121014745D01*
X107861270Y-121090936D01*
X107937460Y-121167126D01*
X108051746Y-121205221D01*
X108242222Y-121205221D01*
X107023174Y-121205221D02*
X107480317Y-121205221D01*
X107251746Y-121205221D02*
X107251746Y-120405221D01*
X107327936Y-120519507D01*
X107404127Y-120595697D01*
X107480317Y-120633793D01*
X106756508Y-120405221D02*
X106261270Y-120405221D01*
X106527936Y-120709983D01*
X106413651Y-120709983D01*
X106337460Y-120748078D01*
X106299365Y-120786174D01*
X106261270Y-120862364D01*
X106261270Y-121052840D01*
X106299365Y-121129031D01*
X106337460Y-121167126D01*
X106413651Y-121205221D01*
X106642222Y-121205221D01*
X106718413Y-121167126D01*
X106756508Y-121129031D01*
%TO.C,D18*%
X127292222Y-121205221D02*
X127292222Y-120405221D01*
X127101746Y-120405221D01*
X126987460Y-120443317D01*
X126911270Y-120519507D01*
X126873174Y-120595697D01*
X126835079Y-120748078D01*
X126835079Y-120862364D01*
X126873174Y-121014745D01*
X126911270Y-121090936D01*
X126987460Y-121167126D01*
X127101746Y-121205221D01*
X127292222Y-121205221D01*
X126073174Y-121205221D02*
X126530317Y-121205221D01*
X126301746Y-121205221D02*
X126301746Y-120405221D01*
X126377936Y-120519507D01*
X126454127Y-120595697D01*
X126530317Y-120633793D01*
X125616032Y-120748078D02*
X125692222Y-120709983D01*
X125730317Y-120671888D01*
X125768413Y-120595697D01*
X125768413Y-120557602D01*
X125730317Y-120481412D01*
X125692222Y-120443317D01*
X125616032Y-120405221D01*
X125463651Y-120405221D01*
X125387460Y-120443317D01*
X125349365Y-120481412D01*
X125311270Y-120557602D01*
X125311270Y-120595697D01*
X125349365Y-120671888D01*
X125387460Y-120709983D01*
X125463651Y-120748078D01*
X125616032Y-120748078D01*
X125692222Y-120786174D01*
X125730317Y-120824269D01*
X125768413Y-120900459D01*
X125768413Y-121052840D01*
X125730317Y-121129031D01*
X125692222Y-121167126D01*
X125616032Y-121205221D01*
X125463651Y-121205221D01*
X125387460Y-121167126D01*
X125349365Y-121129031D01*
X125311270Y-121052840D01*
X125311270Y-120900459D01*
X125349365Y-120824269D01*
X125387460Y-120786174D01*
X125463651Y-120748078D01*
%TO.C,D23*%
X146342272Y-121205221D02*
X146342272Y-120405221D01*
X146151796Y-120405221D01*
X146037510Y-120443317D01*
X145961320Y-120519507D01*
X145923224Y-120595697D01*
X145885129Y-120748078D01*
X145885129Y-120862364D01*
X145923224Y-121014745D01*
X145961320Y-121090936D01*
X146037510Y-121167126D01*
X146151796Y-121205221D01*
X146342272Y-121205221D01*
X145580367Y-120481412D02*
X145542272Y-120443317D01*
X145466082Y-120405221D01*
X145275605Y-120405221D01*
X145199415Y-120443317D01*
X145161320Y-120481412D01*
X145123224Y-120557602D01*
X145123224Y-120633793D01*
X145161320Y-120748078D01*
X145618463Y-121205221D01*
X145123224Y-121205221D01*
X144856558Y-120405221D02*
X144361320Y-120405221D01*
X144627986Y-120709983D01*
X144513701Y-120709983D01*
X144437510Y-120748078D01*
X144399415Y-120786174D01*
X144361320Y-120862364D01*
X144361320Y-121052840D01*
X144399415Y-121129031D01*
X144437510Y-121167126D01*
X144513701Y-121205221D01*
X144742272Y-121205221D01*
X144818463Y-121167126D01*
X144856558Y-121129031D01*
%TO.C,D28*%
X165392322Y-121205221D02*
X165392322Y-120405221D01*
X165201846Y-120405221D01*
X165087560Y-120443317D01*
X165011370Y-120519507D01*
X164973274Y-120595697D01*
X164935179Y-120748078D01*
X164935179Y-120862364D01*
X164973274Y-121014745D01*
X165011370Y-121090936D01*
X165087560Y-121167126D01*
X165201846Y-121205221D01*
X165392322Y-121205221D01*
X164630417Y-120481412D02*
X164592322Y-120443317D01*
X164516132Y-120405221D01*
X164325655Y-120405221D01*
X164249465Y-120443317D01*
X164211370Y-120481412D01*
X164173274Y-120557602D01*
X164173274Y-120633793D01*
X164211370Y-120748078D01*
X164668513Y-121205221D01*
X164173274Y-121205221D01*
X163716132Y-120748078D02*
X163792322Y-120709983D01*
X163830417Y-120671888D01*
X163868513Y-120595697D01*
X163868513Y-120557602D01*
X163830417Y-120481412D01*
X163792322Y-120443317D01*
X163716132Y-120405221D01*
X163563751Y-120405221D01*
X163487560Y-120443317D01*
X163449465Y-120481412D01*
X163411370Y-120557602D01*
X163411370Y-120595697D01*
X163449465Y-120671888D01*
X163487560Y-120709983D01*
X163563751Y-120748078D01*
X163716132Y-120748078D01*
X163792322Y-120786174D01*
X163830417Y-120824269D01*
X163868513Y-120900459D01*
X163868513Y-121052840D01*
X163830417Y-121129031D01*
X163792322Y-121167126D01*
X163716132Y-121205221D01*
X163563751Y-121205221D01*
X163487560Y-121167126D01*
X163449465Y-121129031D01*
X163411370Y-121052840D01*
X163411370Y-120900459D01*
X163449465Y-120824269D01*
X163487560Y-120786174D01*
X163563751Y-120748078D01*
%TO.C,D33*%
X184442322Y-121205221D02*
X184442322Y-120405221D01*
X184251846Y-120405221D01*
X184137560Y-120443317D01*
X184061370Y-120519507D01*
X184023274Y-120595697D01*
X183985179Y-120748078D01*
X183985179Y-120862364D01*
X184023274Y-121014745D01*
X184061370Y-121090936D01*
X184137560Y-121167126D01*
X184251846Y-121205221D01*
X184442322Y-121205221D01*
X183718513Y-120405221D02*
X183223274Y-120405221D01*
X183489941Y-120709983D01*
X183375655Y-120709983D01*
X183299465Y-120748078D01*
X183261370Y-120786174D01*
X183223274Y-120862364D01*
X183223274Y-121052840D01*
X183261370Y-121129031D01*
X183299465Y-121167126D01*
X183375655Y-121205221D01*
X183604227Y-121205221D01*
X183680417Y-121167126D01*
X183718513Y-121129031D01*
X182956608Y-120405221D02*
X182461370Y-120405221D01*
X182728036Y-120709983D01*
X182613751Y-120709983D01*
X182537560Y-120748078D01*
X182499465Y-120786174D01*
X182461370Y-120862364D01*
X182461370Y-121052840D01*
X182499465Y-121129031D01*
X182537560Y-121167126D01*
X182613751Y-121205221D01*
X182842322Y-121205221D01*
X182918513Y-121167126D01*
X182956608Y-121129031D01*
%TO.C,D38*%
X203492322Y-121205221D02*
X203492322Y-120405221D01*
X203301846Y-120405221D01*
X203187560Y-120443317D01*
X203111370Y-120519507D01*
X203073274Y-120595697D01*
X203035179Y-120748078D01*
X203035179Y-120862364D01*
X203073274Y-121014745D01*
X203111370Y-121090936D01*
X203187560Y-121167126D01*
X203301846Y-121205221D01*
X203492322Y-121205221D01*
X202768513Y-120405221D02*
X202273274Y-120405221D01*
X202539941Y-120709983D01*
X202425655Y-120709983D01*
X202349465Y-120748078D01*
X202311370Y-120786174D01*
X202273274Y-120862364D01*
X202273274Y-121052840D01*
X202311370Y-121129031D01*
X202349465Y-121167126D01*
X202425655Y-121205221D01*
X202654227Y-121205221D01*
X202730417Y-121167126D01*
X202768513Y-121129031D01*
X201816132Y-120748078D02*
X201892322Y-120709983D01*
X201930417Y-120671888D01*
X201968513Y-120595697D01*
X201968513Y-120557602D01*
X201930417Y-120481412D01*
X201892322Y-120443317D01*
X201816132Y-120405221D01*
X201663751Y-120405221D01*
X201587560Y-120443317D01*
X201549465Y-120481412D01*
X201511370Y-120557602D01*
X201511370Y-120595697D01*
X201549465Y-120671888D01*
X201587560Y-120709983D01*
X201663751Y-120748078D01*
X201816132Y-120748078D01*
X201892322Y-120786174D01*
X201930417Y-120824269D01*
X201968513Y-120900459D01*
X201968513Y-121052840D01*
X201930417Y-121129031D01*
X201892322Y-121167126D01*
X201816132Y-121205221D01*
X201663751Y-121205221D01*
X201587560Y-121167126D01*
X201549465Y-121129031D01*
X201511370Y-121052840D01*
X201511370Y-120900459D01*
X201549465Y-120824269D01*
X201587560Y-120786174D01*
X201663751Y-120748078D01*
%TO.C,D43*%
X222542322Y-121205221D02*
X222542322Y-120405221D01*
X222351846Y-120405221D01*
X222237560Y-120443317D01*
X222161370Y-120519507D01*
X222123274Y-120595697D01*
X222085179Y-120748078D01*
X222085179Y-120862364D01*
X222123274Y-121014745D01*
X222161370Y-121090936D01*
X222237560Y-121167126D01*
X222351846Y-121205221D01*
X222542322Y-121205221D01*
X221399465Y-120671888D02*
X221399465Y-121205221D01*
X221589941Y-120367126D02*
X221780417Y-120938555D01*
X221285179Y-120938555D01*
X221056608Y-120405221D02*
X220561370Y-120405221D01*
X220828036Y-120709983D01*
X220713751Y-120709983D01*
X220637560Y-120748078D01*
X220599465Y-120786174D01*
X220561370Y-120862364D01*
X220561370Y-121052840D01*
X220599465Y-121129031D01*
X220637560Y-121167126D01*
X220713751Y-121205221D01*
X220942322Y-121205221D01*
X221018513Y-121167126D01*
X221056608Y-121129031D01*
%TO.C,D48*%
X241592322Y-121205221D02*
X241592322Y-120405221D01*
X241401846Y-120405221D01*
X241287560Y-120443317D01*
X241211370Y-120519507D01*
X241173274Y-120595697D01*
X241135179Y-120748078D01*
X241135179Y-120862364D01*
X241173274Y-121014745D01*
X241211370Y-121090936D01*
X241287560Y-121167126D01*
X241401846Y-121205221D01*
X241592322Y-121205221D01*
X240449465Y-120671888D02*
X240449465Y-121205221D01*
X240639941Y-120367126D02*
X240830417Y-120938555D01*
X240335179Y-120938555D01*
X239916132Y-120748078D02*
X239992322Y-120709983D01*
X240030417Y-120671888D01*
X240068513Y-120595697D01*
X240068513Y-120557602D01*
X240030417Y-120481412D01*
X239992322Y-120443317D01*
X239916132Y-120405221D01*
X239763751Y-120405221D01*
X239687560Y-120443317D01*
X239649465Y-120481412D01*
X239611370Y-120557602D01*
X239611370Y-120595697D01*
X239649465Y-120671888D01*
X239687560Y-120709983D01*
X239763751Y-120748078D01*
X239916132Y-120748078D01*
X239992322Y-120786174D01*
X240030417Y-120824269D01*
X240068513Y-120900459D01*
X240068513Y-121052840D01*
X240030417Y-121129031D01*
X239992322Y-121167126D01*
X239916132Y-121205221D01*
X239763751Y-121205221D01*
X239687560Y-121167126D01*
X239649465Y-121129031D01*
X239611370Y-121052840D01*
X239611370Y-120900459D01*
X239649465Y-120824269D01*
X239687560Y-120786174D01*
X239763751Y-120748078D01*
%TO.C,D53*%
X260642322Y-121205221D02*
X260642322Y-120405221D01*
X260451846Y-120405221D01*
X260337560Y-120443317D01*
X260261370Y-120519507D01*
X260223274Y-120595697D01*
X260185179Y-120748078D01*
X260185179Y-120862364D01*
X260223274Y-121014745D01*
X260261370Y-121090936D01*
X260337560Y-121167126D01*
X260451846Y-121205221D01*
X260642322Y-121205221D01*
X259461370Y-120405221D02*
X259842322Y-120405221D01*
X259880417Y-120786174D01*
X259842322Y-120748078D01*
X259766132Y-120709983D01*
X259575655Y-120709983D01*
X259499465Y-120748078D01*
X259461370Y-120786174D01*
X259423274Y-120862364D01*
X259423274Y-121052840D01*
X259461370Y-121129031D01*
X259499465Y-121167126D01*
X259575655Y-121205221D01*
X259766132Y-121205221D01*
X259842322Y-121167126D01*
X259880417Y-121129031D01*
X259156608Y-120405221D02*
X258661370Y-120405221D01*
X258928036Y-120709983D01*
X258813751Y-120709983D01*
X258737560Y-120748078D01*
X258699465Y-120786174D01*
X258661370Y-120862364D01*
X258661370Y-121052840D01*
X258699465Y-121129031D01*
X258737560Y-121167126D01*
X258813751Y-121205221D01*
X259042322Y-121205221D01*
X259118513Y-121167126D01*
X259156608Y-121129031D01*
%TO.C,D58*%
X279692322Y-121205221D02*
X279692322Y-120405221D01*
X279501846Y-120405221D01*
X279387560Y-120443317D01*
X279311370Y-120519507D01*
X279273274Y-120595697D01*
X279235179Y-120748078D01*
X279235179Y-120862364D01*
X279273274Y-121014745D01*
X279311370Y-121090936D01*
X279387560Y-121167126D01*
X279501846Y-121205221D01*
X279692322Y-121205221D01*
X278511370Y-120405221D02*
X278892322Y-120405221D01*
X278930417Y-120786174D01*
X278892322Y-120748078D01*
X278816132Y-120709983D01*
X278625655Y-120709983D01*
X278549465Y-120748078D01*
X278511370Y-120786174D01*
X278473274Y-120862364D01*
X278473274Y-121052840D01*
X278511370Y-121129031D01*
X278549465Y-121167126D01*
X278625655Y-121205221D01*
X278816132Y-121205221D01*
X278892322Y-121167126D01*
X278930417Y-121129031D01*
X278016132Y-120748078D02*
X278092322Y-120709983D01*
X278130417Y-120671888D01*
X278168513Y-120595697D01*
X278168513Y-120557602D01*
X278130417Y-120481412D01*
X278092322Y-120443317D01*
X278016132Y-120405221D01*
X277863751Y-120405221D01*
X277787560Y-120443317D01*
X277749465Y-120481412D01*
X277711370Y-120557602D01*
X277711370Y-120595697D01*
X277749465Y-120671888D01*
X277787560Y-120709983D01*
X277863751Y-120748078D01*
X278016132Y-120748078D01*
X278092322Y-120786174D01*
X278130417Y-120824269D01*
X278168513Y-120900459D01*
X278168513Y-121052840D01*
X278130417Y-121129031D01*
X278092322Y-121167126D01*
X278016132Y-121205221D01*
X277863751Y-121205221D01*
X277787560Y-121167126D01*
X277749465Y-121129031D01*
X277711370Y-121052840D01*
X277711370Y-120900459D01*
X277749465Y-120824269D01*
X277787560Y-120786174D01*
X277863751Y-120748078D01*
%TO.C,D62*%
X310891822Y-121205821D02*
X310891822Y-120405821D01*
X310701346Y-120405821D01*
X310587060Y-120443917D01*
X310510870Y-120520107D01*
X310472774Y-120596297D01*
X310434679Y-120748678D01*
X310434679Y-120862964D01*
X310472774Y-121015345D01*
X310510870Y-121091536D01*
X310587060Y-121167726D01*
X310701346Y-121205821D01*
X310891822Y-121205821D01*
X309748965Y-120405821D02*
X309901346Y-120405821D01*
X309977536Y-120443917D01*
X310015632Y-120482012D01*
X310091822Y-120596297D01*
X310129917Y-120748678D01*
X310129917Y-121053440D01*
X310091822Y-121129631D01*
X310053727Y-121167726D01*
X309977536Y-121205821D01*
X309825155Y-121205821D01*
X309748965Y-121167726D01*
X309710870Y-121129631D01*
X309672774Y-121053440D01*
X309672774Y-120862964D01*
X309710870Y-120786774D01*
X309748965Y-120748678D01*
X309825155Y-120710583D01*
X309977536Y-120710583D01*
X310053727Y-120748678D01*
X310091822Y-120786774D01*
X310129917Y-120862964D01*
X309368013Y-120482012D02*
X309329917Y-120443917D01*
X309253727Y-120405821D01*
X309063251Y-120405821D01*
X308987060Y-120443917D01*
X308948965Y-120482012D01*
X308910870Y-120558202D01*
X308910870Y-120634393D01*
X308948965Y-120748678D01*
X309406108Y-121205821D01*
X308910870Y-121205821D01*
%TO.C,D4*%
X67136870Y-140255871D02*
X67136870Y-139455871D01*
X66946394Y-139455871D01*
X66832108Y-139493967D01*
X66755917Y-139570157D01*
X66717822Y-139646347D01*
X66679727Y-139798728D01*
X66679727Y-139913014D01*
X66717822Y-140065395D01*
X66755917Y-140141586D01*
X66832108Y-140217776D01*
X66946394Y-140255871D01*
X67136870Y-140255871D01*
X65994013Y-139722538D02*
X65994013Y-140255871D01*
X66184489Y-139417776D02*
X66374965Y-139989205D01*
X65879727Y-139989205D01*
%TO.C,D9*%
X98336270Y-140255171D02*
X98336270Y-139455171D01*
X98145794Y-139455171D01*
X98031508Y-139493267D01*
X97955317Y-139569457D01*
X97917222Y-139645647D01*
X97879127Y-139798028D01*
X97879127Y-139912314D01*
X97917222Y-140064695D01*
X97955317Y-140140886D01*
X98031508Y-140217076D01*
X98145794Y-140255171D01*
X98336270Y-140255171D01*
X97498174Y-140255171D02*
X97345794Y-140255171D01*
X97269603Y-140217076D01*
X97231508Y-140178981D01*
X97155317Y-140064695D01*
X97117222Y-139912314D01*
X97117222Y-139607552D01*
X97155317Y-139531362D01*
X97193413Y-139493267D01*
X97269603Y-139455171D01*
X97421984Y-139455171D01*
X97498174Y-139493267D01*
X97536270Y-139531362D01*
X97574365Y-139607552D01*
X97574365Y-139798028D01*
X97536270Y-139874219D01*
X97498174Y-139912314D01*
X97421984Y-139950409D01*
X97269603Y-139950409D01*
X97193413Y-139912314D01*
X97155317Y-139874219D01*
X97117222Y-139798028D01*
%TO.C,D14*%
X117767222Y-140255171D02*
X117767222Y-139455171D01*
X117576746Y-139455171D01*
X117462460Y-139493267D01*
X117386270Y-139569457D01*
X117348174Y-139645647D01*
X117310079Y-139798028D01*
X117310079Y-139912314D01*
X117348174Y-140064695D01*
X117386270Y-140140886D01*
X117462460Y-140217076D01*
X117576746Y-140255171D01*
X117767222Y-140255171D01*
X116548174Y-140255171D02*
X117005317Y-140255171D01*
X116776746Y-140255171D02*
X116776746Y-139455171D01*
X116852936Y-139569457D01*
X116929127Y-139645647D01*
X117005317Y-139683743D01*
X115862460Y-139721838D02*
X115862460Y-140255171D01*
X116052936Y-139417076D02*
X116243413Y-139988505D01*
X115748174Y-139988505D01*
%TO.C,D19*%
X136817222Y-140255171D02*
X136817222Y-139455171D01*
X136626746Y-139455171D01*
X136512460Y-139493267D01*
X136436270Y-139569457D01*
X136398174Y-139645647D01*
X136360079Y-139798028D01*
X136360079Y-139912314D01*
X136398174Y-140064695D01*
X136436270Y-140140886D01*
X136512460Y-140217076D01*
X136626746Y-140255171D01*
X136817222Y-140255171D01*
X135598174Y-140255171D02*
X136055317Y-140255171D01*
X135826746Y-140255171D02*
X135826746Y-139455171D01*
X135902936Y-139569457D01*
X135979127Y-139645647D01*
X136055317Y-139683743D01*
X135217222Y-140255171D02*
X135064841Y-140255171D01*
X134988651Y-140217076D01*
X134950555Y-140178981D01*
X134874365Y-140064695D01*
X134836270Y-139912314D01*
X134836270Y-139607552D01*
X134874365Y-139531362D01*
X134912460Y-139493267D01*
X134988651Y-139455171D01*
X135141032Y-139455171D01*
X135217222Y-139493267D01*
X135255317Y-139531362D01*
X135293413Y-139607552D01*
X135293413Y-139798028D01*
X135255317Y-139874219D01*
X135217222Y-139912314D01*
X135141032Y-139950409D01*
X134988651Y-139950409D01*
X134912460Y-139912314D01*
X134874365Y-139874219D01*
X134836270Y-139798028D01*
%TO.C,D24*%
X155867322Y-140255171D02*
X155867322Y-139455171D01*
X155676846Y-139455171D01*
X155562560Y-139493267D01*
X155486370Y-139569457D01*
X155448274Y-139645647D01*
X155410179Y-139798028D01*
X155410179Y-139912314D01*
X155448274Y-140064695D01*
X155486370Y-140140886D01*
X155562560Y-140217076D01*
X155676846Y-140255171D01*
X155867322Y-140255171D01*
X155105417Y-139531362D02*
X155067322Y-139493267D01*
X154991132Y-139455171D01*
X154800655Y-139455171D01*
X154724465Y-139493267D01*
X154686370Y-139531362D01*
X154648274Y-139607552D01*
X154648274Y-139683743D01*
X154686370Y-139798028D01*
X155143513Y-140255171D01*
X154648274Y-140255171D01*
X153962560Y-139721838D02*
X153962560Y-140255171D01*
X154153036Y-139417076D02*
X154343513Y-139988505D01*
X153848274Y-139988505D01*
%TO.C,D29*%
X174917322Y-140255171D02*
X174917322Y-139455171D01*
X174726846Y-139455171D01*
X174612560Y-139493267D01*
X174536370Y-139569457D01*
X174498274Y-139645647D01*
X174460179Y-139798028D01*
X174460179Y-139912314D01*
X174498274Y-140064695D01*
X174536370Y-140140886D01*
X174612560Y-140217076D01*
X174726846Y-140255171D01*
X174917322Y-140255171D01*
X174155417Y-139531362D02*
X174117322Y-139493267D01*
X174041132Y-139455171D01*
X173850655Y-139455171D01*
X173774465Y-139493267D01*
X173736370Y-139531362D01*
X173698274Y-139607552D01*
X173698274Y-139683743D01*
X173736370Y-139798028D01*
X174193513Y-140255171D01*
X173698274Y-140255171D01*
X173317322Y-140255171D02*
X173164941Y-140255171D01*
X173088751Y-140217076D01*
X173050655Y-140178981D01*
X172974465Y-140064695D01*
X172936370Y-139912314D01*
X172936370Y-139607552D01*
X172974465Y-139531362D01*
X173012560Y-139493267D01*
X173088751Y-139455171D01*
X173241132Y-139455171D01*
X173317322Y-139493267D01*
X173355417Y-139531362D01*
X173393513Y-139607552D01*
X173393513Y-139798028D01*
X173355417Y-139874219D01*
X173317322Y-139912314D01*
X173241132Y-139950409D01*
X173088751Y-139950409D01*
X173012560Y-139912314D01*
X172974465Y-139874219D01*
X172936370Y-139798028D01*
%TO.C,D34*%
X193967322Y-140255171D02*
X193967322Y-139455171D01*
X193776846Y-139455171D01*
X193662560Y-139493267D01*
X193586370Y-139569457D01*
X193548274Y-139645647D01*
X193510179Y-139798028D01*
X193510179Y-139912314D01*
X193548274Y-140064695D01*
X193586370Y-140140886D01*
X193662560Y-140217076D01*
X193776846Y-140255171D01*
X193967322Y-140255171D01*
X193243513Y-139455171D02*
X192748274Y-139455171D01*
X193014941Y-139759933D01*
X192900655Y-139759933D01*
X192824465Y-139798028D01*
X192786370Y-139836124D01*
X192748274Y-139912314D01*
X192748274Y-140102790D01*
X192786370Y-140178981D01*
X192824465Y-140217076D01*
X192900655Y-140255171D01*
X193129227Y-140255171D01*
X193205417Y-140217076D01*
X193243513Y-140178981D01*
X192062560Y-139721838D02*
X192062560Y-140255171D01*
X192253036Y-139417076D02*
X192443513Y-139988505D01*
X191948274Y-139988505D01*
%TO.C,D39*%
X213017322Y-140255171D02*
X213017322Y-139455171D01*
X212826846Y-139455171D01*
X212712560Y-139493267D01*
X212636370Y-139569457D01*
X212598274Y-139645647D01*
X212560179Y-139798028D01*
X212560179Y-139912314D01*
X212598274Y-140064695D01*
X212636370Y-140140886D01*
X212712560Y-140217076D01*
X212826846Y-140255171D01*
X213017322Y-140255171D01*
X212293513Y-139455171D02*
X211798274Y-139455171D01*
X212064941Y-139759933D01*
X211950655Y-139759933D01*
X211874465Y-139798028D01*
X211836370Y-139836124D01*
X211798274Y-139912314D01*
X211798274Y-140102790D01*
X211836370Y-140178981D01*
X211874465Y-140217076D01*
X211950655Y-140255171D01*
X212179227Y-140255171D01*
X212255417Y-140217076D01*
X212293513Y-140178981D01*
X211417322Y-140255171D02*
X211264941Y-140255171D01*
X211188751Y-140217076D01*
X211150655Y-140178981D01*
X211074465Y-140064695D01*
X211036370Y-139912314D01*
X211036370Y-139607552D01*
X211074465Y-139531362D01*
X211112560Y-139493267D01*
X211188751Y-139455171D01*
X211341132Y-139455171D01*
X211417322Y-139493267D01*
X211455417Y-139531362D01*
X211493513Y-139607552D01*
X211493513Y-139798028D01*
X211455417Y-139874219D01*
X211417322Y-139912314D01*
X211341132Y-139950409D01*
X211188751Y-139950409D01*
X211112560Y-139912314D01*
X211074465Y-139874219D01*
X211036370Y-139798028D01*
%TO.C,D44*%
X232067322Y-140255171D02*
X232067322Y-139455171D01*
X231876846Y-139455171D01*
X231762560Y-139493267D01*
X231686370Y-139569457D01*
X231648274Y-139645647D01*
X231610179Y-139798028D01*
X231610179Y-139912314D01*
X231648274Y-140064695D01*
X231686370Y-140140886D01*
X231762560Y-140217076D01*
X231876846Y-140255171D01*
X232067322Y-140255171D01*
X230924465Y-139721838D02*
X230924465Y-140255171D01*
X231114941Y-139417076D02*
X231305417Y-139988505D01*
X230810179Y-139988505D01*
X230162560Y-139721838D02*
X230162560Y-140255171D01*
X230353036Y-139417076D02*
X230543513Y-139988505D01*
X230048274Y-139988505D01*
%TO.C,D49*%
X251117322Y-140255171D02*
X251117322Y-139455171D01*
X250926846Y-139455171D01*
X250812560Y-139493267D01*
X250736370Y-139569457D01*
X250698274Y-139645647D01*
X250660179Y-139798028D01*
X250660179Y-139912314D01*
X250698274Y-140064695D01*
X250736370Y-140140886D01*
X250812560Y-140217076D01*
X250926846Y-140255171D01*
X251117322Y-140255171D01*
X249974465Y-139721838D02*
X249974465Y-140255171D01*
X250164941Y-139417076D02*
X250355417Y-139988505D01*
X249860179Y-139988505D01*
X249517322Y-140255171D02*
X249364941Y-140255171D01*
X249288751Y-140217076D01*
X249250655Y-140178981D01*
X249174465Y-140064695D01*
X249136370Y-139912314D01*
X249136370Y-139607552D01*
X249174465Y-139531362D01*
X249212560Y-139493267D01*
X249288751Y-139455171D01*
X249441132Y-139455171D01*
X249517322Y-139493267D01*
X249555417Y-139531362D01*
X249593513Y-139607552D01*
X249593513Y-139798028D01*
X249555417Y-139874219D01*
X249517322Y-139912314D01*
X249441132Y-139950409D01*
X249288751Y-139950409D01*
X249212560Y-139912314D01*
X249174465Y-139874219D01*
X249136370Y-139798028D01*
%TO.C,D54*%
X270167322Y-140255171D02*
X270167322Y-139455171D01*
X269976846Y-139455171D01*
X269862560Y-139493267D01*
X269786370Y-139569457D01*
X269748274Y-139645647D01*
X269710179Y-139798028D01*
X269710179Y-139912314D01*
X269748274Y-140064695D01*
X269786370Y-140140886D01*
X269862560Y-140217076D01*
X269976846Y-140255171D01*
X270167322Y-140255171D01*
X268986370Y-139455171D02*
X269367322Y-139455171D01*
X269405417Y-139836124D01*
X269367322Y-139798028D01*
X269291132Y-139759933D01*
X269100655Y-139759933D01*
X269024465Y-139798028D01*
X268986370Y-139836124D01*
X268948274Y-139912314D01*
X268948274Y-140102790D01*
X268986370Y-140178981D01*
X269024465Y-140217076D01*
X269100655Y-140255171D01*
X269291132Y-140255171D01*
X269367322Y-140217076D01*
X269405417Y-140178981D01*
X268262560Y-139721838D02*
X268262560Y-140255171D01*
X268453036Y-139417076D02*
X268643513Y-139988505D01*
X268148274Y-139988505D01*
%TO.C,D59*%
X305886322Y-140255871D02*
X305886322Y-139455871D01*
X305695846Y-139455871D01*
X305581560Y-139493967D01*
X305505370Y-139570157D01*
X305467274Y-139646347D01*
X305429179Y-139798728D01*
X305429179Y-139913014D01*
X305467274Y-140065395D01*
X305505370Y-140141586D01*
X305581560Y-140217776D01*
X305695846Y-140255871D01*
X305886322Y-140255871D01*
X304705370Y-139455871D02*
X305086322Y-139455871D01*
X305124417Y-139836824D01*
X305086322Y-139798728D01*
X305010132Y-139760633D01*
X304819655Y-139760633D01*
X304743465Y-139798728D01*
X304705370Y-139836824D01*
X304667274Y-139913014D01*
X304667274Y-140103490D01*
X304705370Y-140179681D01*
X304743465Y-140217776D01*
X304819655Y-140255871D01*
X305010132Y-140255871D01*
X305086322Y-140217776D01*
X305124417Y-140179681D01*
X304286322Y-140255871D02*
X304133941Y-140255871D01*
X304057751Y-140217776D01*
X304019655Y-140179681D01*
X303943465Y-140065395D01*
X303905370Y-139913014D01*
X303905370Y-139608252D01*
X303943465Y-139532062D01*
X303981560Y-139493967D01*
X304057751Y-139455871D01*
X304210132Y-139455871D01*
X304286322Y-139493967D01*
X304324417Y-139532062D01*
X304362513Y-139608252D01*
X304362513Y-139798728D01*
X304324417Y-139874919D01*
X304286322Y-139913014D01*
X304210132Y-139951109D01*
X304057751Y-139951109D01*
X303981560Y-139913014D01*
X303943465Y-139874919D01*
X303905370Y-139798728D01*
%TO.C,D63*%
X365417322Y-140255171D02*
X365417322Y-139455171D01*
X365226846Y-139455171D01*
X365112560Y-139493267D01*
X365036370Y-139569457D01*
X364998274Y-139645647D01*
X364960179Y-139798028D01*
X364960179Y-139912314D01*
X364998274Y-140064695D01*
X365036370Y-140140886D01*
X365112560Y-140217076D01*
X365226846Y-140255171D01*
X365417322Y-140255171D01*
X364274465Y-139455171D02*
X364426846Y-139455171D01*
X364503036Y-139493267D01*
X364541132Y-139531362D01*
X364617322Y-139645647D01*
X364655417Y-139798028D01*
X364655417Y-140102790D01*
X364617322Y-140178981D01*
X364579227Y-140217076D01*
X364503036Y-140255171D01*
X364350655Y-140255171D01*
X364274465Y-140217076D01*
X364236370Y-140178981D01*
X364198274Y-140102790D01*
X364198274Y-139912314D01*
X364236370Y-139836124D01*
X364274465Y-139798028D01*
X364350655Y-139759933D01*
X364503036Y-139759933D01*
X364579227Y-139798028D01*
X364617322Y-139836124D01*
X364655417Y-139912314D01*
X363931608Y-139455171D02*
X363436370Y-139455171D01*
X363703036Y-139759933D01*
X363588751Y-139759933D01*
X363512560Y-139798028D01*
X363474465Y-139836124D01*
X363436370Y-139912314D01*
X363436370Y-140102790D01*
X363474465Y-140178981D01*
X363512560Y-140217076D01*
X363588751Y-140255171D01*
X363817322Y-140255171D01*
X363893513Y-140217076D01*
X363931608Y-140178981D01*
%TO.C,D5*%
X57855820Y-159305191D02*
X57855820Y-158505191D01*
X57665344Y-158505191D01*
X57551058Y-158543287D01*
X57474867Y-158619477D01*
X57436772Y-158695667D01*
X57398677Y-158848048D01*
X57398677Y-158962334D01*
X57436772Y-159114715D01*
X57474867Y-159190906D01*
X57551058Y-159267096D01*
X57665344Y-159305191D01*
X57855820Y-159305191D01*
X56674867Y-158505191D02*
X57055820Y-158505191D01*
X57093915Y-158886144D01*
X57055820Y-158848048D01*
X56979629Y-158809953D01*
X56789153Y-158809953D01*
X56712963Y-158848048D01*
X56674867Y-158886144D01*
X56636772Y-158962334D01*
X56636772Y-159152810D01*
X56674867Y-159229001D01*
X56712963Y-159267096D01*
X56789153Y-159305191D01*
X56979629Y-159305191D01*
X57055820Y-159267096D01*
X57093915Y-159229001D01*
%TO.C,D10*%
X82047822Y-159305191D02*
X82047822Y-158505191D01*
X81857346Y-158505191D01*
X81743060Y-158543287D01*
X81666870Y-158619477D01*
X81628774Y-158695667D01*
X81590679Y-158848048D01*
X81590679Y-158962334D01*
X81628774Y-159114715D01*
X81666870Y-159190906D01*
X81743060Y-159267096D01*
X81857346Y-159305191D01*
X82047822Y-159305191D01*
X80828774Y-159305191D02*
X81285917Y-159305191D01*
X81057346Y-159305191D02*
X81057346Y-158505191D01*
X81133536Y-158619477D01*
X81209727Y-158695667D01*
X81285917Y-158733763D01*
X80333536Y-158505191D02*
X80257346Y-158505191D01*
X80181155Y-158543287D01*
X80143060Y-158581382D01*
X80104965Y-158657572D01*
X80066870Y-158809953D01*
X80066870Y-159000429D01*
X80104965Y-159152810D01*
X80143060Y-159229001D01*
X80181155Y-159267096D01*
X80257346Y-159305191D01*
X80333536Y-159305191D01*
X80409727Y-159267096D01*
X80447822Y-159229001D01*
X80485917Y-159152810D01*
X80524013Y-159000429D01*
X80524013Y-158809953D01*
X80485917Y-158657572D01*
X80447822Y-158581382D01*
X80409727Y-158543287D01*
X80333536Y-158505191D01*
%TO.C,D15*%
X105861722Y-159305191D02*
X105861722Y-158505191D01*
X105671246Y-158505191D01*
X105556960Y-158543287D01*
X105480770Y-158619477D01*
X105442674Y-158695667D01*
X105404579Y-158848048D01*
X105404579Y-158962334D01*
X105442674Y-159114715D01*
X105480770Y-159190906D01*
X105556960Y-159267096D01*
X105671246Y-159305191D01*
X105861722Y-159305191D01*
X104642674Y-159305191D02*
X105099817Y-159305191D01*
X104871246Y-159305191D02*
X104871246Y-158505191D01*
X104947436Y-158619477D01*
X105023627Y-158695667D01*
X105099817Y-158733763D01*
X103918865Y-158505191D02*
X104299817Y-158505191D01*
X104337913Y-158886144D01*
X104299817Y-158848048D01*
X104223627Y-158809953D01*
X104033151Y-158809953D01*
X103956960Y-158848048D01*
X103918865Y-158886144D01*
X103880770Y-158962334D01*
X103880770Y-159152810D01*
X103918865Y-159229001D01*
X103956960Y-159267096D01*
X104033151Y-159305191D01*
X104223627Y-159305191D01*
X104299817Y-159267096D01*
X104337913Y-159229001D01*
%TO.C,D20*%
X177541822Y-159305866D02*
X177541822Y-158505866D01*
X177351346Y-158505866D01*
X177237060Y-158543962D01*
X177160870Y-158620152D01*
X177122774Y-158696342D01*
X177084679Y-158848723D01*
X177084679Y-158963009D01*
X177122774Y-159115390D01*
X177160870Y-159191581D01*
X177237060Y-159267771D01*
X177351346Y-159305866D01*
X177541822Y-159305866D01*
X176779917Y-158582057D02*
X176741822Y-158543962D01*
X176665632Y-158505866D01*
X176475155Y-158505866D01*
X176398965Y-158543962D01*
X176360870Y-158582057D01*
X176322774Y-158658247D01*
X176322774Y-158734438D01*
X176360870Y-158848723D01*
X176818013Y-159305866D01*
X176322774Y-159305866D01*
X175827536Y-158505866D02*
X175751346Y-158505866D01*
X175675155Y-158543962D01*
X175637060Y-158582057D01*
X175598965Y-158658247D01*
X175560870Y-158810628D01*
X175560870Y-159001104D01*
X175598965Y-159153485D01*
X175637060Y-159229676D01*
X175675155Y-159267771D01*
X175751346Y-159305866D01*
X175827536Y-159305866D01*
X175903727Y-159267771D01*
X175941822Y-159229676D01*
X175979917Y-159153485D01*
X176018013Y-159001104D01*
X176018013Y-158810628D01*
X175979917Y-158658247D01*
X175941822Y-158582057D01*
X175903727Y-158543962D01*
X175827536Y-158505866D01*
%TO.C,D25*%
X248736822Y-159305191D02*
X248736822Y-158505191D01*
X248546346Y-158505191D01*
X248432060Y-158543287D01*
X248355870Y-158619477D01*
X248317774Y-158695667D01*
X248279679Y-158848048D01*
X248279679Y-158962334D01*
X248317774Y-159114715D01*
X248355870Y-159190906D01*
X248432060Y-159267096D01*
X248546346Y-159305191D01*
X248736822Y-159305191D01*
X247974917Y-158581382D02*
X247936822Y-158543287D01*
X247860632Y-158505191D01*
X247670155Y-158505191D01*
X247593965Y-158543287D01*
X247555870Y-158581382D01*
X247517774Y-158657572D01*
X247517774Y-158733763D01*
X247555870Y-158848048D01*
X248013013Y-159305191D01*
X247517774Y-159305191D01*
X246793965Y-158505191D02*
X247174917Y-158505191D01*
X247213013Y-158886144D01*
X247174917Y-158848048D01*
X247098727Y-158809953D01*
X246908251Y-158809953D01*
X246832060Y-158848048D01*
X246793965Y-158886144D01*
X246755870Y-158962334D01*
X246755870Y-159152810D01*
X246793965Y-159229001D01*
X246832060Y-159267096D01*
X246908251Y-159305191D01*
X247098727Y-159305191D01*
X247174917Y-159267096D01*
X247213013Y-159229001D01*
%TO.C,D30*%
X272547822Y-159305191D02*
X272547822Y-158505191D01*
X272357346Y-158505191D01*
X272243060Y-158543287D01*
X272166870Y-158619477D01*
X272128774Y-158695667D01*
X272090679Y-158848048D01*
X272090679Y-158962334D01*
X272128774Y-159114715D01*
X272166870Y-159190906D01*
X272243060Y-159267096D01*
X272357346Y-159305191D01*
X272547822Y-159305191D01*
X271824013Y-158505191D02*
X271328774Y-158505191D01*
X271595441Y-158809953D01*
X271481155Y-158809953D01*
X271404965Y-158848048D01*
X271366870Y-158886144D01*
X271328774Y-158962334D01*
X271328774Y-159152810D01*
X271366870Y-159229001D01*
X271404965Y-159267096D01*
X271481155Y-159305191D01*
X271709727Y-159305191D01*
X271785917Y-159267096D01*
X271824013Y-159229001D01*
X270833536Y-158505191D02*
X270757346Y-158505191D01*
X270681155Y-158543287D01*
X270643060Y-158581382D01*
X270604965Y-158657572D01*
X270566870Y-158809953D01*
X270566870Y-159000429D01*
X270604965Y-159152810D01*
X270643060Y-159229001D01*
X270681155Y-159267096D01*
X270757346Y-159305191D01*
X270833536Y-159305191D01*
X270909727Y-159267096D01*
X270947822Y-159229001D01*
X270985917Y-159152810D01*
X271024013Y-159000429D01*
X271024013Y-158809953D01*
X270985917Y-158657572D01*
X270947822Y-158581382D01*
X270909727Y-158543287D01*
X270833536Y-158505191D01*
%TO.C,D35*%
X296361822Y-159305191D02*
X296361822Y-158505191D01*
X296171346Y-158505191D01*
X296057060Y-158543287D01*
X295980870Y-158619477D01*
X295942774Y-158695667D01*
X295904679Y-158848048D01*
X295904679Y-158962334D01*
X295942774Y-159114715D01*
X295980870Y-159190906D01*
X296057060Y-159267096D01*
X296171346Y-159305191D01*
X296361822Y-159305191D01*
X295638013Y-158505191D02*
X295142774Y-158505191D01*
X295409441Y-158809953D01*
X295295155Y-158809953D01*
X295218965Y-158848048D01*
X295180870Y-158886144D01*
X295142774Y-158962334D01*
X295142774Y-159152810D01*
X295180870Y-159229001D01*
X295218965Y-159267096D01*
X295295155Y-159305191D01*
X295523727Y-159305191D01*
X295599917Y-159267096D01*
X295638013Y-159229001D01*
X294418965Y-158505191D02*
X294799917Y-158505191D01*
X294838013Y-158886144D01*
X294799917Y-158848048D01*
X294723727Y-158809953D01*
X294533251Y-158809953D01*
X294457060Y-158848048D01*
X294418965Y-158886144D01*
X294380870Y-158962334D01*
X294380870Y-159152810D01*
X294418965Y-159229001D01*
X294457060Y-159267096D01*
X294533251Y-159305191D01*
X294723727Y-159305191D01*
X294799917Y-159267096D01*
X294838013Y-159229001D01*
%TO.C,D40*%
X320172822Y-159305191D02*
X320172822Y-158505191D01*
X319982346Y-158505191D01*
X319868060Y-158543287D01*
X319791870Y-158619477D01*
X319753774Y-158695667D01*
X319715679Y-158848048D01*
X319715679Y-158962334D01*
X319753774Y-159114715D01*
X319791870Y-159190906D01*
X319868060Y-159267096D01*
X319982346Y-159305191D01*
X320172822Y-159305191D01*
X319029965Y-158771858D02*
X319029965Y-159305191D01*
X319220441Y-158467096D02*
X319410917Y-159038525D01*
X318915679Y-159038525D01*
X318458536Y-158505191D02*
X318382346Y-158505191D01*
X318306155Y-158543287D01*
X318268060Y-158581382D01*
X318229965Y-158657572D01*
X318191870Y-158809953D01*
X318191870Y-159000429D01*
X318229965Y-159152810D01*
X318268060Y-159229001D01*
X318306155Y-159267096D01*
X318382346Y-159305191D01*
X318458536Y-159305191D01*
X318534727Y-159267096D01*
X318572822Y-159229001D01*
X318610917Y-159152810D01*
X318649013Y-159000429D01*
X318649013Y-158809953D01*
X318610917Y-158657572D01*
X318572822Y-158581382D01*
X318534727Y-158543287D01*
X318458536Y-158505191D01*
%TO.C,D45*%
X346367322Y-159305191D02*
X346367322Y-158505191D01*
X346176846Y-158505191D01*
X346062560Y-158543287D01*
X345986370Y-158619477D01*
X345948274Y-158695667D01*
X345910179Y-158848048D01*
X345910179Y-158962334D01*
X345948274Y-159114715D01*
X345986370Y-159190906D01*
X346062560Y-159267096D01*
X346176846Y-159305191D01*
X346367322Y-159305191D01*
X345224465Y-158771858D02*
X345224465Y-159305191D01*
X345414941Y-158467096D02*
X345605417Y-159038525D01*
X345110179Y-159038525D01*
X344424465Y-158505191D02*
X344805417Y-158505191D01*
X344843513Y-158886144D01*
X344805417Y-158848048D01*
X344729227Y-158809953D01*
X344538751Y-158809953D01*
X344462560Y-158848048D01*
X344424465Y-158886144D01*
X344386370Y-158962334D01*
X344386370Y-159152810D01*
X344424465Y-159229001D01*
X344462560Y-159267096D01*
X344538751Y-159305191D01*
X344729227Y-159305191D01*
X344805417Y-159267096D01*
X344843513Y-159229001D01*
%TO.C,D50*%
X365417322Y-159305191D02*
X365417322Y-158505191D01*
X365226846Y-158505191D01*
X365112560Y-158543287D01*
X365036370Y-158619477D01*
X364998274Y-158695667D01*
X364960179Y-158848048D01*
X364960179Y-158962334D01*
X364998274Y-159114715D01*
X365036370Y-159190906D01*
X365112560Y-159267096D01*
X365226846Y-159305191D01*
X365417322Y-159305191D01*
X364236370Y-158505191D02*
X364617322Y-158505191D01*
X364655417Y-158886144D01*
X364617322Y-158848048D01*
X364541132Y-158809953D01*
X364350655Y-158809953D01*
X364274465Y-158848048D01*
X364236370Y-158886144D01*
X364198274Y-158962334D01*
X364198274Y-159152810D01*
X364236370Y-159229001D01*
X364274465Y-159267096D01*
X364350655Y-159305191D01*
X364541132Y-159305191D01*
X364617322Y-159267096D01*
X364655417Y-159229001D01*
X363703036Y-158505191D02*
X363626846Y-158505191D01*
X363550655Y-158543287D01*
X363512560Y-158581382D01*
X363474465Y-158657572D01*
X363436370Y-158809953D01*
X363436370Y-159000429D01*
X363474465Y-159152810D01*
X363512560Y-159229001D01*
X363550655Y-159267096D01*
X363626846Y-159305191D01*
X363703036Y-159305191D01*
X363779227Y-159267096D01*
X363817322Y-159229001D01*
X363855417Y-159152810D01*
X363893513Y-159000429D01*
X363893513Y-158809953D01*
X363855417Y-158657572D01*
X363817322Y-158581382D01*
X363779227Y-158543287D01*
X363703036Y-158505191D01*
%TO.C,D55*%
X384467322Y-159305191D02*
X384467322Y-158505191D01*
X384276846Y-158505191D01*
X384162560Y-158543287D01*
X384086370Y-158619477D01*
X384048274Y-158695667D01*
X384010179Y-158848048D01*
X384010179Y-158962334D01*
X384048274Y-159114715D01*
X384086370Y-159190906D01*
X384162560Y-159267096D01*
X384276846Y-159305191D01*
X384467322Y-159305191D01*
X383286370Y-158505191D02*
X383667322Y-158505191D01*
X383705417Y-158886144D01*
X383667322Y-158848048D01*
X383591132Y-158809953D01*
X383400655Y-158809953D01*
X383324465Y-158848048D01*
X383286370Y-158886144D01*
X383248274Y-158962334D01*
X383248274Y-159152810D01*
X383286370Y-159229001D01*
X383324465Y-159267096D01*
X383400655Y-159305191D01*
X383591132Y-159305191D01*
X383667322Y-159267096D01*
X383705417Y-159229001D01*
X382524465Y-158505191D02*
X382905417Y-158505191D01*
X382943513Y-158886144D01*
X382905417Y-158848048D01*
X382829227Y-158809953D01*
X382638751Y-158809953D01*
X382562560Y-158848048D01*
X382524465Y-158886144D01*
X382486370Y-158962334D01*
X382486370Y-159152810D01*
X382524465Y-159229001D01*
X382562560Y-159267096D01*
X382638751Y-159305191D01*
X382829227Y-159305191D01*
X382905417Y-159267096D01*
X382943513Y-159229001D01*
%TO.C,R1*%
X327966666Y-116352380D02*
X328300000Y-115876190D01*
X328538095Y-116352380D02*
X328538095Y-115352380D01*
X328157142Y-115352380D01*
X328061904Y-115400000D01*
X328014285Y-115447619D01*
X327966666Y-115542857D01*
X327966666Y-115685714D01*
X328014285Y-115780952D01*
X328061904Y-115828571D01*
X328157142Y-115876190D01*
X328538095Y-115876190D01*
X327014285Y-116352380D02*
X327585714Y-116352380D01*
X327300000Y-116352380D02*
X327300000Y-115352380D01*
X327395238Y-115495238D01*
X327490476Y-115590476D01*
X327585714Y-115638095D01*
%TO.C,R2*%
X354802380Y-133333333D02*
X354326190Y-133000000D01*
X354802380Y-132761904D02*
X353802380Y-132761904D01*
X353802380Y-133142857D01*
X353850000Y-133238095D01*
X353897619Y-133285714D01*
X353992857Y-133333333D01*
X354135714Y-133333333D01*
X354230952Y-133285714D01*
X354278571Y-133238095D01*
X354326190Y-133142857D01*
X354326190Y-132761904D01*
X353897619Y-133714285D02*
X353850000Y-133761904D01*
X353802380Y-133857142D01*
X353802380Y-134095238D01*
X353850000Y-134190476D01*
X353897619Y-134238095D01*
X353992857Y-134285714D01*
X354088095Y-134285714D01*
X354230952Y-134238095D01*
X354802380Y-133666666D01*
X354802380Y-134285714D01*
%TO.C,R3*%
X335321666Y-111812380D02*
X335655000Y-111336190D01*
X335893095Y-111812380D02*
X335893095Y-110812380D01*
X335512142Y-110812380D01*
X335416904Y-110860000D01*
X335369285Y-110907619D01*
X335321666Y-111002857D01*
X335321666Y-111145714D01*
X335369285Y-111240952D01*
X335416904Y-111288571D01*
X335512142Y-111336190D01*
X335893095Y-111336190D01*
X334988333Y-110812380D02*
X334369285Y-110812380D01*
X334702619Y-111193333D01*
X334559761Y-111193333D01*
X334464523Y-111240952D01*
X334416904Y-111288571D01*
X334369285Y-111383809D01*
X334369285Y-111621904D01*
X334416904Y-111717142D01*
X334464523Y-111764761D01*
X334559761Y-111812380D01*
X334845476Y-111812380D01*
X334940714Y-111764761D01*
X334988333Y-111717142D01*
%TO.C,R4*%
X340721666Y-111792380D02*
X341055000Y-111316190D01*
X341293095Y-111792380D02*
X341293095Y-110792380D01*
X340912142Y-110792380D01*
X340816904Y-110840000D01*
X340769285Y-110887619D01*
X340721666Y-110982857D01*
X340721666Y-111125714D01*
X340769285Y-111220952D01*
X340816904Y-111268571D01*
X340912142Y-111316190D01*
X341293095Y-111316190D01*
X339864523Y-111125714D02*
X339864523Y-111792380D01*
X340102619Y-110744761D02*
X340340714Y-111459047D01*
X339721666Y-111459047D01*
%TO.C,SW1*%
X329123333Y-124594761D02*
X328980476Y-124642380D01*
X328742380Y-124642380D01*
X328647142Y-124594761D01*
X328599523Y-124547142D01*
X328551904Y-124451904D01*
X328551904Y-124356666D01*
X328599523Y-124261428D01*
X328647142Y-124213809D01*
X328742380Y-124166190D01*
X328932857Y-124118571D01*
X329028095Y-124070952D01*
X329075714Y-124023333D01*
X329123333Y-123928095D01*
X329123333Y-123832857D01*
X329075714Y-123737619D01*
X329028095Y-123690000D01*
X328932857Y-123642380D01*
X328694761Y-123642380D01*
X328551904Y-123690000D01*
X328218571Y-123642380D02*
X327980476Y-124642380D01*
X327790000Y-123928095D01*
X327599523Y-124642380D01*
X327361428Y-123642380D01*
X326456666Y-124642380D02*
X327028095Y-124642380D01*
X326742380Y-124642380D02*
X326742380Y-123642380D01*
X326837619Y-123785238D01*
X326932857Y-123880476D01*
X327028095Y-123928095D01*
%TO.C,U1*%
X344261904Y-135402380D02*
X344261904Y-136211904D01*
X344214285Y-136307142D01*
X344166666Y-136354761D01*
X344071428Y-136402380D01*
X343880952Y-136402380D01*
X343785714Y-136354761D01*
X343738095Y-136307142D01*
X343690476Y-136211904D01*
X343690476Y-135402380D01*
X342690476Y-136402380D02*
X343261904Y-136402380D01*
X342976190Y-136402380D02*
X342976190Y-135402380D01*
X343071428Y-135545238D01*
X343166666Y-135640476D01*
X343261904Y-135688095D01*
%TO.C,K20*%
D11*
X177784679Y-154081342D02*
X177784679Y-153081342D01*
X177213251Y-154081342D02*
X177641822Y-153509914D01*
X177213251Y-153081342D02*
X177784679Y-153652771D01*
X176832298Y-153176581D02*
X176784679Y-153128962D01*
X176689441Y-153081342D01*
X176451346Y-153081342D01*
X176356108Y-153128962D01*
X176308489Y-153176581D01*
X176260870Y-153271819D01*
X176260870Y-153367057D01*
X176308489Y-153509914D01*
X176879917Y-154081342D01*
X176260870Y-154081342D01*
X175641822Y-153081342D02*
X175546584Y-153081342D01*
X175451346Y-153128962D01*
X175403727Y-153176581D01*
X175356108Y-153271819D01*
X175308489Y-153462295D01*
X175308489Y-153700390D01*
X175356108Y-153890866D01*
X175403727Y-153986104D01*
X175451346Y-154033723D01*
X175546584Y-154081342D01*
X175641822Y-154081342D01*
X175737060Y-154033723D01*
X175784679Y-153986104D01*
X175832298Y-153890866D01*
X175879917Y-153700390D01*
X175879917Y-153462295D01*
X175832298Y-153271819D01*
X175784679Y-153176581D01*
X175737060Y-153128962D01*
X175641822Y-153081342D01*
%TO.C,R5*%
D12*
X338112380Y-83098333D02*
X337636190Y-82765000D01*
X338112380Y-82526904D02*
X337112380Y-82526904D01*
X337112380Y-82907857D01*
X337160000Y-83003095D01*
X337207619Y-83050714D01*
X337302857Y-83098333D01*
X337445714Y-83098333D01*
X337540952Y-83050714D01*
X337588571Y-83003095D01*
X337636190Y-82907857D01*
X337636190Y-82526904D01*
X337112380Y-84003095D02*
X337112380Y-83526904D01*
X337588571Y-83479285D01*
X337540952Y-83526904D01*
X337493333Y-83622142D01*
X337493333Y-83860238D01*
X337540952Y-83955476D01*
X337588571Y-84003095D01*
X337683809Y-84050714D01*
X337921904Y-84050714D01*
X338017142Y-84003095D01*
X338064761Y-83955476D01*
X338112380Y-83860238D01*
X338112380Y-83622142D01*
X338064761Y-83526904D01*
X338017142Y-83479285D01*
%TO.C,R6*%
X331012380Y-83093333D02*
X330536190Y-82760000D01*
X331012380Y-82521904D02*
X330012380Y-82521904D01*
X330012380Y-82902857D01*
X330060000Y-82998095D01*
X330107619Y-83045714D01*
X330202857Y-83093333D01*
X330345714Y-83093333D01*
X330440952Y-83045714D01*
X330488571Y-82998095D01*
X330536190Y-82902857D01*
X330536190Y-82521904D01*
X330012380Y-83950476D02*
X330012380Y-83760000D01*
X330060000Y-83664761D01*
X330107619Y-83617142D01*
X330250476Y-83521904D01*
X330440952Y-83474285D01*
X330821904Y-83474285D01*
X330917142Y-83521904D01*
X330964761Y-83569523D01*
X331012380Y-83664761D01*
X331012380Y-83855238D01*
X330964761Y-83950476D01*
X330917142Y-83998095D01*
X330821904Y-84045714D01*
X330583809Y-84045714D01*
X330488571Y-83998095D01*
X330440952Y-83950476D01*
X330393333Y-83855238D01*
X330393333Y-83664761D01*
X330440952Y-83569523D01*
X330488571Y-83521904D01*
X330583809Y-83474285D01*
%TD*%
M02*
