%TF.GenerationSoftware,KiCad,Pcbnew,(5.1.6)-1*%
%TF.CreationDate,2020-08-04T19:17:24-04:00*%
%TF.ProjectId,prosaic,70726f73-6169-4632-9e6b-696361645f70,A.1*%
%TF.SameCoordinates,Original*%
%TF.FileFunction,Soldermask,Bot*%
%TF.FilePolarity,Negative*%
%FSLAX46Y46*%
G04 Gerber Fmt 4.6, Leading zero omitted, Abs format (unit mm)*
G04 Created by KiCad (PCBNEW (5.1.6)-1) date 2020-08-04 19:17:24*
%MOMM*%
%LPD*%
G01*
G04 APERTURE LIST*
%ADD10C,0.800000*%
%ADD11O,1.000000X2.500000*%
%ADD12O,1.000000X1.800000*%
%ADD13C,5.800000*%
%ADD14C,1.700000*%
%ADD15R,1.700000X1.700000*%
%ADD16R,1.300000X1.300000*%
%ADD17R,1.800000X1.100000*%
%ADD18R,0.650000X1.600000*%
%ADD19R,1.600000X0.650000*%
%ADD20C,0.100000*%
G04 APERTURE END LIST*
D10*
%TO.C,J1*%
X336040000Y-76440000D03*
X335190000Y-76440000D03*
X334340000Y-76440000D03*
X333490000Y-76440000D03*
X332640000Y-76440000D03*
X331790000Y-76440000D03*
X330940000Y-76440000D03*
X330090000Y-76440000D03*
X335190000Y-75090000D03*
X333490000Y-75090000D03*
X334340000Y-75090000D03*
X336040000Y-75090000D03*
X331790000Y-75090000D03*
X330940000Y-75090000D03*
X330090000Y-75090000D03*
X332640000Y-75090000D03*
D11*
X337390000Y-75460000D03*
X328740000Y-75460000D03*
D12*
X337390000Y-72080000D03*
X328740000Y-72080000D03*
%TD*%
D13*
%TO.C,REF\u002A\u002A*%
X388126556Y-118061660D03*
%TD*%
%TO.C,REF\u002A\u002A*%
X278725056Y-146335860D03*
%TD*%
%TO.C,REF\u002A\u002A*%
X245388056Y-89785860D03*
%TD*%
%TO.C,REF\u002A\u002A*%
X164425056Y-146335860D03*
%TD*%
%TO.C,REF\u002A\u002A*%
X131087456Y-89785860D03*
%TD*%
%TO.C,REF\u002A\u002A*%
X50262641Y-118061660D03*
%TD*%
%TO.C,K59*%
G36*
G01*
X306118180Y-132529876D02*
X306157628Y-131951219D01*
G75*
G02*
X307543038Y-130742649I1296990J-88420D01*
G01*
X307543038Y-130742649D01*
G75*
G02*
X308751608Y-132128059I-88420J-1296990D01*
G01*
X308712160Y-132706715D01*
G75*
G02*
X307326750Y-133915285I-1296990J88420D01*
G01*
X307326750Y-133915285D01*
G75*
G02*
X306118180Y-132529875I88420J1296990D01*
G01*
G37*
G36*
G01*
X299959023Y-133849293D02*
X301167947Y-131951663D01*
G75*
G02*
X302962845Y-131553743I1096409J-698489D01*
G01*
X302962845Y-131553743D01*
G75*
G02*
X303360765Y-133348641I-698489J-1096409D01*
G01*
X302151841Y-135246271D01*
G75*
G02*
X300356943Y-135644191I-1096409J698489D01*
G01*
X300356943Y-135644191D01*
G75*
G02*
X299959023Y-133849293I698489J1096409D01*
G01*
G37*
%TD*%
%TO.C,K62*%
G36*
G01*
X311123680Y-113479826D02*
X311163128Y-112901169D01*
G75*
G02*
X312548538Y-111692599I1296990J-88420D01*
G01*
X312548538Y-111692599D01*
G75*
G02*
X313757108Y-113078009I-88420J-1296990D01*
G01*
X313717660Y-113656665D01*
G75*
G02*
X312332250Y-114865235I-1296990J88420D01*
G01*
X312332250Y-114865235D01*
G75*
G02*
X311123680Y-113479825I88420J1296990D01*
G01*
G37*
G36*
G01*
X304964523Y-114799243D02*
X306173447Y-112901613D01*
G75*
G02*
X307968345Y-112503693I1096409J-698489D01*
G01*
X307968345Y-112503693D01*
G75*
G02*
X308366265Y-114298591I-698489J-1096409D01*
G01*
X307157341Y-116196221D01*
G75*
G02*
X305362443Y-116594141I-1096409J698489D01*
G01*
X305362443Y-116594141D01*
G75*
G02*
X304964523Y-114799243I698489J1096409D01*
G01*
G37*
%TD*%
%TO.C,K4*%
G36*
G01*
X67749680Y-132529876D02*
X67789128Y-131951219D01*
G75*
G02*
X69174538Y-130742649I1296990J-88420D01*
G01*
X69174538Y-130742649D01*
G75*
G02*
X70383108Y-132128059I-88420J-1296990D01*
G01*
X70343660Y-132706715D01*
G75*
G02*
X68958250Y-133915285I-1296990J88420D01*
G01*
X68958250Y-133915285D01*
G75*
G02*
X67749680Y-132529875I88420J1296990D01*
G01*
G37*
G36*
G01*
X61590523Y-133849293D02*
X62799447Y-131951663D01*
G75*
G02*
X64594345Y-131553743I1096409J-698489D01*
G01*
X64594345Y-131553743D01*
G75*
G02*
X64992265Y-133348641I-698489J-1096409D01*
G01*
X63783341Y-135246271D01*
G75*
G02*
X61988443Y-135644191I-1096409J698489D01*
G01*
X61988443Y-135644191D01*
G75*
G02*
X61590523Y-133849293I698489J1096409D01*
G01*
G37*
%TD*%
%TO.C,K64*%
G36*
G01*
X313262180Y-75379826D02*
X313301628Y-74801169D01*
G75*
G02*
X314687038Y-73592599I1296990J-88420D01*
G01*
X314687038Y-73592599D01*
G75*
G02*
X315895608Y-74978009I-88420J-1296990D01*
G01*
X315856160Y-75556665D01*
G75*
G02*
X314470750Y-76765235I-1296990J88420D01*
G01*
X314470750Y-76765235D01*
G75*
G02*
X313262180Y-75379825I88420J1296990D01*
G01*
G37*
G36*
G01*
X307103023Y-76699243D02*
X308311947Y-74801613D01*
G75*
G02*
X310106845Y-74403693I1096409J-698489D01*
G01*
X310106845Y-74403693D01*
G75*
G02*
X310504765Y-76198591I-698489J-1096409D01*
G01*
X309295841Y-78096221D01*
G75*
G02*
X307500943Y-78494141I-1096409J698489D01*
G01*
X307500943Y-78494141D01*
G75*
G02*
X307103023Y-76699243I698489J1096409D01*
G01*
G37*
%TD*%
%TO.C,K3*%
G36*
G01*
X63229740Y-113479226D02*
X63269188Y-112900569D01*
G75*
G02*
X64654598Y-111691999I1296990J-88420D01*
G01*
X64654598Y-111691999D01*
G75*
G02*
X65863168Y-113077409I-88420J-1296990D01*
G01*
X65823720Y-113656065D01*
G75*
G02*
X64438310Y-114864635I-1296990J88420D01*
G01*
X64438310Y-114864635D01*
G75*
G02*
X63229740Y-113479225I88420J1296990D01*
G01*
G37*
G36*
G01*
X57070583Y-114798643D02*
X58279507Y-112901013D01*
G75*
G02*
X60074405Y-112503093I1096409J-698489D01*
G01*
X60074405Y-112503093D01*
G75*
G02*
X60472325Y-114297991I-698489J-1096409D01*
G01*
X59263401Y-116195621D01*
G75*
G02*
X57468503Y-116593541I-1096409J698489D01*
G01*
X57468503Y-116593541D01*
G75*
G02*
X57070583Y-114798643I698489J1096409D01*
G01*
G37*
%TD*%
%TO.C,K2*%
G36*
G01*
X60849165Y-94429976D02*
X60888613Y-93851319D01*
G75*
G02*
X62274023Y-92642749I1296990J-88420D01*
G01*
X62274023Y-92642749D01*
G75*
G02*
X63482593Y-94028159I-88420J-1296990D01*
G01*
X63443145Y-94606815D01*
G75*
G02*
X62057735Y-95815385I-1296990J88420D01*
G01*
X62057735Y-95815385D01*
G75*
G02*
X60849165Y-94429975I88420J1296990D01*
G01*
G37*
G36*
G01*
X54690008Y-95749393D02*
X55898932Y-93851763D01*
G75*
G02*
X57693830Y-93453843I1096409J-698489D01*
G01*
X57693830Y-93453843D01*
G75*
G02*
X58091750Y-95248741I-698489J-1096409D01*
G01*
X56882826Y-97146371D01*
G75*
G02*
X55087928Y-97544291I-1096409J698489D01*
G01*
X55087928Y-97544291D01*
G75*
G02*
X54690008Y-95749393I698489J1096409D01*
G01*
G37*
%TD*%
%TO.C,K65*%
G36*
G01*
X318024180Y-94429976D02*
X318063628Y-93851319D01*
G75*
G02*
X319449038Y-92642749I1296990J-88420D01*
G01*
X319449038Y-92642749D01*
G75*
G02*
X320657608Y-94028159I-88420J-1296990D01*
G01*
X320618160Y-94606815D01*
G75*
G02*
X319232750Y-95815385I-1296990J88420D01*
G01*
X319232750Y-95815385D01*
G75*
G02*
X318024180Y-94429975I88420J1296990D01*
G01*
G37*
G36*
G01*
X311865023Y-95749393D02*
X313073947Y-93851763D01*
G75*
G02*
X314868845Y-93453843I1096409J-698489D01*
G01*
X314868845Y-93453843D01*
G75*
G02*
X315266765Y-95248741I-698489J-1096409D01*
G01*
X314057841Y-97146371D01*
G75*
G02*
X312262943Y-97544291I-1096409J698489D01*
G01*
X312262943Y-97544291D01*
G75*
G02*
X311865023Y-95749393I698489J1096409D01*
G01*
G37*
%TD*%
%TO.C,K5*%
G36*
G01*
X58468630Y-151579196D02*
X58508078Y-151000539D01*
G75*
G02*
X59893488Y-149791969I1296990J-88420D01*
G01*
X59893488Y-149791969D01*
G75*
G02*
X61102058Y-151177379I-88420J-1296990D01*
G01*
X61062610Y-151756035D01*
G75*
G02*
X59677200Y-152964605I-1296990J88420D01*
G01*
X59677200Y-152964605D01*
G75*
G02*
X58468630Y-151579195I88420J1296990D01*
G01*
G37*
G36*
G01*
X52309473Y-152898613D02*
X53518397Y-151000983D01*
G75*
G02*
X55313295Y-150603063I1096409J-698489D01*
G01*
X55313295Y-150603063D01*
G75*
G02*
X55711215Y-152397961I-698489J-1096409D01*
G01*
X54502291Y-154295591D01*
G75*
G02*
X52707393Y-154693511I-1096409J698489D01*
G01*
X52707393Y-154693511D01*
G75*
G02*
X52309473Y-152898613I698489J1096409D01*
G01*
G37*
%TD*%
%TO.C,K10*%
G36*
G01*
X82279680Y-151579196D02*
X82319128Y-151000539D01*
G75*
G02*
X83704538Y-149791969I1296990J-88420D01*
G01*
X83704538Y-149791969D01*
G75*
G02*
X84913108Y-151177379I-88420J-1296990D01*
G01*
X84873660Y-151756035D01*
G75*
G02*
X83488250Y-152964605I-1296990J88420D01*
G01*
X83488250Y-152964605D01*
G75*
G02*
X82279680Y-151579195I88420J1296990D01*
G01*
G37*
G36*
G01*
X76120523Y-152898613D02*
X77329447Y-151000983D01*
G75*
G02*
X79124345Y-150603063I1096409J-698489D01*
G01*
X79124345Y-150603063D01*
G75*
G02*
X79522265Y-152397961I-698489J-1096409D01*
G01*
X78313341Y-154295591D01*
G75*
G02*
X76518443Y-154693511I-1096409J698489D01*
G01*
X76518443Y-154693511D01*
G75*
G02*
X76120523Y-152898613I698489J1096409D01*
G01*
G37*
%TD*%
%TO.C,K15*%
G36*
G01*
X106093580Y-151579196D02*
X106133028Y-151000539D01*
G75*
G02*
X107518438Y-149791969I1296990J-88420D01*
G01*
X107518438Y-149791969D01*
G75*
G02*
X108727008Y-151177379I-88420J-1296990D01*
G01*
X108687560Y-151756035D01*
G75*
G02*
X107302150Y-152964605I-1296990J88420D01*
G01*
X107302150Y-152964605D01*
G75*
G02*
X106093580Y-151579195I88420J1296990D01*
G01*
G37*
G36*
G01*
X99934423Y-152898613D02*
X101143347Y-151000983D01*
G75*
G02*
X102938245Y-150603063I1096409J-698489D01*
G01*
X102938245Y-150603063D01*
G75*
G02*
X103336165Y-152397961I-698489J-1096409D01*
G01*
X102127241Y-154295591D01*
G75*
G02*
X100332343Y-154693511I-1096409J698489D01*
G01*
X100332343Y-154693511D01*
G75*
G02*
X99934423Y-152898613I698489J1096409D01*
G01*
G37*
%TD*%
%TO.C,K25*%
G36*
G01*
X248968680Y-151579196D02*
X249008128Y-151000539D01*
G75*
G02*
X250393538Y-149791969I1296990J-88420D01*
G01*
X250393538Y-149791969D01*
G75*
G02*
X251602108Y-151177379I-88420J-1296990D01*
G01*
X251562660Y-151756035D01*
G75*
G02*
X250177250Y-152964605I-1296990J88420D01*
G01*
X250177250Y-152964605D01*
G75*
G02*
X248968680Y-151579195I88420J1296990D01*
G01*
G37*
G36*
G01*
X242809523Y-152898613D02*
X244018447Y-151000983D01*
G75*
G02*
X245813345Y-150603063I1096409J-698489D01*
G01*
X245813345Y-150603063D01*
G75*
G02*
X246211265Y-152397961I-698489J-1096409D01*
G01*
X245002341Y-154295591D01*
G75*
G02*
X243207443Y-154693511I-1096409J698489D01*
G01*
X243207443Y-154693511D01*
G75*
G02*
X242809523Y-152898613I698489J1096409D01*
G01*
G37*
%TD*%
%TO.C,K30*%
G36*
G01*
X272779680Y-151579196D02*
X272819128Y-151000539D01*
G75*
G02*
X274204538Y-149791969I1296990J-88420D01*
G01*
X274204538Y-149791969D01*
G75*
G02*
X275413108Y-151177379I-88420J-1296990D01*
G01*
X275373660Y-151756035D01*
G75*
G02*
X273988250Y-152964605I-1296990J88420D01*
G01*
X273988250Y-152964605D01*
G75*
G02*
X272779680Y-151579195I88420J1296990D01*
G01*
G37*
G36*
G01*
X266620523Y-152898613D02*
X267829447Y-151000983D01*
G75*
G02*
X269624345Y-150603063I1096409J-698489D01*
G01*
X269624345Y-150603063D01*
G75*
G02*
X270022265Y-152397961I-698489J-1096409D01*
G01*
X268813341Y-154295591D01*
G75*
G02*
X267018443Y-154693511I-1096409J698489D01*
G01*
X267018443Y-154693511D01*
G75*
G02*
X266620523Y-152898613I698489J1096409D01*
G01*
G37*
%TD*%
%TO.C,K35*%
G36*
G01*
X296593680Y-151579196D02*
X296633128Y-151000539D01*
G75*
G02*
X298018538Y-149791969I1296990J-88420D01*
G01*
X298018538Y-149791969D01*
G75*
G02*
X299227108Y-151177379I-88420J-1296990D01*
G01*
X299187660Y-151756035D01*
G75*
G02*
X297802250Y-152964605I-1296990J88420D01*
G01*
X297802250Y-152964605D01*
G75*
G02*
X296593680Y-151579195I88420J1296990D01*
G01*
G37*
G36*
G01*
X290434523Y-152898613D02*
X291643447Y-151000983D01*
G75*
G02*
X293438345Y-150603063I1096409J-698489D01*
G01*
X293438345Y-150603063D01*
G75*
G02*
X293836265Y-152397961I-698489J-1096409D01*
G01*
X292627341Y-154295591D01*
G75*
G02*
X290832443Y-154693511I-1096409J698489D01*
G01*
X290832443Y-154693511D01*
G75*
G02*
X290434523Y-152898613I698489J1096409D01*
G01*
G37*
%TD*%
%TO.C,K40*%
G36*
G01*
X320404680Y-151579196D02*
X320444128Y-151000539D01*
G75*
G02*
X321829538Y-149791969I1296990J-88420D01*
G01*
X321829538Y-149791969D01*
G75*
G02*
X323038108Y-151177379I-88420J-1296990D01*
G01*
X322998660Y-151756035D01*
G75*
G02*
X321613250Y-152964605I-1296990J88420D01*
G01*
X321613250Y-152964605D01*
G75*
G02*
X320404680Y-151579195I88420J1296990D01*
G01*
G37*
G36*
G01*
X314245523Y-152898613D02*
X315454447Y-151000983D01*
G75*
G02*
X317249345Y-150603063I1096409J-698489D01*
G01*
X317249345Y-150603063D01*
G75*
G02*
X317647265Y-152397961I-698489J-1096409D01*
G01*
X316438341Y-154295591D01*
G75*
G02*
X314643443Y-154693511I-1096409J698489D01*
G01*
X314643443Y-154693511D01*
G75*
G02*
X314245523Y-152898613I698489J1096409D01*
G01*
G37*
%TD*%
%TO.C,K11*%
G36*
G01*
X94185880Y-75380676D02*
X94225328Y-74802019D01*
G75*
G02*
X95610738Y-73593449I1296990J-88420D01*
G01*
X95610738Y-73593449D01*
G75*
G02*
X96819308Y-74978859I-88420J-1296990D01*
G01*
X96779860Y-75557515D01*
G75*
G02*
X95394450Y-76766085I-1296990J88420D01*
G01*
X95394450Y-76766085D01*
G75*
G02*
X94185880Y-75380675I88420J1296990D01*
G01*
G37*
G36*
G01*
X88026723Y-76700093D02*
X89235647Y-74802463D01*
G75*
G02*
X91030545Y-74404543I1096409J-698489D01*
G01*
X91030545Y-74404543D01*
G75*
G02*
X91428465Y-76199441I-698489J-1096409D01*
G01*
X90219541Y-78097071D01*
G75*
G02*
X88424643Y-78494991I-1096409J698489D01*
G01*
X88424643Y-78494991D01*
G75*
G02*
X88026723Y-76700093I698489J1096409D01*
G01*
G37*
%TD*%
%TO.C,K6*%
G36*
G01*
X75136580Y-75380676D02*
X75176028Y-74802019D01*
G75*
G02*
X76561438Y-73593449I1296990J-88420D01*
G01*
X76561438Y-73593449D01*
G75*
G02*
X77770008Y-74978859I-88420J-1296990D01*
G01*
X77730560Y-75557515D01*
G75*
G02*
X76345150Y-76766085I-1296990J88420D01*
G01*
X76345150Y-76766085D01*
G75*
G02*
X75136580Y-75380675I88420J1296990D01*
G01*
G37*
G36*
G01*
X68977423Y-76700093D02*
X70186347Y-74802463D01*
G75*
G02*
X71981245Y-74404543I1096409J-698489D01*
G01*
X71981245Y-74404543D01*
G75*
G02*
X72379165Y-76199441I-698489J-1096409D01*
G01*
X71170241Y-78097071D01*
G75*
G02*
X69375343Y-78494991I-1096409J698489D01*
G01*
X69375343Y-78494991D01*
G75*
G02*
X68977423Y-76700093I698489J1096409D01*
G01*
G37*
%TD*%
%TO.C,K1*%
G36*
G01*
X56087350Y-75380676D02*
X56126798Y-74802019D01*
G75*
G02*
X57512208Y-73593449I1296990J-88420D01*
G01*
X57512208Y-73593449D01*
G75*
G02*
X58720778Y-74978859I-88420J-1296990D01*
G01*
X58681330Y-75557515D01*
G75*
G02*
X57295920Y-76766085I-1296990J88420D01*
G01*
X57295920Y-76766085D01*
G75*
G02*
X56087350Y-75380675I88420J1296990D01*
G01*
G37*
G36*
G01*
X49928193Y-76700093D02*
X51137117Y-74802463D01*
G75*
G02*
X52932015Y-74404543I1096409J-698489D01*
G01*
X52932015Y-74404543D01*
G75*
G02*
X53329935Y-76199441I-698489J-1096409D01*
G01*
X52121011Y-78097071D01*
G75*
G02*
X50326113Y-78494991I-1096409J698489D01*
G01*
X50326113Y-78494991D01*
G75*
G02*
X49928193Y-76700093I698489J1096409D01*
G01*
G37*
%TD*%
%TO.C,K16*%
G36*
G01*
X113235880Y-75380676D02*
X113275328Y-74802019D01*
G75*
G02*
X114660738Y-73593449I1296990J-88420D01*
G01*
X114660738Y-73593449D01*
G75*
G02*
X115869308Y-74978859I-88420J-1296990D01*
G01*
X115829860Y-75557515D01*
G75*
G02*
X114444450Y-76766085I-1296990J88420D01*
G01*
X114444450Y-76766085D01*
G75*
G02*
X113235880Y-75380675I88420J1296990D01*
G01*
G37*
G36*
G01*
X107076723Y-76700093D02*
X108285647Y-74802463D01*
G75*
G02*
X110080545Y-74404543I1096409J-698489D01*
G01*
X110080545Y-74404543D01*
G75*
G02*
X110478465Y-76199441I-698489J-1096409D01*
G01*
X109269541Y-78097071D01*
G75*
G02*
X107474643Y-78494991I-1096409J698489D01*
G01*
X107474643Y-78494991D01*
G75*
G02*
X107076723Y-76700093I698489J1096409D01*
G01*
G37*
%TD*%
%TO.C,K21*%
G36*
G01*
X132286580Y-75380676D02*
X132326028Y-74802019D01*
G75*
G02*
X133711438Y-73593449I1296990J-88420D01*
G01*
X133711438Y-73593449D01*
G75*
G02*
X134920008Y-74978859I-88420J-1296990D01*
G01*
X134880560Y-75557515D01*
G75*
G02*
X133495150Y-76766085I-1296990J88420D01*
G01*
X133495150Y-76766085D01*
G75*
G02*
X132286580Y-75380675I88420J1296990D01*
G01*
G37*
G36*
G01*
X126127423Y-76700093D02*
X127336347Y-74802463D01*
G75*
G02*
X129131245Y-74404543I1096409J-698489D01*
G01*
X129131245Y-74404543D01*
G75*
G02*
X129529165Y-76199441I-698489J-1096409D01*
G01*
X128320241Y-78097071D01*
G75*
G02*
X126525343Y-78494991I-1096409J698489D01*
G01*
X126525343Y-78494991D01*
G75*
G02*
X126127423Y-76700093I698489J1096409D01*
G01*
G37*
%TD*%
%TO.C,K26*%
G36*
G01*
X151335880Y-75380676D02*
X151375328Y-74802019D01*
G75*
G02*
X152760738Y-73593449I1296990J-88420D01*
G01*
X152760738Y-73593449D01*
G75*
G02*
X153969308Y-74978859I-88420J-1296990D01*
G01*
X153929860Y-75557515D01*
G75*
G02*
X152544450Y-76766085I-1296990J88420D01*
G01*
X152544450Y-76766085D01*
G75*
G02*
X151335880Y-75380675I88420J1296990D01*
G01*
G37*
G36*
G01*
X145176723Y-76700093D02*
X146385647Y-74802463D01*
G75*
G02*
X148180545Y-74404543I1096409J-698489D01*
G01*
X148180545Y-74404543D01*
G75*
G02*
X148578465Y-76199441I-698489J-1096409D01*
G01*
X147369541Y-78097071D01*
G75*
G02*
X145574643Y-78494991I-1096409J698489D01*
G01*
X145574643Y-78494991D01*
G75*
G02*
X145176723Y-76700093I698489J1096409D01*
G01*
G37*
%TD*%
%TO.C,K31*%
G36*
G01*
X170386180Y-75380676D02*
X170425628Y-74802019D01*
G75*
G02*
X171811038Y-73593449I1296990J-88420D01*
G01*
X171811038Y-73593449D01*
G75*
G02*
X173019608Y-74978859I-88420J-1296990D01*
G01*
X172980160Y-75557515D01*
G75*
G02*
X171594750Y-76766085I-1296990J88420D01*
G01*
X171594750Y-76766085D01*
G75*
G02*
X170386180Y-75380675I88420J1296990D01*
G01*
G37*
G36*
G01*
X164227023Y-76700093D02*
X165435947Y-74802463D01*
G75*
G02*
X167230845Y-74404543I1096409J-698489D01*
G01*
X167230845Y-74404543D01*
G75*
G02*
X167628765Y-76199441I-698489J-1096409D01*
G01*
X166419841Y-78097071D01*
G75*
G02*
X164624943Y-78494991I-1096409J698489D01*
G01*
X164624943Y-78494991D01*
G75*
G02*
X164227023Y-76700093I698489J1096409D01*
G01*
G37*
%TD*%
%TO.C,K36*%
G36*
G01*
X189437180Y-75380676D02*
X189476628Y-74802019D01*
G75*
G02*
X190862038Y-73593449I1296990J-88420D01*
G01*
X190862038Y-73593449D01*
G75*
G02*
X192070608Y-74978859I-88420J-1296990D01*
G01*
X192031160Y-75557515D01*
G75*
G02*
X190645750Y-76766085I-1296990J88420D01*
G01*
X190645750Y-76766085D01*
G75*
G02*
X189437180Y-75380675I88420J1296990D01*
G01*
G37*
G36*
G01*
X183278023Y-76700093D02*
X184486947Y-74802463D01*
G75*
G02*
X186281845Y-74404543I1096409J-698489D01*
G01*
X186281845Y-74404543D01*
G75*
G02*
X186679765Y-76199441I-698489J-1096409D01*
G01*
X185470841Y-78097071D01*
G75*
G02*
X183675943Y-78494991I-1096409J698489D01*
G01*
X183675943Y-78494991D01*
G75*
G02*
X183278023Y-76700093I698489J1096409D01*
G01*
G37*
%TD*%
%TO.C,K41*%
G36*
G01*
X208487180Y-75380676D02*
X208526628Y-74802019D01*
G75*
G02*
X209912038Y-73593449I1296990J-88420D01*
G01*
X209912038Y-73593449D01*
G75*
G02*
X211120608Y-74978859I-88420J-1296990D01*
G01*
X211081160Y-75557515D01*
G75*
G02*
X209695750Y-76766085I-1296990J88420D01*
G01*
X209695750Y-76766085D01*
G75*
G02*
X208487180Y-75380675I88420J1296990D01*
G01*
G37*
G36*
G01*
X202328023Y-76700093D02*
X203536947Y-74802463D01*
G75*
G02*
X205331845Y-74404543I1096409J-698489D01*
G01*
X205331845Y-74404543D01*
G75*
G02*
X205729765Y-76199441I-698489J-1096409D01*
G01*
X204520841Y-78097071D01*
G75*
G02*
X202725943Y-78494991I-1096409J698489D01*
G01*
X202725943Y-78494991D01*
G75*
G02*
X202328023Y-76700093I698489J1096409D01*
G01*
G37*
%TD*%
%TO.C,K46*%
G36*
G01*
X227537180Y-75380676D02*
X227576628Y-74802019D01*
G75*
G02*
X228962038Y-73593449I1296990J-88420D01*
G01*
X228962038Y-73593449D01*
G75*
G02*
X230170608Y-74978859I-88420J-1296990D01*
G01*
X230131160Y-75557515D01*
G75*
G02*
X228745750Y-76766085I-1296990J88420D01*
G01*
X228745750Y-76766085D01*
G75*
G02*
X227537180Y-75380675I88420J1296990D01*
G01*
G37*
G36*
G01*
X221378023Y-76700093D02*
X222586947Y-74802463D01*
G75*
G02*
X224381845Y-74404543I1096409J-698489D01*
G01*
X224381845Y-74404543D01*
G75*
G02*
X224779765Y-76199441I-698489J-1096409D01*
G01*
X223570841Y-78097071D01*
G75*
G02*
X221775943Y-78494991I-1096409J698489D01*
G01*
X221775943Y-78494991D01*
G75*
G02*
X221378023Y-76700093I698489J1096409D01*
G01*
G37*
%TD*%
%TO.C,K51*%
G36*
G01*
X246587180Y-75380676D02*
X246626628Y-74802019D01*
G75*
G02*
X248012038Y-73593449I1296990J-88420D01*
G01*
X248012038Y-73593449D01*
G75*
G02*
X249220608Y-74978859I-88420J-1296990D01*
G01*
X249181160Y-75557515D01*
G75*
G02*
X247795750Y-76766085I-1296990J88420D01*
G01*
X247795750Y-76766085D01*
G75*
G02*
X246587180Y-75380675I88420J1296990D01*
G01*
G37*
G36*
G01*
X240428023Y-76700093D02*
X241636947Y-74802463D01*
G75*
G02*
X243431845Y-74404543I1096409J-698489D01*
G01*
X243431845Y-74404543D01*
G75*
G02*
X243829765Y-76199441I-698489J-1096409D01*
G01*
X242620841Y-78097071D01*
G75*
G02*
X240825943Y-78494991I-1096409J698489D01*
G01*
X240825943Y-78494991D01*
G75*
G02*
X240428023Y-76700093I698489J1096409D01*
G01*
G37*
%TD*%
%TO.C,K56*%
G36*
G01*
X265637180Y-75380676D02*
X265676628Y-74802019D01*
G75*
G02*
X267062038Y-73593449I1296990J-88420D01*
G01*
X267062038Y-73593449D01*
G75*
G02*
X268270608Y-74978859I-88420J-1296990D01*
G01*
X268231160Y-75557515D01*
G75*
G02*
X266845750Y-76766085I-1296990J88420D01*
G01*
X266845750Y-76766085D01*
G75*
G02*
X265637180Y-75380675I88420J1296990D01*
G01*
G37*
G36*
G01*
X259478023Y-76700093D02*
X260686947Y-74802463D01*
G75*
G02*
X262481845Y-74404543I1096409J-698489D01*
G01*
X262481845Y-74404543D01*
G75*
G02*
X262879765Y-76199441I-698489J-1096409D01*
G01*
X261670841Y-78097071D01*
G75*
G02*
X259875943Y-78494991I-1096409J698489D01*
G01*
X259875943Y-78494991D01*
G75*
G02*
X259478023Y-76700093I698489J1096409D01*
G01*
G37*
%TD*%
%TO.C,K60*%
G36*
G01*
X284687180Y-75380676D02*
X284726628Y-74802019D01*
G75*
G02*
X286112038Y-73593449I1296990J-88420D01*
G01*
X286112038Y-73593449D01*
G75*
G02*
X287320608Y-74978859I-88420J-1296990D01*
G01*
X287281160Y-75557515D01*
G75*
G02*
X285895750Y-76766085I-1296990J88420D01*
G01*
X285895750Y-76766085D01*
G75*
G02*
X284687180Y-75380675I88420J1296990D01*
G01*
G37*
G36*
G01*
X278528023Y-76700093D02*
X279736947Y-74802463D01*
G75*
G02*
X281531845Y-74404543I1096409J-698489D01*
G01*
X281531845Y-74404543D01*
G75*
G02*
X281929765Y-76199441I-698489J-1096409D01*
G01*
X280720841Y-78097071D01*
G75*
G02*
X278925943Y-78494991I-1096409J698489D01*
G01*
X278925943Y-78494991D01*
G75*
G02*
X278528023Y-76700093I698489J1096409D01*
G01*
G37*
%TD*%
%TO.C,K68*%
G36*
G01*
X346599180Y-75380676D02*
X346638628Y-74802019D01*
G75*
G02*
X348024038Y-73593449I1296990J-88420D01*
G01*
X348024038Y-73593449D01*
G75*
G02*
X349232608Y-74978859I-88420J-1296990D01*
G01*
X349193160Y-75557515D01*
G75*
G02*
X347807750Y-76766085I-1296990J88420D01*
G01*
X347807750Y-76766085D01*
G75*
G02*
X346599180Y-75380675I88420J1296990D01*
G01*
G37*
G36*
G01*
X340440023Y-76700093D02*
X341648947Y-74802463D01*
G75*
G02*
X343443845Y-74404543I1096409J-698489D01*
G01*
X343443845Y-74404543D01*
G75*
G02*
X343841765Y-76199441I-698489J-1096409D01*
G01*
X342632841Y-78097071D01*
G75*
G02*
X340837943Y-78494991I-1096409J698489D01*
G01*
X340837943Y-78494991D01*
G75*
G02*
X340440023Y-76700093I698489J1096409D01*
G01*
G37*
%TD*%
%TO.C,K66*%
G36*
G01*
X365649180Y-75380676D02*
X365688628Y-74802019D01*
G75*
G02*
X367074038Y-73593449I1296990J-88420D01*
G01*
X367074038Y-73593449D01*
G75*
G02*
X368282608Y-74978859I-88420J-1296990D01*
G01*
X368243160Y-75557515D01*
G75*
G02*
X366857750Y-76766085I-1296990J88420D01*
G01*
X366857750Y-76766085D01*
G75*
G02*
X365649180Y-75380675I88420J1296990D01*
G01*
G37*
G36*
G01*
X359490023Y-76700093D02*
X360698947Y-74802463D01*
G75*
G02*
X362493845Y-74404543I1096409J-698489D01*
G01*
X362493845Y-74404543D01*
G75*
G02*
X362891765Y-76199441I-698489J-1096409D01*
G01*
X361682841Y-78097071D01*
G75*
G02*
X359887943Y-78494991I-1096409J698489D01*
G01*
X359887943Y-78494991D01*
G75*
G02*
X359490023Y-76700093I698489J1096409D01*
G01*
G37*
%TD*%
%TO.C,K70*%
G36*
G01*
X384699180Y-75380676D02*
X384738628Y-74802019D01*
G75*
G02*
X386124038Y-73593449I1296990J-88420D01*
G01*
X386124038Y-73593449D01*
G75*
G02*
X387332608Y-74978859I-88420J-1296990D01*
G01*
X387293160Y-75557515D01*
G75*
G02*
X385907750Y-76766085I-1296990J88420D01*
G01*
X385907750Y-76766085D01*
G75*
G02*
X384699180Y-75380675I88420J1296990D01*
G01*
G37*
G36*
G01*
X378540023Y-76700093D02*
X379748947Y-74802463D01*
G75*
G02*
X381543845Y-74404543I1096409J-698489D01*
G01*
X381543845Y-74404543D01*
G75*
G02*
X381941765Y-76199441I-698489J-1096409D01*
G01*
X380732841Y-78097071D01*
G75*
G02*
X378937943Y-78494991I-1096409J698489D01*
G01*
X378937943Y-78494991D01*
G75*
G02*
X378540023Y-76700093I698489J1096409D01*
G01*
G37*
%TD*%
%TO.C,K7*%
G36*
G01*
X84662280Y-94429976D02*
X84701728Y-93851319D01*
G75*
G02*
X86087138Y-92642749I1296990J-88420D01*
G01*
X86087138Y-92642749D01*
G75*
G02*
X87295708Y-94028159I-88420J-1296990D01*
G01*
X87256260Y-94606815D01*
G75*
G02*
X85870850Y-95815385I-1296990J88420D01*
G01*
X85870850Y-95815385D01*
G75*
G02*
X84662280Y-94429975I88420J1296990D01*
G01*
G37*
G36*
G01*
X78503123Y-95749393D02*
X79712047Y-93851763D01*
G75*
G02*
X81506945Y-93453843I1096409J-698489D01*
G01*
X81506945Y-93453843D01*
G75*
G02*
X81904865Y-95248741I-698489J-1096409D01*
G01*
X80695941Y-97146371D01*
G75*
G02*
X78901043Y-97544291I-1096409J698489D01*
G01*
X78901043Y-97544291D01*
G75*
G02*
X78503123Y-95749393I698489J1096409D01*
G01*
G37*
%TD*%
%TO.C,K12*%
G36*
G01*
X103712280Y-94429976D02*
X103751728Y-93851319D01*
G75*
G02*
X105137138Y-92642749I1296990J-88420D01*
G01*
X105137138Y-92642749D01*
G75*
G02*
X106345708Y-94028159I-88420J-1296990D01*
G01*
X106306260Y-94606815D01*
G75*
G02*
X104920850Y-95815385I-1296990J88420D01*
G01*
X104920850Y-95815385D01*
G75*
G02*
X103712280Y-94429975I88420J1296990D01*
G01*
G37*
G36*
G01*
X97553123Y-95749393D02*
X98762047Y-93851763D01*
G75*
G02*
X100556945Y-93453843I1096409J-698489D01*
G01*
X100556945Y-93453843D01*
G75*
G02*
X100954865Y-95248741I-698489J-1096409D01*
G01*
X99745941Y-97146371D01*
G75*
G02*
X97951043Y-97544291I-1096409J698489D01*
G01*
X97951043Y-97544291D01*
G75*
G02*
X97553123Y-95749393I698489J1096409D01*
G01*
G37*
%TD*%
%TO.C,K17*%
G36*
G01*
X122761580Y-94429976D02*
X122801028Y-93851319D01*
G75*
G02*
X124186438Y-92642749I1296990J-88420D01*
G01*
X124186438Y-92642749D01*
G75*
G02*
X125395008Y-94028159I-88420J-1296990D01*
G01*
X125355560Y-94606815D01*
G75*
G02*
X123970150Y-95815385I-1296990J88420D01*
G01*
X123970150Y-95815385D01*
G75*
G02*
X122761580Y-94429975I88420J1296990D01*
G01*
G37*
G36*
G01*
X116602423Y-95749393D02*
X117811347Y-93851763D01*
G75*
G02*
X119606245Y-93453843I1096409J-698489D01*
G01*
X119606245Y-93453843D01*
G75*
G02*
X120004165Y-95248741I-698489J-1096409D01*
G01*
X118795241Y-97146371D01*
G75*
G02*
X117000343Y-97544291I-1096409J698489D01*
G01*
X117000343Y-97544291D01*
G75*
G02*
X116602423Y-95749393I698489J1096409D01*
G01*
G37*
%TD*%
%TO.C,K22*%
G36*
G01*
X141811380Y-94429976D02*
X141850828Y-93851319D01*
G75*
G02*
X143236238Y-92642749I1296990J-88420D01*
G01*
X143236238Y-92642749D01*
G75*
G02*
X144444808Y-94028159I-88420J-1296990D01*
G01*
X144405360Y-94606815D01*
G75*
G02*
X143019950Y-95815385I-1296990J88420D01*
G01*
X143019950Y-95815385D01*
G75*
G02*
X141811380Y-94429975I88420J1296990D01*
G01*
G37*
G36*
G01*
X135652223Y-95749393D02*
X136861147Y-93851763D01*
G75*
G02*
X138656045Y-93453843I1096409J-698489D01*
G01*
X138656045Y-93453843D01*
G75*
G02*
X139053965Y-95248741I-698489J-1096409D01*
G01*
X137845041Y-97146371D01*
G75*
G02*
X136050143Y-97544291I-1096409J698489D01*
G01*
X136050143Y-97544291D01*
G75*
G02*
X135652223Y-95749393I698489J1096409D01*
G01*
G37*
%TD*%
%TO.C,K27*%
G36*
G01*
X160861180Y-94429976D02*
X160900628Y-93851319D01*
G75*
G02*
X162286038Y-92642749I1296990J-88420D01*
G01*
X162286038Y-92642749D01*
G75*
G02*
X163494608Y-94028159I-88420J-1296990D01*
G01*
X163455160Y-94606815D01*
G75*
G02*
X162069750Y-95815385I-1296990J88420D01*
G01*
X162069750Y-95815385D01*
G75*
G02*
X160861180Y-94429975I88420J1296990D01*
G01*
G37*
G36*
G01*
X154702023Y-95749393D02*
X155910947Y-93851763D01*
G75*
G02*
X157705845Y-93453843I1096409J-698489D01*
G01*
X157705845Y-93453843D01*
G75*
G02*
X158103765Y-95248741I-698489J-1096409D01*
G01*
X156894841Y-97146371D01*
G75*
G02*
X155099943Y-97544291I-1096409J698489D01*
G01*
X155099943Y-97544291D01*
G75*
G02*
X154702023Y-95749393I698489J1096409D01*
G01*
G37*
%TD*%
%TO.C,K32*%
G36*
G01*
X179911180Y-94429976D02*
X179950628Y-93851319D01*
G75*
G02*
X181336038Y-92642749I1296990J-88420D01*
G01*
X181336038Y-92642749D01*
G75*
G02*
X182544608Y-94028159I-88420J-1296990D01*
G01*
X182505160Y-94606815D01*
G75*
G02*
X181119750Y-95815385I-1296990J88420D01*
G01*
X181119750Y-95815385D01*
G75*
G02*
X179911180Y-94429975I88420J1296990D01*
G01*
G37*
G36*
G01*
X173752023Y-95749393D02*
X174960947Y-93851763D01*
G75*
G02*
X176755845Y-93453843I1096409J-698489D01*
G01*
X176755845Y-93453843D01*
G75*
G02*
X177153765Y-95248741I-698489J-1096409D01*
G01*
X175944841Y-97146371D01*
G75*
G02*
X174149943Y-97544291I-1096409J698489D01*
G01*
X174149943Y-97544291D01*
G75*
G02*
X173752023Y-95749393I698489J1096409D01*
G01*
G37*
%TD*%
%TO.C,K37*%
G36*
G01*
X198962180Y-94429976D02*
X199001628Y-93851319D01*
G75*
G02*
X200387038Y-92642749I1296990J-88420D01*
G01*
X200387038Y-92642749D01*
G75*
G02*
X201595608Y-94028159I-88420J-1296990D01*
G01*
X201556160Y-94606815D01*
G75*
G02*
X200170750Y-95815385I-1296990J88420D01*
G01*
X200170750Y-95815385D01*
G75*
G02*
X198962180Y-94429975I88420J1296990D01*
G01*
G37*
G36*
G01*
X192803023Y-95749393D02*
X194011947Y-93851763D01*
G75*
G02*
X195806845Y-93453843I1096409J-698489D01*
G01*
X195806845Y-93453843D01*
G75*
G02*
X196204765Y-95248741I-698489J-1096409D01*
G01*
X194995841Y-97146371D01*
G75*
G02*
X193200943Y-97544291I-1096409J698489D01*
G01*
X193200943Y-97544291D01*
G75*
G02*
X192803023Y-95749393I698489J1096409D01*
G01*
G37*
%TD*%
%TO.C,K42*%
G36*
G01*
X218012180Y-94429976D02*
X218051628Y-93851319D01*
G75*
G02*
X219437038Y-92642749I1296990J-88420D01*
G01*
X219437038Y-92642749D01*
G75*
G02*
X220645608Y-94028159I-88420J-1296990D01*
G01*
X220606160Y-94606815D01*
G75*
G02*
X219220750Y-95815385I-1296990J88420D01*
G01*
X219220750Y-95815385D01*
G75*
G02*
X218012180Y-94429975I88420J1296990D01*
G01*
G37*
G36*
G01*
X211853023Y-95749393D02*
X213061947Y-93851763D01*
G75*
G02*
X214856845Y-93453843I1096409J-698489D01*
G01*
X214856845Y-93453843D01*
G75*
G02*
X215254765Y-95248741I-698489J-1096409D01*
G01*
X214045841Y-97146371D01*
G75*
G02*
X212250943Y-97544291I-1096409J698489D01*
G01*
X212250943Y-97544291D01*
G75*
G02*
X211853023Y-95749393I698489J1096409D01*
G01*
G37*
%TD*%
%TO.C,K47*%
G36*
G01*
X237062180Y-94429976D02*
X237101628Y-93851319D01*
G75*
G02*
X238487038Y-92642749I1296990J-88420D01*
G01*
X238487038Y-92642749D01*
G75*
G02*
X239695608Y-94028159I-88420J-1296990D01*
G01*
X239656160Y-94606815D01*
G75*
G02*
X238270750Y-95815385I-1296990J88420D01*
G01*
X238270750Y-95815385D01*
G75*
G02*
X237062180Y-94429975I88420J1296990D01*
G01*
G37*
G36*
G01*
X230903023Y-95749393D02*
X232111947Y-93851763D01*
G75*
G02*
X233906845Y-93453843I1096409J-698489D01*
G01*
X233906845Y-93453843D01*
G75*
G02*
X234304765Y-95248741I-698489J-1096409D01*
G01*
X233095841Y-97146371D01*
G75*
G02*
X231300943Y-97544291I-1096409J698489D01*
G01*
X231300943Y-97544291D01*
G75*
G02*
X230903023Y-95749393I698489J1096409D01*
G01*
G37*
%TD*%
%TO.C,K52*%
G36*
G01*
X256112180Y-94429976D02*
X256151628Y-93851319D01*
G75*
G02*
X257537038Y-92642749I1296990J-88420D01*
G01*
X257537038Y-92642749D01*
G75*
G02*
X258745608Y-94028159I-88420J-1296990D01*
G01*
X258706160Y-94606815D01*
G75*
G02*
X257320750Y-95815385I-1296990J88420D01*
G01*
X257320750Y-95815385D01*
G75*
G02*
X256112180Y-94429975I88420J1296990D01*
G01*
G37*
G36*
G01*
X249953023Y-95749393D02*
X251161947Y-93851763D01*
G75*
G02*
X252956845Y-93453843I1096409J-698489D01*
G01*
X252956845Y-93453843D01*
G75*
G02*
X253354765Y-95248741I-698489J-1096409D01*
G01*
X252145841Y-97146371D01*
G75*
G02*
X250350943Y-97544291I-1096409J698489D01*
G01*
X250350943Y-97544291D01*
G75*
G02*
X249953023Y-95749393I698489J1096409D01*
G01*
G37*
%TD*%
%TO.C,K57*%
G36*
G01*
X275162180Y-94429976D02*
X275201628Y-93851319D01*
G75*
G02*
X276587038Y-92642749I1296990J-88420D01*
G01*
X276587038Y-92642749D01*
G75*
G02*
X277795608Y-94028159I-88420J-1296990D01*
G01*
X277756160Y-94606815D01*
G75*
G02*
X276370750Y-95815385I-1296990J88420D01*
G01*
X276370750Y-95815385D01*
G75*
G02*
X275162180Y-94429975I88420J1296990D01*
G01*
G37*
G36*
G01*
X269003023Y-95749393D02*
X270211947Y-93851763D01*
G75*
G02*
X272006845Y-93453843I1096409J-698489D01*
G01*
X272006845Y-93453843D01*
G75*
G02*
X272404765Y-95248741I-698489J-1096409D01*
G01*
X271195841Y-97146371D01*
G75*
G02*
X269400943Y-97544291I-1096409J698489D01*
G01*
X269400943Y-97544291D01*
G75*
G02*
X269003023Y-95749393I698489J1096409D01*
G01*
G37*
%TD*%
%TO.C,K61*%
G36*
G01*
X294211680Y-94429976D02*
X294251128Y-93851319D01*
G75*
G02*
X295636538Y-92642749I1296990J-88420D01*
G01*
X295636538Y-92642749D01*
G75*
G02*
X296845108Y-94028159I-88420J-1296990D01*
G01*
X296805660Y-94606815D01*
G75*
G02*
X295420250Y-95815385I-1296990J88420D01*
G01*
X295420250Y-95815385D01*
G75*
G02*
X294211680Y-94429975I88420J1296990D01*
G01*
G37*
G36*
G01*
X288052523Y-95749393D02*
X289261447Y-93851763D01*
G75*
G02*
X291056345Y-93453843I1096409J-698489D01*
G01*
X291056345Y-93453843D01*
G75*
G02*
X291454265Y-95248741I-698489J-1096409D01*
G01*
X290245341Y-97146371D01*
G75*
G02*
X288450443Y-97544291I-1096409J698489D01*
G01*
X288450443Y-97544291D01*
G75*
G02*
X288052523Y-95749393I698489J1096409D01*
G01*
G37*
%TD*%
%TO.C,K69*%
G36*
G01*
X346599180Y-94429976D02*
X346638628Y-93851319D01*
G75*
G02*
X348024038Y-92642749I1296990J-88420D01*
G01*
X348024038Y-92642749D01*
G75*
G02*
X349232608Y-94028159I-88420J-1296990D01*
G01*
X349193160Y-94606815D01*
G75*
G02*
X347807750Y-95815385I-1296990J88420D01*
G01*
X347807750Y-95815385D01*
G75*
G02*
X346599180Y-94429975I88420J1296990D01*
G01*
G37*
G36*
G01*
X340440023Y-95749393D02*
X341648947Y-93851763D01*
G75*
G02*
X343443845Y-93453843I1096409J-698489D01*
G01*
X343443845Y-93453843D01*
G75*
G02*
X343841765Y-95248741I-698489J-1096409D01*
G01*
X342632841Y-97146371D01*
G75*
G02*
X340837943Y-97544291I-1096409J698489D01*
G01*
X340837943Y-97544291D01*
G75*
G02*
X340440023Y-95749393I698489J1096409D01*
G01*
G37*
%TD*%
%TO.C,K67*%
G36*
G01*
X365649180Y-94429976D02*
X365688628Y-93851319D01*
G75*
G02*
X367074038Y-92642749I1296990J-88420D01*
G01*
X367074038Y-92642749D01*
G75*
G02*
X368282608Y-94028159I-88420J-1296990D01*
G01*
X368243160Y-94606815D01*
G75*
G02*
X366857750Y-95815385I-1296990J88420D01*
G01*
X366857750Y-95815385D01*
G75*
G02*
X365649180Y-94429975I88420J1296990D01*
G01*
G37*
G36*
G01*
X359490023Y-95749393D02*
X360698947Y-93851763D01*
G75*
G02*
X362493845Y-93453843I1096409J-698489D01*
G01*
X362493845Y-93453843D01*
G75*
G02*
X362891765Y-95248741I-698489J-1096409D01*
G01*
X361682841Y-97146371D01*
G75*
G02*
X359887943Y-97544291I-1096409J698489D01*
G01*
X359887943Y-97544291D01*
G75*
G02*
X359490023Y-95749393I698489J1096409D01*
G01*
G37*
%TD*%
%TO.C,K71*%
G36*
G01*
X384699180Y-94429976D02*
X384738628Y-93851319D01*
G75*
G02*
X386124038Y-92642749I1296990J-88420D01*
G01*
X386124038Y-92642749D01*
G75*
G02*
X387332608Y-94028159I-88420J-1296990D01*
G01*
X387293160Y-94606815D01*
G75*
G02*
X385907750Y-95815385I-1296990J88420D01*
G01*
X385907750Y-95815385D01*
G75*
G02*
X384699180Y-94429975I88420J1296990D01*
G01*
G37*
G36*
G01*
X378540023Y-95749393D02*
X379748947Y-93851763D01*
G75*
G02*
X381543845Y-93453843I1096409J-698489D01*
G01*
X381543845Y-93453843D01*
G75*
G02*
X381941765Y-95248741I-698489J-1096409D01*
G01*
X380732841Y-97146371D01*
G75*
G02*
X378937943Y-97544291I-1096409J698489D01*
G01*
X378937943Y-97544291D01*
G75*
G02*
X378540023Y-95749393I698489J1096409D01*
G01*
G37*
%TD*%
%TO.C,K8*%
G36*
G01*
X89424080Y-113479226D02*
X89463528Y-112900569D01*
G75*
G02*
X90848938Y-111691999I1296990J-88420D01*
G01*
X90848938Y-111691999D01*
G75*
G02*
X92057508Y-113077409I-88420J-1296990D01*
G01*
X92018060Y-113656065D01*
G75*
G02*
X90632650Y-114864635I-1296990J88420D01*
G01*
X90632650Y-114864635D01*
G75*
G02*
X89424080Y-113479225I88420J1296990D01*
G01*
G37*
G36*
G01*
X83264923Y-114798643D02*
X84473847Y-112901013D01*
G75*
G02*
X86268745Y-112503093I1096409J-698489D01*
G01*
X86268745Y-112503093D01*
G75*
G02*
X86666665Y-114297991I-698489J-1096409D01*
G01*
X85457741Y-116195621D01*
G75*
G02*
X83662843Y-116593541I-1096409J698489D01*
G01*
X83662843Y-116593541D01*
G75*
G02*
X83264923Y-114798643I698489J1096409D01*
G01*
G37*
%TD*%
%TO.C,K13*%
G36*
G01*
X108474080Y-113479226D02*
X108513528Y-112900569D01*
G75*
G02*
X109898938Y-111691999I1296990J-88420D01*
G01*
X109898938Y-111691999D01*
G75*
G02*
X111107508Y-113077409I-88420J-1296990D01*
G01*
X111068060Y-113656065D01*
G75*
G02*
X109682650Y-114864635I-1296990J88420D01*
G01*
X109682650Y-114864635D01*
G75*
G02*
X108474080Y-113479225I88420J1296990D01*
G01*
G37*
G36*
G01*
X102314923Y-114798643D02*
X103523847Y-112901013D01*
G75*
G02*
X105318745Y-112503093I1096409J-698489D01*
G01*
X105318745Y-112503093D01*
G75*
G02*
X105716665Y-114297991I-698489J-1096409D01*
G01*
X104507741Y-116195621D01*
G75*
G02*
X102712843Y-116593541I-1096409J698489D01*
G01*
X102712843Y-116593541D01*
G75*
G02*
X102314923Y-114798643I698489J1096409D01*
G01*
G37*
%TD*%
%TO.C,K18*%
G36*
G01*
X127524080Y-113479226D02*
X127563528Y-112900569D01*
G75*
G02*
X128948938Y-111691999I1296990J-88420D01*
G01*
X128948938Y-111691999D01*
G75*
G02*
X130157508Y-113077409I-88420J-1296990D01*
G01*
X130118060Y-113656065D01*
G75*
G02*
X128732650Y-114864635I-1296990J88420D01*
G01*
X128732650Y-114864635D01*
G75*
G02*
X127524080Y-113479225I88420J1296990D01*
G01*
G37*
G36*
G01*
X121364923Y-114798643D02*
X122573847Y-112901013D01*
G75*
G02*
X124368745Y-112503093I1096409J-698489D01*
G01*
X124368745Y-112503093D01*
G75*
G02*
X124766665Y-114297991I-698489J-1096409D01*
G01*
X123557741Y-116195621D01*
G75*
G02*
X121762843Y-116593541I-1096409J698489D01*
G01*
X121762843Y-116593541D01*
G75*
G02*
X121364923Y-114798643I698489J1096409D01*
G01*
G37*
%TD*%
%TO.C,K23*%
G36*
G01*
X146574130Y-113479226D02*
X146613578Y-112900569D01*
G75*
G02*
X147998988Y-111691999I1296990J-88420D01*
G01*
X147998988Y-111691999D01*
G75*
G02*
X149207558Y-113077409I-88420J-1296990D01*
G01*
X149168110Y-113656065D01*
G75*
G02*
X147782700Y-114864635I-1296990J88420D01*
G01*
X147782700Y-114864635D01*
G75*
G02*
X146574130Y-113479225I88420J1296990D01*
G01*
G37*
G36*
G01*
X140414973Y-114798643D02*
X141623897Y-112901013D01*
G75*
G02*
X143418795Y-112503093I1096409J-698489D01*
G01*
X143418795Y-112503093D01*
G75*
G02*
X143816715Y-114297991I-698489J-1096409D01*
G01*
X142607791Y-116195621D01*
G75*
G02*
X140812893Y-116593541I-1096409J698489D01*
G01*
X140812893Y-116593541D01*
G75*
G02*
X140414973Y-114798643I698489J1096409D01*
G01*
G37*
%TD*%
%TO.C,K28*%
G36*
G01*
X165624180Y-113479226D02*
X165663628Y-112900569D01*
G75*
G02*
X167049038Y-111691999I1296990J-88420D01*
G01*
X167049038Y-111691999D01*
G75*
G02*
X168257608Y-113077409I-88420J-1296990D01*
G01*
X168218160Y-113656065D01*
G75*
G02*
X166832750Y-114864635I-1296990J88420D01*
G01*
X166832750Y-114864635D01*
G75*
G02*
X165624180Y-113479225I88420J1296990D01*
G01*
G37*
G36*
G01*
X159465023Y-114798643D02*
X160673947Y-112901013D01*
G75*
G02*
X162468845Y-112503093I1096409J-698489D01*
G01*
X162468845Y-112503093D01*
G75*
G02*
X162866765Y-114297991I-698489J-1096409D01*
G01*
X161657841Y-116195621D01*
G75*
G02*
X159862943Y-116593541I-1096409J698489D01*
G01*
X159862943Y-116593541D01*
G75*
G02*
X159465023Y-114798643I698489J1096409D01*
G01*
G37*
%TD*%
%TO.C,K33*%
G36*
G01*
X184674180Y-113479226D02*
X184713628Y-112900569D01*
G75*
G02*
X186099038Y-111691999I1296990J-88420D01*
G01*
X186099038Y-111691999D01*
G75*
G02*
X187307608Y-113077409I-88420J-1296990D01*
G01*
X187268160Y-113656065D01*
G75*
G02*
X185882750Y-114864635I-1296990J88420D01*
G01*
X185882750Y-114864635D01*
G75*
G02*
X184674180Y-113479225I88420J1296990D01*
G01*
G37*
G36*
G01*
X178515023Y-114798643D02*
X179723947Y-112901013D01*
G75*
G02*
X181518845Y-112503093I1096409J-698489D01*
G01*
X181518845Y-112503093D01*
G75*
G02*
X181916765Y-114297991I-698489J-1096409D01*
G01*
X180707841Y-116195621D01*
G75*
G02*
X178912943Y-116593541I-1096409J698489D01*
G01*
X178912943Y-116593541D01*
G75*
G02*
X178515023Y-114798643I698489J1096409D01*
G01*
G37*
%TD*%
%TO.C,K38*%
G36*
G01*
X203724180Y-113479226D02*
X203763628Y-112900569D01*
G75*
G02*
X205149038Y-111691999I1296990J-88420D01*
G01*
X205149038Y-111691999D01*
G75*
G02*
X206357608Y-113077409I-88420J-1296990D01*
G01*
X206318160Y-113656065D01*
G75*
G02*
X204932750Y-114864635I-1296990J88420D01*
G01*
X204932750Y-114864635D01*
G75*
G02*
X203724180Y-113479225I88420J1296990D01*
G01*
G37*
G36*
G01*
X197565023Y-114798643D02*
X198773947Y-112901013D01*
G75*
G02*
X200568845Y-112503093I1096409J-698489D01*
G01*
X200568845Y-112503093D01*
G75*
G02*
X200966765Y-114297991I-698489J-1096409D01*
G01*
X199757841Y-116195621D01*
G75*
G02*
X197962943Y-116593541I-1096409J698489D01*
G01*
X197962943Y-116593541D01*
G75*
G02*
X197565023Y-114798643I698489J1096409D01*
G01*
G37*
%TD*%
%TO.C,K43*%
G36*
G01*
X222774180Y-113479226D02*
X222813628Y-112900569D01*
G75*
G02*
X224199038Y-111691999I1296990J-88420D01*
G01*
X224199038Y-111691999D01*
G75*
G02*
X225407608Y-113077409I-88420J-1296990D01*
G01*
X225368160Y-113656065D01*
G75*
G02*
X223982750Y-114864635I-1296990J88420D01*
G01*
X223982750Y-114864635D01*
G75*
G02*
X222774180Y-113479225I88420J1296990D01*
G01*
G37*
G36*
G01*
X216615023Y-114798643D02*
X217823947Y-112901013D01*
G75*
G02*
X219618845Y-112503093I1096409J-698489D01*
G01*
X219618845Y-112503093D01*
G75*
G02*
X220016765Y-114297991I-698489J-1096409D01*
G01*
X218807841Y-116195621D01*
G75*
G02*
X217012943Y-116593541I-1096409J698489D01*
G01*
X217012943Y-116593541D01*
G75*
G02*
X216615023Y-114798643I698489J1096409D01*
G01*
G37*
%TD*%
%TO.C,K48*%
G36*
G01*
X241824180Y-113479226D02*
X241863628Y-112900569D01*
G75*
G02*
X243249038Y-111691999I1296990J-88420D01*
G01*
X243249038Y-111691999D01*
G75*
G02*
X244457608Y-113077409I-88420J-1296990D01*
G01*
X244418160Y-113656065D01*
G75*
G02*
X243032750Y-114864635I-1296990J88420D01*
G01*
X243032750Y-114864635D01*
G75*
G02*
X241824180Y-113479225I88420J1296990D01*
G01*
G37*
G36*
G01*
X235665023Y-114798643D02*
X236873947Y-112901013D01*
G75*
G02*
X238668845Y-112503093I1096409J-698489D01*
G01*
X238668845Y-112503093D01*
G75*
G02*
X239066765Y-114297991I-698489J-1096409D01*
G01*
X237857841Y-116195621D01*
G75*
G02*
X236062943Y-116593541I-1096409J698489D01*
G01*
X236062943Y-116593541D01*
G75*
G02*
X235665023Y-114798643I698489J1096409D01*
G01*
G37*
%TD*%
%TO.C,K53*%
G36*
G01*
X260874180Y-113479226D02*
X260913628Y-112900569D01*
G75*
G02*
X262299038Y-111691999I1296990J-88420D01*
G01*
X262299038Y-111691999D01*
G75*
G02*
X263507608Y-113077409I-88420J-1296990D01*
G01*
X263468160Y-113656065D01*
G75*
G02*
X262082750Y-114864635I-1296990J88420D01*
G01*
X262082750Y-114864635D01*
G75*
G02*
X260874180Y-113479225I88420J1296990D01*
G01*
G37*
G36*
G01*
X254715023Y-114798643D02*
X255923947Y-112901013D01*
G75*
G02*
X257718845Y-112503093I1096409J-698489D01*
G01*
X257718845Y-112503093D01*
G75*
G02*
X258116765Y-114297991I-698489J-1096409D01*
G01*
X256907841Y-116195621D01*
G75*
G02*
X255112943Y-116593541I-1096409J698489D01*
G01*
X255112943Y-116593541D01*
G75*
G02*
X254715023Y-114798643I698489J1096409D01*
G01*
G37*
%TD*%
%TO.C,K58*%
G36*
G01*
X279924180Y-113479226D02*
X279963628Y-112900569D01*
G75*
G02*
X281349038Y-111691999I1296990J-88420D01*
G01*
X281349038Y-111691999D01*
G75*
G02*
X282557608Y-113077409I-88420J-1296990D01*
G01*
X282518160Y-113656065D01*
G75*
G02*
X281132750Y-114864635I-1296990J88420D01*
G01*
X281132750Y-114864635D01*
G75*
G02*
X279924180Y-113479225I88420J1296990D01*
G01*
G37*
G36*
G01*
X273765023Y-114798643D02*
X274973947Y-112901013D01*
G75*
G02*
X276768845Y-112503093I1096409J-698489D01*
G01*
X276768845Y-112503093D01*
G75*
G02*
X277166765Y-114297991I-698489J-1096409D01*
G01*
X275957841Y-116195621D01*
G75*
G02*
X274162943Y-116593541I-1096409J698489D01*
G01*
X274162943Y-116593541D01*
G75*
G02*
X273765023Y-114798643I698489J1096409D01*
G01*
G37*
%TD*%
%TO.C,K9*%
G36*
G01*
X98949080Y-132529176D02*
X98988528Y-131950519D01*
G75*
G02*
X100373938Y-130741949I1296990J-88420D01*
G01*
X100373938Y-130741949D01*
G75*
G02*
X101582508Y-132127359I-88420J-1296990D01*
G01*
X101543060Y-132706015D01*
G75*
G02*
X100157650Y-133914585I-1296990J88420D01*
G01*
X100157650Y-133914585D01*
G75*
G02*
X98949080Y-132529175I88420J1296990D01*
G01*
G37*
G36*
G01*
X92789923Y-133848593D02*
X93998847Y-131950963D01*
G75*
G02*
X95793745Y-131553043I1096409J-698489D01*
G01*
X95793745Y-131553043D01*
G75*
G02*
X96191665Y-133347941I-698489J-1096409D01*
G01*
X94982741Y-135245571D01*
G75*
G02*
X93187843Y-135643491I-1096409J698489D01*
G01*
X93187843Y-135643491D01*
G75*
G02*
X92789923Y-133848593I698489J1096409D01*
G01*
G37*
%TD*%
%TO.C,K14*%
G36*
G01*
X117999080Y-132529176D02*
X118038528Y-131950519D01*
G75*
G02*
X119423938Y-130741949I1296990J-88420D01*
G01*
X119423938Y-130741949D01*
G75*
G02*
X120632508Y-132127359I-88420J-1296990D01*
G01*
X120593060Y-132706015D01*
G75*
G02*
X119207650Y-133914585I-1296990J88420D01*
G01*
X119207650Y-133914585D01*
G75*
G02*
X117999080Y-132529175I88420J1296990D01*
G01*
G37*
G36*
G01*
X111839923Y-133848593D02*
X113048847Y-131950963D01*
G75*
G02*
X114843745Y-131553043I1096409J-698489D01*
G01*
X114843745Y-131553043D01*
G75*
G02*
X115241665Y-133347941I-698489J-1096409D01*
G01*
X114032741Y-135245571D01*
G75*
G02*
X112237843Y-135643491I-1096409J698489D01*
G01*
X112237843Y-135643491D01*
G75*
G02*
X111839923Y-133848593I698489J1096409D01*
G01*
G37*
%TD*%
%TO.C,K19*%
G36*
G01*
X137049080Y-132529176D02*
X137088528Y-131950519D01*
G75*
G02*
X138473938Y-130741949I1296990J-88420D01*
G01*
X138473938Y-130741949D01*
G75*
G02*
X139682508Y-132127359I-88420J-1296990D01*
G01*
X139643060Y-132706015D01*
G75*
G02*
X138257650Y-133914585I-1296990J88420D01*
G01*
X138257650Y-133914585D01*
G75*
G02*
X137049080Y-132529175I88420J1296990D01*
G01*
G37*
G36*
G01*
X130889923Y-133848593D02*
X132098847Y-131950963D01*
G75*
G02*
X133893745Y-131553043I1096409J-698489D01*
G01*
X133893745Y-131553043D01*
G75*
G02*
X134291665Y-133347941I-698489J-1096409D01*
G01*
X133082741Y-135245571D01*
G75*
G02*
X131287843Y-135643491I-1096409J698489D01*
G01*
X131287843Y-135643491D01*
G75*
G02*
X130889923Y-133848593I698489J1096409D01*
G01*
G37*
%TD*%
%TO.C,K24*%
G36*
G01*
X156099180Y-132529176D02*
X156138628Y-131950519D01*
G75*
G02*
X157524038Y-130741949I1296990J-88420D01*
G01*
X157524038Y-130741949D01*
G75*
G02*
X158732608Y-132127359I-88420J-1296990D01*
G01*
X158693160Y-132706015D01*
G75*
G02*
X157307750Y-133914585I-1296990J88420D01*
G01*
X157307750Y-133914585D01*
G75*
G02*
X156099180Y-132529175I88420J1296990D01*
G01*
G37*
G36*
G01*
X149940023Y-133848593D02*
X151148947Y-131950963D01*
G75*
G02*
X152943845Y-131553043I1096409J-698489D01*
G01*
X152943845Y-131553043D01*
G75*
G02*
X153341765Y-133347941I-698489J-1096409D01*
G01*
X152132841Y-135245571D01*
G75*
G02*
X150337943Y-135643491I-1096409J698489D01*
G01*
X150337943Y-135643491D01*
G75*
G02*
X149940023Y-133848593I698489J1096409D01*
G01*
G37*
%TD*%
%TO.C,K29*%
G36*
G01*
X175149180Y-132529176D02*
X175188628Y-131950519D01*
G75*
G02*
X176574038Y-130741949I1296990J-88420D01*
G01*
X176574038Y-130741949D01*
G75*
G02*
X177782608Y-132127359I-88420J-1296990D01*
G01*
X177743160Y-132706015D01*
G75*
G02*
X176357750Y-133914585I-1296990J88420D01*
G01*
X176357750Y-133914585D01*
G75*
G02*
X175149180Y-132529175I88420J1296990D01*
G01*
G37*
G36*
G01*
X168990023Y-133848593D02*
X170198947Y-131950963D01*
G75*
G02*
X171993845Y-131553043I1096409J-698489D01*
G01*
X171993845Y-131553043D01*
G75*
G02*
X172391765Y-133347941I-698489J-1096409D01*
G01*
X171182841Y-135245571D01*
G75*
G02*
X169387943Y-135643491I-1096409J698489D01*
G01*
X169387943Y-135643491D01*
G75*
G02*
X168990023Y-133848593I698489J1096409D01*
G01*
G37*
%TD*%
%TO.C,K34*%
G36*
G01*
X194199180Y-132529176D02*
X194238628Y-131950519D01*
G75*
G02*
X195624038Y-130741949I1296990J-88420D01*
G01*
X195624038Y-130741949D01*
G75*
G02*
X196832608Y-132127359I-88420J-1296990D01*
G01*
X196793160Y-132706015D01*
G75*
G02*
X195407750Y-133914585I-1296990J88420D01*
G01*
X195407750Y-133914585D01*
G75*
G02*
X194199180Y-132529175I88420J1296990D01*
G01*
G37*
G36*
G01*
X188040023Y-133848593D02*
X189248947Y-131950963D01*
G75*
G02*
X191043845Y-131553043I1096409J-698489D01*
G01*
X191043845Y-131553043D01*
G75*
G02*
X191441765Y-133347941I-698489J-1096409D01*
G01*
X190232841Y-135245571D01*
G75*
G02*
X188437943Y-135643491I-1096409J698489D01*
G01*
X188437943Y-135643491D01*
G75*
G02*
X188040023Y-133848593I698489J1096409D01*
G01*
G37*
%TD*%
%TO.C,K39*%
G36*
G01*
X213249180Y-132529176D02*
X213288628Y-131950519D01*
G75*
G02*
X214674038Y-130741949I1296990J-88420D01*
G01*
X214674038Y-130741949D01*
G75*
G02*
X215882608Y-132127359I-88420J-1296990D01*
G01*
X215843160Y-132706015D01*
G75*
G02*
X214457750Y-133914585I-1296990J88420D01*
G01*
X214457750Y-133914585D01*
G75*
G02*
X213249180Y-132529175I88420J1296990D01*
G01*
G37*
G36*
G01*
X207090023Y-133848593D02*
X208298947Y-131950963D01*
G75*
G02*
X210093845Y-131553043I1096409J-698489D01*
G01*
X210093845Y-131553043D01*
G75*
G02*
X210491765Y-133347941I-698489J-1096409D01*
G01*
X209282841Y-135245571D01*
G75*
G02*
X207487943Y-135643491I-1096409J698489D01*
G01*
X207487943Y-135643491D01*
G75*
G02*
X207090023Y-133848593I698489J1096409D01*
G01*
G37*
%TD*%
%TO.C,K44*%
G36*
G01*
X232299180Y-132529176D02*
X232338628Y-131950519D01*
G75*
G02*
X233724038Y-130741949I1296990J-88420D01*
G01*
X233724038Y-130741949D01*
G75*
G02*
X234932608Y-132127359I-88420J-1296990D01*
G01*
X234893160Y-132706015D01*
G75*
G02*
X233507750Y-133914585I-1296990J88420D01*
G01*
X233507750Y-133914585D01*
G75*
G02*
X232299180Y-132529175I88420J1296990D01*
G01*
G37*
G36*
G01*
X226140023Y-133848593D02*
X227348947Y-131950963D01*
G75*
G02*
X229143845Y-131553043I1096409J-698489D01*
G01*
X229143845Y-131553043D01*
G75*
G02*
X229541765Y-133347941I-698489J-1096409D01*
G01*
X228332841Y-135245571D01*
G75*
G02*
X226537943Y-135643491I-1096409J698489D01*
G01*
X226537943Y-135643491D01*
G75*
G02*
X226140023Y-133848593I698489J1096409D01*
G01*
G37*
%TD*%
%TO.C,K49*%
G36*
G01*
X251349180Y-132529176D02*
X251388628Y-131950519D01*
G75*
G02*
X252774038Y-130741949I1296990J-88420D01*
G01*
X252774038Y-130741949D01*
G75*
G02*
X253982608Y-132127359I-88420J-1296990D01*
G01*
X253943160Y-132706015D01*
G75*
G02*
X252557750Y-133914585I-1296990J88420D01*
G01*
X252557750Y-133914585D01*
G75*
G02*
X251349180Y-132529175I88420J1296990D01*
G01*
G37*
G36*
G01*
X245190023Y-133848593D02*
X246398947Y-131950963D01*
G75*
G02*
X248193845Y-131553043I1096409J-698489D01*
G01*
X248193845Y-131553043D01*
G75*
G02*
X248591765Y-133347941I-698489J-1096409D01*
G01*
X247382841Y-135245571D01*
G75*
G02*
X245587943Y-135643491I-1096409J698489D01*
G01*
X245587943Y-135643491D01*
G75*
G02*
X245190023Y-133848593I698489J1096409D01*
G01*
G37*
%TD*%
%TO.C,K54*%
G36*
G01*
X270399180Y-132529176D02*
X270438628Y-131950519D01*
G75*
G02*
X271824038Y-130741949I1296990J-88420D01*
G01*
X271824038Y-130741949D01*
G75*
G02*
X273032608Y-132127359I-88420J-1296990D01*
G01*
X272993160Y-132706015D01*
G75*
G02*
X271607750Y-133914585I-1296990J88420D01*
G01*
X271607750Y-133914585D01*
G75*
G02*
X270399180Y-132529175I88420J1296990D01*
G01*
G37*
G36*
G01*
X264240023Y-133848593D02*
X265448947Y-131950963D01*
G75*
G02*
X267243845Y-131553043I1096409J-698489D01*
G01*
X267243845Y-131553043D01*
G75*
G02*
X267641765Y-133347941I-698489J-1096409D01*
G01*
X266432841Y-135245571D01*
G75*
G02*
X264637943Y-135643491I-1096409J698489D01*
G01*
X264637943Y-135643491D01*
G75*
G02*
X264240023Y-133848593I698489J1096409D01*
G01*
G37*
%TD*%
%TO.C,K63*%
G36*
G01*
X365649180Y-132529176D02*
X365688628Y-131950519D01*
G75*
G02*
X367074038Y-130741949I1296990J-88420D01*
G01*
X367074038Y-130741949D01*
G75*
G02*
X368282608Y-132127359I-88420J-1296990D01*
G01*
X368243160Y-132706015D01*
G75*
G02*
X366857750Y-133914585I-1296990J88420D01*
G01*
X366857750Y-133914585D01*
G75*
G02*
X365649180Y-132529175I88420J1296990D01*
G01*
G37*
G36*
G01*
X359490023Y-133848593D02*
X360698947Y-131950963D01*
G75*
G02*
X362493845Y-131553043I1096409J-698489D01*
G01*
X362493845Y-131553043D01*
G75*
G02*
X362891765Y-133347941I-698489J-1096409D01*
G01*
X361682841Y-135245571D01*
G75*
G02*
X359887943Y-135643491I-1096409J698489D01*
G01*
X359887943Y-135643491D01*
G75*
G02*
X359490023Y-133848593I698489J1096409D01*
G01*
G37*
%TD*%
%TO.C,K45*%
G36*
G01*
X346599180Y-151579196D02*
X346638628Y-151000539D01*
G75*
G02*
X348024038Y-149791969I1296990J-88420D01*
G01*
X348024038Y-149791969D01*
G75*
G02*
X349232608Y-151177379I-88420J-1296990D01*
G01*
X349193160Y-151756035D01*
G75*
G02*
X347807750Y-152964605I-1296990J88420D01*
G01*
X347807750Y-152964605D01*
G75*
G02*
X346599180Y-151579195I88420J1296990D01*
G01*
G37*
G36*
G01*
X340440023Y-152898613D02*
X341648947Y-151000983D01*
G75*
G02*
X343443845Y-150603063I1096409J-698489D01*
G01*
X343443845Y-150603063D01*
G75*
G02*
X343841765Y-152397961I-698489J-1096409D01*
G01*
X342632841Y-154295591D01*
G75*
G02*
X340837943Y-154693511I-1096409J698489D01*
G01*
X340837943Y-154693511D01*
G75*
G02*
X340440023Y-152898613I698489J1096409D01*
G01*
G37*
%TD*%
%TO.C,K50*%
G36*
G01*
X365649180Y-151579196D02*
X365688628Y-151000539D01*
G75*
G02*
X367074038Y-149791969I1296990J-88420D01*
G01*
X367074038Y-149791969D01*
G75*
G02*
X368282608Y-151177379I-88420J-1296990D01*
G01*
X368243160Y-151756035D01*
G75*
G02*
X366857750Y-152964605I-1296990J88420D01*
G01*
X366857750Y-152964605D01*
G75*
G02*
X365649180Y-151579195I88420J1296990D01*
G01*
G37*
G36*
G01*
X359490023Y-152898613D02*
X360698947Y-151000983D01*
G75*
G02*
X362493845Y-150603063I1096409J-698489D01*
G01*
X362493845Y-150603063D01*
G75*
G02*
X362891765Y-152397961I-698489J-1096409D01*
G01*
X361682841Y-154295591D01*
G75*
G02*
X359887943Y-154693511I-1096409J698489D01*
G01*
X359887943Y-154693511D01*
G75*
G02*
X359490023Y-152898613I698489J1096409D01*
G01*
G37*
%TD*%
%TO.C,K55*%
G36*
G01*
X384699180Y-151579196D02*
X384738628Y-151000539D01*
G75*
G02*
X386124038Y-149791969I1296990J-88420D01*
G01*
X386124038Y-149791969D01*
G75*
G02*
X387332608Y-151177379I-88420J-1296990D01*
G01*
X387293160Y-151756035D01*
G75*
G02*
X385907750Y-152964605I-1296990J88420D01*
G01*
X385907750Y-152964605D01*
G75*
G02*
X384699180Y-151579195I88420J1296990D01*
G01*
G37*
G36*
G01*
X378540023Y-152898613D02*
X379748947Y-151000983D01*
G75*
G02*
X381543845Y-150603063I1096409J-698489D01*
G01*
X381543845Y-150603063D01*
G75*
G02*
X381941765Y-152397961I-698489J-1096409D01*
G01*
X380732841Y-154295591D01*
G75*
G02*
X378937943Y-154693511I-1096409J698489D01*
G01*
X378937943Y-154693511D01*
G75*
G02*
X378540023Y-152898613I698489J1096409D01*
G01*
G37*
%TD*%
%TO.C,C1*%
G36*
G01*
X338478262Y-115625000D02*
X337521738Y-115625000D01*
G75*
G02*
X337250000Y-115353262I0J271738D01*
G01*
X337250000Y-114646738D01*
G75*
G02*
X337521738Y-114375000I271738J0D01*
G01*
X338478262Y-114375000D01*
G75*
G02*
X338750000Y-114646738I0J-271738D01*
G01*
X338750000Y-115353262D01*
G75*
G02*
X338478262Y-115625000I-271738J0D01*
G01*
G37*
G36*
G01*
X338478262Y-117675000D02*
X337521738Y-117675000D01*
G75*
G02*
X337250000Y-117403262I0J271738D01*
G01*
X337250000Y-116696738D01*
G75*
G02*
X337521738Y-116425000I271738J0D01*
G01*
X338478262Y-116425000D01*
G75*
G02*
X338750000Y-116696738I0J-271738D01*
G01*
X338750000Y-117403262D01*
G75*
G02*
X338478262Y-117675000I-271738J0D01*
G01*
G37*
%TD*%
%TO.C,C2*%
G36*
G01*
X348478262Y-115625000D02*
X347521738Y-115625000D01*
G75*
G02*
X347250000Y-115353262I0J271738D01*
G01*
X347250000Y-114646738D01*
G75*
G02*
X347521738Y-114375000I271738J0D01*
G01*
X348478262Y-114375000D01*
G75*
G02*
X348750000Y-114646738I0J-271738D01*
G01*
X348750000Y-115353262D01*
G75*
G02*
X348478262Y-115625000I-271738J0D01*
G01*
G37*
G36*
G01*
X348478262Y-117675000D02*
X347521738Y-117675000D01*
G75*
G02*
X347250000Y-117403262I0J271738D01*
G01*
X347250000Y-116696738D01*
G75*
G02*
X347521738Y-116425000I271738J0D01*
G01*
X348478262Y-116425000D01*
G75*
G02*
X348750000Y-116696738I0J-271738D01*
G01*
X348750000Y-117403262D01*
G75*
G02*
X348478262Y-117675000I-271738J0D01*
G01*
G37*
%TD*%
%TO.C,C3*%
G36*
G01*
X350200000Y-138178262D02*
X350200000Y-137221738D01*
G75*
G02*
X350471738Y-136950000I271738J0D01*
G01*
X351178262Y-136950000D01*
G75*
G02*
X351450000Y-137221738I0J-271738D01*
G01*
X351450000Y-138178262D01*
G75*
G02*
X351178262Y-138450000I-271738J0D01*
G01*
X350471738Y-138450000D01*
G75*
G02*
X350200000Y-138178262I0J271738D01*
G01*
G37*
G36*
G01*
X348150000Y-138178262D02*
X348150000Y-137221738D01*
G75*
G02*
X348421738Y-136950000I271738J0D01*
G01*
X349128262Y-136950000D01*
G75*
G02*
X349400000Y-137221738I0J-271738D01*
G01*
X349400000Y-138178262D01*
G75*
G02*
X349128262Y-138450000I-271738J0D01*
G01*
X348421738Y-138450000D01*
G75*
G02*
X348150000Y-138178262I0J271738D01*
G01*
G37*
%TD*%
%TO.C,C4*%
G36*
G01*
X353168262Y-123465000D02*
X352211738Y-123465000D01*
G75*
G02*
X351940000Y-123193262I0J271738D01*
G01*
X351940000Y-122486738D01*
G75*
G02*
X352211738Y-122215000I271738J0D01*
G01*
X353168262Y-122215000D01*
G75*
G02*
X353440000Y-122486738I0J-271738D01*
G01*
X353440000Y-123193262D01*
G75*
G02*
X353168262Y-123465000I-271738J0D01*
G01*
G37*
G36*
G01*
X353168262Y-125515000D02*
X352211738Y-125515000D01*
G75*
G02*
X351940000Y-125243262I0J271738D01*
G01*
X351940000Y-124536738D01*
G75*
G02*
X352211738Y-124265000I271738J0D01*
G01*
X353168262Y-124265000D01*
G75*
G02*
X353440000Y-124536738I0J-271738D01*
G01*
X353440000Y-125243262D01*
G75*
G02*
X353168262Y-125515000I-271738J0D01*
G01*
G37*
%TD*%
%TO.C,C5*%
G36*
G01*
X334778262Y-124675000D02*
X333821738Y-124675000D01*
G75*
G02*
X333550000Y-124403262I0J271738D01*
G01*
X333550000Y-123696738D01*
G75*
G02*
X333821738Y-123425000I271738J0D01*
G01*
X334778262Y-123425000D01*
G75*
G02*
X335050000Y-123696738I0J-271738D01*
G01*
X335050000Y-124403262D01*
G75*
G02*
X334778262Y-124675000I-271738J0D01*
G01*
G37*
G36*
G01*
X334778262Y-126725000D02*
X333821738Y-126725000D01*
G75*
G02*
X333550000Y-126453262I0J271738D01*
G01*
X333550000Y-125746738D01*
G75*
G02*
X333821738Y-125475000I271738J0D01*
G01*
X334778262Y-125475000D01*
G75*
G02*
X335050000Y-125746738I0J-271738D01*
G01*
X335050000Y-126453262D01*
G75*
G02*
X334778262Y-126725000I-271738J0D01*
G01*
G37*
%TD*%
%TO.C,C6*%
G36*
G01*
X334978262Y-115625000D02*
X334021738Y-115625000D01*
G75*
G02*
X333750000Y-115353262I0J271738D01*
G01*
X333750000Y-114646738D01*
G75*
G02*
X334021738Y-114375000I271738J0D01*
G01*
X334978262Y-114375000D01*
G75*
G02*
X335250000Y-114646738I0J-271738D01*
G01*
X335250000Y-115353262D01*
G75*
G02*
X334978262Y-115625000I-271738J0D01*
G01*
G37*
G36*
G01*
X334978262Y-117675000D02*
X334021738Y-117675000D01*
G75*
G02*
X333750000Y-117403262I0J271738D01*
G01*
X333750000Y-116696738D01*
G75*
G02*
X334021738Y-116425000I271738J0D01*
G01*
X334978262Y-116425000D01*
G75*
G02*
X335250000Y-116696738I0J-271738D01*
G01*
X335250000Y-117403262D01*
G75*
G02*
X334978262Y-117675000I-271738J0D01*
G01*
G37*
%TD*%
%TO.C,C7*%
G36*
G01*
X333821738Y-133525000D02*
X334778262Y-133525000D01*
G75*
G02*
X335050000Y-133796738I0J-271738D01*
G01*
X335050000Y-134503262D01*
G75*
G02*
X334778262Y-134775000I-271738J0D01*
G01*
X333821738Y-134775000D01*
G75*
G02*
X333550000Y-134503262I0J271738D01*
G01*
X333550000Y-133796738D01*
G75*
G02*
X333821738Y-133525000I271738J0D01*
G01*
G37*
G36*
G01*
X333821738Y-131475000D02*
X334778262Y-131475000D01*
G75*
G02*
X335050000Y-131746738I0J-271738D01*
G01*
X335050000Y-132453262D01*
G75*
G02*
X334778262Y-132725000I-271738J0D01*
G01*
X333821738Y-132725000D01*
G75*
G02*
X333550000Y-132453262I0J271738D01*
G01*
X333550000Y-131746738D01*
G75*
G02*
X333821738Y-131475000I271738J0D01*
G01*
G37*
%TD*%
%TO.C,C8*%
G36*
G01*
X334778262Y-128675000D02*
X333821738Y-128675000D01*
G75*
G02*
X333550000Y-128403262I0J271738D01*
G01*
X333550000Y-127696738D01*
G75*
G02*
X333821738Y-127425000I271738J0D01*
G01*
X334778262Y-127425000D01*
G75*
G02*
X335050000Y-127696738I0J-271738D01*
G01*
X335050000Y-128403262D01*
G75*
G02*
X334778262Y-128675000I-271738J0D01*
G01*
G37*
G36*
G01*
X334778262Y-130725000D02*
X333821738Y-130725000D01*
G75*
G02*
X333550000Y-130453262I0J271738D01*
G01*
X333550000Y-129746738D01*
G75*
G02*
X333821738Y-129475000I271738J0D01*
G01*
X334778262Y-129475000D01*
G75*
G02*
X335050000Y-129746738I0J-271738D01*
G01*
X335050000Y-130453262D01*
G75*
G02*
X334778262Y-130725000I-271738J0D01*
G01*
G37*
%TD*%
D14*
%TO.C,D1*%
X58784064Y-84669767D03*
D15*
X50984064Y-84669767D03*
D16*
X53309064Y-84669767D03*
X56459064Y-84669767D03*
%TD*%
D14*
%TO.C,D6*%
X77833294Y-84669767D03*
D15*
X70033294Y-84669767D03*
D16*
X72358294Y-84669767D03*
X75508294Y-84669767D03*
%TD*%
D14*
%TO.C,D11*%
X96882594Y-84669767D03*
D15*
X89082594Y-84669767D03*
D16*
X91407594Y-84669767D03*
X94557594Y-84669767D03*
%TD*%
D14*
%TO.C,D16*%
X115932594Y-84669767D03*
D15*
X108132594Y-84669767D03*
D16*
X110457594Y-84669767D03*
X113607594Y-84669767D03*
%TD*%
D14*
%TO.C,D21*%
X134983294Y-84669767D03*
D15*
X127183294Y-84669767D03*
D16*
X129508294Y-84669767D03*
X132658294Y-84669767D03*
%TD*%
D14*
%TO.C,D26*%
X154032594Y-84669767D03*
D15*
X146232594Y-84669767D03*
D16*
X148557594Y-84669767D03*
X151707594Y-84669767D03*
%TD*%
D14*
%TO.C,D31*%
X173082894Y-84669767D03*
D15*
X165282894Y-84669767D03*
D16*
X167607894Y-84669767D03*
X170757894Y-84669767D03*
%TD*%
D14*
%TO.C,D36*%
X192133894Y-84669767D03*
D15*
X184333894Y-84669767D03*
D16*
X186658894Y-84669767D03*
X189808894Y-84669767D03*
%TD*%
D14*
%TO.C,D41*%
X211183894Y-84669767D03*
D15*
X203383894Y-84669767D03*
D16*
X205708894Y-84669767D03*
X208858894Y-84669767D03*
%TD*%
D14*
%TO.C,D46*%
X230233894Y-84669767D03*
D15*
X222433894Y-84669767D03*
D16*
X224758894Y-84669767D03*
X227908894Y-84669767D03*
%TD*%
D14*
%TO.C,D51*%
X249283894Y-84669767D03*
D15*
X241483894Y-84669767D03*
D16*
X243808894Y-84669767D03*
X246958894Y-84669767D03*
%TD*%
D14*
%TO.C,D56*%
X268333894Y-84669767D03*
D15*
X260533894Y-84669767D03*
D16*
X262858894Y-84669767D03*
X266008894Y-84669767D03*
%TD*%
D14*
%TO.C,D60*%
X287383894Y-84669767D03*
D15*
X279583894Y-84669767D03*
D16*
X281908894Y-84669767D03*
X285058894Y-84669767D03*
%TD*%
D14*
%TO.C,D64*%
X315958894Y-84668917D03*
D15*
X308158894Y-84668917D03*
D16*
X310483894Y-84668917D03*
X313633894Y-84668917D03*
%TD*%
D14*
%TO.C,D68*%
X349295894Y-84669767D03*
D15*
X341495894Y-84669767D03*
D16*
X343820894Y-84669767D03*
X346970894Y-84669767D03*
%TD*%
D14*
%TO.C,D66*%
X368345894Y-84669767D03*
D15*
X360545894Y-84669767D03*
D16*
X362870894Y-84669767D03*
X366020894Y-84669767D03*
%TD*%
D14*
%TO.C,D70*%
X387395894Y-84669767D03*
D15*
X379595894Y-84669767D03*
D16*
X381920894Y-84669767D03*
X385070894Y-84669767D03*
%TD*%
D14*
%TO.C,D2*%
X63545879Y-103719067D03*
D15*
X55745879Y-103719067D03*
D16*
X58070879Y-103719067D03*
X61220879Y-103719067D03*
%TD*%
D14*
%TO.C,D7*%
X87358994Y-103719067D03*
D15*
X79558994Y-103719067D03*
D16*
X81883994Y-103719067D03*
X85033994Y-103719067D03*
%TD*%
D14*
%TO.C,D12*%
X106408994Y-103719067D03*
D15*
X98608994Y-103719067D03*
D16*
X100933994Y-103719067D03*
X104083994Y-103719067D03*
%TD*%
D14*
%TO.C,D17*%
X125458294Y-103719067D03*
D15*
X117658294Y-103719067D03*
D16*
X119983294Y-103719067D03*
X123133294Y-103719067D03*
%TD*%
D14*
%TO.C,D22*%
X144508094Y-103719067D03*
D15*
X136708094Y-103719067D03*
D16*
X139033094Y-103719067D03*
X142183094Y-103719067D03*
%TD*%
D14*
%TO.C,D27*%
X163557894Y-103719067D03*
D15*
X155757894Y-103719067D03*
D16*
X158082894Y-103719067D03*
X161232894Y-103719067D03*
%TD*%
D14*
%TO.C,D32*%
X182607894Y-103719067D03*
D15*
X174807894Y-103719067D03*
D16*
X177132894Y-103719067D03*
X180282894Y-103719067D03*
%TD*%
D14*
%TO.C,D37*%
X201658894Y-103719067D03*
D15*
X193858894Y-103719067D03*
D16*
X196183894Y-103719067D03*
X199333894Y-103719067D03*
%TD*%
D14*
%TO.C,D42*%
X220708894Y-103719067D03*
D15*
X212908894Y-103719067D03*
D16*
X215233894Y-103719067D03*
X218383894Y-103719067D03*
%TD*%
D14*
%TO.C,D47*%
X239758894Y-103719067D03*
D15*
X231958894Y-103719067D03*
D16*
X234283894Y-103719067D03*
X237433894Y-103719067D03*
%TD*%
D14*
%TO.C,D52*%
X258808894Y-103719067D03*
D15*
X251008894Y-103719067D03*
D16*
X253333894Y-103719067D03*
X256483894Y-103719067D03*
%TD*%
D14*
%TO.C,D57*%
X277858894Y-103719067D03*
D15*
X270058894Y-103719067D03*
D16*
X272383894Y-103719067D03*
X275533894Y-103719067D03*
%TD*%
D14*
%TO.C,D61*%
X296908394Y-103719067D03*
D15*
X289108394Y-103719067D03*
D16*
X291433394Y-103719067D03*
X294583394Y-103719067D03*
%TD*%
D14*
%TO.C,D65*%
X320720894Y-103719067D03*
D15*
X312920894Y-103719067D03*
D16*
X315245894Y-103719067D03*
X318395894Y-103719067D03*
%TD*%
D14*
%TO.C,D69*%
X349295894Y-103719067D03*
D15*
X341495894Y-103719067D03*
D16*
X343820894Y-103719067D03*
X346970894Y-103719067D03*
%TD*%
D14*
%TO.C,D67*%
X368345894Y-103719067D03*
D15*
X360545894Y-103719067D03*
D16*
X362870894Y-103719067D03*
X366020894Y-103719067D03*
%TD*%
D14*
%TO.C,D71*%
X387395894Y-103719067D03*
D15*
X379595894Y-103719067D03*
D16*
X381920894Y-103719067D03*
X385070894Y-103719067D03*
%TD*%
D14*
%TO.C,D3*%
X65926454Y-122768317D03*
D15*
X58126454Y-122768317D03*
D16*
X60451454Y-122768317D03*
X63601454Y-122768317D03*
%TD*%
D14*
%TO.C,D8*%
X92120794Y-122768317D03*
D15*
X84320794Y-122768317D03*
D16*
X86645794Y-122768317D03*
X89795794Y-122768317D03*
%TD*%
D14*
%TO.C,D13*%
X111170794Y-122768317D03*
D15*
X103370794Y-122768317D03*
D16*
X105695794Y-122768317D03*
X108845794Y-122768317D03*
%TD*%
D14*
%TO.C,D18*%
X130220794Y-122768317D03*
D15*
X122420794Y-122768317D03*
D16*
X124745794Y-122768317D03*
X127895794Y-122768317D03*
%TD*%
D14*
%TO.C,D23*%
X149270844Y-122768317D03*
D15*
X141470844Y-122768317D03*
D16*
X143795844Y-122768317D03*
X146945844Y-122768317D03*
%TD*%
D14*
%TO.C,D28*%
X168320894Y-122768317D03*
D15*
X160520894Y-122768317D03*
D16*
X162845894Y-122768317D03*
X165995894Y-122768317D03*
%TD*%
D14*
%TO.C,D33*%
X187370894Y-122768317D03*
D15*
X179570894Y-122768317D03*
D16*
X181895894Y-122768317D03*
X185045894Y-122768317D03*
%TD*%
D14*
%TO.C,D38*%
X206420894Y-122768317D03*
D15*
X198620894Y-122768317D03*
D16*
X200945894Y-122768317D03*
X204095894Y-122768317D03*
%TD*%
D14*
%TO.C,D43*%
X225470894Y-122768317D03*
D15*
X217670894Y-122768317D03*
D16*
X219995894Y-122768317D03*
X223145894Y-122768317D03*
%TD*%
D14*
%TO.C,D48*%
X244520894Y-122768317D03*
D15*
X236720894Y-122768317D03*
D16*
X239045894Y-122768317D03*
X242195894Y-122768317D03*
%TD*%
D14*
%TO.C,D53*%
X263570894Y-122768317D03*
D15*
X255770894Y-122768317D03*
D16*
X258095894Y-122768317D03*
X261245894Y-122768317D03*
%TD*%
D14*
%TO.C,D58*%
X282620894Y-122768317D03*
D15*
X274820894Y-122768317D03*
D16*
X277145894Y-122768317D03*
X280295894Y-122768317D03*
%TD*%
D14*
%TO.C,D62*%
X313820394Y-122768917D03*
D15*
X306020394Y-122768917D03*
D16*
X308345394Y-122768917D03*
X311495394Y-122768917D03*
%TD*%
D14*
%TO.C,D4*%
X70446394Y-141818967D03*
D15*
X62646394Y-141818967D03*
D16*
X64971394Y-141818967D03*
X68121394Y-141818967D03*
%TD*%
D14*
%TO.C,D9*%
X101645794Y-141818267D03*
D15*
X93845794Y-141818267D03*
D16*
X96170794Y-141818267D03*
X99320794Y-141818267D03*
%TD*%
D14*
%TO.C,D14*%
X120695794Y-141818267D03*
D15*
X112895794Y-141818267D03*
D16*
X115220794Y-141818267D03*
X118370794Y-141818267D03*
%TD*%
D14*
%TO.C,D19*%
X139745794Y-141818267D03*
D15*
X131945794Y-141818267D03*
D16*
X134270794Y-141818267D03*
X137420794Y-141818267D03*
%TD*%
D14*
%TO.C,D24*%
X158795894Y-141818267D03*
D15*
X150995894Y-141818267D03*
D16*
X153320894Y-141818267D03*
X156470894Y-141818267D03*
%TD*%
D14*
%TO.C,D29*%
X177845894Y-141818267D03*
D15*
X170045894Y-141818267D03*
D16*
X172370894Y-141818267D03*
X175520894Y-141818267D03*
%TD*%
D14*
%TO.C,D34*%
X196895894Y-141818267D03*
D15*
X189095894Y-141818267D03*
D16*
X191420894Y-141818267D03*
X194570894Y-141818267D03*
%TD*%
D14*
%TO.C,D39*%
X215945894Y-141818267D03*
D15*
X208145894Y-141818267D03*
D16*
X210470894Y-141818267D03*
X213620894Y-141818267D03*
%TD*%
D14*
%TO.C,D44*%
X234995894Y-141818267D03*
D15*
X227195894Y-141818267D03*
D16*
X229520894Y-141818267D03*
X232670894Y-141818267D03*
%TD*%
D14*
%TO.C,D49*%
X254045894Y-141818267D03*
D15*
X246245894Y-141818267D03*
D16*
X248570894Y-141818267D03*
X251720894Y-141818267D03*
%TD*%
D14*
%TO.C,D54*%
X273095894Y-141818267D03*
D15*
X265295894Y-141818267D03*
D16*
X267620894Y-141818267D03*
X270770894Y-141818267D03*
%TD*%
D14*
%TO.C,D59*%
X308814894Y-141818967D03*
D15*
X301014894Y-141818967D03*
D16*
X303339894Y-141818967D03*
X306489894Y-141818967D03*
%TD*%
D14*
%TO.C,D63*%
X368345894Y-141818267D03*
D15*
X360545894Y-141818267D03*
D16*
X362870894Y-141818267D03*
X366020894Y-141818267D03*
%TD*%
D14*
%TO.C,D5*%
X61165344Y-160868287D03*
D15*
X53365344Y-160868287D03*
D16*
X55690344Y-160868287D03*
X58840344Y-160868287D03*
%TD*%
D14*
%TO.C,D10*%
X84976394Y-160868287D03*
D15*
X77176394Y-160868287D03*
D16*
X79501394Y-160868287D03*
X82651394Y-160868287D03*
%TD*%
D14*
%TO.C,D15*%
X108790294Y-160868287D03*
D15*
X100990294Y-160868287D03*
D16*
X103315294Y-160868287D03*
X106465294Y-160868287D03*
%TD*%
D14*
%TO.C,D20*%
X180470394Y-160868962D03*
D15*
X172670394Y-160868962D03*
D16*
X174995394Y-160868962D03*
X178145394Y-160868962D03*
%TD*%
D14*
%TO.C,D25*%
X251665394Y-160868287D03*
D15*
X243865394Y-160868287D03*
D16*
X246190394Y-160868287D03*
X249340394Y-160868287D03*
%TD*%
D14*
%TO.C,D30*%
X275476394Y-160868287D03*
D15*
X267676394Y-160868287D03*
D16*
X270001394Y-160868287D03*
X273151394Y-160868287D03*
%TD*%
D14*
%TO.C,D35*%
X299290394Y-160868287D03*
D15*
X291490394Y-160868287D03*
D16*
X293815394Y-160868287D03*
X296965394Y-160868287D03*
%TD*%
D14*
%TO.C,D40*%
X323101394Y-160868287D03*
D15*
X315301394Y-160868287D03*
D16*
X317626394Y-160868287D03*
X320776394Y-160868287D03*
%TD*%
D14*
%TO.C,D45*%
X349295894Y-160868287D03*
D15*
X341495894Y-160868287D03*
D16*
X343820894Y-160868287D03*
X346970894Y-160868287D03*
%TD*%
D14*
%TO.C,D50*%
X368345894Y-160868287D03*
D15*
X360545894Y-160868287D03*
D16*
X362870894Y-160868287D03*
X366020894Y-160868287D03*
%TD*%
D14*
%TO.C,D55*%
X387395894Y-160868287D03*
D15*
X379595894Y-160868287D03*
D16*
X381920894Y-160868287D03*
X385070894Y-160868287D03*
%TD*%
%TO.C,R1*%
G36*
G01*
X328200000Y-114728262D02*
X328200000Y-113771738D01*
G75*
G02*
X328471738Y-113500000I271738J0D01*
G01*
X329178262Y-113500000D01*
G75*
G02*
X329450000Y-113771738I0J-271738D01*
G01*
X329450000Y-114728262D01*
G75*
G02*
X329178262Y-115000000I-271738J0D01*
G01*
X328471738Y-115000000D01*
G75*
G02*
X328200000Y-114728262I0J271738D01*
G01*
G37*
G36*
G01*
X326150000Y-114728262D02*
X326150000Y-113771738D01*
G75*
G02*
X326421738Y-113500000I271738J0D01*
G01*
X327128262Y-113500000D01*
G75*
G02*
X327400000Y-113771738I0J-271738D01*
G01*
X327400000Y-114728262D01*
G75*
G02*
X327128262Y-115000000I-271738J0D01*
G01*
X326421738Y-115000000D01*
G75*
G02*
X326150000Y-114728262I0J271738D01*
G01*
G37*
%TD*%
%TO.C,R2*%
G36*
G01*
X353178262Y-133100000D02*
X352221738Y-133100000D01*
G75*
G02*
X351950000Y-132828262I0J271738D01*
G01*
X351950000Y-132121738D01*
G75*
G02*
X352221738Y-131850000I271738J0D01*
G01*
X353178262Y-131850000D01*
G75*
G02*
X353450000Y-132121738I0J-271738D01*
G01*
X353450000Y-132828262D01*
G75*
G02*
X353178262Y-133100000I-271738J0D01*
G01*
G37*
G36*
G01*
X353178262Y-135150000D02*
X352221738Y-135150000D01*
G75*
G02*
X351950000Y-134878262I0J271738D01*
G01*
X351950000Y-134171738D01*
G75*
G02*
X352221738Y-133900000I271738J0D01*
G01*
X353178262Y-133900000D01*
G75*
G02*
X353450000Y-134171738I0J-271738D01*
G01*
X353450000Y-134878262D01*
G75*
G02*
X353178262Y-135150000I-271738J0D01*
G01*
G37*
%TD*%
%TO.C,R3*%
G36*
G01*
X333505000Y-110188262D02*
X333505000Y-109231738D01*
G75*
G02*
X333776738Y-108960000I271738J0D01*
G01*
X334483262Y-108960000D01*
G75*
G02*
X334755000Y-109231738I0J-271738D01*
G01*
X334755000Y-110188262D01*
G75*
G02*
X334483262Y-110460000I-271738J0D01*
G01*
X333776738Y-110460000D01*
G75*
G02*
X333505000Y-110188262I0J271738D01*
G01*
G37*
G36*
G01*
X335555000Y-110188262D02*
X335555000Y-109231738D01*
G75*
G02*
X335826738Y-108960000I271738J0D01*
G01*
X336533262Y-108960000D01*
G75*
G02*
X336805000Y-109231738I0J-271738D01*
G01*
X336805000Y-110188262D01*
G75*
G02*
X336533262Y-110460000I-271738J0D01*
G01*
X335826738Y-110460000D01*
G75*
G02*
X335555000Y-110188262I0J271738D01*
G01*
G37*
%TD*%
%TO.C,R4*%
G36*
G01*
X340955000Y-110168262D02*
X340955000Y-109211738D01*
G75*
G02*
X341226738Y-108940000I271738J0D01*
G01*
X341933262Y-108940000D01*
G75*
G02*
X342205000Y-109211738I0J-271738D01*
G01*
X342205000Y-110168262D01*
G75*
G02*
X341933262Y-110440000I-271738J0D01*
G01*
X341226738Y-110440000D01*
G75*
G02*
X340955000Y-110168262I0J271738D01*
G01*
G37*
G36*
G01*
X338905000Y-110168262D02*
X338905000Y-109211738D01*
G75*
G02*
X339176738Y-108940000I271738J0D01*
G01*
X339883262Y-108940000D01*
G75*
G02*
X340155000Y-109211738I0J-271738D01*
G01*
X340155000Y-110168262D01*
G75*
G02*
X339883262Y-110440000I-271738J0D01*
G01*
X339176738Y-110440000D01*
G75*
G02*
X338905000Y-110168262I0J271738D01*
G01*
G37*
%TD*%
D17*
%TO.C,SW1*%
X330940000Y-118540000D03*
X324640000Y-118540000D03*
X330940000Y-122340000D03*
X324640000Y-122340000D03*
%TD*%
D18*
%TO.C,U1*%
X339500000Y-134200000D03*
X340300000Y-134200000D03*
X341100000Y-134200000D03*
X341900000Y-134200000D03*
X342700000Y-134200000D03*
X343500000Y-134200000D03*
X344300000Y-134200000D03*
X345100000Y-134200000D03*
X345900000Y-134200000D03*
X346700000Y-134200000D03*
X347500000Y-134200000D03*
D19*
X349200000Y-132500000D03*
X349200000Y-131700000D03*
X349200000Y-130900000D03*
X349200000Y-130100000D03*
X349200000Y-129300000D03*
X349200000Y-128500000D03*
X349200000Y-127700000D03*
X349200000Y-126900000D03*
X349200000Y-126100000D03*
X349200000Y-125300000D03*
X349200000Y-124500000D03*
D18*
X347500000Y-122800000D03*
X346700000Y-122800000D03*
X345900000Y-122800000D03*
X345100000Y-122800000D03*
X344300000Y-122800000D03*
X343500000Y-122800000D03*
X342700000Y-122800000D03*
X341900000Y-122800000D03*
X341100000Y-122800000D03*
X340300000Y-122800000D03*
X339500000Y-122800000D03*
D19*
X337800000Y-124500000D03*
X337800000Y-125300000D03*
X337800000Y-126100000D03*
X337800000Y-126900000D03*
X337800000Y-127700000D03*
X337800000Y-128500000D03*
X337800000Y-129300000D03*
X337800000Y-130100000D03*
X337800000Y-130900000D03*
X337800000Y-131700000D03*
X337800000Y-132500000D03*
%TD*%
D20*
%TO.C,X1*%
G36*
X343239023Y-116569456D02*
G01*
X342456664Y-115531230D01*
X343654617Y-114628508D01*
X344436976Y-115666734D01*
X343239023Y-116569456D01*
G37*
G36*
X341322298Y-118013812D02*
G01*
X340539939Y-116975586D01*
X341737892Y-116072864D01*
X342520251Y-117111090D01*
X341322298Y-118013812D01*
G37*
G36*
X344262108Y-117927136D02*
G01*
X343479749Y-116888910D01*
X344677702Y-115986188D01*
X345460061Y-117024414D01*
X344262108Y-117927136D01*
G37*
G36*
X342345383Y-119371492D02*
G01*
X341563024Y-118333266D01*
X342760977Y-117430544D01*
X343543336Y-118468770D01*
X342345383Y-119371492D01*
G37*
%TD*%
%TO.C,K20*%
G36*
G01*
X177773680Y-151579871D02*
X177813128Y-151001214D01*
G75*
G02*
X179198538Y-149792644I1296990J-88420D01*
G01*
X179198538Y-149792644D01*
G75*
G02*
X180407108Y-151178054I-88420J-1296990D01*
G01*
X180367660Y-151756710D01*
G75*
G02*
X178982250Y-152965280I-1296990J88420D01*
G01*
X178982250Y-152965280D01*
G75*
G02*
X177773680Y-151579870I88420J1296990D01*
G01*
G37*
G36*
G01*
X171614523Y-152899288D02*
X172823447Y-151001658D01*
G75*
G02*
X174618345Y-150603738I1096409J-698489D01*
G01*
X174618345Y-150603738D01*
G75*
G02*
X175016265Y-152398636I-698489J-1096409D01*
G01*
X173807341Y-154296266D01*
G75*
G02*
X172012443Y-154694186I-1096409J698489D01*
G01*
X172012443Y-154694186D01*
G75*
G02*
X171614523Y-152899288I698489J1096409D01*
G01*
G37*
%TD*%
%TO.C,R5*%
G36*
G01*
X336488262Y-82865000D02*
X335531738Y-82865000D01*
G75*
G02*
X335260000Y-82593262I0J271738D01*
G01*
X335260000Y-81886738D01*
G75*
G02*
X335531738Y-81615000I271738J0D01*
G01*
X336488262Y-81615000D01*
G75*
G02*
X336760000Y-81886738I0J-271738D01*
G01*
X336760000Y-82593262D01*
G75*
G02*
X336488262Y-82865000I-271738J0D01*
G01*
G37*
G36*
G01*
X336488262Y-84915000D02*
X335531738Y-84915000D01*
G75*
G02*
X335260000Y-84643262I0J271738D01*
G01*
X335260000Y-83936738D01*
G75*
G02*
X335531738Y-83665000I271738J0D01*
G01*
X336488262Y-83665000D01*
G75*
G02*
X336760000Y-83936738I0J-271738D01*
G01*
X336760000Y-84643262D01*
G75*
G02*
X336488262Y-84915000I-271738J0D01*
G01*
G37*
%TD*%
%TO.C,R6*%
G36*
G01*
X329388262Y-84910000D02*
X328431738Y-84910000D01*
G75*
G02*
X328160000Y-84638262I0J271738D01*
G01*
X328160000Y-83931738D01*
G75*
G02*
X328431738Y-83660000I271738J0D01*
G01*
X329388262Y-83660000D01*
G75*
G02*
X329660000Y-83931738I0J-271738D01*
G01*
X329660000Y-84638262D01*
G75*
G02*
X329388262Y-84910000I-271738J0D01*
G01*
G37*
G36*
G01*
X329388262Y-82860000D02*
X328431738Y-82860000D01*
G75*
G02*
X328160000Y-82588262I0J271738D01*
G01*
X328160000Y-81881738D01*
G75*
G02*
X328431738Y-81610000I271738J0D01*
G01*
X329388262Y-81610000D01*
G75*
G02*
X329660000Y-81881738I0J-271738D01*
G01*
X329660000Y-82588262D01*
G75*
G02*
X329388262Y-82860000I-271738J0D01*
G01*
G37*
%TD*%
M02*
