M48
; DRILL file {KiCad (5.1.6)-1} date 07/22/20 19:59:08
; FORMAT={-:-/ absolute / inch / decimal}
; #@! TF.CreationDate,2020-07-22T19:59:08-04:00
; #@! TF.GenerationSoftware,Kicad,Pcbnew,(5.1.6)-1
; #@! TF.FileFunction,NonPlated,1,2,NPTH
FMAT,2
INCH
T1C0.0256
T2C0.0670
T3C0.1200
T4C0.1570
%
G90
G05
T1
X12.9488Y-3.1106
T2
X14.8983Y-6.1484
X15.2983Y-6.1484
X8.3358Y-3.8984
X8.7358Y-3.8984
X5.8983Y-5.3984
X6.2983Y-5.3984
X5.3358Y-3.8984
X5.7358Y-3.8984
X9.2733Y-4.6484
X9.6733Y-4.6484
X10.5858Y-3.8984
X10.9858Y-3.8984
X14.1483Y-3.8984
X14.5483Y-3.8984
X6.4607Y-3.1484
X6.8607Y-3.1484
X3.4607Y-3.1484
X3.8607Y-3.1484
X14.1483Y-5.3984
X14.5483Y-5.3984
X10.3983Y-5.3984
X10.7983Y-5.3984
X10.9608Y-3.1484
X11.3608Y-3.1484
X10.7733Y-4.6484
X11.1733Y-4.6484
X4.5858Y-3.8984
X4.9858Y-3.8984
X4.0233Y-4.6484
X4.4233Y-4.6484
X12.2733Y-3.8984
X12.6733Y-3.8984
X10.2108Y-3.1484
X10.6108Y-3.1484
X4.3983Y-5.3984
X4.7983Y-5.3984
X2.4199Y-5.3984
X2.8199Y-5.3984
X11.4295Y-6.1484
X11.8295Y-6.1484
X7.2108Y-3.1484
X7.6108Y-3.1484
X3.9295Y-6.1484
X4.3295Y-6.1484
X13.3983Y-6.1484
X13.7983Y-6.1484
X7.5858Y-3.8984
X7.9858Y-3.8984
X14.8983Y-3.8984
X15.2983Y-3.8984
X13.3983Y-3.8984
X13.7983Y-3.8984
X3.2733Y-4.6484
X3.6733Y-4.6484
X2.1483Y-3.8984
X2.5483Y-3.8984
X9.8358Y-3.8984
X10.2358Y-3.8984
X5.1483Y-5.3984
X5.5483Y-5.3984
X12.0016Y-4.6484
X12.4016Y-4.6484
X9.4608Y-3.1484
X9.8608Y-3.1484
X2.0545Y-6.1484
X2.4545Y-6.1484
X1.9608Y-3.1484
X2.3608Y-3.1484
X9.6483Y-5.3984
X10.0483Y-5.3984
X3.0858Y-3.8984
X3.4858Y-3.8984
X4.7733Y-4.6484
X5.1733Y-4.6484
X3.8358Y-3.8984
X4.2358Y-3.8984
X6.2733Y-4.6484
X6.6733Y-4.6484
X2.242Y-4.6484
X2.642Y-4.6484
X9.0858Y-3.8984
X9.4858Y-3.8984
X6.7516Y-6.1484
X7.1516Y-6.1484
X8.7108Y-3.1484
X9.1108Y-3.1484
X5.7107Y-3.1484
X6.1107Y-3.1484
X12.367Y-6.1484
X12.767Y-6.1484
X7.3983Y-5.3984
X7.7983Y-5.3984
X8.1483Y-5.3984
X8.5483Y-5.3984
X6.8357Y-3.8984
X7.2357Y-3.8984
X8.5233Y-4.6484
X8.9233Y-4.6484
X11.3358Y-3.8984
X11.7358Y-3.8984
X7.0233Y-4.6484
X7.4233Y-4.6484
X12.0858Y-3.1484
X12.4858Y-3.1484
X7.9608Y-3.1484
X8.3608Y-3.1484
X4.9608Y-3.1484
X5.3608Y-3.1484
X10.492Y-6.1484
X10.892Y-6.1484
X8.8983Y-5.3984
X9.2983Y-5.3984
X14.1483Y-6.1484
X14.5483Y-6.1484
X6.0857Y-3.8984
X6.4857Y-3.8984
X10.0233Y-4.6484
X10.4233Y-4.6484
X14.1483Y-3.1484
X14.5483Y-3.1484
X5.5233Y-4.6484
X5.9233Y-4.6484
X11.8045Y-5.3984
X12.2045Y-5.3984
X2.7108Y-3.1484
X3.1108Y-3.1484
X4.2107Y-3.1484
X4.6107Y-3.1484
X6.6483Y-5.3984
X7.0483Y-5.3984
X14.8983Y-3.1484
X15.2983Y-3.1484
X7.7733Y-4.6484
X8.1733Y-4.6484
X13.3983Y-3.1484
X13.7983Y-3.1484
X3.6483Y-5.3984
X4.0483Y-5.3984
X9.5545Y-6.1484
X9.9545Y-6.1484
X2.992Y-6.1484
X3.392Y-6.1484
T3
X11.7316Y-4.3734
X12.6716Y-4.3734
X4.9816Y-5.8734
X8.9216Y-5.8734
X11.8158Y-2.8734
X12.7558Y-2.8734
X11.5345Y-5.1234
X12.4745Y-5.1234
X2.1499Y-5.1234
X3.0899Y-5.1234
T4
X15.0983Y-6.1484
X8.5358Y-3.8984
X6.0983Y-5.3984
X5.5358Y-3.8984
X9.4733Y-4.6484
X10.7858Y-3.8984
X14.3483Y-3.8984
X6.6607Y-3.1484
X3.6607Y-3.1484
X14.3483Y-5.3984
X10.5983Y-5.3984
X11.1608Y-3.1484
X10.9733Y-4.6484
X4.7858Y-3.8984
X4.2233Y-4.6484
X12.4733Y-3.8984
X10.4108Y-3.1484
X4.5983Y-5.3984
X2.1499Y-5.7234
X2.6199Y-5.3984
X3.0899Y-5.7234
X11.6295Y-6.1484
X7.4108Y-3.1484
X4.1295Y-6.1484
X13.5983Y-6.1484
X7.7858Y-3.8984
X15.0983Y-3.8984
X13.5983Y-3.8984
X3.4733Y-4.6484
X2.3483Y-3.8984
X10.0358Y-3.8984
X5.3483Y-5.3984
X11.7316Y-4.9734
X12.2016Y-4.6484
X12.6716Y-4.9734
X9.6608Y-3.1484
X2.2545Y-6.1484
X2.1608Y-3.1484
X9.8483Y-5.3984
X3.2858Y-3.8984
X4.9733Y-4.6484
X4.0358Y-3.8984
X6.4733Y-4.6484
X2.442Y-4.6484
X9.2858Y-3.8984
X4.9816Y-6.4734
X6.9516Y-6.1484
X8.9216Y-6.4734
X8.9108Y-3.1484
X5.9107Y-3.1484
X12.567Y-6.1484
X7.5983Y-5.3984
X8.3483Y-5.3984
X7.0357Y-3.8984
X8.7233Y-4.6484
X11.5358Y-3.8984
X7.2233Y-4.6484
X11.8158Y-3.4734
X12.2858Y-3.1484
X12.7558Y-3.4734
X8.1608Y-3.1484
X5.1608Y-3.1484
X10.692Y-6.1484
X9.0983Y-5.3984
X14.3483Y-6.1484
X6.2857Y-3.8984
X10.2233Y-4.6484
X14.3483Y-3.1484
X5.7233Y-4.6484
X11.5345Y-5.7234
X12.0045Y-5.3984
X12.4745Y-5.7234
X2.9108Y-3.1484
X4.4107Y-3.1484
X6.8483Y-5.3984
X15.0983Y-3.1484
X7.9733Y-4.6484
X13.5983Y-3.1484
X3.8483Y-5.3984
X9.7545Y-6.1484
X3.192Y-6.1484
T1
G00X13.2264Y-3.1106
M15
G01X13.2382Y-3.1106
M16
G05
T0
M30
