%TF.GenerationSoftware,KiCad,Pcbnew,(5.1.6)-1*%
%TF.CreationDate,2020-07-22T19:59:05-04:00*%
%TF.ProjectId,prosaic,70726f73-6169-4632-9e6b-696361645f70,-*%
%TF.SameCoordinates,Original*%
%TF.FileFunction,Legend,Top*%
%TF.FilePolarity,Positive*%
%FSLAX46Y46*%
G04 Gerber Fmt 4.6, Leading zero omitted, Abs format (unit mm)*
G04 Created by KiCad (PCBNEW (5.1.6)-1) date 2020-07-22 19:59:05*
%MOMM*%
%LPD*%
G01*
G04 APERTURE LIST*
%ADD10C,0.150000*%
%ADD11C,0.381000*%
G04 APERTURE END LIST*
D10*
X378535595Y-136302380D02*
X378535595Y-135302380D01*
X378916547Y-135302380D01*
X379011785Y-135350000D01*
X379059404Y-135397619D01*
X379107023Y-135492857D01*
X379107023Y-135635714D01*
X379059404Y-135730952D01*
X379011785Y-135778571D01*
X378916547Y-135826190D01*
X378535595Y-135826190D01*
X379535595Y-136302380D02*
X379535595Y-135635714D01*
X379535595Y-135826190D02*
X379583214Y-135730952D01*
X379630833Y-135683333D01*
X379726071Y-135635714D01*
X379821309Y-135635714D01*
X380297500Y-136302380D02*
X380202261Y-136254761D01*
X380154642Y-136207142D01*
X380107023Y-136111904D01*
X380107023Y-135826190D01*
X380154642Y-135730952D01*
X380202261Y-135683333D01*
X380297500Y-135635714D01*
X380440357Y-135635714D01*
X380535595Y-135683333D01*
X380583214Y-135730952D01*
X380630833Y-135826190D01*
X380630833Y-136111904D01*
X380583214Y-136207142D01*
X380535595Y-136254761D01*
X380440357Y-136302380D01*
X380297500Y-136302380D01*
X381011785Y-136254761D02*
X381107023Y-136302380D01*
X381297500Y-136302380D01*
X381392738Y-136254761D01*
X381440357Y-136159523D01*
X381440357Y-136111904D01*
X381392738Y-136016666D01*
X381297500Y-135969047D01*
X381154642Y-135969047D01*
X381059404Y-135921428D01*
X381011785Y-135826190D01*
X381011785Y-135778571D01*
X381059404Y-135683333D01*
X381154642Y-135635714D01*
X381297500Y-135635714D01*
X381392738Y-135683333D01*
X382297500Y-136302380D02*
X382297500Y-135778571D01*
X382249880Y-135683333D01*
X382154642Y-135635714D01*
X381964166Y-135635714D01*
X381868928Y-135683333D01*
X382297500Y-136254761D02*
X382202261Y-136302380D01*
X381964166Y-136302380D01*
X381868928Y-136254761D01*
X381821309Y-136159523D01*
X381821309Y-136064285D01*
X381868928Y-135969047D01*
X381964166Y-135921428D01*
X382202261Y-135921428D01*
X382297500Y-135873809D01*
X382773690Y-136302380D02*
X382773690Y-135635714D01*
X382773690Y-135302380D02*
X382726071Y-135350000D01*
X382773690Y-135397619D01*
X382821309Y-135350000D01*
X382773690Y-135302380D01*
X382773690Y-135397619D01*
X383678452Y-136254761D02*
X383583214Y-136302380D01*
X383392738Y-136302380D01*
X383297500Y-136254761D01*
X383249880Y-136207142D01*
X383202261Y-136111904D01*
X383202261Y-135826190D01*
X383249880Y-135730952D01*
X383297500Y-135683333D01*
X383392738Y-135635714D01*
X383583214Y-135635714D01*
X383678452Y-135683333D01*
X379107023Y-137952380D02*
X378773690Y-137476190D01*
X378535595Y-137952380D02*
X378535595Y-136952380D01*
X378916547Y-136952380D01*
X379011785Y-137000000D01*
X379059404Y-137047619D01*
X379107023Y-137142857D01*
X379107023Y-137285714D01*
X379059404Y-137380952D01*
X379011785Y-137428571D01*
X378916547Y-137476190D01*
X378535595Y-137476190D01*
X379916547Y-137904761D02*
X379821309Y-137952380D01*
X379630833Y-137952380D01*
X379535595Y-137904761D01*
X379487976Y-137809523D01*
X379487976Y-137428571D01*
X379535595Y-137333333D01*
X379630833Y-137285714D01*
X379821309Y-137285714D01*
X379916547Y-137333333D01*
X379964166Y-137428571D01*
X379964166Y-137523809D01*
X379487976Y-137619047D01*
X380297500Y-137285714D02*
X380535595Y-137952380D01*
X380773690Y-137285714D01*
X381916547Y-137571428D02*
X382678452Y-137571428D01*
X378535595Y-139602380D02*
X378535595Y-138602380D01*
X378535595Y-138983333D02*
X378630833Y-138935714D01*
X378821309Y-138935714D01*
X378916547Y-138983333D01*
X378964166Y-139030952D01*
X379011785Y-139126190D01*
X379011785Y-139411904D01*
X378964166Y-139507142D01*
X378916547Y-139554761D01*
X378821309Y-139602380D01*
X378630833Y-139602380D01*
X378535595Y-139554761D01*
X379345119Y-138935714D02*
X379583214Y-139602380D01*
X379821309Y-138935714D02*
X379583214Y-139602380D01*
X379487976Y-139840476D01*
X379440357Y-139888095D01*
X379345119Y-139935714D01*
X380916547Y-139554761D02*
X381059404Y-139602380D01*
X381297500Y-139602380D01*
X381392738Y-139554761D01*
X381440357Y-139507142D01*
X381487976Y-139411904D01*
X381487976Y-139316666D01*
X381440357Y-139221428D01*
X381392738Y-139173809D01*
X381297500Y-139126190D01*
X381107023Y-139078571D01*
X381011785Y-139030952D01*
X380964166Y-138983333D01*
X380916547Y-138888095D01*
X380916547Y-138792857D01*
X380964166Y-138697619D01*
X381011785Y-138650000D01*
X381107023Y-138602380D01*
X381345119Y-138602380D01*
X381487976Y-138650000D01*
X381916547Y-139602380D02*
X381916547Y-138935714D01*
X381916547Y-138602380D02*
X381868928Y-138650000D01*
X381916547Y-138697619D01*
X381964166Y-138650000D01*
X381916547Y-138602380D01*
X381916547Y-138697619D01*
X382392738Y-139602380D02*
X382392738Y-138935714D01*
X382392738Y-139126190D02*
X382440357Y-139030952D01*
X382487976Y-138983333D01*
X382583214Y-138935714D01*
X382678452Y-138935714D01*
X383011785Y-139602380D02*
X383011785Y-138935714D01*
X383011785Y-138602380D02*
X382964166Y-138650000D01*
X383011785Y-138697619D01*
X383059404Y-138650000D01*
X383011785Y-138602380D01*
X383011785Y-138697619D01*
X383916547Y-138935714D02*
X383916547Y-139602380D01*
X383487976Y-138935714D02*
X383487976Y-139459523D01*
X383535595Y-139554761D01*
X383630833Y-139602380D01*
X383773690Y-139602380D01*
X383868928Y-139554761D01*
X383916547Y-139507142D01*
X384345119Y-139554761D02*
X384440357Y-139602380D01*
X384630833Y-139602380D01*
X384726071Y-139554761D01*
X384773690Y-139459523D01*
X384773690Y-139411904D01*
X384726071Y-139316666D01*
X384630833Y-139269047D01*
X384487976Y-139269047D01*
X384392738Y-139221428D01*
X384345119Y-139126190D01*
X384345119Y-139078571D01*
X384392738Y-138983333D01*
X384487976Y-138935714D01*
X384630833Y-138935714D01*
X384726071Y-138983333D01*
X385154642Y-139554761D02*
X385297500Y-139602380D01*
X385535595Y-139602380D01*
X385630833Y-139554761D01*
X385678452Y-139507142D01*
X385726071Y-139411904D01*
X385726071Y-139316666D01*
X385678452Y-139221428D01*
X385630833Y-139173809D01*
X385535595Y-139126190D01*
X385345119Y-139078571D01*
X385249880Y-139030952D01*
X385202261Y-138983333D01*
X385154642Y-138888095D01*
X385154642Y-138792857D01*
X385202261Y-138697619D01*
X385249880Y-138650000D01*
X385345119Y-138602380D01*
X385583214Y-138602380D01*
X385726071Y-138650000D01*
X386583214Y-139602380D02*
X386583214Y-139078571D01*
X386535595Y-138983333D01*
X386440357Y-138935714D01*
X386249880Y-138935714D01*
X386154642Y-138983333D01*
X386583214Y-139554761D02*
X386487976Y-139602380D01*
X386249880Y-139602380D01*
X386154642Y-139554761D01*
X386107023Y-139459523D01*
X386107023Y-139364285D01*
X386154642Y-139269047D01*
X386249880Y-139221428D01*
X386487976Y-139221428D01*
X386583214Y-139173809D01*
X387059404Y-139602380D02*
X387059404Y-138935714D01*
X387059404Y-139030952D02*
X387107023Y-138983333D01*
X387202261Y-138935714D01*
X387345119Y-138935714D01*
X387440357Y-138983333D01*
X387487976Y-139078571D01*
X387487976Y-139602380D01*
X387487976Y-139078571D02*
X387535595Y-138983333D01*
X387630833Y-138935714D01*
X387773690Y-138935714D01*
X387868928Y-138983333D01*
X387916547Y-139078571D01*
X387916547Y-139602380D01*
D11*
%TO.C,K20*%
X170220394Y-149818962D02*
X171998394Y-149818962D01*
X181142394Y-149818962D02*
X182920394Y-149818962D01*
X182920394Y-149818962D02*
X182920394Y-151596962D01*
X182920394Y-160740962D02*
X182920394Y-162518962D01*
X182920394Y-162518962D02*
X181142394Y-162518962D01*
X171998394Y-162518962D02*
X170220394Y-162518962D01*
X170220394Y-162518962D02*
X170220394Y-160740962D01*
X170220394Y-151596962D02*
X170220394Y-149818962D01*
%TO.C,K59*%
X298564894Y-130768967D02*
X300342894Y-130768967D01*
X309486894Y-130768967D02*
X311264894Y-130768967D01*
X311264894Y-130768967D02*
X311264894Y-132546967D01*
X311264894Y-141690967D02*
X311264894Y-143468967D01*
X311264894Y-143468967D02*
X309486894Y-143468967D01*
X300342894Y-143468967D02*
X298564894Y-143468967D01*
X298564894Y-143468967D02*
X298564894Y-141690967D01*
X298564894Y-132546967D02*
X298564894Y-130768967D01*
%TO.C,K62*%
X303570394Y-111718917D02*
X305348394Y-111718917D01*
X314492394Y-111718917D02*
X316270394Y-111718917D01*
X316270394Y-111718917D02*
X316270394Y-113496917D01*
X316270394Y-122640917D02*
X316270394Y-124418917D01*
X316270394Y-124418917D02*
X314492394Y-124418917D01*
X305348394Y-124418917D02*
X303570394Y-124418917D01*
X303570394Y-124418917D02*
X303570394Y-122640917D01*
X303570394Y-113496917D02*
X303570394Y-111718917D01*
%TO.C,K4*%
X60196394Y-130768967D02*
X61974394Y-130768967D01*
X71118394Y-130768967D02*
X72896394Y-130768967D01*
X72896394Y-130768967D02*
X72896394Y-132546967D01*
X72896394Y-141690967D02*
X72896394Y-143468967D01*
X72896394Y-143468967D02*
X71118394Y-143468967D01*
X61974394Y-143468967D02*
X60196394Y-143468967D01*
X60196394Y-143468967D02*
X60196394Y-141690967D01*
X60196394Y-132546967D02*
X60196394Y-130768967D01*
%TO.C,K64*%
X305708894Y-73618917D02*
X307486894Y-73618917D01*
X316630894Y-73618917D02*
X318408894Y-73618917D01*
X318408894Y-73618917D02*
X318408894Y-75396917D01*
X318408894Y-84540917D02*
X318408894Y-86318917D01*
X318408894Y-86318917D02*
X316630894Y-86318917D01*
X307486894Y-86318917D02*
X305708894Y-86318917D01*
X305708894Y-86318917D02*
X305708894Y-84540917D01*
X305708894Y-75396917D02*
X305708894Y-73618917D01*
%TO.C,K3*%
X55676454Y-111718317D02*
X57454454Y-111718317D01*
X66598454Y-111718317D02*
X68376454Y-111718317D01*
X68376454Y-111718317D02*
X68376454Y-113496317D01*
X68376454Y-122640317D02*
X68376454Y-124418317D01*
X68376454Y-124418317D02*
X66598454Y-124418317D01*
X57454454Y-124418317D02*
X55676454Y-124418317D01*
X55676454Y-124418317D02*
X55676454Y-122640317D01*
X55676454Y-113496317D02*
X55676454Y-111718317D01*
%TO.C,K2*%
X53295879Y-92669067D02*
X55073879Y-92669067D01*
X64217879Y-92669067D02*
X65995879Y-92669067D01*
X65995879Y-92669067D02*
X65995879Y-94447067D01*
X65995879Y-103591067D02*
X65995879Y-105369067D01*
X65995879Y-105369067D02*
X64217879Y-105369067D01*
X55073879Y-105369067D02*
X53295879Y-105369067D01*
X53295879Y-105369067D02*
X53295879Y-103591067D01*
X53295879Y-94447067D02*
X53295879Y-92669067D01*
%TO.C,K65*%
X310470894Y-92669067D02*
X312248894Y-92669067D01*
X321392894Y-92669067D02*
X323170894Y-92669067D01*
X323170894Y-92669067D02*
X323170894Y-94447067D01*
X323170894Y-103591067D02*
X323170894Y-105369067D01*
X323170894Y-105369067D02*
X321392894Y-105369067D01*
X312248894Y-105369067D02*
X310470894Y-105369067D01*
X310470894Y-105369067D02*
X310470894Y-103591067D01*
X310470894Y-94447067D02*
X310470894Y-92669067D01*
%TO.C,K5*%
X50915344Y-149818287D02*
X52693344Y-149818287D01*
X61837344Y-149818287D02*
X63615344Y-149818287D01*
X63615344Y-149818287D02*
X63615344Y-151596287D01*
X63615344Y-160740287D02*
X63615344Y-162518287D01*
X63615344Y-162518287D02*
X61837344Y-162518287D01*
X52693344Y-162518287D02*
X50915344Y-162518287D01*
X50915344Y-162518287D02*
X50915344Y-160740287D01*
X50915344Y-151596287D02*
X50915344Y-149818287D01*
%TO.C,K10*%
X74726394Y-149818287D02*
X76504394Y-149818287D01*
X85648394Y-149818287D02*
X87426394Y-149818287D01*
X87426394Y-149818287D02*
X87426394Y-151596287D01*
X87426394Y-160740287D02*
X87426394Y-162518287D01*
X87426394Y-162518287D02*
X85648394Y-162518287D01*
X76504394Y-162518287D02*
X74726394Y-162518287D01*
X74726394Y-162518287D02*
X74726394Y-160740287D01*
X74726394Y-151596287D02*
X74726394Y-149818287D01*
%TO.C,K15*%
X98540294Y-149818287D02*
X100318294Y-149818287D01*
X109462294Y-149818287D02*
X111240294Y-149818287D01*
X111240294Y-149818287D02*
X111240294Y-151596287D01*
X111240294Y-160740287D02*
X111240294Y-162518287D01*
X111240294Y-162518287D02*
X109462294Y-162518287D01*
X100318294Y-162518287D02*
X98540294Y-162518287D01*
X98540294Y-162518287D02*
X98540294Y-160740287D01*
X98540294Y-151596287D02*
X98540294Y-149818287D01*
%TO.C,K25*%
X241415394Y-149818287D02*
X243193394Y-149818287D01*
X252337394Y-149818287D02*
X254115394Y-149818287D01*
X254115394Y-149818287D02*
X254115394Y-151596287D01*
X254115394Y-160740287D02*
X254115394Y-162518287D01*
X254115394Y-162518287D02*
X252337394Y-162518287D01*
X243193394Y-162518287D02*
X241415394Y-162518287D01*
X241415394Y-162518287D02*
X241415394Y-160740287D01*
X241415394Y-151596287D02*
X241415394Y-149818287D01*
%TO.C,K30*%
X265226394Y-149818287D02*
X267004394Y-149818287D01*
X276148394Y-149818287D02*
X277926394Y-149818287D01*
X277926394Y-149818287D02*
X277926394Y-151596287D01*
X277926394Y-160740287D02*
X277926394Y-162518287D01*
X277926394Y-162518287D02*
X276148394Y-162518287D01*
X267004394Y-162518287D02*
X265226394Y-162518287D01*
X265226394Y-162518287D02*
X265226394Y-160740287D01*
X265226394Y-151596287D02*
X265226394Y-149818287D01*
%TO.C,K35*%
X289040394Y-149818287D02*
X290818394Y-149818287D01*
X299962394Y-149818287D02*
X301740394Y-149818287D01*
X301740394Y-149818287D02*
X301740394Y-151596287D01*
X301740394Y-160740287D02*
X301740394Y-162518287D01*
X301740394Y-162518287D02*
X299962394Y-162518287D01*
X290818394Y-162518287D02*
X289040394Y-162518287D01*
X289040394Y-162518287D02*
X289040394Y-160740287D01*
X289040394Y-151596287D02*
X289040394Y-149818287D01*
%TO.C,K40*%
X312851394Y-149818287D02*
X314629394Y-149818287D01*
X323773394Y-149818287D02*
X325551394Y-149818287D01*
X325551394Y-149818287D02*
X325551394Y-151596287D01*
X325551394Y-160740287D02*
X325551394Y-162518287D01*
X325551394Y-162518287D02*
X323773394Y-162518287D01*
X314629394Y-162518287D02*
X312851394Y-162518287D01*
X312851394Y-162518287D02*
X312851394Y-160740287D01*
X312851394Y-151596287D02*
X312851394Y-149818287D01*
%TO.C,K11*%
X86632594Y-75397767D02*
X86632594Y-73619767D01*
X86632594Y-86319767D02*
X86632594Y-84541767D01*
X88410594Y-86319767D02*
X86632594Y-86319767D01*
X99332594Y-86319767D02*
X97554594Y-86319767D01*
X99332594Y-84541767D02*
X99332594Y-86319767D01*
X99332594Y-73619767D02*
X99332594Y-75397767D01*
X97554594Y-73619767D02*
X99332594Y-73619767D01*
X86632594Y-73619767D02*
X88410594Y-73619767D01*
%TO.C,K6*%
X67583294Y-75397767D02*
X67583294Y-73619767D01*
X67583294Y-86319767D02*
X67583294Y-84541767D01*
X69361294Y-86319767D02*
X67583294Y-86319767D01*
X80283294Y-86319767D02*
X78505294Y-86319767D01*
X80283294Y-84541767D02*
X80283294Y-86319767D01*
X80283294Y-73619767D02*
X80283294Y-75397767D01*
X78505294Y-73619767D02*
X80283294Y-73619767D01*
X67583294Y-73619767D02*
X69361294Y-73619767D01*
%TO.C,K1*%
X48534064Y-75397767D02*
X48534064Y-73619767D01*
X48534064Y-86319767D02*
X48534064Y-84541767D01*
X50312064Y-86319767D02*
X48534064Y-86319767D01*
X61234064Y-86319767D02*
X59456064Y-86319767D01*
X61234064Y-84541767D02*
X61234064Y-86319767D01*
X61234064Y-73619767D02*
X61234064Y-75397767D01*
X59456064Y-73619767D02*
X61234064Y-73619767D01*
X48534064Y-73619767D02*
X50312064Y-73619767D01*
%TO.C,K16*%
X105682594Y-75397767D02*
X105682594Y-73619767D01*
X105682594Y-86319767D02*
X105682594Y-84541767D01*
X107460594Y-86319767D02*
X105682594Y-86319767D01*
X118382594Y-86319767D02*
X116604594Y-86319767D01*
X118382594Y-84541767D02*
X118382594Y-86319767D01*
X118382594Y-73619767D02*
X118382594Y-75397767D01*
X116604594Y-73619767D02*
X118382594Y-73619767D01*
X105682594Y-73619767D02*
X107460594Y-73619767D01*
%TO.C,K21*%
X124733294Y-75397767D02*
X124733294Y-73619767D01*
X124733294Y-86319767D02*
X124733294Y-84541767D01*
X126511294Y-86319767D02*
X124733294Y-86319767D01*
X137433294Y-86319767D02*
X135655294Y-86319767D01*
X137433294Y-84541767D02*
X137433294Y-86319767D01*
X137433294Y-73619767D02*
X137433294Y-75397767D01*
X135655294Y-73619767D02*
X137433294Y-73619767D01*
X124733294Y-73619767D02*
X126511294Y-73619767D01*
%TO.C,K26*%
X143782594Y-75397767D02*
X143782594Y-73619767D01*
X143782594Y-86319767D02*
X143782594Y-84541767D01*
X145560594Y-86319767D02*
X143782594Y-86319767D01*
X156482594Y-86319767D02*
X154704594Y-86319767D01*
X156482594Y-84541767D02*
X156482594Y-86319767D01*
X156482594Y-73619767D02*
X156482594Y-75397767D01*
X154704594Y-73619767D02*
X156482594Y-73619767D01*
X143782594Y-73619767D02*
X145560594Y-73619767D01*
%TO.C,K31*%
X162832894Y-75397767D02*
X162832894Y-73619767D01*
X162832894Y-86319767D02*
X162832894Y-84541767D01*
X164610894Y-86319767D02*
X162832894Y-86319767D01*
X175532894Y-86319767D02*
X173754894Y-86319767D01*
X175532894Y-84541767D02*
X175532894Y-86319767D01*
X175532894Y-73619767D02*
X175532894Y-75397767D01*
X173754894Y-73619767D02*
X175532894Y-73619767D01*
X162832894Y-73619767D02*
X164610894Y-73619767D01*
%TO.C,K36*%
X181883894Y-75397767D02*
X181883894Y-73619767D01*
X181883894Y-86319767D02*
X181883894Y-84541767D01*
X183661894Y-86319767D02*
X181883894Y-86319767D01*
X194583894Y-86319767D02*
X192805894Y-86319767D01*
X194583894Y-84541767D02*
X194583894Y-86319767D01*
X194583894Y-73619767D02*
X194583894Y-75397767D01*
X192805894Y-73619767D02*
X194583894Y-73619767D01*
X181883894Y-73619767D02*
X183661894Y-73619767D01*
%TO.C,K41*%
X200933894Y-75397767D02*
X200933894Y-73619767D01*
X200933894Y-86319767D02*
X200933894Y-84541767D01*
X202711894Y-86319767D02*
X200933894Y-86319767D01*
X213633894Y-86319767D02*
X211855894Y-86319767D01*
X213633894Y-84541767D02*
X213633894Y-86319767D01*
X213633894Y-73619767D02*
X213633894Y-75397767D01*
X211855894Y-73619767D02*
X213633894Y-73619767D01*
X200933894Y-73619767D02*
X202711894Y-73619767D01*
%TO.C,K46*%
X219983894Y-75397767D02*
X219983894Y-73619767D01*
X219983894Y-86319767D02*
X219983894Y-84541767D01*
X221761894Y-86319767D02*
X219983894Y-86319767D01*
X232683894Y-86319767D02*
X230905894Y-86319767D01*
X232683894Y-84541767D02*
X232683894Y-86319767D01*
X232683894Y-73619767D02*
X232683894Y-75397767D01*
X230905894Y-73619767D02*
X232683894Y-73619767D01*
X219983894Y-73619767D02*
X221761894Y-73619767D01*
%TO.C,K51*%
X239033894Y-75397767D02*
X239033894Y-73619767D01*
X239033894Y-86319767D02*
X239033894Y-84541767D01*
X240811894Y-86319767D02*
X239033894Y-86319767D01*
X251733894Y-86319767D02*
X249955894Y-86319767D01*
X251733894Y-84541767D02*
X251733894Y-86319767D01*
X251733894Y-73619767D02*
X251733894Y-75397767D01*
X249955894Y-73619767D02*
X251733894Y-73619767D01*
X239033894Y-73619767D02*
X240811894Y-73619767D01*
%TO.C,K56*%
X258083894Y-75397767D02*
X258083894Y-73619767D01*
X258083894Y-86319767D02*
X258083894Y-84541767D01*
X259861894Y-86319767D02*
X258083894Y-86319767D01*
X270783894Y-86319767D02*
X269005894Y-86319767D01*
X270783894Y-84541767D02*
X270783894Y-86319767D01*
X270783894Y-73619767D02*
X270783894Y-75397767D01*
X269005894Y-73619767D02*
X270783894Y-73619767D01*
X258083894Y-73619767D02*
X259861894Y-73619767D01*
%TO.C,K60*%
X277133894Y-75397767D02*
X277133894Y-73619767D01*
X277133894Y-86319767D02*
X277133894Y-84541767D01*
X278911894Y-86319767D02*
X277133894Y-86319767D01*
X289833894Y-86319767D02*
X288055894Y-86319767D01*
X289833894Y-84541767D02*
X289833894Y-86319767D01*
X289833894Y-73619767D02*
X289833894Y-75397767D01*
X288055894Y-73619767D02*
X289833894Y-73619767D01*
X277133894Y-73619767D02*
X278911894Y-73619767D01*
%TO.C,K68*%
X339045894Y-75397767D02*
X339045894Y-73619767D01*
X339045894Y-86319767D02*
X339045894Y-84541767D01*
X340823894Y-86319767D02*
X339045894Y-86319767D01*
X351745894Y-86319767D02*
X349967894Y-86319767D01*
X351745894Y-84541767D02*
X351745894Y-86319767D01*
X351745894Y-73619767D02*
X351745894Y-75397767D01*
X349967894Y-73619767D02*
X351745894Y-73619767D01*
X339045894Y-73619767D02*
X340823894Y-73619767D01*
%TO.C,K66*%
X358095894Y-75397767D02*
X358095894Y-73619767D01*
X358095894Y-86319767D02*
X358095894Y-84541767D01*
X359873894Y-86319767D02*
X358095894Y-86319767D01*
X370795894Y-86319767D02*
X369017894Y-86319767D01*
X370795894Y-84541767D02*
X370795894Y-86319767D01*
X370795894Y-73619767D02*
X370795894Y-75397767D01*
X369017894Y-73619767D02*
X370795894Y-73619767D01*
X358095894Y-73619767D02*
X359873894Y-73619767D01*
%TO.C,K70*%
X377145894Y-75397767D02*
X377145894Y-73619767D01*
X377145894Y-86319767D02*
X377145894Y-84541767D01*
X378923894Y-86319767D02*
X377145894Y-86319767D01*
X389845894Y-86319767D02*
X388067894Y-86319767D01*
X389845894Y-84541767D02*
X389845894Y-86319767D01*
X389845894Y-73619767D02*
X389845894Y-75397767D01*
X388067894Y-73619767D02*
X389845894Y-73619767D01*
X377145894Y-73619767D02*
X378923894Y-73619767D01*
%TO.C,K7*%
X77108994Y-94447067D02*
X77108994Y-92669067D01*
X77108994Y-105369067D02*
X77108994Y-103591067D01*
X78886994Y-105369067D02*
X77108994Y-105369067D01*
X89808994Y-105369067D02*
X88030994Y-105369067D01*
X89808994Y-103591067D02*
X89808994Y-105369067D01*
X89808994Y-92669067D02*
X89808994Y-94447067D01*
X88030994Y-92669067D02*
X89808994Y-92669067D01*
X77108994Y-92669067D02*
X78886994Y-92669067D01*
%TO.C,K12*%
X96158994Y-94447067D02*
X96158994Y-92669067D01*
X96158994Y-105369067D02*
X96158994Y-103591067D01*
X97936994Y-105369067D02*
X96158994Y-105369067D01*
X108858994Y-105369067D02*
X107080994Y-105369067D01*
X108858994Y-103591067D02*
X108858994Y-105369067D01*
X108858994Y-92669067D02*
X108858994Y-94447067D01*
X107080994Y-92669067D02*
X108858994Y-92669067D01*
X96158994Y-92669067D02*
X97936994Y-92669067D01*
%TO.C,K17*%
X115208294Y-94447067D02*
X115208294Y-92669067D01*
X115208294Y-105369067D02*
X115208294Y-103591067D01*
X116986294Y-105369067D02*
X115208294Y-105369067D01*
X127908294Y-105369067D02*
X126130294Y-105369067D01*
X127908294Y-103591067D02*
X127908294Y-105369067D01*
X127908294Y-92669067D02*
X127908294Y-94447067D01*
X126130294Y-92669067D02*
X127908294Y-92669067D01*
X115208294Y-92669067D02*
X116986294Y-92669067D01*
%TO.C,K22*%
X134258094Y-94447067D02*
X134258094Y-92669067D01*
X134258094Y-105369067D02*
X134258094Y-103591067D01*
X136036094Y-105369067D02*
X134258094Y-105369067D01*
X146958094Y-105369067D02*
X145180094Y-105369067D01*
X146958094Y-103591067D02*
X146958094Y-105369067D01*
X146958094Y-92669067D02*
X146958094Y-94447067D01*
X145180094Y-92669067D02*
X146958094Y-92669067D01*
X134258094Y-92669067D02*
X136036094Y-92669067D01*
%TO.C,K27*%
X153307894Y-94447067D02*
X153307894Y-92669067D01*
X153307894Y-105369067D02*
X153307894Y-103591067D01*
X155085894Y-105369067D02*
X153307894Y-105369067D01*
X166007894Y-105369067D02*
X164229894Y-105369067D01*
X166007894Y-103591067D02*
X166007894Y-105369067D01*
X166007894Y-92669067D02*
X166007894Y-94447067D01*
X164229894Y-92669067D02*
X166007894Y-92669067D01*
X153307894Y-92669067D02*
X155085894Y-92669067D01*
%TO.C,K32*%
X172357894Y-94447067D02*
X172357894Y-92669067D01*
X172357894Y-105369067D02*
X172357894Y-103591067D01*
X174135894Y-105369067D02*
X172357894Y-105369067D01*
X185057894Y-105369067D02*
X183279894Y-105369067D01*
X185057894Y-103591067D02*
X185057894Y-105369067D01*
X185057894Y-92669067D02*
X185057894Y-94447067D01*
X183279894Y-92669067D02*
X185057894Y-92669067D01*
X172357894Y-92669067D02*
X174135894Y-92669067D01*
%TO.C,K37*%
X191408894Y-94447067D02*
X191408894Y-92669067D01*
X191408894Y-105369067D02*
X191408894Y-103591067D01*
X193186894Y-105369067D02*
X191408894Y-105369067D01*
X204108894Y-105369067D02*
X202330894Y-105369067D01*
X204108894Y-103591067D02*
X204108894Y-105369067D01*
X204108894Y-92669067D02*
X204108894Y-94447067D01*
X202330894Y-92669067D02*
X204108894Y-92669067D01*
X191408894Y-92669067D02*
X193186894Y-92669067D01*
%TO.C,K42*%
X210458894Y-94447067D02*
X210458894Y-92669067D01*
X210458894Y-105369067D02*
X210458894Y-103591067D01*
X212236894Y-105369067D02*
X210458894Y-105369067D01*
X223158894Y-105369067D02*
X221380894Y-105369067D01*
X223158894Y-103591067D02*
X223158894Y-105369067D01*
X223158894Y-92669067D02*
X223158894Y-94447067D01*
X221380894Y-92669067D02*
X223158894Y-92669067D01*
X210458894Y-92669067D02*
X212236894Y-92669067D01*
%TO.C,K47*%
X229508894Y-94447067D02*
X229508894Y-92669067D01*
X229508894Y-105369067D02*
X229508894Y-103591067D01*
X231286894Y-105369067D02*
X229508894Y-105369067D01*
X242208894Y-105369067D02*
X240430894Y-105369067D01*
X242208894Y-103591067D02*
X242208894Y-105369067D01*
X242208894Y-92669067D02*
X242208894Y-94447067D01*
X240430894Y-92669067D02*
X242208894Y-92669067D01*
X229508894Y-92669067D02*
X231286894Y-92669067D01*
%TO.C,K52*%
X248558894Y-94447067D02*
X248558894Y-92669067D01*
X248558894Y-105369067D02*
X248558894Y-103591067D01*
X250336894Y-105369067D02*
X248558894Y-105369067D01*
X261258894Y-105369067D02*
X259480894Y-105369067D01*
X261258894Y-103591067D02*
X261258894Y-105369067D01*
X261258894Y-92669067D02*
X261258894Y-94447067D01*
X259480894Y-92669067D02*
X261258894Y-92669067D01*
X248558894Y-92669067D02*
X250336894Y-92669067D01*
%TO.C,K57*%
X267608894Y-94447067D02*
X267608894Y-92669067D01*
X267608894Y-105369067D02*
X267608894Y-103591067D01*
X269386894Y-105369067D02*
X267608894Y-105369067D01*
X280308894Y-105369067D02*
X278530894Y-105369067D01*
X280308894Y-103591067D02*
X280308894Y-105369067D01*
X280308894Y-92669067D02*
X280308894Y-94447067D01*
X278530894Y-92669067D02*
X280308894Y-92669067D01*
X267608894Y-92669067D02*
X269386894Y-92669067D01*
%TO.C,K61*%
X286658394Y-94447067D02*
X286658394Y-92669067D01*
X286658394Y-105369067D02*
X286658394Y-103591067D01*
X288436394Y-105369067D02*
X286658394Y-105369067D01*
X299358394Y-105369067D02*
X297580394Y-105369067D01*
X299358394Y-103591067D02*
X299358394Y-105369067D01*
X299358394Y-92669067D02*
X299358394Y-94447067D01*
X297580394Y-92669067D02*
X299358394Y-92669067D01*
X286658394Y-92669067D02*
X288436394Y-92669067D01*
%TO.C,K69*%
X339045894Y-94447067D02*
X339045894Y-92669067D01*
X339045894Y-105369067D02*
X339045894Y-103591067D01*
X340823894Y-105369067D02*
X339045894Y-105369067D01*
X351745894Y-105369067D02*
X349967894Y-105369067D01*
X351745894Y-103591067D02*
X351745894Y-105369067D01*
X351745894Y-92669067D02*
X351745894Y-94447067D01*
X349967894Y-92669067D02*
X351745894Y-92669067D01*
X339045894Y-92669067D02*
X340823894Y-92669067D01*
%TO.C,K67*%
X358095894Y-94447067D02*
X358095894Y-92669067D01*
X358095894Y-105369067D02*
X358095894Y-103591067D01*
X359873894Y-105369067D02*
X358095894Y-105369067D01*
X370795894Y-105369067D02*
X369017894Y-105369067D01*
X370795894Y-103591067D02*
X370795894Y-105369067D01*
X370795894Y-92669067D02*
X370795894Y-94447067D01*
X369017894Y-92669067D02*
X370795894Y-92669067D01*
X358095894Y-92669067D02*
X359873894Y-92669067D01*
%TO.C,K71*%
X377145894Y-94447067D02*
X377145894Y-92669067D01*
X377145894Y-105369067D02*
X377145894Y-103591067D01*
X378923894Y-105369067D02*
X377145894Y-105369067D01*
X389845894Y-105369067D02*
X388067894Y-105369067D01*
X389845894Y-103591067D02*
X389845894Y-105369067D01*
X389845894Y-92669067D02*
X389845894Y-94447067D01*
X388067894Y-92669067D02*
X389845894Y-92669067D01*
X377145894Y-92669067D02*
X378923894Y-92669067D01*
%TO.C,K8*%
X81870794Y-113496317D02*
X81870794Y-111718317D01*
X81870794Y-124418317D02*
X81870794Y-122640317D01*
X83648794Y-124418317D02*
X81870794Y-124418317D01*
X94570794Y-124418317D02*
X92792794Y-124418317D01*
X94570794Y-122640317D02*
X94570794Y-124418317D01*
X94570794Y-111718317D02*
X94570794Y-113496317D01*
X92792794Y-111718317D02*
X94570794Y-111718317D01*
X81870794Y-111718317D02*
X83648794Y-111718317D01*
%TO.C,K13*%
X100920794Y-113496317D02*
X100920794Y-111718317D01*
X100920794Y-124418317D02*
X100920794Y-122640317D01*
X102698794Y-124418317D02*
X100920794Y-124418317D01*
X113620794Y-124418317D02*
X111842794Y-124418317D01*
X113620794Y-122640317D02*
X113620794Y-124418317D01*
X113620794Y-111718317D02*
X113620794Y-113496317D01*
X111842794Y-111718317D02*
X113620794Y-111718317D01*
X100920794Y-111718317D02*
X102698794Y-111718317D01*
%TO.C,K18*%
X119970794Y-113496317D02*
X119970794Y-111718317D01*
X119970794Y-124418317D02*
X119970794Y-122640317D01*
X121748794Y-124418317D02*
X119970794Y-124418317D01*
X132670794Y-124418317D02*
X130892794Y-124418317D01*
X132670794Y-122640317D02*
X132670794Y-124418317D01*
X132670794Y-111718317D02*
X132670794Y-113496317D01*
X130892794Y-111718317D02*
X132670794Y-111718317D01*
X119970794Y-111718317D02*
X121748794Y-111718317D01*
%TO.C,K23*%
X139020844Y-113496317D02*
X139020844Y-111718317D01*
X139020844Y-124418317D02*
X139020844Y-122640317D01*
X140798844Y-124418317D02*
X139020844Y-124418317D01*
X151720844Y-124418317D02*
X149942844Y-124418317D01*
X151720844Y-122640317D02*
X151720844Y-124418317D01*
X151720844Y-111718317D02*
X151720844Y-113496317D01*
X149942844Y-111718317D02*
X151720844Y-111718317D01*
X139020844Y-111718317D02*
X140798844Y-111718317D01*
%TO.C,K28*%
X158070894Y-113496317D02*
X158070894Y-111718317D01*
X158070894Y-124418317D02*
X158070894Y-122640317D01*
X159848894Y-124418317D02*
X158070894Y-124418317D01*
X170770894Y-124418317D02*
X168992894Y-124418317D01*
X170770894Y-122640317D02*
X170770894Y-124418317D01*
X170770894Y-111718317D02*
X170770894Y-113496317D01*
X168992894Y-111718317D02*
X170770894Y-111718317D01*
X158070894Y-111718317D02*
X159848894Y-111718317D01*
%TO.C,K33*%
X177120894Y-113496317D02*
X177120894Y-111718317D01*
X177120894Y-124418317D02*
X177120894Y-122640317D01*
X178898894Y-124418317D02*
X177120894Y-124418317D01*
X189820894Y-124418317D02*
X188042894Y-124418317D01*
X189820894Y-122640317D02*
X189820894Y-124418317D01*
X189820894Y-111718317D02*
X189820894Y-113496317D01*
X188042894Y-111718317D02*
X189820894Y-111718317D01*
X177120894Y-111718317D02*
X178898894Y-111718317D01*
%TO.C,K38*%
X196170894Y-113496317D02*
X196170894Y-111718317D01*
X196170894Y-124418317D02*
X196170894Y-122640317D01*
X197948894Y-124418317D02*
X196170894Y-124418317D01*
X208870894Y-124418317D02*
X207092894Y-124418317D01*
X208870894Y-122640317D02*
X208870894Y-124418317D01*
X208870894Y-111718317D02*
X208870894Y-113496317D01*
X207092894Y-111718317D02*
X208870894Y-111718317D01*
X196170894Y-111718317D02*
X197948894Y-111718317D01*
%TO.C,K43*%
X215220894Y-113496317D02*
X215220894Y-111718317D01*
X215220894Y-124418317D02*
X215220894Y-122640317D01*
X216998894Y-124418317D02*
X215220894Y-124418317D01*
X227920894Y-124418317D02*
X226142894Y-124418317D01*
X227920894Y-122640317D02*
X227920894Y-124418317D01*
X227920894Y-111718317D02*
X227920894Y-113496317D01*
X226142894Y-111718317D02*
X227920894Y-111718317D01*
X215220894Y-111718317D02*
X216998894Y-111718317D01*
%TO.C,K48*%
X234270894Y-113496317D02*
X234270894Y-111718317D01*
X234270894Y-124418317D02*
X234270894Y-122640317D01*
X236048894Y-124418317D02*
X234270894Y-124418317D01*
X246970894Y-124418317D02*
X245192894Y-124418317D01*
X246970894Y-122640317D02*
X246970894Y-124418317D01*
X246970894Y-111718317D02*
X246970894Y-113496317D01*
X245192894Y-111718317D02*
X246970894Y-111718317D01*
X234270894Y-111718317D02*
X236048894Y-111718317D01*
%TO.C,K53*%
X253320894Y-113496317D02*
X253320894Y-111718317D01*
X253320894Y-124418317D02*
X253320894Y-122640317D01*
X255098894Y-124418317D02*
X253320894Y-124418317D01*
X266020894Y-124418317D02*
X264242894Y-124418317D01*
X266020894Y-122640317D02*
X266020894Y-124418317D01*
X266020894Y-111718317D02*
X266020894Y-113496317D01*
X264242894Y-111718317D02*
X266020894Y-111718317D01*
X253320894Y-111718317D02*
X255098894Y-111718317D01*
%TO.C,K58*%
X272370894Y-113496317D02*
X272370894Y-111718317D01*
X272370894Y-124418317D02*
X272370894Y-122640317D01*
X274148894Y-124418317D02*
X272370894Y-124418317D01*
X285070894Y-124418317D02*
X283292894Y-124418317D01*
X285070894Y-122640317D02*
X285070894Y-124418317D01*
X285070894Y-111718317D02*
X285070894Y-113496317D01*
X283292894Y-111718317D02*
X285070894Y-111718317D01*
X272370894Y-111718317D02*
X274148894Y-111718317D01*
%TO.C,K9*%
X91395794Y-132546267D02*
X91395794Y-130768267D01*
X91395794Y-143468267D02*
X91395794Y-141690267D01*
X93173794Y-143468267D02*
X91395794Y-143468267D01*
X104095794Y-143468267D02*
X102317794Y-143468267D01*
X104095794Y-141690267D02*
X104095794Y-143468267D01*
X104095794Y-130768267D02*
X104095794Y-132546267D01*
X102317794Y-130768267D02*
X104095794Y-130768267D01*
X91395794Y-130768267D02*
X93173794Y-130768267D01*
%TO.C,K14*%
X110445794Y-132546267D02*
X110445794Y-130768267D01*
X110445794Y-143468267D02*
X110445794Y-141690267D01*
X112223794Y-143468267D02*
X110445794Y-143468267D01*
X123145794Y-143468267D02*
X121367794Y-143468267D01*
X123145794Y-141690267D02*
X123145794Y-143468267D01*
X123145794Y-130768267D02*
X123145794Y-132546267D01*
X121367794Y-130768267D02*
X123145794Y-130768267D01*
X110445794Y-130768267D02*
X112223794Y-130768267D01*
%TO.C,K19*%
X129495794Y-132546267D02*
X129495794Y-130768267D01*
X129495794Y-143468267D02*
X129495794Y-141690267D01*
X131273794Y-143468267D02*
X129495794Y-143468267D01*
X142195794Y-143468267D02*
X140417794Y-143468267D01*
X142195794Y-141690267D02*
X142195794Y-143468267D01*
X142195794Y-130768267D02*
X142195794Y-132546267D01*
X140417794Y-130768267D02*
X142195794Y-130768267D01*
X129495794Y-130768267D02*
X131273794Y-130768267D01*
%TO.C,K24*%
X148545894Y-132546267D02*
X148545894Y-130768267D01*
X148545894Y-143468267D02*
X148545894Y-141690267D01*
X150323894Y-143468267D02*
X148545894Y-143468267D01*
X161245894Y-143468267D02*
X159467894Y-143468267D01*
X161245894Y-141690267D02*
X161245894Y-143468267D01*
X161245894Y-130768267D02*
X161245894Y-132546267D01*
X159467894Y-130768267D02*
X161245894Y-130768267D01*
X148545894Y-130768267D02*
X150323894Y-130768267D01*
%TO.C,K29*%
X167595894Y-132546267D02*
X167595894Y-130768267D01*
X167595894Y-143468267D02*
X167595894Y-141690267D01*
X169373894Y-143468267D02*
X167595894Y-143468267D01*
X180295894Y-143468267D02*
X178517894Y-143468267D01*
X180295894Y-141690267D02*
X180295894Y-143468267D01*
X180295894Y-130768267D02*
X180295894Y-132546267D01*
X178517894Y-130768267D02*
X180295894Y-130768267D01*
X167595894Y-130768267D02*
X169373894Y-130768267D01*
%TO.C,K34*%
X186645894Y-132546267D02*
X186645894Y-130768267D01*
X186645894Y-143468267D02*
X186645894Y-141690267D01*
X188423894Y-143468267D02*
X186645894Y-143468267D01*
X199345894Y-143468267D02*
X197567894Y-143468267D01*
X199345894Y-141690267D02*
X199345894Y-143468267D01*
X199345894Y-130768267D02*
X199345894Y-132546267D01*
X197567894Y-130768267D02*
X199345894Y-130768267D01*
X186645894Y-130768267D02*
X188423894Y-130768267D01*
%TO.C,K39*%
X205695894Y-132546267D02*
X205695894Y-130768267D01*
X205695894Y-143468267D02*
X205695894Y-141690267D01*
X207473894Y-143468267D02*
X205695894Y-143468267D01*
X218395894Y-143468267D02*
X216617894Y-143468267D01*
X218395894Y-141690267D02*
X218395894Y-143468267D01*
X218395894Y-130768267D02*
X218395894Y-132546267D01*
X216617894Y-130768267D02*
X218395894Y-130768267D01*
X205695894Y-130768267D02*
X207473894Y-130768267D01*
%TO.C,K44*%
X224745894Y-132546267D02*
X224745894Y-130768267D01*
X224745894Y-143468267D02*
X224745894Y-141690267D01*
X226523894Y-143468267D02*
X224745894Y-143468267D01*
X237445894Y-143468267D02*
X235667894Y-143468267D01*
X237445894Y-141690267D02*
X237445894Y-143468267D01*
X237445894Y-130768267D02*
X237445894Y-132546267D01*
X235667894Y-130768267D02*
X237445894Y-130768267D01*
X224745894Y-130768267D02*
X226523894Y-130768267D01*
%TO.C,K49*%
X243795894Y-132546267D02*
X243795894Y-130768267D01*
X243795894Y-143468267D02*
X243795894Y-141690267D01*
X245573894Y-143468267D02*
X243795894Y-143468267D01*
X256495894Y-143468267D02*
X254717894Y-143468267D01*
X256495894Y-141690267D02*
X256495894Y-143468267D01*
X256495894Y-130768267D02*
X256495894Y-132546267D01*
X254717894Y-130768267D02*
X256495894Y-130768267D01*
X243795894Y-130768267D02*
X245573894Y-130768267D01*
%TO.C,K54*%
X262845894Y-132546267D02*
X262845894Y-130768267D01*
X262845894Y-143468267D02*
X262845894Y-141690267D01*
X264623894Y-143468267D02*
X262845894Y-143468267D01*
X275545894Y-143468267D02*
X273767894Y-143468267D01*
X275545894Y-141690267D02*
X275545894Y-143468267D01*
X275545894Y-130768267D02*
X275545894Y-132546267D01*
X273767894Y-130768267D02*
X275545894Y-130768267D01*
X262845894Y-130768267D02*
X264623894Y-130768267D01*
%TO.C,K63*%
X358095894Y-132546267D02*
X358095894Y-130768267D01*
X358095894Y-143468267D02*
X358095894Y-141690267D01*
X359873894Y-143468267D02*
X358095894Y-143468267D01*
X370795894Y-143468267D02*
X369017894Y-143468267D01*
X370795894Y-141690267D02*
X370795894Y-143468267D01*
X370795894Y-130768267D02*
X370795894Y-132546267D01*
X369017894Y-130768267D02*
X370795894Y-130768267D01*
X358095894Y-130768267D02*
X359873894Y-130768267D01*
%TO.C,K45*%
X339045894Y-151596287D02*
X339045894Y-149818287D01*
X339045894Y-162518287D02*
X339045894Y-160740287D01*
X340823894Y-162518287D02*
X339045894Y-162518287D01*
X351745894Y-162518287D02*
X349967894Y-162518287D01*
X351745894Y-160740287D02*
X351745894Y-162518287D01*
X351745894Y-149818287D02*
X351745894Y-151596287D01*
X349967894Y-149818287D02*
X351745894Y-149818287D01*
X339045894Y-149818287D02*
X340823894Y-149818287D01*
%TO.C,K50*%
X358095894Y-151596287D02*
X358095894Y-149818287D01*
X358095894Y-162518287D02*
X358095894Y-160740287D01*
X359873894Y-162518287D02*
X358095894Y-162518287D01*
X370795894Y-162518287D02*
X369017894Y-162518287D01*
X370795894Y-160740287D02*
X370795894Y-162518287D01*
X370795894Y-149818287D02*
X370795894Y-151596287D01*
X369017894Y-149818287D02*
X370795894Y-149818287D01*
X358095894Y-149818287D02*
X359873894Y-149818287D01*
%TO.C,K55*%
X377145894Y-151596287D02*
X377145894Y-149818287D01*
X377145894Y-162518287D02*
X377145894Y-160740287D01*
X378923894Y-162518287D02*
X377145894Y-162518287D01*
X389845894Y-162518287D02*
X388067894Y-162518287D01*
X389845894Y-160740287D02*
X389845894Y-162518287D01*
X389845894Y-149818287D02*
X389845894Y-151596287D01*
X388067894Y-149818287D02*
X389845894Y-149818287D01*
X377145894Y-149818287D02*
X378923894Y-149818287D01*
%TO.C,REF\u002A\u002A*%
D10*
X48925145Y-114496242D02*
X48591812Y-114020052D01*
X48353717Y-114496242D02*
X48353717Y-113496242D01*
X48734669Y-113496242D01*
X48829907Y-113543862D01*
X48877526Y-113591481D01*
X48925145Y-113686719D01*
X48925145Y-113829576D01*
X48877526Y-113924814D01*
X48829907Y-113972433D01*
X48734669Y-114020052D01*
X48353717Y-114020052D01*
X49353717Y-113972433D02*
X49687050Y-113972433D01*
X49829907Y-114496242D02*
X49353717Y-114496242D01*
X49353717Y-113496242D01*
X49829907Y-113496242D01*
X50591812Y-113972433D02*
X50258479Y-113972433D01*
X50258479Y-114496242D02*
X50258479Y-113496242D01*
X50734669Y-113496242D01*
X51258479Y-113496242D02*
X51258479Y-113734338D01*
X51020383Y-113639100D02*
X51258479Y-113734338D01*
X51496574Y-113639100D01*
X51115621Y-113924814D02*
X51258479Y-113734338D01*
X51401336Y-113924814D01*
X52020383Y-113496242D02*
X52020383Y-113734338D01*
X51782288Y-113639100D02*
X52020383Y-113734338D01*
X52258479Y-113639100D01*
X51877526Y-113924814D02*
X52020383Y-113734338D01*
X52163240Y-113924814D01*
X386789060Y-114496242D02*
X386455727Y-114020052D01*
X386217632Y-114496242D02*
X386217632Y-113496242D01*
X386598584Y-113496242D01*
X386693822Y-113543862D01*
X386741441Y-113591481D01*
X386789060Y-113686719D01*
X386789060Y-113829576D01*
X386741441Y-113924814D01*
X386693822Y-113972433D01*
X386598584Y-114020052D01*
X386217632Y-114020052D01*
X387217632Y-113972433D02*
X387550965Y-113972433D01*
X387693822Y-114496242D02*
X387217632Y-114496242D01*
X387217632Y-113496242D01*
X387693822Y-113496242D01*
X388455727Y-113972433D02*
X388122394Y-113972433D01*
X388122394Y-114496242D02*
X388122394Y-113496242D01*
X388598584Y-113496242D01*
X389122394Y-113496242D02*
X389122394Y-113734338D01*
X388884298Y-113639100D02*
X389122394Y-113734338D01*
X389360489Y-113639100D01*
X388979536Y-113924814D02*
X389122394Y-113734338D01*
X389265251Y-113924814D01*
X389884298Y-113496242D02*
X389884298Y-113734338D01*
X389646203Y-113639100D02*
X389884298Y-113734338D01*
X390122394Y-113639100D01*
X389741441Y-113924814D02*
X389884298Y-113734338D01*
X390027155Y-113924814D01*
X280326060Y-133221697D02*
X279992727Y-132745507D01*
X279754632Y-133221697D02*
X279754632Y-132221697D01*
X280135584Y-132221697D01*
X280230822Y-132269317D01*
X280278441Y-132316936D01*
X280326060Y-132412174D01*
X280326060Y-132555031D01*
X280278441Y-132650269D01*
X280230822Y-132697888D01*
X280135584Y-132745507D01*
X279754632Y-132745507D01*
X280754632Y-132697888D02*
X281087965Y-132697888D01*
X281230822Y-133221697D02*
X280754632Y-133221697D01*
X280754632Y-132221697D01*
X281230822Y-132221697D01*
X281992727Y-132697888D02*
X281659394Y-132697888D01*
X281659394Y-133221697D02*
X281659394Y-132221697D01*
X282135584Y-132221697D01*
X282659394Y-132221697D02*
X282659394Y-132459793D01*
X282421298Y-132364555D02*
X282659394Y-132459793D01*
X282897489Y-132364555D01*
X282516536Y-132650269D02*
X282659394Y-132459793D01*
X282802251Y-132650269D01*
X283421298Y-132221697D02*
X283421298Y-132459793D01*
X283183203Y-132364555D02*
X283421298Y-132459793D01*
X283659394Y-132364555D01*
X283278441Y-132650269D02*
X283421298Y-132459793D01*
X283564155Y-132650269D01*
X191689966Y-104933536D02*
X191356633Y-104457346D01*
X191118538Y-104933536D02*
X191118538Y-103933536D01*
X191499490Y-103933536D01*
X191594728Y-103981156D01*
X191642347Y-104028775D01*
X191689966Y-104124013D01*
X191689966Y-104266870D01*
X191642347Y-104362108D01*
X191594728Y-104409727D01*
X191499490Y-104457346D01*
X191118538Y-104457346D01*
X192118538Y-104409727D02*
X192451871Y-104409727D01*
X192594728Y-104933536D02*
X192118538Y-104933536D01*
X192118538Y-103933536D01*
X192594728Y-103933536D01*
X193356633Y-104409727D02*
X193023300Y-104409727D01*
X193023300Y-104933536D02*
X193023300Y-103933536D01*
X193499490Y-103933536D01*
X194023300Y-103933536D02*
X194023300Y-104171632D01*
X193785204Y-104076394D02*
X194023300Y-104171632D01*
X194261395Y-104076394D01*
X193880442Y-104362108D02*
X194023300Y-104171632D01*
X194166157Y-104362108D01*
X194785204Y-103933536D02*
X194785204Y-104171632D01*
X194547109Y-104076394D02*
X194785204Y-104171632D01*
X195023300Y-104076394D01*
X194642347Y-104362108D02*
X194785204Y-104171632D01*
X194928061Y-104362108D01*
%TD*%
M02*
